<?xml version="1.0" encoding="UTF-8"?>
<svg id="Layer_1" xmlns="http://www.w3.org/2000/svg" version="1.1" viewBox="0 0 547.5 635.52">
  <!-- Generator: Adobe Illustrator 29.6.1, SVG Export Plug-In . SVG Version: 2.1.1 Build 9)  -->
  <defs>
    <style>
      .st0 {
        fill: #f8c0d0;
      }

      .st1 {
        fill: #030202;
      }

      .st2 {
        fill: #010101;
      }

      .st3 {
        fill: #a8366c;
      }

      .st4 {
        fill: #f6a1b7;
      }

      .st5 {
        fill: #0f0403;
      }

      .st6 {
        fill: #e6e6e6;
      }

      .st7 {
        fill: #fcf4ee;
      }

      .st8 {
        fill: #fcf2eb;
      }

      .st9 {
        fill: #f5bfcd;
      }

      .st10 {
        fill: #f7c1cf;
      }

      .st11 {
        fill: #fbf1ec;
      }

      .st12 {
        fill: #0e0303;
      }

      .st13 {
        fill: #e95384;
      }

      .st14 {
        fill: #0b0302;
      }

      .st15 {
        fill: #0b0403;
      }

      .st16 {
        fill: #e65382;
      }

      .st17 {
        fill: #090403;
      }

      .st18 {
        fill: #fbe6e4;
      }

      .st19 {
        fill: #573249;
      }

      .st20 {
        fill: #f6c5d1;
      }

      .st21 {
        fill: #e75383;
      }

      .st22 {
        fill: #f9c5d4;
      }

      .st23 {
        fill: #fcf4eb;
      }

      .st24 {
        fill: #0a0303;
      }

      .st25 {
        fill: #fcf2ec;
      }

      .st26 {
        fill: #e95986;
      }

      .st27 {
        fill: #0b0303;
      }

      .st28 {
        fill: #fcf1e9;
      }

      .st29 {
        fill: #fec6cf;
      }

      .st30 {
        fill: #ea5486;
      }

      .st31 {
        fill: #f9c1d1;
      }

      .st32 {
        fill: #f27898;
      }

      .st33 {
        fill: #f69fb6;
      }

      .st34 {
        fill: #e65383;
      }

      .st35 {
        fill: #f89fb6;
      }

      .st36 {
        fill: #0c0303;
      }

      .st37 {
        fill: #fcf3eb;
      }
    </style>
  </defs>
  <path class="st1" d="M224.51,130.06c.27.02,1.69,1.02,1.74,0-2.18-1.16-6.87-2.99-6.57-5.96.18-1.82,1.69-2.42,3.27-2.57,10.71-.97,23.96,3.46,33.73,7.68,2.91,1.26,6.17,3.54,9.1,4.44,3.68,1.12,8.47,1.44,12.37,2.33,30.79,6.96,55.47,24.42,70.89,52.07,4.29,7.69,7.11,16.56,11.62,23.95,3.55,5.82,8.05,10.12,12.14,15.32s4.08,8.41-3.47,9.08c1.85,2.19,3.96,4.16,5.98,6.19.71.71,1.66,1.11,2.34,1.91,4.65,5.46-2.36,8.48-7.16,8.13l4.31,10.19c28.47,29.61,55.57,61.49,77.98,96.02,21.06,32.45,50.26,85.68,40.72,125.25-1.15,4.78-2,5.6-1.97,10.76.11,15.61-6.9,34.86-17.04,46.79-2.14,2.52-8.26,9.62-9.67,3.12,1.42-6.64,3.87-13.15,4.46-19.93-3.43,7.08-7.4,14.28-12.75,20.12-1.7,1.85-8.51,8.25-10.8,8.11-1.33-.08-2.58-1.53-2.53-2.86.07-1.91,2.96-7.22,3.76-9.41,1.45-3.97,2.75-8.04,3.95-12.09-2.49,2.68-4.17,5.92-6.58,8.69-2.03,2.33-9.86,9.95-12.85,9.42-1.39-.25-2.33-1.78-2.15-3.12.24-1.85,2.97-7.12,3.8-9.38,4.18-11.39,7.22-22.89,9.51-34.82-9.65-9.69-16.4-21.74-23.12-33.56-6.61-11.63-12.56-24.95-19.58-36.1-.21-.34-.36-.86-.84-.89-.12,10.61-.81,21.3-1.99,31.85-2.15,19.27-5.8,38.84-11.45,57.38-1.95,6.41-3.73,14.78-9.64,18.59-10.49,6.76-46.63,5.94-58,.9-8.76-3.88-6.87-8.18-7.86-16.11-1.03-8.25-2.27-16.83-5.12-24.65-.61-1.68-3.14-7.97-4.32-8.83-1.45-1.06-5.91,0-7.75.05-4.94.11-11.65-.64-16.27-.04-1.99.26-4.44,4.93-5.27,6.72-5.33,11.5-4.68,22.54-6.51,34.48-1.33,8.66-10.71,10.28-18.03,11.35-17.67,2.59-34.17-.46-51.77-.32-7.2-1.57-17.69.47-24.56-.96-2.36-.49-3.04-1.9-2.67-4.25.06-.37,2.73-5.14,3.14-5.75,3.91-5.84,10.97-9.45,16.9-12.87-4-13.61-6.61-27.68-8.41-41.77-2.58-20.18-3.52-40.53-3.72-60.85l-43.57,65.46c-5.88,7.97-12.43,15.42-20.24,21.55,1.49,9.87,3.93,19.74,7.16,29.18,1.03,3,6.02,13.8,5.84,15.85-.34,3.88-4.21,1.92-6.19.74-6.25-3.73-10.29-10.07-14.72-15.63,1.51,7.2,4.8,13.85,7.23,20.74-1.18,5.42-5.58,1.77-8.19-.26-4.82-3.75-9.91-10.31-13.03-15.58-1.79-3.03-3.38-6.23-4.58-9.54-.71-.09-.33.83-.28,1.24.83,6.2,3.3,12.54,4.55,18.69-1.16,6.98-7.9-.59-10.06-3.12-9.16-10.72-16.88-30.7-16.98-44.8-.01-1.31.75-3.52.57-4.89-.17-1.27-1.85-4.43-2.35-6.17-7.99-27.94,14.06-68.59,28.64-91.99,24.26-38.94,58.82-80.46,91.98-112.17.4-.38,1.69-1.12,1.75-1.36.17-.69-5.62-4.9-6.58-5.78-10.2-9.33-16.06-20.02-20.29-33.06-1.44-4.45-1.63-4.66-3.75-8.63-2.54-4.76-4.51-12.87-1.26-17.64,1.38-2.03,4.1-3.58,5.78-5.43,4.57-5.05,5.1-12.17,7.05-18.47,6.64-21.48,18.51-42.59,40.7-50.75-2.2-2.34-8.08-2.15-7.76-6.37.18-2.34,2.44-3.11,4.36-3.79,1.47-.52,6.5-1.82,7.84-1.82,4.9,0,10.24-.29,15.08,0Z"/>
  <g>
    <path class="st33" d="M189.9,165.64c-2.25-.22-3.33-1.51-5.02-2.9,6.75-7.45,14.8-13.48,24.26-17.11,2.68-1.03,7.55-.96,4.94-5.14l-8.71-4.62c8.55-1.94,17.44-1.14,25.98.5,1.96.38,7.25,2.46,8.65,1.46,1-.71,1.17-2.31.57-3.33-1.17-2-7.26-5.73-9.43-7.19-.4-.27-1.21-.78-.07-.71,7.87,1.5,15.52,3.77,22.89,6.89,3.36,1.43,7.82,4.28,11.02,5.22,4.5,1.31,10.32,1.77,15.17,3,29.88,7.54,52.2,25.04,66.29,52.41,3.28,6.36,5.51,13.29,9.16,19.45s8.82,12.04,13.69,17.63c.13.97-.27.46-.79.41-2.2-.21-7.29-2-8.67-.21-1.39,1.8-.2,3.06.95,4.45,3.27,3.95,8.41,7.42,11.99,11.2.04,2.01-9.21-2.21-9.66,2.36-.14,1.44,3.45,7.69,4.32,9.56,1.04,2.24,1.9,5.31,3.09,7.34.88,1.5,4.73,4.86,6.3,6.46,23.5,23.88,45.29,50.32,64.32,77.97,22.87,33.24,52.84,84.24,48.4,125.78-1.17.76-.62.24-.76-.59-1.21-7.58-1.05-14.78-2.83-22.7-11.49-51.13-54.57-109.71-88.04-149.45-7.26-8.62-15.47-19.19-23.78-26.78-1.36-1.24-4.2-2.78-5.18-4.1-1.97-2.66-3.95-8.63-5.51-11.88-2.15-4.47-6.08-10.88-7.21-15.6-.89-3.74,2.96-1.8,5.07-2.49,2.66-.86-3-4.96-3.62-5.65-1.39-1.58-6.88-8.46-7.26-10.03-.1-.42-.1-.85-.08-1.27.36-.36,8.47,1.67,8.07-.9-2.92-4.32-7.05-8.23-9.93-12.51-3.86-5.74-6.3-12.48-9.8-18.42-18.9-32.06-52.7-47.36-89.06-49.75-16.11-1.06-30.67.23-44.77,8.58-1.99,1.18-13.85,9.69-13.79,11.33.03,1.05,2.91.09,3.08.96l-4.25.39Z"/>
    <path class="st29" d="M187.2,169.5c26.11-3.65,34.67,18.47,35.59,40.39.13,2.98.26,6.27-.6,9.1-8.32-8.66-18.11-17.69-29.67-21.76-10.42-3.66-21.04-1.72-22.62,10.84-2.52,20.01,17.83,21.84,29.47,31.81,4.06,3.48,7.18,7.93,9.78,12.56-6,6.07-13.5,9.98-21.56,12.56-5.94.46-11.82-3.08-16.43-6.48.61,1.5.42,2.25-.59,2.22-3.32-4.92-6.35-10.14-8.12-15.85,4.01.25,8.93-.23,11.38-3.9.7-1.05,1.79-3.26.22-4.03-2.36-1.17-1.96,1.09-3.12,2.29-1.88,1.94-6.91,2.54-9.38,1.71-.79-.27-1.61-3.83-1.36-4.68.15-.52,2.07-2.41,2.58-3.25,2.98-4.95,4.83-12.44,1.23-17.52-.29-.66.04-1.41,1-2.23,5-14.47,10.4-29.22,18.56-41.93,1.04-1.77,2.26-2.39,3.65-1.85Z"/>
    <path class="st16" d="M216.97,340.02c-2.4,5.2-5.39,10.14-8.35,15.05-15.54,25.8-33.59,50.28-50.36,75.3-8.96,13.37-17.16,27.3-26.43,40.46-6.34,9.01-13.08,18.16-21.78,25-3.8-7.11-12.29-8.78-16.62-1.16-3.24-4.13-10.46-4.52-13.14.39-1.91-3.46-5.03-7.1-9.3-7.35-1.21-.07-2.13.25-3.27.39-.12-.38.01-.5.39-.39,1.2-.94-.02-3.07.39-4.64,9.58,6.13,20.81,7.17,31.26,2.46,7.83-3.53,14.49-11.57,19.54-18.35,10.9-14.63,20.62-30.72,31.38-45.57,14.3-19.74,29.87-39.8,45.6-58.41,5.07-6,15.04-18.91,20.69-23.19Z"/>
    <path class="st21" d="M395.6,363.99c4.39,9.73,7.79,19.88,11.79,29.77,4.67,11.55,9.79,23.12,14.85,34.33,9.37,20.75,24.69,61.24,53.15,58.42,1.63-.16,4.16-1.39,4.76-1.43.5-.03,1,.64,1.67.7-3.7,1.35-5.61,4.09-7.54,7.34-3.67-4.72-9.69-4.29-13.53,0-3.8-7.1-12.48-5.69-16.24.77-8.01-8.36-13.86-18.71-19.59-28.73-8.86-15.49-16.66-31.61-25.66-47.03-.41-18.09-1.44-36.18-3.65-54.15Z"/>
    <path class="st35" d="M196.86,274.28h3.09c.31.27-.76,1.55-1,1.89-6.28,8.86-16.12,18.42-23.34,26.92-21.84,25.71-43.94,52.45-63.58,79.87-16.34,22.81-34.7,51.74-41.49,79.15-2.06,8.33-2.3,17.06-2.43,25.6-.14.11-.26.25-.39.39-.28.03-.54.63-.96.01-5.29-15.45-.39-32.99,5.31-47.67,20.79-53.59,74.11-115.76,115.31-155.73,2.37-2.3,6.55-5.33,8.53-7.71.69-.83,1.13-1.58.95-2.72Z"/>
    <path class="st13" d="M217.74,350.07c.08,3.57-1.62,7.44-2.83,10.89-7.92,22.61-18.59,44.81-26.95,67.39-1.59,4.3-2.87,9.78-4.71,13.86-.26.57-.99.56-1.08.92-.17.67.03,1.99,0,2.82l-1.18-15.26.19-24.97c12.29-18.25,25.81-36.44,36.56-55.66Z"/>
    <path class="st30" d="M343.02,483.46c-1.32,2.85-4.7,4.32-6.97,6.37-9.44,8.56-14.3,17.37-13.54,30.57.28,4.9,1.63,11.59,5.82,14.48-3.3-.6-10.32-1.6-12.07-4.75-1.05-1.9-.49-3.56-.7-5.49-1.38-12.94-3.17-25.48-8.89-37.31,12.19-.55,24.26-2.33,36.34-3.87Z"/>
    <path class="st34" d="M269.55,485.4c.84,2.83-1.8,5.08-2.99,7.64-5.1,10.98-5.72,24.54-6.86,36.45-.93,3.59-7.16,4.74-10.26,5.4,1.29-2.07,2.34-4.15,2.92-6.55,2.54-10.44,2.24-40.01,15.34-43.08.93-.22,1.47.19,1.84.14Z"/>
    <path class="st28" d="M83.96,498.16c2.38-.69,4.68,4.02,5.38,6.1.81,2.39,1.58,4.77,2.28,7.2,2.14,10.7,5.45,20.87,9.93,30.51.32.94-.03,1.43-.96,1.04-6-6.87-10.72-15.68-13.82-24.26-1.9-5.26-5.27-15.53-2.8-20.59Z"/>
    <path class="st31" d="M470.23,495.84l.08,1.19c-3.04,4.4-5.08,9.36-6.14,14.89-1.97,10.24-5.24,19.83-9.79,28.77-1.38,1.65-2.5,3.57-4.45,4.64-.26.08-.26-.32-.19-.57,1.8-5.69,4.41-11.09,6.07-17.13,1.73-6.29,4.71-26.66,7.46-30.43,1.78-2.45,4.69-4.07,6.96-1.36Z"/>
    <path class="st8" d="M68.11,493.52c1.78-2.01,3.82,2.23,4.55,3.86,1.12,2.5,1.9,5.09,2.27,7.81.99,9.33,2.44,18.72,5.1,27.93,1.06.82,1.37,2.82-.32,2.54-4.86-7.35-8.49-14.95-10.64-23.58-1-4.03-3.39-15.32-.96-18.56Z"/>
    <path class="st22" d="M456.31,495.06l-.17,1.4c-2.9,3.62-4.66,7.95-6.01,12.36-2.23,9.09-5.17,18.02-9.68,26.07-.97,1.12-1.64,2.51-3.08,3.68-.28.22-1.82,1.58-1.55.39.94-4.1,3.85-10.03,5.21-14.51,1.31-4.33,2.39-8.75,3.49-13.14,1.26-5.03,1.79-13.83,5.98-17.22,2.28-1.85,4.51-1.92,5.81.98Z"/>
    <path class="st37" d="M470.23,495.84c3.16,3.78-1.04,16.79-2.7,21.47-3.1,8.72-7.23,16.3-13.15,23.39l.9-3.16c5.36-10.72,6.7-22.94,10.68-34.17,1.05-2.95,2.4-5.05,4.27-7.53Z"/>
    <path class="st23" d="M97.88,496.61c1.35-2.32,3.96,2.58,4.79,4.15,1.52,2.87,2.65,5.92,3.6,9.03,2.23,8.35,4.9,16.61,8.26,24.59.27.94.37,1.64-.8,1.67-2.55-2.99-4.66-5.51-6.73-8.93-4.28-7.04-11.91-22.49-9.12-30.51Z"/>
    <path class="st10" d="M83.96,498.16c2.37-4.84,7.13-.33,8.42,2.99,2.31,11.98,4.6,23.62,8.49,35.2.96,2.85,3.53,7.79,3.98,10.33.04.22.1.64-.2.58-1.43-1.36-2.77-2.77-4.06-4.25.83-.26-.03-1.13-.23-1.51-5.88-11-7.45-25.22-11.75-36.97-.88-2.4-2.41-5.09-4.65-6.37Z"/>
    <path class="st18" d="M164,215.51c-.47-.66-2.13-1.07-1.79-2.33.18-.67,2.53-3.3,3.14-4.63,3.02-6.6,4.39-16.12,7.15-23.4,1.03-2.72,7.97-18.02,9.93-18.69,2.29-.78,3.01,2.49,4.77,3.04-.87.12-2,1-2.55,1.69-2.35,2.95-4.74,7.97-6.47,11.33-5.12,9.91-8.8,20.68-12.47,31.07-.14.41-1.25,1.58-1.7,1.92Z"/>
    <path class="st25" d="M474.87,533.34c-1.1.31-1.04-.57-.88-1.51,2.27-8.46,4.03-17.08,5.26-25.84.91-4.95,2.02-9.77,4.4-14.03.42-.47,1.1-.6,2.05-.37,2.02,2,1.73,5.09,1.56,7.94-.68,11.35-6.31,24.4-12.39,33.82Z"/>
    <path class="st9" d="M97.88,496.61c1.15-3.29,4.42-2.89,6.58-.59,3.66,3.9,4.73,14.72,6.13,20.17,2.2,8.54,4.98,17.03,8.55,25.08-.39.63-.85-.13-1.16-.39-1.8-1.52-2.84-3.18-4.25-4.84.57-.66-.29-2.4-.57-3.11-1.29-3.33-2.71-6.68-3.86-10.06-2.71-7.95-4.52-19.32-9.9-25.58-.34-.4-.92-1.41-1.53-.69Z"/>
    <path class="st7" d="M440.45,534.89c-.79-.36-.17-1.2.05-1.69,1.43-3.26,3.38-6.66,4.55-9.83,3.48-9.48,4.34-20.48,11.25-28.3,2.57,5.72-2.67,18.66-5.35,24.23-2.91,6.04-6.17,10.62-10.5,15.6Z"/>
    <path class="st0" d="M485.69,491.58c-.28,1.09-1.08.37-1.12.42-.85.91-2.58,5.53-2.95,6.92-2.74,10.26-3.15,20.3-6.34,31.16-.24.82-.91,2.52-.41,3.26-1.17,1.81-2.12,4.08-3.86,5.41,1.86-8.37,3.89-16.81,4.97-25.38.77-6.07.07-17.77,5.27-21.79,2.01-1.56,2.79-1.63,4.45,0Z"/>
    <path class="st20" d="M68.11,493.52c2.12-2.83,5.44.23,6.89,2.19,3.67,4.95,2.58,11.82,3.16,17.72.95,9.52,3.52,18.84,5.79,28.04-1.99-1.43-2.95-3.84-4.25-5.8,1.08-1.2-.31-2.05-.36-2.22-1.58-5.69-2.89-11.48-3.84-17.35-1.13-6.92-.79-15.43-5.21-21.06-.66-.84-.42-2.33-2.18-1.51Z"/>
    <path class="st19" d="M158.93,232.87c-1.68.98-3.46-5.15-3.73-6.42-1.01-4.75.15-7.89,4.3-10.51,4.24,3.09,3.34,9.14,1.49,13.39-.2.45-1.88,3.44-2.06,3.55Z"/>
    <path class="st26" d="M196.48,273.51c-3.24-3.43-7.7,4.53-9.41,4.19-1.33-.27-6.07-5.33-7.59-6.32.36-.61.83-.46,1.34-.59,1.72-.43,4.28-1.04,6-1.15.05,0,.32.38.9.35,3.98-.25,7.99-.7,11.99-.68.37.16.59.23.47.73-.29,1.22-2.87,2.41-3.7,3.47Z"/>
    <path class="st10" d="M193.77,529.86c1.51,2.22,3.56,4.25,5.41,6.18l-25.91-.77c.64-1.41,2.11-1.98,3.09-2.7,6.12-.83,11.92-1.73,17.4-2.71Z"/>
    <path class="st4" d="M187.58,265c-3.83,1.23-7.61,2.57-11.72,2.66-2.01-2.13-3.67-4.51-5.29-6.91.66-.54-.74-2.45,0-3.09.62-.54,3.2,1.94,3.98,2.4,4.02,2.37,8.42,4.1,13.03,4.95Z"/>
    <path class="st11" d="M193.77,529.86c.23,1.13-.56.7-1.23.88-3.5.94-10.25,1.81-14.06,2.21-.62.07-1.73.23-2.12-.39,3.5-2.58,7.79-4.8,12.07-5.91,4.99-1.29,3.13-.03,5.33,3.2Z"/>
    <path class="st6" d="M189.91,522.51c-.07.07-1.38.01-1.95.18-1.98.56-3.8,1.59-5.78,2.14,1.12-1.1,5.52-4.12,6.84-4.19,1.02-.06,1.09,1.68.89,1.87Z"/>
    <g>
      <path class="st32" d="M189.9,165.64c.46-1.49.66-2.1,1.72-3.47,1.51-1.95,6.28-5.36,8.48-6.87,13.1-8.99,25.3-12.16,41.46-12.01,39.29.36,78.68,16.24,98.57,51.79,4.66,9.7,9.25,18.96,16.85,26.73,5.73,6.11-1.63,5.66-5.74,4.92-1.1.14,8.67,12.54,10.18,12.88,3.64,4.35-.94,4.34-4.25,4.25-1.01.32,1.16,5.23,1.61,6.21,3.67,7.17,7.12,14.39,10.36,21.66,5.87,5.01,11.41,10.32,16.85,16.54,25.12,28.75,49.99,60.53,69.7,93.37,17.16,28.61,32.93,60.8,33.52,94.49l.35.36c-.36,3.41-1.08,6.74-1.94,10.05-1.99-.98-3.8-.58-5.8-.77-1.95.19-3.94.67-5.97,1.44-25.64,2.11-39.48-26.26-48.62-46.02-11.51-24.91-22.87-50.95-31.64-77.21-2.75-22.35-7.24-44.91-13.26-66.59-.46-1.66-1.99-7.88-2.8-8.8-1.1-1.24-3.47-1.02-3.97.65-.35,1.19.19,2.84.42,4.06,1.58,8.32,4.42,17.04,6.27,25.44,14.24,64.71,17.72,137.14-2.41,200.97-1.1,3.49-2.59,9.32-5.33,11.68-8,6.89-36.03,5.35-46.2,3.49-3.95-1.11-5.39-6.28-6.05-9.94-3.39-18.63,6.3-31.6,20.75-41.48,3.82.32,5.12-4.87.98-4.96-4.07-.09-10.71,1.44-15.09,1.86-12.69,1.22-25.54,2.33-38.26,2.73-4.04.13-16.32-.79-19.04.68-.69.37-1.61,1.56-2.05,1.63-.03.33-.16.72-.43.73-8.63.4-11.18,12.57-12.59,19.57-1.1,7.64-2.24,15.25-3.42,22.82-.48,2.85-1.7,4.97-3.67,6.36-9.99,2.12-24.78,2.22-34.99,1.16-5.64-.59-9.91-1.16-13.72-5.61-10.75-12.57-15.15-47.26-16.98-63.83-.71-6.39-1.78-14.34-1.59-20.64l-.13-2.59c3.27-9.6,6.8-19.73,10.78-29.63,9.39-21.17,17.69-42.39,24.92-63.67.97-1.73,4.4-7.51,4.25-9.05-.1-1.04-1.18-2.33-2.21-2.49s-2,.87-2.81,1.48c-30.68,35.24-61.6,73.97-87.59,114.29-4.18,6.23-8.62,12.36-13.17,18.12-12.16,15.43-28.7,22.24-46.93,12.04.49,2.11.09,3.19-1.18,3.25-.19-.31-.37-.62-.5-.96-.91-2.36.23-13.05.65-16.29,3.16-24.32,18.06-50.44,31.39-70.84,27.65-42.32,62.41-82.07,95.48-119.69l3.59-4.74c-.99.04-1.61-.27-1.86-.91,0-.04-.36-.74-.39-.77-.26-.25-.35-.54-.24-.88l3.06-2.52-11.77.65c-.79-.06-.95-.3-.73-1.11,12.89-4.54,24.89-11.48,31.77-23.71,12.11-21.5,12.42-71.27-16.7-79.33-4.66-1.29-7.58-.55-11.98-.97Z"/>
      <g>
        <path class="st36" d="M332.57,345.04c1.1.74.09,9.29-.4,11-3.36,11.64-11.07,5.39-14.09-2.5-.38-.99-1.78-3.88,0-3.88,1.16,0,3.78,5.49,4.84,6.77,3.77,4.59,5.27,3.01,6.68-2.2.53-1.97.78-7.34,1.51-8.55.34-.56.97-.99,1.47-.65Z"/>
        <path class="st24" d="M318.66,299.03c2.17-.58,2.18,2.01,2.31,3.68.99,12.59-6.58,19.96-14.23,6.49-.52-.92-2.74-4.4-.65-4.38,1.66.01,6.48,9.53,9.37,8.24,2.71-1.21,2.8-11.28,3.2-14.03Z"/>
        <path class="st17" d="M311.31,253.21c.27-.94,1.5-.75,2.03.29,1.26,2.49,1,10.22-.08,12.87-3.26,7.97-10.08,1.75-12.93-2.95-.8-1.32-2.47-4.66.55-3.25,1.59.74,4.41,6.77,7.54,6.81,1.61.02,2.9-4.07,2.9-5.26,0-1.83-.37-7.23,0-8.51Z"/>
        <path class="st27" d="M346.88,293.42c.23-.81,1.33-.79,1.9.04,1.09,1.6,1.39,7.5,1.02,9.45-.71,3.77-3.76,5.51-7.14,3.24-1-.67-6.76-6.58-4.08-7.13,1.3-.27,5.55,6.27,7.55,4.86.13-.09.75-1.45.75-1.57,0-1.9-.38-7.57,0-8.89Z"/>
        <path class="st12" d="M330.98,261.47c1.02-.64.31-8.63.43-10.2.13-1.63.95-1.2,1.73-.18,1.76,2.32,2.08,10.41-.2,12.53-3.44,3.2-9.26-2.33-10.01-5.74.43-.74.82-.69,1.55-.46,1.55.49,4.5,5.3,6.51,4.04Z"/>
        <path class="st14" d="M350.75,340.4c2.48-.83,2.59,2.16,2.7,4.07.41,6.88-3.38,14.47-9.59,6.89-.62-.75-3.63-5.72-1.04-5.15,1.16.25,5.05,7.54,6.95,4.23.17-.3.99-3.74.99-4.04v-5.99Z"/>
        <path class="st12" d="M321.95,387.58c2.55-.82,1.5,5.9,1.24,7.04-1.26,5.6-5.34,8.49-9.04,2.68-.6-.94-2.84-5.11-.71-5.1,1.66,0,3.23,6.34,5.61,4.86,1.64-1.03,2.04-9.2,2.9-9.48Z"/>
        <path class="st15" d="M349.04,398.25c-.94,1.33-2.96,1.62-4.38,1.01-2.19-.94-6.28-7.69-3.39-7.05.87.19,4.21,5.42,5.59,4.23.24-.21,1.02-4.15,1.13-4.86.24-1.43-.52-3.82,1.4-4.4,1.99,2.58,1.47,8.48-.35,11.07Z"/>
        <path class="st5" d="M316.34,427.79c1.66-1.62,4.18,5.42,5.95,5,1.62-.38,2.6-8.48,4.29-8.09,2.06.48.44,12.67-6.01,10.65-1.91-.6-5.12-6.69-4.23-7.56Z"/>
      </g>
    </g>
    <g>
      <path class="st3" d="M219.15,220.68c.83.98,2.35,2.7,2.48,3.92.24,2.26-1.69,9.04-2.55,11.41-.67,1.87-5.9,13.15-7.34,13.15-5.11-8.14-11.78-13.82-20.04-18.62-6.52-3.79-14.97-6.13-17.57-14.13-2.9-8.9.97-18.85,11.68-17.48,10.34,1.32,26.68,13.85,33.34,21.76Z"/>
      <path class="st2" d="M179.22,218.06c-3.22-2.34-2.63-10.56,1.51-11.92,2.43-.79,4.32-.32,5.7,1.82,3.44,5.35-.78,14.78-7.21,10.09Z"/>
    </g>
  </g>
</svg>