<?xml version="1.0" encoding="UTF-8"?>
<svg id="Layer_1" xmlns="http://www.w3.org/2000/svg" xmlns:xlink="http://www.w3.org/1999/xlink" version="1.1" viewBox="0 0 547.5 635.52">
  <!-- Generator: Adobe Illustrator 29.6.1, SVG Export Plug-In . SVG Version: 2.1.1 Build 9)  -->
  <defs>
    <style>
      .st0 {
        fill: #e46398;
      }

      .st1 {
        fill: #dbba98;
      }

      .st2 {
        fill: #010101;
      }

      .st3 {
        fill: #020200;
      }

      .st4 {
        fill: #f891b6;
      }

      .st5 {
        fill: #faefcd;
      }

      .st6 {
        fill: #fac1d9;
      }

      .st7 {
        fill: #d7bda3;
      }

      .st8 {
        fill: #f9eecf;
      }

      .st9 {
        fill: #e5c59f;
      }

      .st10 {
        fill: #fae5e8;
      }

      .st11 {
        fill: #dbbb9a;
      }

      .st12 {
        fill: #e0be9d;
      }

      .st13 {
        fill: #f98fb6;
      }

      .st14 {
        fill: #e5619a;
      }

      .st15 {
        fill: #fbefcf;
      }

      .st16 {
        fill: #e46097;
      }

      .st17 {
        fill: #56133e;
      }

      .st18 {
        fill: #fbc6d3;
      }

      .st19 {
        fill: #d8b897;
      }

      .st20 {
        fill: url(#linear-gradient);
      }

      .st21 {
        fill: #f9efcc;
      }

      .st22 {
        fill: #fbc8d3;
      }

      .st23 {
        fill: #c287a8;
      }

      .st24 {
        fill: #58143f;
      }

      .st25 {
        fill: #050202;
      }

      .st26 {
        fill: #e96297;
      }

      .st27 {
        fill: #f38cb4;
      }

      .st28 {
        fill: #fabfd8;
      }

      .st29 {
        fill: #b3406a;
      }

      .st30 {
        fill: #bf4070;
      }

      .st31 {
        fill: #e6649a;
      }

      .st32 {
        fill: #020101;
      }

      .st33 {
        fill: #c44073;
      }

      .st34 {
        fill: #dcbb99;
      }

      .st35 {
        fill: #f8c2da;
      }

      .st36 {
        fill: #f67570;
      }

      .st37 {
        fill: #e46495;
      }

      .st38 {
        fill: #f7eed2;
      }

      .st39 {
        fill: #fbefc9;
      }

      .st40 {
        fill: #e46499;
      }

      .st41 {
        fill: #79325f;
      }

      .st42 {
        fill: #070404;
      }

      .st43 {
        fill: #fafaf8;
      }

      .st44 {
        fill: #fac2d9;
      }

      .st45 {
        fill: #f9eecc;
      }

      .st46 {
        fill: #040202;
      }

      .st47 {
        fill: #fac0d8;
      }

      .st48 {
        fill: #0a0205;
      }

      .st49 {
        fill: #fac7dd;
      }

      .st50 {
        fill: #f88eb7;
      }

      .st51 {
        fill: #f296b8;
      }

      .st52 {
        fill: #e1c4a3;
      }

      .st53 {
        fill: #fafafa;
      }

      .st54 {
        fill: #ea699e;
      }

      .st55 {
        fill: #fa91b8;
      }

      .st56 {
        fill: #dfc29e;
      }

      .st57 {
        fill: #dfbc98;
      }

      .st58 {
        fill: #f9c3db;
      }

      .st59 {
        fill: #874262;
      }

      .st60 {
        fill: #e46098;
      }

      .st61 {
        fill: #0d0505;
      }

      .st62 {
        fill: #fbeecb;
      }

      .st63 {
        fill: #ae718d;
      }

      .st64 {
        fill: #fabfd7;
      }

      .st65 {
        fill: #fbfbfb;
      }

      .st66 {
        fill: #dc5a8d;
      }

      .st67 {
        fill: #f890b4;
      }

      .st68 {
        fill: #fbedcd;
      }

      .st69 {
        fill: #060203;
      }

      .st70 {
        fill: #d7c3a9;
      }

      .st71 {
        fill: #fceec8;
      }

      .st72 {
        fill: #dfc09c;
      }

      .st73 {
        fill: #dbb792;
      }

      .st74 {
        fill: #894365;
      }

      .st75 {
        fill: #fbecc6;
      }

      .st76 {
        fill: #e5649a;
      }

      .st77 {
        fill: #dbbd97;
      }

      .st78 {
        fill: #f6c1d8;
      }
    </style>
    <linearGradient id="linear-gradient" x1="-4736.6" y1="2916.57" x2="-4765.99" y2="2942.56" gradientTransform="translate(-4389.68 -2791.22) rotate(-180) scale(1 -1)" gradientUnits="userSpaceOnUse">
      <stop offset="0" stop-color="#f491b9"/>
      <stop offset=".42" stop-color="#f48eb4"/>
      <stop offset=".46" stop-color="#f783ad"/>
      <stop offset=".52" stop-color="#d65486"/>
      <stop offset="1" stop-color="#da5e8d"/>
    </linearGradient>
  </defs>
  <path class="st32" d="M169.95,193.31c-1.62,7.21-3.24,14.49-3.85,21.88-1.05,12.69-.11,28.99,5.7,40.51.95,1.88,2.47,4.89,4.54,5.61.8.28,2.58.02,2.35.78-1.11,3.71-3.62,8.94-5.29,12.57-6.34,13.71-14.95,27.34-23.82,39.55-10.63,14.62-23.35,28.04-30.22,45.06-.54.62-2-.37-2.96-.55-12.87-2.43-19.96,6.9-16.85,19.07-3.15,1.13-5.63,4.16-6.46,7.37-2.43,9.34,6.5,17.53,14.45,20.58,1.03.39,5.39,1.38,5.61,1.56.34.29.82,2.8.61,3.4-2.81,3.75-5.35,7.71-8.25,11.39-.9,1.15-5.72,7.28-6.53,7.49-2.45.62-11.17-5.94-14.11-7.12-20.8-8.33-41.39,21.73-43.71,39.25-.16,1.22.23,2.97-.23,3.97-.34.75-7.08,7.24-8.22,8.24-1.74,1.53-9.02,6.34-9.54,7.61-1.15,2.79.96,4.12,3.45,4.42,4.01.48,8.14-1.05,12.04-1.71l-1.98,1.69c-2.31,2.08-11.15,5.17-8.8,9.27,1.8,3.13,12.89,1.25,16.03.25-1.21,1.79-3.99,2.51-3.88,5.07.23,5.35,11.77,2.33,14.91,1.24,4.4-1.54,9.33-4.4,12.78-7.53.91-.83,3.73-4.34,4.2-4.55.78-.35,3.99-.38,5.32-.63,1.16-.21,2.48-.78,3.6-1.18,35.62,28.75,77.21,4.03,103.7-23.86,14.36,1.44,28.99,1.61,43.18-1.28,3.15-.64,10.33-3.37,12.77-3.37,20.78-.01,45.59,12.67,58.63,28.57,7.15,8.72,11.48,23.16,21.94,27.77,17.54,7.74,42.35-15.74,52.43-28.35,4.05-5.06,8.28-10.76,10.09-17.04,4.03-1.17,8.11-2.61,12.34-2.89,2.51-.17,9.48.79,10.89-1.01,2.58-3.28-4.76-7.77-7.2-8.96,5.56.09,5.6-3.33,1.92-6.47-7.09-6.03-20.65-6.18-29.23-4.04-1.25.31-3.44,1.49-4.4,1.58-1.42.13-4.01-.73-5.69-.4-13.12-28.03-42.75-41.99-72.18-46.16l6.32-27.65c.77,0,1.47.33,2.25.36,21.85.87,46.46-1.36,67.56-7.05,8.97-2.42,21.2-6.3,28.37-12.24.55-.45,1.7-2.06,1.83-2.1.59-.16,5.1-.31,6.22-.36,7.08-.28,15.22.69,22.09.03,5.99-.57,2.79-5.25-.22-7.51-5.1-3.82-11.58-5.98-17.67-7.55-.58-.15-1.03.36-.85-.71,5,.22,10.25-.3,15.22,0,3.94.24,8.92,1.74,12.63,1.76,2.96.02,3.93-2.36,2.74-4.88s-4-3.6-5.91-5.29c-.2-.17-.68-.46-.36-.7,10.42-4.98,22.93-10.13,30.47-19.25,1.08-1.3,3.32-5.81,3.88-6.27,1.1-.9,6.93-2.75,8.62-3.28,2.5-.79,14.62-3.44,15.57-4.56,3.93-4.62-7.62-6.95-10.33-7.15l-8.12-.8c7.34-2.66,15.1-3.7,22.75-5.08,1.89-.69,2.2-2.53,1.49-4.29-1.41-3.48-13.88-6.53-17.59-6.05.45-1.06,1.87-.58,2.82-.85,4.23-1.21,3.45-4.66-.02-6.32-5.4-2.59-15.22-2.66-21.09-1.83-1.67.23-7.26,2-8.1,1.92-1.07-.11-4.32-1.61-6.11-1.91-12.87-2.19-29.69,5.67-42.17,9.44-20.38,6.16-41.24,10.89-62.59,12.16,2.08-2.05,4.81-3.45,7.17-5.26,30.55-23.42,37.04-53.53,28.78-90.39-1.85-8.24-4.65-16.28-8.2-23.92,10.52-8,14.82-21.04,9.66-33.56-6.5-15.77-25.27-20.17-39.41-11.5-1.12.69-4.32,3.65-5.16,3.58-.5-.04-5.74-3.46-6.85-4.05-9.49-5.03-20.07-9.16-30.82-10.32,1.42-2.2,7.9-4.78,8.59-6.98,2.08-6.64-12.16-5.66-15.72-5.22-6.18.75-12.08,2.71-17.73,5.2-.81-.84,5.46-8.82-.27-9.73-6.15-.97-19.76,9.21-24.25,13.4-1.71,1.6-4.63,5.42-6.18,6.42-2.79,1.82-9.9,3.65-13.55,5.36-11.16,5.22-21.46,12.66-30.21,21.27-17.3-12.06-42.12-9.91-50.46,11.5-7.59,19.47,4.39,40.14,24.78,43.51Z"/>
  <g>
    <g>
      <path class="st18" d="M286.54,392.52c.24-.76.2-1.33-.1-1.7-25.53-3.37-50.59-13.21-72.75-26.89-1.16-.61-2.84,1.43-3.52,2.29-.66.84-1.86,2.98-2.06,3.89l-1.39,1.22c-3.03,4.79-5.68,9.8-8.12,14.85-2.83,5.86-5.83,12.35-7.07,18.68-3.06,8.98-5.18,18.61-4.88,28.16.27,8.58,6.06,12.73,13.84,14.57,20.73,4.92,44.11,2.08,62.94-7.46,1.21-.94,2.72-1.75,3.85-2.8.31-.18.63-.15.96.04,3.31-3.44,5.99-7.49,8.14-11.75-.38-.25-.53-.55-.35-.9,4.44-9.83,7.89-21.73,10.5-32.21Z"/>
      <path class="st76" d="M194.11,345.95c3.6,1.74,7.45,3.05,11.22,4.36,49.1,17.12,105.21,25.75,156.42,12.91,7.69-1.93,18.42-5.1,25.16-9.16,3.69-2.22,1.87-1.66.31-3.93-1.14-1.66-1.88-3.9-1.6-5.93-13.48,6.52-28.81,10.05-43.64,12.2-34.48,5.01-69.56,3.11-103.83-2.5-14.46-2.37-29.59-6.56-44.04-7.95Z"/>
      <path class="st50" d="M443.04,269.63c-.83.08-1.2.65-1.12,1.72-4.94-1.06-10.58.69-15.44,2.24-23.25,9.04-48.41,13.71-73.06,14.95-.16-.07-.31-.11-.45-.08-.59.13-4.8,9.87-5.05,10.99-.31,1.03.48,1.36,2.35,1,2.55.12,4.45-.5,6.83-.7,9.6-.8,19.51-1.29,28.88,1.4,7.4,1.25,14.93,2.43,22.42,3.1,9.04.81,18.82,1.13,26.52-3.92,1.63-.49,3.33-1.35.78-1.99-9.98-1.05-10.9-15.24-.71-17.69,5.13-1.24,11.54-1.22,16.82-1.56.18-1-.25-.57-.77-.79-3.82-1.56-8.86-3.64-7.98-8.66Z"/>
      <path class="st27" d="M217.57,358.91l-1.31-.11-3.84,4.31c-.53-.66-1.03-.77-1.5-.34.4,1.29-.94,1.12-1.23,1.74-.28.59-.05,1.35-.26,1.85-.91,2.19-2.45,2.95-3.41,4.82.61.43,1.31.08,2.1-1.05,1.62-1.07,3.33-5.97,5.34-5.55,19.86,12.34,41.89,21.33,64.94,25.77,2.34.45,5.05.36,7.39,1.02.9.25.85.12.75,1.16,1.35-5.41,3.27-12.07,4.06-17.5.05-.38.24-.6-.2-.9-12.39-.97-24.69-2.69-36.84-5.17-11.88-2.43-24.63-5.84-35.99-10.05Z"/>
      <path class="st14" d="M435.68,298.34l1.05.7c-2.2.23-4.15,2.05-6.11,2.82-3.01,1.18-7.3,1.89-10.52,2.08-11.3.67-22.84-2.51-34.13-2.8,2.14.61,4.6,1.69,6.61,2.67,1.45.7,5.53,3.71,6.25,3.9,2.75.71,7.51.38,10.68.87,6.78,1.05,19.87,4.93,21.63,12.34.1.42-.26.64.52.53,1.6-.23,6.54-2.79,8.24-3.67,3.86-2.01,17.76-10.82,18.21-15.09.05-.45-1.5-1.29-2.06-2.13-2.37-3.62-.02-6.82,1.34-10.27-.66-.51-5.43,3-6.42,3.56-4.72,2.67-9.66,5.08-15.29,4.49Z"/>
      <path class="st28" d="M222.82,296.59c-1.11-.12-.79.29-.1.62,28.14,13.5,65.55,18.92,96.55,16.88,15.15-.99,30.91-4.69,45.85-5.26,7.64-.29,17.41.67,23.47,5.61.12-.66.28-1.12.52-1.75.17-.43.14-.99.54-1.38l2.26-2.12c-17.75-8.46-38.19-3.16-56.89-1.41-38.22,3.59-75.7.68-112.21-11.2Z"/>
      <path class="st51" d="M206.01,371.16c-1.21,2.37-2.8,4.44-3.99,6.69-.77,1.46-.67,3.18-2.19,4.48-.28.24-1.01.26-1.12.44-.14.23-.17,2.28-.51,3.17-1.04,2.72-2.94,6.13-4.05,8.97-.79,2.02-2.82,6.22-3.15,8.02-.14.74.38,1.4.25,1.95-.11.46-.95.93-1.19,1.63-.64,1.84-.68,4.54-1.23,6.47-2.2,7.77-3.73,14.4-2.69,22.69.42,3.35,2.39,5.41,3.41,8.48-1.02,1.45-2.39-1.21-3.64-.85-1.33.37.21,2.54.7,3.15,1.73-.13,5.44-1,6.96-.71.8.16,1.07.88,1.68,1.12.39.16,4.53.97,3.75,2.02-.62.84-3.48-.01-4.2,0-1.45.04-.7.99-1.05,2.1-.77,2.43-3.24,5.25-4.9,7.18l.58.81c21.98,2.25,45.1-.6,64.3-11.92,3.49-2.06,6.54-4.47,9.7-6.93-1.2-.74-2.51.74-3.55,1.18-16.75,7.16-38.03,10.06-55.99,6.36-7.62-1.57-15.75-4.45-16.45-13.3-1.23-15.5,5.66-36.05,12.48-49.86,2.44-4.94,5.58-9.55,8.18-14.4-.56.37-1.55.47-2.1,1.05Z"/>
      <path class="st64" d="M173.8,286.08c-11.02,21.07-25.02,36.64-38.31,55.7-13.14,18.86-20.49,40.4-17.01,63.69l4.9-5.95c-.35-1-.68-2.26-.72-3.32-1.32-41.82,35.28-70.25,50.1-106.42l1.03-3.7Z"/>
      <path class="st60" d="M353.41,288.19c-4.32.46-8.79.74-13.13,1.05-3.21.23-8.53-.22-11.46.45-1.95.44-6.4,3.02-8.68,3.93-1.51.6-5.24,1.35-6.28,2.12-1.26.93-2.65,6.39-4.21,7.69-.34.84,2.25.55,2.64.53,5.57-.29,11.17-.94,16.79-1.07l21.19-2.45c-.58-.03-1.17.02-1.75,0l.06-.81,4.84-11.09c.31-.1.3-.22,0-.35Z"/>
      <path class="st6" d="M353.41,288.19v.35c.36.65,1.26.31,1.82.25,2.41-.25,4.45-.1,6.77-.24,16.83-.97,34.11-4.46,50.23-9.29,7.13-2.14,14.8-5.7,22.05-7.01,2.62-.48,5.98-1.14,8.41.19-.03-1.15-.16-1.79.35-2.8.22-.42,1.8-1.54,1.06-1.93-.17-.09-3.01-.49-3.39-.5-11.53-.15-28.19,7.33-39.61,10.73-15.31,4.55-31.78,8.57-47.69,10.25Z"/>
      <path class="st67" d="M104.83,376.06c.25,1.16,1.61,4.28,1.04,5.04-1.04,1.36-6.02.27-7.34,4.77-.81,4.43,8.22,6.63,10.44,3.14,1.89-4.31,3.55-8.74,4.97-13.29.68-3.34,1.86-6.55,2.8-9.8-.92-.66-3.83-.41-5.06-.09-4.71,1.21-6.92,5.68-6.84,10.25Z"/>
      <path class="st37" d="M98.53,385.87c-2.35,8.03,7.44,13.91,14,15.75-.77-8.59-.31-17.44,1.4-25.91-2.41,3.06-2.91,7-4.39,10.49-.77,1.8-1.25,3.49-3.51,3.84-2.09.32-7.75-1.39-7.51-4.18Z"/>
      <path class="st75" d="M393.67,330.55c10.42-1.55,22.38-.03,33.07,2.33.84.09,1.52.07,1.24-.93-7.97-4.68-20.99-8.81-30.29-7.71-2.72.32-4.52,3.7-4.02,6.31Z"/>
      <path class="st73" d="M427.98,331.95c-.5.53-1.93.09-2.58-.05-10.07-2.13-21.17-3.6-31.38-2.04l-.35.69c.14.73,1.49,2.19,2.12,2.61,2.3,1.51,4.98.25,7.5.18,9.65-.27,19.43-.18,28.9,1.76.13-.78-1.08-1.28-1.64-1.69-.88-.64-1.71-.96-2.56-1.46Z"/>
      <path class="st71" d="M431.83,288.54c-.32,1.19-.11,2.12.63,2.77,7.72-.28,15.01-3.05,22.08-5.93.56.26,1.04.26,1.44,0,.11-.09.57-.09.87-.34.9-.74,1.73-1.7,2.63-2.46-6.96.05-14.28.29-21.13,1.45-3.4.58-5.48.76-6.53,4.5Z"/>
      <path class="st71" d="M389.82,344.55l.24.73c10,.48,20.05,1.48,30.15,2.99.22-.27.23-.58.07-.91-6.98-4.03-17.62-7.71-25.74-7.71-1.95,0-4.24,3.12-4.72,4.91Z"/>
      <path class="st19" d="M389.82,344.55c-.07.27-.46.3-.3,1.12,1.16,5.86,9.01,3.51,13.07,3.41,6.95-.16,13.92.05,20.85.36-.69-1.09-2.13-1.51-3.15-2.1-.29.63-1.15.15-1.63.06-7.14-1.35-14.33-2.39-21.65-2.16l-7.18-.7Z"/>
      <path class="st54" d="M193.41,347.7c.14.65.94,1.46,1.39,1.93,4.27,4.55,10.87,9.72,16.12,13.12.42.27.98.92,1.3,1.01,1.37.38,3.65-4.68,5.36-4.86-5.95-2.2-19.37-7.65-24.16-11.2Z"/>
      <path class="st57" d="M455.99,285.38l-1.08-.91c-7.37,2.99-15.02,6.01-23.08,6.16v-2.1c-1.03,3.68,2.59,6.39,6.08,6.28,5.52-.18,13.86-6.05,18.08-9.43Z"/>
      <path class="st15" d="M395.07,316.54l1.4.42c8.37-1.56,16.93-.95,25.14.97.83.04,1.17-.29.78-1.04-7.13-3.8-18.41-6.04-26.4-4.86-4.82.71-3.01,2.15-.91,4.51Z"/>
      <path class="st11" d="M395.07,316.54c.6.68,1.94,2.44,2.61,2.82,1.43.83,6.76-.55,8.78-.71s4.22.16,6.3-.39l13.13,1.08c-.74-1.09-2.33-1.82-3.5-2.45-.33.66-1.18.22-1.7.13-3.49-.64-6.78-1.36-10.37-1.54-4.94-.25-10.46-.03-15.24,1.06Z"/>
      <path class="st5" d="M450.39,273.83l.94.19c6.59-4.19,15.75-6.55,23.57-6.49.37-.1,1.14.3,1.05-.35-8.17-2.37-18.77-1.45-26.6,1.93-4.95,2.14-2.3,3.19,1.04,4.72Z"/>
      <path class="st45" d="M487.15,277.33c-9.2-3.13-20.91-2.83-29.76,1.23,2.25.25,5.35-.07,6.3,2.62.11.25.33.57.51.5,6.55-2.27,12.53-4.05,19.69-3.25,1.63.2,2.71-.17,3.26-1.1Z"/>
      <path class="st72" d="M463.69,281.18c-.05.08.03.94-.17,1.39-.57,1.29-1.88,2.26-1.76,3.51,8.62-4.41,18.52-6.74,28.19-7.35-.5-.81-1.92-1.1-2.8-1.4-3.03.81-6.49.12-9.62.35-2.92.22-8.27,1.29-11.04,2.26-.38.13-2.71,1.11-2.79,1.23Z"/>
      <path class="st12" d="M479.1,291.69c-.3.33,1.47.74,1.4.7-1.1-.71-5.73-.77-7.17-.59-4.7.6-9.86,1.98-13.83,4.09-.47,1.94-.65,3.34,1.89,3.5,7.04-2.94,14.37-5.24,21.92-6.47l.34-.53c-1.51-.35-3.02-.5-4.55-.7Z"/>
      <path class="st77" d="M450.39,273.83c1.15.53,2.5,1.59,3.94,1.34,1.07-.18,4.74-2.33,6.22-2.91,4.7-1.86,9.48-3.38,14.35-4.73-1.32.3-2.07-.72-3.32-.74-3.6-.06-16.4,3.77-19.56,5.69-.61.37-.98,1.03-1.63,1.35Z"/>
      <path class="st78" d="M104.83,376.06c1.02-1.52.83-3.4,1.69-5.14s2.88-3.73,4.81-4.3c1.92-.57,3.61-.07,5.41-.72.09-.31.44-1.27.35-1.39-5.05-2.05-10.95-.99-12.5,4.82-.71,2.64-.31,4.15.25,6.72Z"/>
      <path class="st8" d="M479.1,291.69c-2.27-.3-4.55-.5-6.83-.73l-11.11,1.08c-.57.26-1.48,3.09-1.67,3.85-.07,1.27.21.45.74.22,3.88-1.68,8.99-3.04,13.19-3.62,2.54-.35,4.5-.53,7.07-.11l-1.4-.7Z"/>
      <g>
        <path class="st13" d="M333.45,490.2c1.55-1.07,2.86-3.36,4.19-4.74,5.64-5.83,11.54-11.45,18.21-16.1-3.89-3.39-3.23-9.52.54-12.77,2.04-1.76,4.58-1.89,6.47-3.51-5.11-.22-10.18,1.74-14.59,4.14-2.73,1.49-4.98,3.55-7.51,5.1-.44.27-.77.68-1.36.56,2.03-4.53,7.5-9.68,11.9-11.9.05-.3.09-.61.08-.91-.1-2.47-5.84-9.63-7.77-11.86-7.86-9.1-18.78-17.1-29.68-21.81l-.09-.78c-.27-.15-.54-.29-.82-.38-2.89-.94-14.21,2.75-17.45,4.21-9.23,4.16-18.02,12.88-21.89,22.18-2.47,5.93-2.07,9.92,4.22,12.85,16.23,6.88,28.65,19.34,37.23,34.57,4.71,7.53,12.72,7.02,18.32,1.14Z"/>
        <path class="st0" d="M318.4,415.28c-9.57-4.48-20.12-6.69-30.59-8.01-1.68,3.06-2.87,6.38-4.59,9.42-1.03,1.81-4.69,7.6-6.23,8.48-.65.37-1.09.58-.96-.43-1.76,3.89-5.65,9.73-8.75,12.6,1.08-.13.72.29.43.95-3.32,7.66-11.35,11.27-17.36,15.9-.4.31-.83.37-.23.83,24.45,3.97,46.04,17,59.32,38.01,3.44,5.44,7.47,15.87,14.04,17.82.9.27.44-2.21.55-2.93.36-2.28,1.49-4.87,2.51-6.94,1.9-3.83,4.59-7.21,6.9-10.78-1.55,1.07-6.5,3.57-8.26,3.82-7.62,1.07-11.55-9.21-15.26-14.43-5.79-8.16-12.85-15.02-21.34-20.32-3.44-2.15-11.59-5.51-13.94-7.76-3.84-3.68-.26-10.15,1.94-13.78,8.7-14.36,20.76-20.43,37.26-22.09.46,1.01,4.16.63,4.55-.35Z"/>
        <path class="st40" d="M194.81,448.89c.6-2.36-2.82-1.91-4.37-1.75-8.99.92-17.8,13.92-24.68,19.78-27.44,23.39-67.77,22.05-94.19-2.1-1.11-1.01-3.39-4.26-4.74-4.4-1.86-.2-2.35,3.87-3.82,4.93-1.49,1.07-3.04.73-4.49,1.05-.3.07-.24.94-.94.69-.03.93-.51,1.84-.35,2.8,3.94-.18,7.54,3.45,7.97,7.28.09.77-.27,2.34-.12,2.54s3.4.73,4.52,1.45c.87.55,2.4,2.7,2.58,2.75.69.18,3.18.04,3.87-.27.36-.16.56.04.45-.62-.06-.36-3.54-4.98-4.14-6.02-1.24-2.14-4.53-8.58-4.63-10.78-.03-.71.38-.73.87-.51.59.26,4.56,6.08,5.45,7.15,8.42,10.13,17.9,18.01,31.08,21.09,28.94,6.77,52.9-12.7,72.73-30.69,3.75-3.4,10.37-11.03,14.85-12.81.65-.26,1.24-.46,1.07.55.63-.18.98-.88,1.05-2.1Z"/>
        <path class="st16" d="M346.88,481.57c-4.95,4.68-19.77,21.4-19.02,28.03.29,2.57,2.12,2.16,4.28,1.87,13.05-1.76,30.41-18.52,38.22-28.66,2.6-3.38,5.11-6.92,6.86-10.82-2.73.69-4.66-2.75-5.96-3.34-1.01-.45-5.62,2.49-7.32,2.83-1.91.39-3.03-.27-4.38-.18-1.21.07-11.08,8.76-12.67,10.26Z"/>
        <path class="st28" d="M318.4,415.28c-1.19-.09-3.25.22-4.55.35-.07.26-1.68.36-1.05,1.05.14.15,3.08,1.16,3.86,1.57,5.73,3.06,11.22,6.6,16.26,10.7,7.38,6,14.3,13.4,18.39,22.05,1.27-.64,3.45-1.1,4.81-1.67.39-.16.56.09.39-.54-.46-1.69-4.5-7.62-5.75-9.31-6.21-8.4-15.4-16.02-24.65-20.87-1.87-.98-5.77-3.17-7.71-3.32Z"/>
        <path class="st9" d="M385.62,458.34c-9.55-1-19.07,1.41-27.48,5.9l-.53,1.1c.64,1.17.44,1.19,1.86,1.81,3.95,1.74,6.86-1.22,10.4-2.68,6.46-2.65,12.95-3.87,19.94-4.04-.28-.55-1.41-1.09-1.97-1.35-.77-.37-1.51-.48-2.23-.74Z"/>
        <path class="st39" d="M357.61,465.34c4.5-2.6,10.84-4.96,16.01-5.87,3.93-.69,8.07-.44,12-1.13-6.89-2.56-14.4-2.92-21.58-1.1-3.39.86-6.87,2.16-7.11,6.22-.08,1.27.28,1.14.68,1.88Z"/>
        <path class="st26" d="M82.07,427.53c-.15,4.29,1.56,8.4,4.21,11.72.52.65,2.66,2.38,2.79,2.64l6.65-7.53c-1.8-.93-3.69-1.6-5.48-2.57-3.09-1.66-4.65-3.05-8.17-4.26Z"/>
        <path class="st62" d="M37.26,490.55c-.58.52-.25.93.49.97,6.44.32,18.7-9.79,21.97-15.18l-.04-1.19c-1.12-1.15-3.8-1.59-5.25-.88-.32.16-3.64,4.64-4.37,5.43-3.8,4.13-8.38,7.4-12.78,10.85Z"/>
        <path class="st68" d="M32.01,479.7c-.93.54-.28.98.88.87,4.77-.46,14.92-8.73,18.4-12.3.62-.64,1.42-2.36,1.03-3.27-.93-1.45-2.46-2.31-4.2-1.57-.79.34-5.81,6.8-7,8.05-2.82,2.98-5.95,5.61-9.11,8.22Z"/>
        <path class="st52" d="M37.26,490.55c-.92.09-3.19,1.67-3.85,2.45,7.67-.46,15.28-3.25,21.47-7.76,3-2.19,8.61-6.19,4.79-10.09-4.64,7.17-13.38,14.13-21.89,15.7-.23.04-.47-.3-.52-.29Z"/>
        <path class="st34" d="M65.27,483.9l-1.33.72c-3.3,4.73-7.6,8.74-12.6,11.61-3.05.83-3.97,2.91-.08,2.38,2.96-.75,6.38-2.21,8.99-3.79,2.74-1.67,13.54-9.98,5.02-10.91Z"/>
        <path class="st56" d="M52.31,464.99l-1.56,2.82c-5.17,4.9-11.63,10.28-18.55,12.23-.23.06-.17-.35-.19-.34-1,.3-2.73,1.65-3.5,2.45,7.03-.63,15.5-4.08,20.84-8.74,2.74-2.39,5.34-4.71,2.97-8.41Z"/>
        <path class="st21" d="M65.27,483.9c-4.15-.46-2.96.18-5.07,2.45-4.17,4.48-8.36,8.29-13.23,11.99-.6.45-1.84.61-1.13,1.32,1.8-.43,3.63-.6,5.42-1.06l-2.1-.35c.39-1.17,1.72-.95,2.58-1.44,5.48-3.15,10.09-7.62,13.53-12.91Z"/>
        <path class="st38" d="M394.72,451.69c-6.79-2.61-13.38-2.77-20.46-1.03l-3.7,1.37c3.25.11,6.96.13,10.15.7,4.43-.28,8.94-.4,13.51-.35l.5-.7Z"/>
        <path class="st1" d="M394.72,451.69h-9.27c-1.08.47-2.46.16-3.44.36-.23.05-.36,1.1-1.29.69,2.05.37,5.77,2.18,7.52,2.12,1.24-.04,3.05-.93,4.57-1.06,1.86-.17,3.89.11,5.77,0-.88-1.43-2.57-1.6-3.85-2.1Z"/>
        <path class="st7" d="M388.77,464.99c.08-.61-.79-.33-1.22-.35-1.49-.07-12.42,1.04-12.43,2.27,2.54,3.14,6.63-.11,9.72-1.13,1.22-.4,2.65-.69,3.93-.8Z"/>
        <path class="st70" d="M394.37,459.74c.88,1.7.58,2.85-.7,4.19,2.92-.23,5.84-.71,8.75,0-.53-1.26-7.69-4.49-8.05-4.19Z"/>
      </g>
      <path class="st29" d="M415.38,322.15l6.91,2.73,3.94-1.33c-.46-.85-2.36-.92-3.33-1.04-2.35-.29-5.14-.28-7.52-.35Z"/>
      <g>
        <path class="st55" d="M177.3,279.08c-1.1,2.35-2.3,4.71-3.5,7-1.48,3.78-3.34,7.74-5.37,11.48-7.3,13.41-15.64,25.81-24.35,38.34-13.02,20.07-21.94,35.68-22.11,60.33,0,1.03.22,3.3,1.42,3.29l1.75-1.05c.77,1.04-3.36,8.95-4.14,10.39-4.47,8.2-21.42,31.98-30.43,34-2.22.5-1.2-.41-1.49-.97l.25-.43c-3.51-3.47-6.49-7.72-6.56-13.08l-.69-.84c-6.37-2.19-11.18-1.01-16.46,3.32-8.36,6.86-15.81,18.36-18.2,28.89,4.5-2.2,10.27,3.01,10.15,7.35.08,1.04.91.74,1.3-.06,3.99.11,5.65-1.58,7.1-5.34.49-.83,1.16-.74,2.01.26,21.44,23.35,57.38,29.19,85.52,14.16,10.42-5.57,17.36-12.95,25.15-21.26,4.18-3.86,7.74-6.86,13.58-7.16,1.38-.07,1.79.19,2.59,1.19.77,1.67,6.02,1.62,4.64-1.08-.19-.38-6.88-3.3-7.81-2.76l-4.74.62c-1.4-2.03-1.07-2.25.98-.66,1.86.81,2.86-.55,1.87-2.31-3.96-6.09-3.6-12.9-2.59-19.94.84-5.8,2.31-12.4,4.35-17.79.1-1.31.24-2.29.67-3.52,1.96-5.64,4.48-11.47,7.01-16.91-.1-.92.16-1.41.77-1.47,2.04-3.49,4.09-7.03,6.12-10.65.2-.36.07-.84-.06-1.25,2.47-1.65,3.9-3.77,4.29-6.35,1.17-.58,1.71-1,.61-2.05l-.5-1.17c-6.11-4.04-11.7-8.98-17.01-13.89-3.15-2.34-1.97-2.01.7-1.75,5.18,1.28,10.42,2.3,15.72,3.07,46.38,10.37,95.42,15.27,142.6,6.34,10.53-1.99,21.67-4.99,31.39-9.54.35-.16.65-.42.95-.7s.58-.59.84-.92c.43-3.14,4.23-7.38,7.35-8.06-5.03-4.77-4.23-11.08,1.39-14.88-2.56-2.11-5.72-4.9-5.24-8.58-.52-.04-.86,0-.92.48-9.62-6.19-21.56-5.47-32.68-4.32-21.12,3.19-41.33,5.88-62.8,4.52-25.16-1.6-46.98-7.12-70.13-16.52-.02,0,.09-.12.23-.27-3.04-.99-6.2-2.08-9.19-3.24-1.05-.41-6.6-2.49-2.59-2.33,3.01.12,7.32,1.1,10.38,1.72.11-.25.26-.64.1-.76-2.73-2.16-6.93-4-10.2-5.15-11.09-3.1-22.24-5.87-33.44-8.33l-.57.58Z"/>
        <path class="st35" d="M134.34,366.31c-1.72-.43-4.69,3.74-3.28,5.41,1.68,1.22,5.91-4.74,3.28-5.41Z"/>
        <path class="st49" d="M141,348.52c-.64.54-2.43,3.88-1.86,4.44,2.09.48,4.9-2.47,4.56-4.36-.26-1.45-1.9-.75-2.7-.07Z"/>
      </g>
    </g>
    <g>
      <path class="st4" d="M300.19,120.13l.3-.76c.3-1.87-15.23-3.1-17.02-3.21-3.95.21-2.99-2.12-1.9-4.61l1.71-3.43c-.06-.92-.3-1.04-1.14-1.2-2.07-.39-8.65,3.05-10.77,4.17-3.91,2.57-7.92,4.76-12.04,6.55-.5-.32-.18-8.24.24-9.49.13-.84.03-1.82-.94-1.96-1.73-.27-11.94,9.67-13.74,12.4-1.52,1.46-3.41,2.38-5.67,2.76-7.92,1.7-15.68,3.88-23.03,7.54-.79.13-6.14,4.1-7.17,4.91-1.22.95-9.22,7.83-9.22,8.57,2.84,2.96,5.39,6.59,6.24,10.67-.34.04-.72-.04-1.05,0-11.68-10.26-33.21-19.04-47.5-7.67-2.24,1.78-5.42,4.52-5.72,7.32.12.24.3.59.51.57,1.69-.15,4.47-1.63,5.79-2.67l1.08-.04c13.07-9.38,33.67,2.7,36.39,17.1-2.22-1.38-12.31-6.3-14.04-3.39-.52.87.22,1.86.79,2.53,2.27,2.08,4.47,4.22,6.59,6.4l-4.71,1.37c-1.53.49-5.01,1.72-3.69,3.83.51.81,4.95,2.69,5.41,1.26l.4.7c1.15.2,4.71.32,5.2-.7-.14.51.03,1.09.53,1.75-1.26,1.42-2.26,3.12-3.01,5.11-.89,1.24-1.53,2.45-1.9,3.65-.75.54-3.28,1.79-4.2,2.1-.25.29-.49.58-.69.9-1.49,2.42-2.11,10.87-2.33,14.19-2.95,43.54,24.73,74.71,65.43,85.48,18.62,4.92,40.18,5.95,58.72.97,23.44-9.22,45.18-17.69,59.17-40.26,5.34-10.24,7.74-21.67,7.38-33.54,0-.3-.12-.61-.24-.92s-.3-.62-.48-.91l-.83,1.76c-6.66,76.08-134.49,92.67-161.91,22.87-14.41-36.68-.75-94.25,43.81-100.67,11.95-1.72,22.47.77,33.96,3.56,6.54,1.24,9.8-.45,15.31-3.45,13.23-5.9,28.58-5.34,40.4,3.48l1.61.33c.31-.03.72-.18.71-.43-.04-1.85-8.07-8.64-9.94-10.19-4.03-3.34-7.92-5.92-12.32-8.67-1.54-.97-11.78-5.78-12.96-5.79-.42,0-.62.02-.85.56-.55.16-1.3.98-2.09,1.23-.85.27-4.61.87-5.43.87h-7.53c-.08-.79-.08-.92.59-1.33,1.11-.67,6.17-1.77,7.81-2.17Z"/>
      <path class="st31" d="M182.9,192.25c-2.18.73-4.83.94-7.13,1.1-.32.06-.41.27-.51.55-.87,2.42-1.57,6.82-2.06,9.49-2.55,13.76-3.74,40.12,4.38,52.13.23.34.93,1.55,1.46,1.16.48-.35,2.02-7.22,3.85-5.95.3.21,1.21,6,1.5,7.08,2,7.27,5.31,10.68,8.84,16.72.27.46.7.69.51,1.41-5.1-1.13-8.28-5.85-11.2-9.8-1.48,4.42-3.28,8.74-5.26,12.95l26.76,6.32c4.16,1.41,8.59,2.14,12.46,4.35l4.89,2.98c25.2,5.09,48.71,10.64,74.73,11.22,1.45.03,6.85.3,7.56-.52.31-.35,3.03-6.25,2.78-6.5-3-.02-6.65,1.3-9.45.17,1.97-1.6,4.64-2.4,7-3.33-2.88.27-5.75.98-8.62,1.36-45.52,5.95-98.41-11.41-112-59.47-4.01-14.2-3.93-29.11-.52-43.42Z"/>
      <path class="st66" d="M151.74,152.69c-2.12.1-2.99,4.22-2.8,6.12,0,.05-.08-.9-.35-.87-2.44,17.83,10.74,29.94,27.84,31.16,3.23.23,6.6-.26,9.74-.21,1.35.02,1.41.17.93,1.27,1.93-1.39,4.17-6.47,4.9-8.75l-.96-.3c-3.59,2.28-16.08.81-12.13-5.51l-.21-.85.4-.85c-3.98-10.64-9.03-23.03-23.27-18.24.34-.7.26-1.22-.24-1.56,1.13-.72,2.75-2.11,2.45-3.5l-6.3,2.1Z"/>
      <path class="st44" d="M363.21,253.52c12.46-20.11,12.36-42.72,6.9-65.19-8.11-33.4-30.44-62.13-64.32-71.7,1.18,1.54,1.87,2.97,1.05,4.9.9-.25,11.94,4.98,13.55,5.88,6.94,3.88,15.78,11.13,21.11,17.03.47.52.81.81.69,1.6l.69,1.45c18.71,17.07,26.5,44.49,26.34,69.23l.63,1.45c.2,8.52-.59,17.3-3.06,25.47-.86,2.84-2.37,5.66-3.48,8.43-.16.39-.76,1.21-.11,1.46Z"/>
      <path class="st44" d="M216.16,128.88c3.88-.65,8.43-3.01,12.68-4.3,3.5-1.06,13.41-2.7,15.56-4.57,1.87-1.63,3.73-4.46,5.72-6.36,2.57-2.46,5.5-4.56,8.24-6.82,1.09-.47.17,2.85.16,3.31-.07,1.81-.28,5.8.02,7.37.34,1.82,2.71.17,3.81-.39,6.63-3.39,12.76-8.53,20.35-9.58.4.35-5.48,8.43-1.2,9.08,5.06.77,10.24.68,15.28,1.87,1.46.35,2.53.36,3.43,1.65.31-.08,3.25.02,2.8-.87-.19-.37-3.67-2.68-4.31-3.04-2.15-1.19-5.23-2.35-7.64-2.86-1.52-.33-4.17-.27-5.32-.63-2.25-.7,1.87-4.38,2.57-5.03,2.51-2.34,5.48-4.19,8.42-5.95.44-.27.89.07.69-.87-8.73-.02-17.44,1.9-25.28,5.7-1.23.59-7.55,4.5-8.1,4.4-2.11-.38-.12-6.3.32-7.64.6-1.85,1.53-3.61,2.33-5.37.13-.28.6-.74.11-.94-6.6,3.3-12.85,7.51-18.22,12.59-1.84,1.75-5.12,6.14-6.84,7.16-1.58.93-5.03,1.67-6.97,2.48-6.43,2.69-12.84,5.59-18.56,9.62Z"/>
      <path class="st20" d="M338,126.78c2.7,2.2,5.3,4.65,7.88,7,3.44-3.99,8.61-6.44,13.96-5.9,2.71.27,6.99,1.73,7.22,4.86-.5.12-.98-.36-1.4-.35-5.37-1.61-12.7,6.05-10.5,11.2,1.3,2.48,3.33,4.57,4.84,6.89.82,1.27,4.58,8.56,5,8.84,1.08.75,5.75-5.66,6.33-6.75,3.53-6.57,3.72-14.31.29-20.89-7.49-11.14-21.07-9.94-32.75-5.88l-.86.98Z"/>
      <path class="st47" d="M148.59,157.94l.35.87c-.22-2.55,1.56-4.26,2.8-6.12,12.31-18.48,33.8-12.63,49.48-2.04.96.65,2.21,2.1,3.07,2.59.46.27.6-.19.67-.2-9.56-10.64-24.26-20.22-39.21-15.93-9.55,2.74-15.83,11.19-17.15,20.83Z"/>
      <path class="st58" d="M371.61,131.69c-5.25-10.09-15.95-14.02-26.69-10.06-2.92,1.08-5.31,2.93-7.97,4.47-.07.55.72.43,1.05.69,6.13-1.78,12.92-3.83,19.39-3.11,2.49.28,8.17,2.55,10.1,4.16,1.22,1.02,2.32,3.42,4.12,3.86Z"/>
      <path class="st30" d="M355.16,143.59c-.31-5.73,4.8-10.99,10.5-11.2-3.7-2.17-9.5-1.89-13.2.28-1.16.68-4.23,2.83-3.43,4.26l6.13,6.66Z"/>
      <path class="st25" d="M158.05,150.59c-.81.78-2.02,2.46-2.45,3.5.36.73,1.04.75,2.05.06,9.93-7.06,23.13-2.38,30.18,6.57-10.54-2.26-13.97,3.99-5.66,10.94-1.31.6-2.5,1.35-3.57,2.27l.11.81c-4.07,4.68,1.53,7.58,5.82,8.01,2.62.26,5.18-.09,7.48-1.36.1-.32.7-.8.69-.88,0-.12-1.09-.87-1.22-.87h-5.6c-.78,0-5.32-1.02-5.06-2.24.42-1.99,8.46-3.32,8.74-3.72.07-.1.02-.61-.05-.81-.39-1.15-4.65-4.34-5.73-5.48-2.43-2.56-2.78-3.53,1.41-3.15,4.39.39,7.48,3.26,11.38,4.55-.32-6.33-6.08-13.12-11.03-16.8-7.29-5.41-20.26-8.35-27.48-1.41Z"/>
      <path class="st33" d="M155.6,154.09c-1.61,3.91.91,1.71,3.36,1.44,6.6-.74,11.04,1.62,14.55,7.08l5.19,12.14c1.22-1.4,3.11-1.86,4.54-2.98-1.97-2.08-6.78-6.03-4.55-9.11,1.76-2.44,7.92-1.68,10.51-.87.48-.46-3.36-4.28-3.84-4.73-6.82-6.26-16.37-9.18-25.21-5.24-1.62.72-2.8,2.13-4.56,2.27Z"/>
      <g>
        <path class="st69" d="M369.86,218.16c1.41-23.19-8.74-57.46-27.66-72.12-12.53-9.71-27.25-10.67-41.66-4.72-5.71,2.36-7.25,4.93-14.07,3.91-6.83-1.02-13.35-3.39-20.42-4.09-52.86-5.23-74.2,52.48-61.62,95.93,22.48,77.67,160.51,61.87,165.43-18.91Z"/>
        <path class="st63" d="M364.26,218.16c.25.19,2.3,2.67,2.8,2.1.51-9.6-.12-19.34-2.2-28.78-.61-2.76-2.13-9.39-3.45-11.6-1.04-1.74-4.54-3.65-6.25-4.78-.71.17.06,1.02.23,1.34,6.69,12.55,9.25,27.57,8.87,41.72Z"/>
        <path class="st10" d="M327.5,141.49c-2.01.22,1.75,1.27,1.94,1.38,8.58,5.06,18.44,16.87,22.8,25.89.26.55.69.76.12,1.44,1.22.58,3.46,2.06,4.67,2.86.39.26,2.46,2.49,1.92.53-.48-1.72-2.96-6.17-3.95-7.95-6.25-11.23-14.85-20.44-27.49-24.15Z"/>
        <g>
          <path class="st74" d="M210.22,245.47c5.73-6.88,12.12-12.82,19.84-17.44,10.58-6.33,23.93-8.19,33.69-14.63,17.56-11.59,9.21-36.4-11-37.95-16.45-1.26-37.46,12.66-47.42,25.04-.93,1.16-1.59,1.95-1.76,3.49-.5,4.38-.35,10.27,0,14.7.74,9.22,3.11,18.29,6.65,26.79Z"/>
          <g>
            <circle class="st2" cx="250.27" cy="196.05" r="16.48"/>
            <path class="st53" d="M241.72,184.9c18.03-7.38,27.4,19.4,8.42,24.35l-4.92.15c13.92,5,24.96-11.7,15.39-22.92-4.52-5.3-13.75-6.57-18.9-1.59Z"/>
            <circle class="st65" cx="243.21" cy="192.11" r="3.64"/>
          </g>
        </g>
        <g>
          <path class="st59" d="M355.16,175.1c-5.69-3.74-10.43-6.2-17.64-5.56-17.16,1.52-20.99,21.97-9.5,32.85,9.14,8.65,24.89,7.17,36.24,15.77.19-.3.36-.6.49-.92s.24-.62.25-.93c.16-14.06-2.68-29.57-9.84-41.22Z"/>
          <g>
            <circle class="st3" cx="340.41" cy="188.46" r="14.89"/>
            <path class="st53" d="M334.5,177.2l4.69.03c15.18,2.51,12.99,24.65-2.59,23.07-.03.52,1.26.62,1.62.65,5.03.54,9.59-1.09,12.32-5.45,6.94-11.05-4.29-23.89-16.04-18.31Z"/>
            <circle class="st43" cx="334.01" cy="184.97" r="3.37"/>
          </g>
        </g>
        <g>
          <path class="st22" d="M327.5,141.49c-14.68-4.31-20.65.7-33.27,5.41-5.3,1.98-7.71.8-13.01-.27-11.37-2.31-19.22-4.64-31.16-2.58-26.78,4.62-41.88,28.48-45.8,53.8.58.13.71-.19,1.04-.53,10.49-10.8,22.47-20.51,37.75-23.52,31.07-6.12,45.91,29.99,17.81,44.07-6.08,3.04-12.86,4.56-19.13,7.13-10.32,4.23-21.09,11.11-28.01,19.96-.7.89-2.31,2.62-1.97,3.67,20.29,37.12,68.36,43.31,105.43,30.46,24.73-8.57,46.17-28.44,49.45-55.46-3-3.11-7.04-6.05-10.99-7.87-11.14-5.13-23.7-3.71-31.78-14.78-14.83-20.34,5.59-41.63,28.5-30.78.3.06.65.11.86-.08.92-.8-4.81-9.25-5.77-10.58-4.95-6.83-12.05-15.31-20.18-17.69l.23-.37Z"/>
          <path class="st42" d="M303.69,271.03c-4.39,1.29-7.73,2.08-12.32,1.3-1.37-.24-2.67-.82-3.87-1.04-.29-.05-.98-.31-.95.27.06,1.11,4.38,3.28,5.52,3.57,3.68.95,10.22-.1,11.62-4.1Z"/>
          <path class="st61" d="M309.99,194.35c.87-.72-3.17-1.86-3.49-1.94-3.49-.82-6.21-.6-9.56.62-.61.22-4.07,1.89-4.1,2.2-.06.73.98.24,1.23.19,5.38-.9,10.35-2.12,15.91-1.07Z"/>
          <g>
            <path d="M267.28,223.42c1.16-.23,2.38-.61,3.14-1.58-3.54-3.22-10.16,1.57-10.31,5.73-.11,3.07,3.27-1.27,4.19-2.05.19,0,2.36,2.62,2.45,2.8.42.94.7,5.73,1.04,7.36,3.38,16.17,15.22,33.83,34.16,29.58,14.07-3.15,15.65-15.63,20.03-26.88.42-1.08,1.65-4.44,2.21-5.15.7-.9,4.52-2.55,6.1-4.4,1.7-1.99,3.81-6.07,1.58-8.21-3.02,8.59-13.38,10.98-21.45,12.15-13.99,2.03-32.38.66-43.14-9.35Z"/>
            <path class="st36" d="M276.03,247.23c4.96,11.64,18.07,18.94,30.12,12.43,1.65-.89,3.9-2.02,2.6-4.01-2.54-3.89-9.5-7.58-14.07-7.98-1.93-.17.28,1.4.76,2.04.78,1.06,2.25,3.08,2.32,4.34.03.55.05.61-.54.54-.84-.11-4.68-3.74-5.94-4.56-4.67-3.05-9.77-4.23-15.24-2.79Z"/>
          </g>
          <g>
            <path class="st46" d="M306.55,197.24c-6.82-.16-21.68,2.74-23.08,11.03-1.9,11.2,13.49,18.31,22.8,17.55,8.61-.7,19.58-9.97,17.99-19.3-1.2-7.04-11.81-9.14-17.71-9.28Z"/>
            <path class="st17" d="M317.35,210.81c-.47-.15-.76.1-.85.76-2.87.57-3.97,2.69-4.83,5.25-.07-1.35-.39-2.3-.98-2.85l-8.25,1.07-1.56-.72c1.32,2.27,1.06,4.83,1.05,7.35,1.02-.15,1.99.39,2.97.38,2.51-.02,5.4-1.01,7.49-2.34,3.8-2.41,9.31-7.84,7.73-12.75.35,1.18-.93,2.97-1.78,3.66-.32.26-.97.15-1.02.19Z"/>
            <path class="st24" d="M289.34,206.26c-.23.19-1.09.41-1.39.96-3.61,6.75,6.76,13.65,12.59,14.09.31-2.12-1.54-6.43-3.75-6.93-1.08-.24-2.88.44-3.27.13-.53-.41-.22-1.41-.33-1.61-.04-.06-.76-.16-1.24-.68-1.54-1.69-3.27-3.44-2.62-5.97Z"/>
            <g>
              <path class="st41" d="M289.34,206.26c-1.37,1.04-.73,2.48-.07,3.74.54,1.04,2.86,4.22,3.92,2.91,2.29-2.69,6.12-1.32,7.7,1.4.51.77,1.09,1.23,1.74,1.39l7.65-.98.41-.76.75-.11c1.2-2.46,3.25-3.98,5.9-3.04,1.3,2.19,3.5-2.05,2.8-3.85-1.81-5.64-12.82-5.97-17.67-5.6s-9.52,1.9-13.13,4.9Z"/>
              <path class="st23" d="M315.24,203.81c-.63-.93-9.48-1.84-11.02-1.75s-10.4,1.83-9.98,3.66c.07.32.94.71,1.31.8,3.31.85,15.7.37,18.65-1.14.53-.27,1.54-.84,1.05-1.57Z"/>
            </g>
            <path class="st48" d="M310.69,213.96c-.15.77-.04,4.14,1.22,3.85.4-.09,1.13-3.81,2.86-4.85.64-.38,1.81-.5,2.24-.93s.29-1.18.34-1.22c-1.86-2.93-6.24,1.02-6.65,3.15Z"/>
          </g>
        </g>
      </g>
    </g>
  </g>
</svg>