<?xml version="1.0" encoding="UTF-8"?>
<svg xmlns="http://www.w3.org/2000/svg" version="1.1" viewBox="0 0 547.5 635.52">
  <!-- Generator: Adobe Illustrator 29.6.1, SVG Export Plug-In . SVG Version: 2.1.1 Build 9)  -->
  <defs>
    <style>
      .st0 {
        fill: #b0adae;
      }

      .st1 {
        fill: #48343a;
      }

      .st2 {
        fill: #825262;
      }

      .st3 {
        fill: #db5683;
      }

      .st4 {
        fill: #d75885;
      }

      .st5 {
        fill: #d1d1d2;
      }

      .st6 {
        fill: #d2d2d2;
      }

      .st7 {
        fill: #1c1c1d;
      }

      .st8 {
        fill: #767676;
      }

      .st9 {
        fill: #6e2c42;
      }

      .st10 {
        fill: #7c7d7d;
      }

      .st11 {
        fill: #ef729e;
      }

      .st12 {
        fill: #d3d3d2;
      }

      .st13 {
        fill: #b7b7b7;
      }

      .st14 {
        fill: #d95789;
      }

      .st15 {
        fill: #d4d5d4;
      }

      .st16 {
        fill: #534d50;
      }

      .st17 {
        fill: #643e4c;
      }

      .st18 {
        fill: #080808;
      }

      .st19 {
        fill: #dc5584;
      }

      .st20 {
        fill: #787a7b;
      }

      .st21 {
        fill: #6e7070;
      }

      .st22 {
        fill: #080809;
      }

      .st23 {
        fill: #d5d5d5;
      }

      .st24 {
        fill: #232525;
      }

      .st25 {
        fill: #626161;
      }

      .st26 {
        fill: #73344a;
      }

      .st27 {
        fill: #d25381;
      }

      .st28 {
        fill: #ef739f;
      }

      .st29 {
        fill: #f2729f;
      }

      .st30 {
        fill: #de5684;
      }

      .st31 {
        fill: #f2729d;
      }

      .st32 {
        fill: #d85484;
      }

      .st33 {
        fill: #737372;
      }

      .st34 {
        fill: #797a79;
      }

      .st35 {
        fill: #db5281;
      }

      .st36 {
        fill: #787878;
      }

      .st37 {
        fill: #712942;
      }

      .st38 {
        fill: #d3d3d3;
      }

      .st39 {
        fill: #d1d1d1;
      }

      .st40 {
        fill: #492e38;
      }

      .st41 {
        fill: #543c44;
      }

      .st42 {
        fill: #4b3c42;
      }
    </style>
  </defs>
  <g id="Layer_1">
    <g>
      <path class="st17" d="M91.84,389.96c-.35-3.52,4.38-9.12,4.52-11.41.13-1.97-3.51-3.82-1.6-6.22,17.79-31.86,40.22-61.09,58.94-92.24,6.91-11.49,23.66-38.45,13.77-51.06-.92-1.17-3.07-.81-4.2-1.94-1.68-1.68-2.81-10.61-3.02-13.55-.42-5.84,1.35-19.32.13-23.53-.38-1.32-3.36-.54-4.27-1.81-1.83-2.52.36-13.22,1-16.86s5.55-19.41,5.42-20.46c-.14-1.12-2.88-1.33-3.24-1.92-1.81-2.92,10.17-28.17,12.61-32.47,3.73-6.58,8.35-12.89,13.22-18.65,1.31-1.55,8.24-7.71,8.21-8.3-.06-1.24-5.51-.92-2.96-5.34.9-1.56,21.26-12.69,24.6-14.35,3.33-1.66,20.84-8.16,21.42-9.17.45-.78-.69-2.83-.06-3.62,3.32-4.16,26-1.17,31.95-2.35,2.65-.53,3.2-2.94,5.97-3.48.39-.08,7.58-.2,7.97-.12,1.32.28.8,3.18,3.78,3.69,2.91.5,7.9-1.38,11.8-1.33,3.47.04,25.7,2.4,26.56,3.63.51.73-1.71,3.93-1.18,4.66.42.58,11.19,3.92,13.4,4.94,5.57,2.57,29.21,14.07,32.05,17.52.69.84,1.27,2.06-.06,2.39l-4.08,1.75c5.52,5.49,10.67,11.54,15.12,17.93,5.41,7.77,16.3,26.55,17.64,35.49.73,4.84-1.11,7.6-.87,11.37.48,7.48,8.54,24.96,5.68,33.05-.57,1.61-3.07,1.5-3.38,2.73-1.35,5.2-.19,19.86-1.17,26.9-.53,3.8-1.56,7.51-2.36,11.24l-3.52-1.2c.17,3.62-2.92,8.67-3.31,11.49-1.16,8.51,14.79,39.67,20.03,47.92,2.82,4.43,20.02,24.29,19.92,26.17-.03.53-2.45.67-2.48,1.2-.1,1.8,16.81,23.88,19.43,27.83,5.98,9.01,10.98,18.69,17.5,27.35,2.63,5.43-1.65,4.33-1.47,4.98l27.57,58.72c1.27,3.86-1.49,7.76.76,11.54.61,2.28-2.42,3.12-3.54,1.18-3.28-1.15-3.33-3.6,0-4.72-1.7-3.5-2.09-7.04-1.18-10.62-1.08,3.48-4.11-1.93-5.31-4.29-8.23-19.26-17.06-37.91-26.51-55.93.09-1.14.59-2.05,1.5-2.74-10.64-18.09-21.9-36.72-36.3-51.78-1.15-2.11-1.99-5.76-.02-7.05-13.04-15.7-23.76-34.01-30.66-52.74-3.37,11.34-10.34,3.6-7.62-5.13,3.69-10.25,5.57-20.74,7.39-31.52,1.82-1.52,4.13-2.94,6.94-4.26.67-11.27.97-22.48.9-33.62,1.21-7.34.26-14.99-2.84-22.94-4.21-6.73-4.82-12.71-1.81-17.96-6.61-21.24-21.18-37.74-35.58-53.72l.5-2.99c-10.96-5.84-22-11.67-33.86-15.46-6.68-.02-10.15-2.4-10.44-7.12-10.44.47-20.75.18-30.92-.85-1.69-2.74-4.71-2.46-9.07.84l-24.58.23-.12,4.08c-15.03,4.39-30.5,9.95-43.36,19.12,1.43,1.54,1.44,3.42.57,5.22-17.42,11.88-28.65,30.98-36.42,50.38,4.35,3.01,4.37,7.39.06,13.16-.27,5.64-1.81,9.47-4.61,11.49l-.83,11.59c-3.62,2.71-2.66,4.69.83,7.29.8,2.12.99,4.71.57,7.8.97.15,1.74.33,1.79.63.61,3.67.81,15.55-2.36,16.95,2.59.83,3.89,3.55,3.91,8.16,3.1-.33,4.06.01,5.43,2.73.53,1.06,4.09,20.92,4.27,23.22l-1.81,3.07c6.9,3.97,5.87,21.21-2.77,12.98-15.26,28.22-32.57,55.32-51.94,81.3-5.68,8.93-10.94,18.16-14.88,27.99l-3.58,2.85c1.89,1.81-7.92,22.67-8.86,21.67-.36-.38-.5-.96-.58-1.6Z"/>
      <path class="st9" d="M165.01,283.72l.88,3.65c-21.69,35.03-40.56,71.89-54.4,110.56-.91,2.66-.36,5.66,1.66,8.99-5.57,18.17-7.74,36.72-6.51,55.65,4.24,2.13,8.83,8.76,4.09,12.37,6.26,33.87,20.3,69.46,49.49,89.9-.14-3.46,1.26-8.04,4.79-4.91,2.95,2.71,3.48,14.57-2.36,11.8-1.53-.98-4.49-1.29-6.98-3.06-5.07-3.6-9.26-7.97-13.84-12.1-12.37,4.88-24.46,10.54-37.28,14.29-20.22,5.91-45.57,12.32-64.63.87-1.47-2.54-.69-2.94,2.36-1.18,21.9,4.96,40.88.82,62.01-5.24,3.7-1.06,29.74-10.16,30.38-11.66.13-.3-1.58-4.39-2.05-5.26-16.06-21.55-22.47-46.36-26.96-72.3-.03,2.05-.99.69-2-1.16l-2.89-1.15c-1.77-9.1-2.36-18.33-1.76-27.71l-20.08,5.03c5.69,3.98,7.41,11.48-1.69,8.53-20.9-13.05-49.12-20-62.09,7.04,4.56,5.4-5.59,9.54-4.72,1.18,5.97-19.1,21.22-26.91,40.72-24.8,2.93.32,16.15,5.29,17.01,4.66.39-.28,3.79-7.97,3.69-8.74-.14-1.08-3.35.81-1.87-4.18,1.18-4,20.11-43.08,21.87-44.85.16-.16,1.68.42,2.15-.16.55-.69.21-3.14.81-4.51,1.24-2.84,4.45-7.53,2.94-9.83-1.13-1.72-3.25.42-1.17-4.38,1.99-.6.64,2.65,1.74,2.36,3.22-.85,2.38-1.87,2.97-3.55,3.18-1.2,4.33,2.14,3.72,4.99-9.74,18.45-18.78,37.2-27.12,56.25,2.72,3.55,2.22,7.52-1.47,11.92,2.72-.35,21.96-4.91,22.64-5.87.7-1,4.78-22.75,4.6-23.96-2.64-2.17-3.26-5.39-1.85-9.66,13.85-43.18,35.14-84.23,58.29-122.9,5.91-8.21,12.8-4.9,4.93,3.05Z"/>
      <path class="st26" d="M202.77,539.87c2.19-8.55,13.8-2.15,18.02,3.12,3.65-13.31,1.89-27.26-1.92-40.34-19.57-49.28-31.34-92.16-25.79-146.61.49-4.81,7.63-42.74,10.82-46.79s8.83-2.03,8.21,2.47c-12.76,41.5-19.69,84.98-6.33,127.3l19.14,54.27c.18,1.83-.13,3.58-.91,5.26l3.26,3.22c3.55,12.24,4.39,24.16,2.54,35.77,23.82-2.98,48.69-5.5,72.33-1.6-1.83-4.17-.72-21.94,1.53-26.04.57-1.05,1.84-1.52,2.94-1.9l-1.39-3.47c6.41-15.93,12.59-31.83,18.54-47.68,27.67-41.31,37.32-95.08,23.81-143.82-1.11-3.1.14-5.12,3.18-5.62,5.8-.96,9.94,32.84,10.38,39.06,2.72,38.55-8.2,77.6-27.89,109.66,1.13,1.83,1.65,2.83,1.2,5.12-13.09,19.95-22.31,45.82-25.27,69.8.62,5.44-.24,9.95-2.56,13.55-.51,2.03-.92,3.18-2.36,1.18-.41-2.06.92-5.9-2.95-5.9h-44.84c-3.93,0-11,.98-15.93,1.18-9.59-1.24-15.09,1.12-16.52,7.08-.71.97-.8,1.74-1.18,2.36.13,3.52-.65,4.7-2.36,3.54-2.77-.67-5.15-3.28-7.16-7.81-4.14-1.22-6.86-2.95-8.18-5.17-2.17,1.33-2.95.94-2.36-1.18Z"/>
      <path class="st37" d="M412.83,321.5c-6.21-11.32-12.91-22.26-20.11-32.83-6.82-7.88-.81-18.35,5.71-7.87,10.74,17.27,21.76,41.11,30.18,59.92,15.31,34.24,25.43,64.28,20.05,101.33,1.9-1.34,4.82-1.41,8.78-.21,9.5,4.74,18.34,4.94,26.51.59l2.05,1.84c1.1-.28,2.14-.91,3.54-1.18,6.36-.2,12.65.2,18.88,1.18h1.18c.67,1.78-.91,2.18-4.72,1.18l-2.25,2.13c-12.65-.42-24.97,4.08-35.02,11.39-8.08,5.05-12.24-2.43-4.57-7.24l-14.2-2.99-4.21,26.66c-.64,10.07-4.15,15.43-10.55,16.08-6.24,20.94-15.97,41.76-30.27,58.17,23.24,11.92,52.27,23.64,78.94,23.26,4.27-.06,13.47-.71,15.05-3.52-.84-5.01,12.32-8.32,9.03-1.24-.84-1.4-.71-.98.41,1.24-1.76,1.32-2.96,2.65-5.11,3.75-29.2,14.88-77.73-7.79-105.27-20.25-9.14,8.02-16.13,14.35-26.9,20.31-1.54.85-3.63.55-4.34.92-4.29,2.1-6.69-.08-2.36-2.36,11.64-7.02,21.44-13.72,31.03-24.06,19.25-20.76,28.99-41.52,37.81-67.24l2.69-.65c6.79-20.65,8.88-45.2,6.37-66.23-1.66-1.6-1.08-5.89.8-7.6-2.11-13.85-5.52-27.45-10.24-40.79l-3.04-2.36c-4.41-12.96-9.94-25.45-16.59-37.48l.75-3.84Z"/>
      <path class="st42" d="M205.13,541.05c-.31,2.43-1.27,4.91-2.86,7.44,5.55,14.96,13.03,29.19,22.43,42.7l-.68,2.98c1.56,1.66.9,2.27-1.18,1.18-.39-.55-2.15-1.06-2.36-2.36-1.73-.53-2.39.53-1.97,3.18l-1.57.36-2.55-.77c-4.25-12.78-9.68-25.43-16.9-36.81l.57-2.55c-1.72-1.41-1.72-3.78,0-7.08-1.13.06-1.13-1.12,0-3.54-2.89-2.81,1.11-8.62,4.72-5.9.89-.09,1.97,1.12,2.36,1.18Z"/>
      <path class="st25" d="M222.83,550.49c1.44,10.65,16.55,39.16,12.36,48.37-3.49,7.68-9.65.28-12.36-3.51l1.18-1.18c1.63-1.28,3.5-.74,5.63,1.62,2.8-2.41-8.04-33.38-10.64-39.24l1.47-2.51c.93-1.08,1.62-2.33,2.36-3.54Z"/>
      <path class="st2" d="M530.84,466.68l-.58,3.54c-2.46-1.68-3.5-5.17-5.32-7.08-1.35-6.96-12.1-12.06-18.65-14.95l-1.42-2.75c1.67.95,4.32-1.18,4.72-1.18,6.65-.08,18.48,10.33,20.7,16.5.81,2.23.13,4.59.54,5.92Z"/>
      <path class="st21" d="M220.47,592.99c.01.09-1.25-.32-.89,1.48,2.56,12.87,5.22,25.8-12.08,13.86.27,2.14,0,3.01-1.19,4.72.13-3.33-1.26-6.75,2.36-8.26,2.28-.59,4.46.51,6.53,3.32l-.54-9.96,2.27-1.62c-.04-.98,1.81-5.34.01-8.26,2.13.67,3.2,2.63,3.53,4.72Z"/>
      <path class="st2" d="M508.42,444.26c-3.81-.67-17.32,1.45-18.88-1.18,6.21-1.22,13.05-2.03,18.88,1.18Z"/>
      <path class="st25" d="M240.53,541.05c-3.17,2.8-8.67.16-12.21,1.36-1.39.47-3.13,4.1-4.32,5.72-.23-10.07,9.29-6.79,16.52-7.08Z"/>
      <path class="st31" d="M162.65,163.33c3.62,2.75,5.61,12.2,1.32,15.04,1.54,1.62,2.51,3.41,2.39,5.72.48-5.37,1.07-10.73,1.78-16.07l2.78.03,2.09,4.22c-11.27,102.06,134.14,116.13,193.41,63.64,2.36-3.56,5.24-5.72,8.65-6.48,2.61,2.65,2.75,6.51.41,11.6-5.49,8.79-10.09,17.61-13.78,26.45,25.03,8.08,38.26,28.46,48.91,51.52l2.22,2.49c6.45,13.33,15.58,29.33,18.88,43.67,4.54,13.68,8.67,27.58,9.99,41.99-1.11,2-1.7,4.13-1.73,6.41,3.83,10.36,2.49,24.13,1.09,35.27-2.13,16.99-7.31,29.39-14.43,44.58-9.97,21.28-37.73,51.54-59.93,59.28-3.92,1.37-31.82,2.8-34.01.27-.83-2.77-1.66-5.56-2.48-8.38l-1.48.26c-6.25-7.62-13.12-4.96-18.33,2.04-1.32.6-3.92.6-3.8-1.12-.03-.39.01-.79,0-1.18-.64-24.9,3.43-35.46,12.54-57.69,2.31-5.63,3.12-9.26,4.84-13.93.96-2.61,8.35-12.18,8.46-12.94.22-1.45-1.99-2.29-1.66-3.93.76-3.73,8.26-14.35,10.45-19.09,16.95-36.77,23.79-81.99,11.99-121.43-.62-2.06-1.09-6.78-4.14-5.87,12.93,45.94,7.37,89.92-13.56,132.22-3.15,6.36-11.6,17.31-13.11,23.59-4.14,17.27-11.47,27.62-15.83,42.49-3.07,3.37-13.14,5.42-18.17,5.76-16.6,1.12-31.13-.37-47.01-5.42-5.81-1.85-14.05-4.85-17.43-9.78-6.16-21.98-17.62-45.34-23.05-68.42-10.16-43.2-3.1-77.49,8.85-118.72.77-2.64-3.16-1.98-3.47-1.71-1.14,1-7.26,25.74-7.97,29.23-8.65,42.63-5.77,77.42,7.06,118.59,9.02,28.93,27.44,59.48,16.2,90.6-5.66-6.18-9.27-13.09-18.87-8.26-3.33,1.68-3.07,3.68-4.72,5.9,0,6.9-10.03,8.63-15.78,8.68-1.96.02-14.83-1.54-16.66-2.02-26.53-7.1-53.77-50.39-54.89-77.48-.76-4.48-.6-11.06-5.9-8.25-1.88-11.51-1.28-23.13.15-34.68.89-7.16,5.79-21.12,5.87-26.17.03-2.16-2.27-1.53-2.5-2.51-1.95-8.65,30.47-73.88,36.81-85.75,5.84-10.95,15.05-23.11,19.85-33.86,2.1-1.98,2.92-3.91,2.45-5.78,7.32-5.51,15.92-8.71,25.8-9.61,14.99-1.95-10.11-21.74-16.8-19.81l-2-3.76c-1.64-9.11-4.8-17.95-4.73-27.14l-5.32,1.19c.23-3.05-1.75-9.11-1.75-11.23v-25.38l-3.53,1.18c-.93-6.99,2.03-13.62,3.53-20.07Z"/>
      <path class="st29" d="M162.65,163.33c.91-3.91,1.1-8.26,2.42-12.34.39-1.2,7.17-11.25.52-8.94-.99.35.16,2.91-1.75,2.39-.3-2.33.39-4.37,1.13-6.53,4.51-13.13,16.37-32.48,25.94-42.52,1.92-2.01,10.51-7.55,10.71-8.19,1.63-5.2-3.93-1.2-4.74-4.12,15.6-7.99,30.41-18.18,48.37-20.09l-3.53-4.7c9.64-2.3,21,.09,30.17-1.1,2.19-.29,1.05-3.46,7.06-2.55,2.31.35,1.17,2.27,3.4,2.55,10.83,1.36,23.72-1.68,34.89,1.1l-3.54,1.17c-1.4,5.23,4.39,3.76,8.52,5.06,14.1,4.44,26.83,11.79,39.86,18.56l-5.89,1.75c17.34,15.03,31.17,35.13,37.76,57.25-7.69-1.45-.67,9.66.6,14.16,2.26,8,4.45,16.44,4.11,24.8-.23.31-2.32-1.27-3.53-1.18.52,12.37-.15,24.68-2.01,36.94l-2.2-1.09c-3.21,2.7-9.67-.46-7.58-5.16l-1.54-3.29c15.83-59.85-31.79-141.34-98.92-101.04-2.54,1.41-4.97,1.82-7.58.38-50.39-31.24-91.99,8.72-101.45,59.04l-2.92,2.42c-.05.26-1.04,1.03-1.25,2.82-.69,5.98,1.87,16.93-5.82,19.6-.34-2.64.65-6.29-.18-8.71-.57-1.66-3.13-1.72-3.39-2.5-1.51-4.48,3.21-2.09,3.64-3.58.95-3.31-1.99-8.67-1.25-12.36Z"/>
      <path class="st35" d="M395.13,179.85l1.26,13.59-2.46,26.55-2.37-3.54c-.64-.44-1.77,1.11-2.05,2.06-1.44,4.79-1.77,11.99-2.97,17.1-1.71,7.29-6.08,13.9-4.4,22.15,4.6,1.92,2.22-13.19,5.88-9.43.59.61,4.59,13.12,5.92,15.93,7.29,15.48,15.96,28.79,26.3,42.3-3.05,7.01,2.9,8.62,6.69,13.5,11.33,14.59,20.91,30.12,30.68,45.79,1.01,1.96-2.27,1.61-2.37,2.32-.42,2.81,4.9,8.31,6.43,11.31,7.14,14,12.69,29.75,19.84,43.93,1.2,2.38,4.61,1.08,2.12,4.9.05.54.61.68,1.18.61-.7,3.37-.3,6.91,1.18,10.62-.1,1.56.07,3.15,0,4.72-2.97.75-11.67,4.62-13.37,4.46-2.76-.26-10.17-3.39-13.49-4.15-3.75-.86-8.2-1.25-12.06-1.51.1-7.27-.17-14.59-.06-21.87.22-15.02.3-20.06-3.84-35.02-10.34-37.35-30.89-72.62-48.2-107-1.68-.34-4.07-.94-3.35,1.56,1.73,6.02,11.31,19.75,14.77,26.55,2.33,4.6,4.21,9.6,6.44,14.21-2.57.4-4.73-4.86-5.7-6.7-7.43-14.19-19.05-31.82-33.62-39.55-7.42-3.94-18.34-2.93-12.83-13.6,6.71-12.98,13.91-16.39,14.39-32.22-.98-.33-1.99-.97-1.93-1.9s6.47-14.75,7.47-16.36l2.72-.63c-1.24,2.19,6.25,4.3,6.74,4.38.83.14,3.46-.6,3.72-1.02,1.15-1.81-.4-25.98.14-31.12.14-1.3-.61-2.8,1.2-2.93Z"/>
      <path class="st32" d="M165.01,283.72c.66-1.47,2.32-3.9,2.34-4.13.26-4.05-3.8.55-4.5,1.39-5.94,7.15-15.41,26.13-20.27,35.2-7.59,14.15-41.76,82.55-38.91,94.23.23.96,2.84.64,2.45,2.5l-5.06,26.38-29.28,7.91c.5-3.4,7.12-10.56,5.58-13.31-.14-.25-1.99-.21-2.1-.97-.84-5.62,24.23-50.72,27.86-59.43l-1.83-3.59c12.51-35.81,50.86-74.46,67.49-111.32,3.4-7.54,3.05-14.46,5.69.36,4.49-2.09.76-9.85-.01-14.16,2.09,2.71,4.76.89,6.96,1.78,6.36,2.56,21.48,12.94,18.84,21.03-1.05,3.21-17.1,4.63-21.9,6.47-5.98,2.29-9.09,5.12-13.35,9.67Z"/>
      <path class="st37" d="M485.99,439.54c-2.34-2.54-5.9-7.52-1.2-9.04l.02-1.59c.18-.02.54-1.11,1.16-1.2-.58,4.3.3,7.44.02,11.82Z"/>
      <path class="st28" d="M15.13,466.68c-2.27-.62-.09-3.68.54-4.78,8.82-15.46,24.17-18.87,40.77-14.71,5.01,1.26,23.79,12.17,24.77,11.22,2.48-2.41-8.02-6.52-8.25-8.24l28.31-7.09c.5,9.49-1.13,22.97,2.37,31.87.92.13,1.68.32,1.85.75,5.08,12.55,7.54,42.65-2.77,53.32-5.92,6.13-28.31,15.71-27.41,1.41-.63-18.36-8.8-45.99-20.64-60.21-11.5-13.83-27.03-20.36-39.55-3.53Z"/>
      <path class="st19" d="M103.64,474.95c4.21-.4,2.94-.3,3.72,2.72,7.89,30.52,8.73,41.99,26.93,68.98,1.7,2.53,1.26,5.73,4.75,6.79-1.65,3.34-34.03,14.34-39.6,15.87-17.01,4.68-40.95,9.97-57.16,1.25-.98-.53-2.31-1.03-2.36-2.35,26.12,7,36.17-15.58,35.4-37.78,1.27,6.27,3.64,5.47,9.75,4.44,23.02-3.86,22.75-20.14,22.17-39.32-.23-7.44-1.23-14.59-3.6-20.6Z"/>
      <path class="st14" d="M110.72,474.95c2.76,7.48,4.46,15.27,7.36,22.74,8.4,21.65,34.97,54.98,60.3,54.71,5.28-.06,11.1-2.1,16.49-1.88.64-.17,2.23-3.47,3.18-4.75v3.54c-.34,5.23-2.02,6.52-7.08,5.9-1.36.74-5.71,3.37-6.3,3.35-2.73-.08-3.04-3.4-5.37-4.02-6.21-1.65-12.08-1.09-14.29,5.39-4.2,1.09-1.51,8.24-2.37,9.44-24.5-14.32-42.95-46.81-49.23-74.1-1.51-6.56-1.59-13.88-2.68-20.33Z"/>
      <path class="st30" d="M306.62,508c-2.56,8.75-3.14,20.4-3.53,29.52-24.59-2.26-49.22-.79-73.67,2.22-3.7-2-.78-5.68-.7-8.72.24-8.82-2.29-23.83-4.71-32.45,7.71,2.76,14.3,6.61,22.38,8.9,12.65,3.58,27.61,5.19,40.74,4.07,6.62-.56,12.81-3.43,19.49-3.52Z"/>
      <path class="st39" d="M220.47,554.03c1.83,3.87,4.79,12.41,6.24,16.78,2.97,9,6.17,18.49,5.56,28.07-1.4,1.44-7.17-3.45-8.25-4.72-3.28-3.82-10.33-16.54-13.18-21.64-2.42-4.33-10.02-17.33-10.84-21.14-.89-4.15,1.53-8.18,5.14-10.34,10.14,1.49,10.81,3.37,15.34,12.98Z"/>
      <path class="st11" d="M434.07,491.47c2.35-3.68,2.56-1.84,4.09-3.55,4.84-5.38,6.22-33.91,8.83-42l20.11,4.23c.59,3.47-4.82,4.03-5.88,6.5-.32,1.73.01,2.11,1.77,1.77,3.11-.6,9.38-5.8,12.75-7.32,8.39-3.78,19.93-7.01,29.13-5.69,6.16.89,18.43,8.9,21.51,14.49,1.23,2.23,2.02,3.66-1.44,3.21-4.92-5.15-8.92-6.44-15.98-5.94-23.93,1.67-36.81,40.35-39.48,60.24-1.82,6.69-2.29,13.77-1.42,21.25-29.03,4.98-45.64-20.26-33.98-47.22Z"/>
      <path class="st3" d="M434.07,491.47c.95,8.88-2.46,17.24-.66,26.04,2.83,13.77,20.82,21.22,33.71,20,1.25-1.24-2.35-17.57,2.35-20.07-2.67,19.87-1.08,57.04,28.32,51.94,3.74-.36,2.55.87.41,2.18-12.77,7.82-39.82,1.53-53.76-2.52-6.49-1.89-40.61-14.24-42.91-18.53-1.4-2.61,6.57-9.56,8.25-11.92,11.56-16.19,15.24-32.92,24.29-47.12Z"/>
      <path class="st4" d="M441.15,413.57c-.27,2.39,2.17,1.92,2.45,4.07,1.2,9.16-1,59.01-7.51,64.06-.89.69-3.04.35-3.81,1.45-1.13,1.62-4.91,17.61-6.61,21.75-8.75,21.18-32.21,52.15-52.36,63.3-3.06,1.69-6.34,3.93-10.04,3.54-.05-.39.03-.79,0-1.18,1.14-3.33.35-6.87-2.36-10.62-10.35-10.27-13.04.03-17.08,0-.68,0-11.9-4.89-12.44-5.3-2.14-1.59-.91-6.32-1.17-8.87-1.03-.34-1.02-.73,0-1.18.16.23,1.16.37,1.7,1.24,1.11,1.77.15,4.83,2.58,5.69,2.19.78,24.67.47,27.9-.13,19.06-3.55,48.37-34.32,57.72-50.86,16.45-29.09,22.75-53.67,19.86-86.97.33-1.03.73-1.02,1.18,0Z"/>
      <path class="st27" d="M431.71,365.17c3.71,7.75,13.72,34.09,12.48,41.42-.36,2.13-4.78,2.62-3.04,6.97h-1.18c-1.43-16.42-4.62-32.55-8.26-48.4Z"/>
      <path class="st26" d="M330.22,544.59v1.18c-.71-.15-1.85.22-2.36,0-1.69-.72-2.76-2.82-4.37-3.29-6.13-1.8-8.96,1.06-12.15,5.65h-4.73c-.07-.78.06-1.58,0-2.36,3.87,2.08,6.21-4.73,9.74-6.18,6.37-2.62,10.25-.09,13.86,5Z"/>
      <g>
        <path class="st16" d="M306.62,545.77c2.46.55,4.03,1.34,4.72,2.36l1.1,1.18c-.37-1.04-22.41,50.59-17.5,45.85,8.84-8.53,27.38-33.05,30.66-44.58-.3-2.43.46-4.03,2.26-4.81-.04-2.29,1.41-1.89,2.36,0,.83,6.29,5.41,10.25,13.74,11.88,4.4-5.58,17.87-6.03,16.95,2.29,1.28,1.71,1.28,2.9,0,3.54-2.38,1.14-3.56.31-3.54-2.36-1.69.81-4.01.97-6.98.47-4.78,2.54-30.02,43.71-29.99,48.54l1.56,1.75,2.71-3.69c13.62-10.77,29.34-24.55,33.75-41.97l2.48-1.56c2.14-4.3,4.27,2.66,2.36,5.9,1.04.29,1.01.69,0,1.18.28,2.21-.91,2.71,2.36,2.36-7.64,3.9-11.41,12.72-17.09,18.9-5.73,6.24-32.11,35.97-32.48,14.15-16.26,15.02-13.73-3.45-10.62-15.34-2.56,1.71-4.66,7.04-7.9,8.02-14.02,4.25-4.77-18.51-2.43-24.86,2.13-5.81,9.01-16.46,10.09-20.64.87-3.39-.31-5.52-.92-8.55l2.36-1.18c1.05.22,1.01.62,0,1.18Z"/>
        <g>
          <path class="st38" d="M327.86,545.77c1.02,6.27-1.36,10.13-4.22,15.25-2.78,4.96-24.97,35.94-28.25,36.68-1.72.38-2.77-1.41-2.98-2.97-.96-6.94,14.27-39.87,18.93-46.6-1.59-1.66,2.92-5.81,5.01-6.9,4.33-2.24,11.4-.49,11.51,4.53Z"/>
          <path class="st5" d="M305.44,609.5c0-12.87,6.64-25.05,13.2-35.77,1.29-2.1,9.79-15.45,10.62-15.94,2.6-1.52,12.64,3.04,11.41,7.17-6.3,8.88-10.82,19.01-17.04,27.92-1.73,2.47-14.47,20.61-18.18,16.62Z"/>
          <path class="st12" d="M357.36,561.11c.55.47,1.02.96,1.19,1.54,2.82,9.58-28.66,41.75-36.6,49.21-.77.16-3.1,2.16-3.52-.62-.12-.78,1.58-6.04,2.11-7.28,3.42-8,18.96-33.83,24.49-40.43,4.95-5.91,6.41-5.52,12.32-2.43Z"/>
          <path class="st13" d="M357.36,561.11c1.02.53,2.81.04,3.54,2.36,1.06.22,1.02.62,0,1.18-.26,10.1-8.71,20.1-15.38,27.7-4.46,5.09-17.53,18.23-23.57,19.51.49-7.93,4.42-7.45,8.3-11.18,4.78-4.59,9.29-9.76,13.24-15.05,5.28-7.07,11.61-16.06,13.86-24.53Z"/>
          <path class="st37" d="M363.26,570.56c-.27-3.14,1.41-6.78-2.36-5.9.01-.39,0-.79,0-1.18-.01-1.18,0-2.36,0-3.54,3.13,3.1,5.5,6.55,2.36,10.62Z"/>
        </g>
      </g>
      <g>
        <path class="st40" d="M75.32,530.42c2.42,5.91,2.33,7.95,1.3,14.34-2.9,17.92-17.6,33.1-36.29,24.15-.14-.07,2.31.05,1.96,1.64l-2.36,1.18c-26.79-16.09-38.14-76.21-29.5-103.87,1.26,1.7.96,2.98,3.52,2.35.19-1.16.51-2.6,1.2-3.53,13.03-26.19,38.2-6.34,48.25,12.36,4.91,9.13,16.14,39.32,14.16,48.73-.24,1.16-1.3,1.97-2.23,2.66Z"/>
        <path class="st20" d="M20.26,464.73c9.76-8.5,22.56-3.98,30.25,4.93,16.28,18.88,30.27,66.71,15.17,88.3-10.56,15.1-29.97,7.24-39.26-5.19-12.91-17.27-24.35-72.21-6.16-88.04Z"/>
      </g>
      <g>
        <path class="st1" d="M524.94,463.14c4.22-1.36,5.78,6.36,4.58,6.28-.2-.01-.94-3.92,1.32-2.74,8.67,28.6,1.93,83.53-23.6,102.69-3.91.39-1.69-.64-1.19-3.54-.39-.45-7.42,3.39-8.25,3.54-19.02,10.23-31.26-14.26-31.31-31.08,0-.35.66-.7,1.5-1.05-.79-6.97-.3-13.57,1.49-19.8-.91-.48-1.66-1.14-2.08-2.09s2.57-12.1,3.18-14.23c5.17-17.88,15.19-40.87,34.93-45.83,6.75-1.69,19.19-.18,19.43,7.85Z"/>
        <path class="st34" d="M508.16,459.88c15.35-1.66,22.91,14.26,23.9,27.42,1.25,16.64-4.79,48.93-13.72,63.09-11.3,17.91-35.76,25.33-44.37.92-5.92-16.78-1.82-40.06,4.11-56.53,4.44-12.34,15.71-33.33,30.08-34.89Z"/>
      </g>
      <path class="st23" d="M198.05,556.39c3.39.89,18.23,34.16,18.88,40.13.3,7.51,3.97,22.98-8.26,8.26-9.33-11.23-13.99-29.86-22.27-42.12-.35-1.84,5.84-5.97,6.93-6.28.89-2.2,4.37-3.14,4.72,0Z"/>
      <g>
        <path class="st42" d="M165.01,559.93c-5.22-9.21,15.41-8.74,19.46-3.8,2.72-2.24,4.88-2.55,6.5-.92,2.16-.57,2.94-.17,2.36,1.18.12,2.29-1.35,4.32-4.39,6.08,6.45,13.08,13.13,26.03,20.04,38.86l-.3,3.45c.91,1.85.27,3.97-1.82,3.97l-.54,4.29c-3.66,5.27-12.58-2.71-15.96-5.87-8.16-7.62-22.33-32.01-27.7-35.44,3.96-2.27.53-6.44,2.36-11.8Z"/>
        <path class="st6" d="M167.37,561.11c5.99-11.93,14.39-.17,18.15,6.05,8.23,13.6,14.37,29.2,19.6,44.14-5.75,2.03-11.58-5.18-15.32-8.87-8.27-11.2-16.02-23.11-21.72-35.86l-.7-5.45Z"/>
        <path class="st0" d="M167.37,561.11l22.42,41.31c-6.66-6.58-14.72-16.76-19.08-25.18-2.88-5.57-6.43-9.98-3.34-16.14Z"/>
      </g>
      <path class="st26" d="M198.05,556.39c-.67-.17-4.08-.18-4.72,0l-2.36-1.18c3.42-1.87,5.52-1.31,7.08-5.9v7.08Z"/>
      <g>
        <path class="st36" d="M180.33,212.9c-1.65-.11-1.82-1.79-2.39-2.91-3.4-6.69-6.37-26.17-3.23-32.83,4.32-9.19,23.38-28.78,33.31-31.6,15.87-4.52,35.85,2.24,32.22,21.62-4.26,22.81-53.02,21.75-59.91,45.72Z"/>
        <path class="st8" d="M379.77,212.9c-6.02-5.91-11.08-13.1-18.48-17.5-12.58-7.48-40.95-11.44-43.76-28.22-3.69-22.02,21.1-27.94,37.36-19.67,7.84,3.99,22.77,19.51,27.04,27.25,5.78,10.47-.96,26.66-2.16,38.15Z"/>
        <g>
          <g>
            <path class="st41" d="M295.38,97.19c-3.9,1.35-14.05,7.82-16.69,8.04-1.73.15-13.27-6.59-16.59-7.75-51.95-18.03-82.14,25.62-91.19,70.56-3.46,44.8,12.17,76.97,55.74,91.2,28.31,9.25,55.69,10.57,84.93,5.25,24.55-4.47,48.41-14.63,63.48-35.07.06-1.89,6.99-14.58,8.26-18.89,16.16-54.88-21.04-136.44-87.95-113.35ZM368.56,204.65c9.64,9.63,10.01,15.79,1.78,26.55-34.63,45.25-156.29,45.4-185.77-5.41-2.34-4.04-4.85-6.47-2.87-10.89,10.21-22.85,40.1-20.85,54.58-35.18,10.41-10.3,9.38-29.77-4.9-36.16-23.76-10.63-43.95,10.34-56.34,28.02-1.33-9.13,2.34-18.93,5.59-27.46,13.75-36.04,43.81-57.68,82.64-43.08,3.36,1.26,13.72,7.54,15.62,7.54,2.06,0,15.46-7.92,19.73-9.34,47.28-15.76,82.34,29.35,84.7,72.33l-15.45-18.17c-13.9-16.65-52.77-18.78-53.85,8.45-1.05,26.67,39.66,27.9,54.55,42.78Z"/>
            <path class="st33" d="M378.57,214.26c-1.08-3.77-3.7-7.54-7.88-11.73-5.83-5.83-14.74-9.47-24.17-13.33-15.48-6.33-30.1-12.32-29.51-27.21.23-5.91,2.46-10.48,6.61-13.57,3.78-2.82,8.99-4.31,15.07-4.31,10.46,0,21.26,4.52,26.87,11.24l18.29,21.5c.69,11.34-.39,22.62-3.4,32.85-.3,1.01-1.01,2.67-1.88,4.56ZM179.01,213.56c-3.78-9.97-5.62-21.45-5.57-34.49l4.04-5.76c13.78-19.65,27.55-29.62,40.92-29.62,3.92,0,7.87.88,11.75,2.62,5.22,2.33,8.68,6.85,9.74,12.73,1.22,6.74-.97,13.86-5.73,18.56-5.43,5.37-13.42,8.33-21.88,11.47-12.51,4.63-26.67,9.88-33.27,24.5Z"/>
            <path class="st15" d="M367.86,153.42l15.45,18.17c-2.36-42.98-37.41-88.09-84.7-72.33-4.27,1.42-17.67,9.34-19.73,9.34-1.9,0-12.26-6.28-15.62-7.54-38.83-14.6-68.89,7.04-82.64,43.08-3.25,8.53-6.92,18.33-5.59,27.46,12.4-17.68,32.58-38.65,56.34-28.02,14.28,6.39,15.31,25.86,4.9,36.16-14.48,14.32-44.37,12.33-54.58,35.18-1.98,4.42.53,6.85,2.87,10.89,29.48,50.81,151.14,50.65,185.77,5.41,8.23-10.76,7.86-16.91-1.78-26.55-14.89-14.88-55.6-16.11-54.55-42.78,1.07-27.23,39.95-25.09,53.85-8.45Z"/>
          </g>
          <path class="st7" d="M298.36,165.69c9.21,12.95-9.09,25.23-20.57,24.71-11.54-.52-28.78-14.34-17.2-25.89,12.56-5.82,25.74-5.82,37.76,1.18Z"/>
          <g>
            <path class="st10" d="M260.59,164.51c.33,2.38-.17,5.15-1.49,8.29,4.04,22.33,43.8,18.28,38.01-4.7l1.24-2.42c6.91,4.02,23.55,17.6,24.71,25.46,3.25,22.03-30.81,32.25-47.77,31.24-16.99-1.02-43.38-9.91-40.56-31.21,1.13-8.53,17.9-22.98,25.85-26.67Z"/>
            <path class="st24" d="M319.59,190.48c-2.63,8.02-12.75,11.89-20.65,11.9-6.53,0-15.11-3.69-20.06-3.68-3.69,0-9.73,3-14.3,3.43-6.56.61-24.96-1.61-26.43-9.87-.89-4.98,7.7,3.75,9.58,4.58,11.89,5.25,21.6-.69,32.32-.56,9.91.12,19.03,5.6,29.76.35,3.72-1.82,5.1-6.76,9.77-6.15Z"/>
          </g>
        </g>
      </g>
    </g>
  </g>
  <g id="Isolation_Mode">
    <path class="st18" d="M358.54,186.59c-6.63.5-10.21-5.73-17.15-5.95-5.09-.16-11.91,4.81-12.77,4.66-6.36-1.1-.56-7.79,3.12-9.58,9.2-4.47,27.31-1.54,26.8,10.87Z"/>
    <path class="st22" d="M231.09,184.22c-.91.93-12.11-3.45-15.63-3.24-6.53.39-9.9,6.14-16.22,5.6-2.91-14.57,27.62-14.54,31.27-7.08.52,1.06,1.01,4.28.58,4.72Z"/>
  </g>
</svg>