<?xml version="1.0" encoding="UTF-8"?>
<svg id="Layer_1" xmlns="http://www.w3.org/2000/svg" version="1.1" viewBox="0 0 547.5 635.52">
  <!-- Generator: Adobe Illustrator 29.6.1, SVG Export Plug-In . SVG Version: 2.1.1 Build 9)  -->
  <defs>
    <style>
      .st0 {
        fill: #db5583;
      }

      .st1 {
        fill: #dd5685;
      }

      .st2 {
        fill: #c9c9c8;
      }

      .st3 {
        fill: #b3b5b4;
      }

      .st4 {
        fill: #b9547d;
      }

      .st5 {
        fill: #b3b1af;
      }

      .st6 {
        fill: #797b7b;
      }

      .st7 {
        fill: #d2d1d1;
      }

      .st8 {
        fill: #f2749f;
      }

      .st9 {
        fill: #d75581;
      }

      .st10 {
        fill: #cbcbca;
      }

      .st11 {
        fill: #2e2f30;
      }

      .st12 {
        fill: #f1739d;
      }

      .st13 {
        fill: #737676;
      }

      .st14 {
        fill: #d5d3d1;
      }

      .st15 {
        fill: #d3d2d1;
      }

      .st16 {
        fill: #d1d1d0;
      }

      .st17 {
        fill: #6b555d;
      }

      .st18 {
        fill: #6e4151;
      }

      .st19 {
        fill: #ee74a0;
      }

      .st20 {
        fill: #1f2021;
      }

      .st21 {
        fill: #0b0b0b;
      }

      .st22 {
        fill: #b7b5b4;
      }

      .st23 {
        fill: #dd5d88;
      }

      .st24 {
        fill: #747476;
      }

      .st25 {
        fill: #6e2b43;
      }

      .st26 {
        fill: #0d0e0e;
      }

      .st27 {
        fill: #c2c0be;
      }

      .st28 {
        fill: #da5381;
      }

      .st29 {
        fill: #da5383;
      }

      .st30 {
        fill: #d5d1d0;
      }

      .st31 {
        fill: #544047;
      }

      .st32 {
        fill: #d95281;
      }

      .st33 {
        fill: #d3d2d0;
      }

      .st34 {
        fill: #d3d3d3;
      }

      .st35 {
        fill: #da5783;
      }
    </style>
  </defs>
  <path class="st18" d="M398.98,527.66c-15.57,9.68-23.9,13.55-42.66,16.83-30.38,5.31-61.5,5.57-92.27,5.26-.26.2,3.04,4.46-1.81,4.93-3.62.36-17.87-3.26-23.34-3.7-3.1-.25-21.97-1.52-23.11-1.34s-1.03,2.99-2.77,3.6c-9.52,3.33-34.55-3.42-45.23-4.75.13,7.22-11.83,2.16-16.84.9-15.12-3.79-32.41-9.55-44.52-19.27l-1.83,4.91c-1.34.17-2.49-.1-3.75-.54-4.35-1.53-24.77-22.5-27.94-27.27-1.75-2.64-8.4-17.52-9.4-17.51-.53,0-1.61,2.51-3.07,1.85-2.42-1.08-8.25-17.93-9.2-21.55-1.66-6.33-1.72-14.61-3.24-20.07-1.07-3.86-4.57,2.22-5.65-4.19-1.06-6.35,4.9-16.16-2.84-16.91,1.36-46.81,6.41-88.59,27.66-130.63,1.57-3.11,7.18-10.1,6.84-12.82-.08-.62-2.5-.7-2.58-1.28-.61-4.27,10.88-12.12,13.54-15.95l-2.44-3.65c4.44-4.92,9.71-9.17,14.11-14.11,2.92-3.27,19.92-23.27,20.03-25.37.09-1.63-2.3-2.73-1.74-4.09.89-2.14,8-6.01,8.01-6.74,0-.31-3.61-2.97-2.24-5.37.3-.51,7.66-4.88,9.68-6.87,2.16-2.12,14.74-16.81,14.48-18.2-.17-.92-1.92-1.96-1.96-2.72-.1-2.27,21.5-23.14,24.87-26.39,1.01-.97,2.94-1.08,3.03-1.22.91-1.31-2.51-3.49-1.92-4.88.92-2.16,8.77-5.63,11.47-7.01,5.23-2.68,19.14-7.12,22.42-9.57,1.57-1.17-.78-3.6,1.08-4.89,4.69-3.26,25.35-3.21,31.96-4.31l-.61-4.9c10.15.51,20.44,1.34,30.5,2.62,10.46,1.33,22.81,3.04,33.15,4.88,3.09.55,16.57,3.09,17.94,4.18,2.1,1.67.17,3.2-.02,5.44,10.23,4.38,19.74,10.37,29.83,15.04,1.49.69,4.36.81,4.51.98,1.37,1.52-2.47,4.9-1.93,6.12,1.24,2.79,14.45,10.63,16.99,16.33,1.67,3.75-1.9,4-1.12,7,.84,3.26,7.7,12.67,9.58,17.55,3.13,8.11,5.01,30.28,4.67,39.47-.45,12.07-4.52,24.57-7.34,36.2h19.01c4.46,0,26.88,7.85,31.16,10.54,5.72,3.59,3.27,5.96,4.45,7.79,7.32,11.31,13.57,15.85,17.22,30.66,1.36,5.5-.68,8.84-3.16,13.59-.79-1.35-1.2-3.4-1.23-6.13l-2.27-2.85c.82-15.08-8.04-25.07-18.22-34.37l-1.73-4.98c-3.37-4.46-40.42-12.26-43.89-9.09-1.05.96-4.9,7.1-4.75,7.85,16.48-2.24,3.99,14.21-5.18,7.86-3.72-.78-5.82-.05-9.44,1.37-3.46-1.71.06-12.15,4.54-7.51,9.14-13.09,14.28-28.39,15.43-45.9l1.74-1.95-1.16-1.95c-1.14-21.11-3.58-41.69-15.66-59.65-3.63-2.06-6.53-6-2.31-9.22l-13.68-10.52c-1.41-1.7-1.56-3.72-.93-5.78l-32.55-15.84c-2.06-1.33-2.4-3.07-2.37-5.45-20.82-3.91-41.75-6.64-62.79-8.19-.44,3.24-2.48,4.75-5.61,5.12-8.44.06-16.84.39-25.2.99.39,2.25.01,4.07-2.11,5.2-11.29,3.46-22.26,7.61-32.65,13.09l.33,3.62s-9.14,8.99-27.42,26.96c1.41,4.75,1.63,7.83-3.57,9.96-5.04,8.37-11.24,15.32-18.59,20.86,2.86,3.9.84,7.26-6.06,10.09l.45,5.66c-8.93,13.24-19.23,25.43-30.87,36.56.67,3.05.92,5.27-1.38,7.58l-10.53,9.69c1.52,1.51,1.82,3.37.94,5.26-12.7,19-23.13,40.53-27.45,63.2l-2.66,1.96c-3.26,23.14-5.76,47.73-5.48,71.27,2.05.47,3.17,2.05,3.23,4.05-2.85,8.32-2.32,13.3,1.6,14.94,2.08,13.55,5.09,26.85,9.03,39.92,2.02-1.27,3.69-.22,5.01,1.75,8.61,17.34,17.14,31.47,32.64,43.46.88-2.83,3.23-5.15,6.16-3.26,15.19,13.47,35.23,19.2,54.66,23.27-.06-3.3,1.23-5.34,4.67-4.33,13.24,4.27,27.11,7.26,41.02,7.28-.62-2.15,1-3.73,3.03-4.42l44.06,3.29c.8-2.48,2.17-3.94,4.12-4.37,44.56,4.06,97.36,3.92,137.22-16.48-2.98-3.41-2.97-8.21.03-14.42-1.66-3.48,5.94-13.5,9.81-13.5,1.16-1.07,1.57-.25,1.23,2.45,6.46,2.8,13.78,4.36,21.95,4.66l1.35,2.7c.4,1.07-.83,1.48-3.68,1.23l-2.21,2.18-17.16-1.09c-9.38.68-9.18,10.77-.21,12.24l1.18,2.62c-.46,1.53-2.51,2.35-6.13,2.45Z"/>
  <path class="st17" d="M444.37,487.17c-2.38,3.46-.8,1.82,1.2,3.03,4.14,2.51,13.92,7.19,14.61,12.59.33,2.59-1.89,3.72-1.92,4.64-.04,1.22,3.6,3.62,3.11,5.95-.26,1.24-2.39,2.15-2.84,3.3-2.8,7.2.27,8.11-10,9.62-16.05,2.37-33.33.91-49.54,1.36,2.47-1.53,4.37-.8,6.13-2.45l2-2.32c2.3,1.28,46.82-1.14,45.07-2.57-8.9-3.75-18.14-6.55-27.72-8.39l-.96-2.67,3.68-1.23,1.53-2.18,26.05,6.89c-11.59-11.28-30.37-12.82-45.97-13.35l-2.47-2.41c-.33-1.3.49-2.53,2.45-3.68l1.32-2.49c14.51.5,28.46,4.96,42.22,9.59-5.08-3.61-10.74-6.49-16.97-8.63l-.81-3.37c8.26,1.19,4.55-.98,9.81-1.23Z"/>
  <path class="st17" d="M446.82,348.53c12.37,6.5,17.47,15.89,18.44,30.01.42,6.09-1.65,26.08-4.56,31.06-1.34,2.29-3.01,1.03-4.11,2.34-2.35,2.78-3.71,7.19-7.31,8.98.2-.63-.13-1.69,0-2.45-.78-.53-1.73-1.42-1.44-2.11.97-2.34,6.92-12.79,8.45-14.84l2.81-.22-1.7-2.48c4.48-15.3,3.16-36.45-11.22-46.01l-.57-3.04,1.23-1.23Z"/>
  <path class="st8" d="M51.86,349.76c1.21-16.54,13.67-42.54,21.87-57.26,1.66-2.98,6.82-8.26,6.4-10.83-.11-.66-2.64-.51-2.52-1.21.75-4.51,14.84-11.86,13.54-15.98-.2-.63-2.15-.48-2.32-.72-1.67-2.45,1.28-2.2,1.79-2.78,1.81-2.05,3.47-3.3,4.97-4.9,4.16-4.43,24.07-26.66,25.6-30.32,1.24-2.95-1.37-5.5-.49-7.09.3-.54,8.39-4.55,8.38-5.71,0-.4-2-1.59-2.22-2.71-.53-2.74,6.08-5.7,7.86-7.67,3.65-4.06,7.62-10.87,11.59-15.44,1-1.15,3.24-1.61,3.47-2.01,1.01-1.73-.87-4.47-.69-6.4.28-2.95,13.68-15.65,16.82-18.56,1.96-1.82,9.79-6.77,10.51-7.97.94-1.57-1.46-3.62.48-5.49,1.35-1.3,14.53-7.06,17.5-8.35,3.06-1.33,16.41-5.12,16.91-5.85.41-.59-2.34-3.78.8-4.65,8.08-2.22,21.91.26,27.84-1.6,2.62-.82,1.74-2.77.8-4.71,2.24.1,4.56-.22,6.81-.06,17.97,1.28,39.2,4.96,57.28,7.73,2.33.36,5.41.92,7.06,2.75-2.45.87-4.05,1.25-1.14,3.59l33.12,16.04c1.56,1.45-.65,3.65.46,5.47,1.94,3.17,14.23,9.23,16.62,14.16.71,3.86-3.11-.18-3.66.6-2.06,2.92,2.57,4.16,3.5,5.64,12.91,20.61,16,38.73,14.89,63.06-3.57,8.53-3.7-1.29-3.74-6.71l-1.16-4.33-1.31-1.28c-3.5-38.07-32.89-61.45-69.68-47.06l-5.74.32c-20.35-18.95-42.31-30.72-70.67-21.5-35.89,11.67-56.83,48.76-57.47,84.97l-2.43,2.96c3.25,35.42,33.29,57.07,65.28,68.03l.95,1.91c2.92,1.41,4.13,2.58,1.04,4.55l-21.05,4.94c-8.62-3.01-17.08-6.58-25.37-10.71-1.21,1.43-2.23.24-2.14.33,25.58,23.76,49.57,37.5,84.34,44.24l2.43,2.05c9.7,1.53,19.69,1.52,29.44,2.45,5.65.94,11.37,1.35,17.17,1.23,15.35,1.48,33.08,3.08,47.57,8.24,6.53,2.33,22.76,10.19,24.71,17,1.75,6.1,3.69,22.24,3.44,28.41-.09,2.15-3.92,7.6-5.81,8.93-1.18,4.09-4.87,6.65-11.07,7.69-74.03,14.34-160.42,28.97-228.73-13.69-3.25-4.38-6.44-6.53-9.58-6.46l-18.02-15.76c-1.43-2.08-8.38-13.48-9.2-13.47-1.36.01-1.18,5.17-4.27,3.65l-10.46-22.07c-2.64-.42-1.96.71-1.36,2.59,2.52,7.97,7.75,18.2,11.81,25.62l4.8,3.48c9.89,15.06,20.39,29.62,31.51,43.69l.48,3.13c-4.68,3.69-7.63,11.23.06,5.58,2.14-1.57,3.94-2.88,6.08-4.35l4.17-.55c57.07,44.08,130.37,32.7,193.32,9.14,3.84-.31,9.46-2.62,12.61-2.19,8.96,1.21,43.5,15.73,49.51,22.26,5.9,6.41,1.28,4.7-.79,8.15.87,3.78.46,6.64-1.23,8.59.92,1.39-.96,3.27-2.45,3.68-4.01,7.58-5.44,7.43-9.81,13.5.51,11.2-12.24,12.5-21.13,12.57-29.89.23-57.27-3.49-86.8-9.32-30.46-2.84-60.93-2.78-91.42.16-70.12,3.71-120.72-48.36-138.46-113.14-4.64-16.94-7.58-34.98-3.18-52.22Z"/>
  <path class="st1" d="M51.86,349.76c-3.69,50.5,22.57,110.94,63.89,140.37,50.73,36.13,93.14,17.28,148.97,20.3,33.5,1.81,66.3,12.88,100.32,11.86,4.37-.13,23.15-1.66,25.01-4.78,1.1-1.85.57-2.71,2.8-5.8.48,3.48-.74,8.27.02,11.45.27,1.16,3.48.2,2.28,3.7-1.89,5.54-30.07,12.79-36.34,13.98-23.4,4.44-55.69,7.25-79.46,6.5-7.81-.25-17.18-1.78-25.09-2.5l1.22,4.89-49.06-3.66,1.22,4.89c-15.99-.42-32.12-3.16-47.2-8.6l1.82,6.14c-20.86-4.38-45.07-10.48-60.73-25.74l-3.03,7.34c-5.47-8.09-14.92-13.48-20.87-21.46-6.38-8.56-9.45-19.58-15.93-27.61l-2.45,3.67c-5.24-13.89-7.83-28.66-9.77-43.41-8.17-.95-1.28-11.6-2.43-17.27-.29-1.43-3.55.16-3.84-1.33.59-22.63,2.53-45.01,6.37-67.26.36-2.08.54-4.21,2.3-5.68Z"/>
  <path class="st12" d="M363.41,294.55c3.45-1.16,8.27-.77,11.03-4.31,2.14-4.41-10.18,1.28-11.03.62,2.59-3.11,5.86-13.4,9.44-14.48,8.31-2.5,34.06,3.56,42.35,7.49,6.71,3.18,3.15,3.76,5.79,7.66,2.11,3.11,7.24,6.44,9.86,9.79,6.57,8.42,9.66,18.1,8.62,28.8-.31,3.22-1.72,8.79-2.45,12.27-6.92,17.04-30.93,23.4-49.12,26.04-14.08,2.05-27.87,2.17-41.65-1.5-15.48-1.01-30.97-2.67-46.61-3.68-4.83-.85-9.73-1.26-14.72-1.23-2.94-.39-7.49-.19-10.21-1.22-1.66-.62-.57-2.1-.83-2.46-6.32-3.46-11.24-7.75-11.37-16.06-10.4-6.99,3.59-18.15,10.95-22.39,6.92-3.98,13.99-6.76,21.57-9.26,17.8-5.87,37.83-9.47,56.13-12.41.07-2.35,8.86-5.07,10.22-4.73.72.18,1.39.58,2.04,1.05Z"/>
  <path class="st10" d="M423.52,509.26c4.74.71,27.81,6.7,30.65,9.22,1.13,1,2.07,1.7.67,3.08-2.16,1.62-4.78,2.13-7.4,2.42-10.76,1.19-31.7,2.11-42.31,1.23-13.92-1.15-13.16-16.22-1.92-17.25,3.96-.36,16.11.67,20.32,1.3Z"/>
  <path class="st16" d="M427.19,508.03c-3.81-.72-21.79-2.42-22.76-3.66-.82-1.06-.27-2.73-.55-3.7-1.06-2.21.09-5.19,2.45-3.68,13.56-.45,33.3,2.22,45.01,9.58,2.39,1.5,9.93,7.39,4.57,8.78-1.43.37-23.86-6.4-28.72-7.32Z"/>
  <path class="st25" d="M408.8,493.31c-.16,3.37-.91,2.02-2.45,3.68-.9.97-2.79,1.18-2.45,3.68-.16-.57-1.27-1.47-1.23-2.45.87-1.65-.21-2.05,2.45-3.68.51-3.55,1.5-4.33,3.68-1.23Z"/>
  <path class="st0" d="M118.09,401.29c8.42,2.36,14.54,10.54,21.84,15.53,58.65,40.11,119.7,34.92,187.28,26.17,15.2-1.97,46.09-4.93,58.27-13.49,3.09,14.72-11.58,17.13-22.05,21.5l-78.99,10.55c-2.24.48-1.5,3.94-2.19,4.55-3.09,2.73-34.75,1.04-40.88.19-11.34-1.57-23.68-5.5-34.34-9.8-4.51.62,3.28,5.66-1.21,4.87-17.43-3.06-51.51-23.83-63.23-37.37-1.75-2.02-1.8-5.81-4.85-6.18-6.1-.75,3.19,9.83-2.47,8-5.78-8.15-11.54-16.29-17.2-24.53Z"/>
  <path class="st28" d="M446.82,424.6c10.66,5.16,22.3,10.34,26.98,22.07-2.99.42-8.48,1.56-9.71,4.65-.53,1.35.34,3.68-.65,5.23-.72,1.12-4,1.31-5.65,2.94-1.48,1.47-1.95,4.95-2.6,5.37-2.83,1.84-12.91-.41-14.5,8.81-1.04,6.07,7.16,14.34-2.9,13.14-2.78-.33-20.98-3.97-23.26-4.76-1.77-.61-20.54-20.95-29.05-20.02l-22.05-7.98c4.03-1.29,9.47-2.7,13.12-4.68,2.49-1.35,10.76-8.27,12.16-8.54s3.92,1.01,5.93.99c6.7-.06,46.15,1.36,47.37-4.5.62-2.97-3.85-7.74-2.54-9.05.18-.18,2.24.43,3.27-.34,1.6-1.2.49-1.75,4.08-3.35Z"/>
  <path class="st35" d="M147.53,449.14c2.13-1.47,7.65-7.39,10.23-7.16,6.02,2.78,11.91,7.64,17.72,10.49,6.4,3.14,31.9,14.06,37.47,12.62.95-.25.83-2.49,1.51-2.52,2.1-.1,11.85,3.97,14.97,4.65,12.07,2.63,48.61,5.54,58.86.68,18.51-8.76,36.05-8.51,56.72-10.17-.82,2.27-2.69,2.58-4.63,3.34-52.27,20.34-111.61,30.26-164.22,5.44-10.26-4.84-18.6-12.29-28.63-17.37Z"/>
  <path class="st19" d="M445.59,349.76c17.13,7.7,19.62,36.21,13.49,51.53l-2.14,1.85c-1.2.19-14.66-.74-16.25-.99-12.26-1.93-28.55-19.38-17.18-30.31,2.43-2.12,5.27-5.54,7.15-8.18,4.48-6.28,6.39-17.74,14.93-13.9Z"/>
  <path class="st9" d="M449.27,418.47c-.7.66-8.03,5.2-9.18,4.91-3.28-1.99-.48-4.28-.56-6.81-.21-6.84-17.23-15.19-23.16-17.33-6.23-2.25-19.11-3.45-23.47-5.97-.49-.28-7.17-8.04-7.4-8.55-.78-1.77.47-1.69,1.5-2.12,3.68-1.55,9.91-1.91,14.76-3.67,4.65-1.69,9.43-4.67,13.8-7.04l2.46,3.68c1.42,0,4.25-2.6,5.5-3.7-4.16,10.84.84,18.46,9.54,24.48,10.12,7,16.13,1.14,26.03,4.96-.97,2.43-8.49,15.93-9.81,17.18Z"/>
  <path class="st15" d="M434.55,488.4c6.88,4.9,20.96,5.79,22.07,15.94-8.99-2.18-16.47-5.94-25.74-7.98-5.8-1.27-16.48-3.41-22.09-3.06-3.61-.36-2.79-4.77,0-6.13,8.14-4.31,16.86-.05,25.76,1.23Z"/>
  <path class="st18" d="M406.34,485.94c-.18,3.56-.03,2.54,2.45,1.23-1.81,2.2.05,5.11,0,6.13-1.21.08-2.64.59-3.68,1.23-.11-3.51-.6-5.56,1.23-8.59Z"/>
  <g>
    <path class="st25" d="M440.69,336.26c.03,2.25-.53,8.44.2,9.62.17.28,4.68,1.99,5.93,2.65,1.62,1.59.94,1.94-1.23,1.23-5.78,2.28-9.88,7.07-12.29,14.38-1.31,1.94-6.25,9.07-8.18,8.46-.56-.18-1.09-.45-1.61-.75-2.63,6.52-5.56,7.62-8.81,3.3-8.09,4.83-16.78,8.03-26.08,9.59l5.65,6.54,22.92,5.66c9.06,3.23,27.5,12.04,24,23.52,3.18-2.63,5.87-3.29,8.07-1.98,2.18-.25,1.22.98,0,2.45-.11.35-1.27.79-1.08,1.69l1.08.76c.81,1.47,0,1.88-2.45,1.23.25,2.43-1.1,4.65-4.05,6.68,1.84,3.44,2.88,6.64-.52,9.42-6.67,5.45-43.02,3.83-52.85,2.57-5.51,4.4-11.43,8.12-17.73,11.16,17.82,4.72,31.27,11.69,43.91,25.44l24.65,4.59c-2.42-5.73-2.26-9.33.46-10.79,1.84,0,3.07,2.05,3.68,6.13,3.13-1.34,4.8.57,3.68,3.68,3.61,3.27,1.75,3.63-2.45,3.68-.39-.04-.83-.02-1.23,0-1.02,3.62-4.29,4.03-9.81,1.23l-2.05,2.15c-7.35-2.56-14.45-3.16-21.3-1.8l-2.41-1.58c-2.6,4.67-3.76,3.49-2.45-1.23-1.14-2.01-1.03-3.22.9-4.18-.15-5.34-43.28-23.96-51.34-23.78-4.59,1.79-8.22,1.71-10.89-.25-12.65,3.08-25.61,5.29-38.88,6.63-28.18,12.44-61.45,10.78-90.09,1l-2.02,1.76c-18.5.42-41.02-13.27-56.61-22.81-3.37,3.66-6.65,5.27-9.87,4.83,1.42,3.83-8.38,9.73-10.98,8.31-4.65-2.54.22-12.14,4.84-9.54-.65-.95-.73-1.91-.15-2.86l9.99-5.62-8.08-7.45c-5.64,3.56-11.18.6-16.61-8.88l-16.58-23.18c-2.09.93-3.88.16-5.37-2.32-4.22-1.98-7.32-6.24-9.28-12.79-2-4.09-10.14-20.93.06-17.27,3.66,6.67,7.16,13.36,10.49,20.08,4.84-5.58,14.67,9.48,12.22,13.66,6.39,4.59,10.88,10.94,15.19,17.42,1.14-3.83,3.39-3.18,6.22-1.17,17.18,18.24,39.35,32.66,63.29,40.62.87-2.37,2.32-3.69,4.36-3.97,23.5,9.69,48.37,12.66,73.08,10.17.2-2.58,1.45-4.65,4.12-5.25l78.48-10.47c7.1-1.61,22.09-7.47,20.58-16.5l2.08-2.63-.79-2.57c6.78-5.47,3.72-26,1.07-33.05-6.4-17.03-51.56-23.5-66.71-24.15l-3.49-2.8c-5.79.12-11.51-.29-17.17-1.23-8.09,3.19-22.43,2.66-29.44-2.45-2.4-1.69-1.58-2.91,2.45-3.68-1.34-3.13-.07-3.46,2.45-1.23,4.99-.06,8.67,1.17,11.04,3.68,4.97-.03,9.88.38,14.72,1.23,15.09-2.81,32.05-1.14,46.61,3.68,12.78,1.05,24.31,4.69,34.61,10.93,5.58,2.01,29.56-8.4,34.84-12.23,1.78-4.07,4.74-4.68,8.64-2.44,5.01-6.71,9.24-13.65,12.68-20.8-3.57-1.57-1.08-11.38,2.45-12.27,1.96,1.03,1.2,4.17,1.23,6.13Z"/>
    <g>
      <path class="st29" d="M437.01,342.4c-.76,3.61-.55,5.52-2.24,9.42-1,2.31-9.04,14.5-10.66,15.11-2.21.83-1.83-2.29-2.43-2.48-3.57-1.1-2.96,1.99-4.36,2.97-7.03,4.89-29.03,14.43-37.06,12.81-2.4-.48-4.58-3.12-7.03-4.1-8.83-3.54-18.04-6.05-26.99-9.2,27.68,1.81,66.46.6,87.52-20.78,1.5-1.52-.33-4.58,3.25-3.76Z"/>
      <path class="st32" d="M104.6,397.61c2.27,2,5.04-.95,5.52-.9,2.26.23,22.58,34.01,28.24,35.25,2.78.61,2.67-4.01,3.65-3.66,2.33.83,7.7,6.56,9.85,8.62,1.24,1.18,5.14,1.16,2.27,3.75s-10.09,5.18-12.72,7.26c-13.33-15.92-26.77-31.98-36.8-50.3Z"/>
      <path class="st14" d="M394.24,420.76c-.56-.87-.42-10.93.47-10.89,15.26,3.74,33.15,4.96,44.73,16.58-5.02,5.66-13.16-.12-19.56-1.27-3.83-.69-24.71-2.96-25.64-4.41Z"/>
      <path class="st30" d="M435.77,418.46c-.52.59-12.63-4.91-14.7-5.53-5.13-1.53-26.57-4.42-27.99-7.59-.88-1.97-.87-6.54-1.46-8.96,2.38-2.21,30.06,7.89,34.38,10.38,2.58,1.49,12.75,8.33,9.77,11.69Z"/>
      <path class="st33" d="M435.78,433.19c1.03.81,1.61,2.13.76,2.74-2.65,1.92-44.36,1.3-46.08-.25-2.47-.69-2.02-2.89-1.29-4.95.82-2.31,2.84-7.22,5.41-7.3,13.65,4.01,28.43,3.07,41.2,9.75Z"/>
      <path class="st5" d="M389.17,430.73c-.7,3.86,1.91,2.09,4.21,2.48,12.35,2.05,25.21,1.16,37.79,1.65,2.02.08,3.55,1.68,4.61-1.67,3.68,1.92,5.65,3.56-.66,4.86-6.81,1.41-41.62,2.6-45.99-.52-2.91-2.08-.61-4.96.04-6.8Z"/>
      <path class="st18" d="M315.58,366.94c-5.43-.66-12.48,1.52-17.17-1.23,5.67.54,11.71.7,17.17,1.23Z"/>
      <path class="st18" d="M299.63,363.26c-5.54-.36-9.45-.53-14.72-1.23,4.65.61,10.98-1.47,14.72,1.23Z"/>
    </g>
  </g>
  <g>
    <path class="st17" d="M449.27,423.37c5.17-.25,17.22,8.75,20.88,12.86,3.31,3.72,5.82,10.71,7.66,12.58,1.32,1.34,6.36,3.08,8.84,5.26,5.5,4.83,18.34,18.56,17.52,26.18-.31,2.85-3.74,4.43-4.35,6.56-1.09,3.76,1.51,9.14-4.82,9.95-1.69.22-4.95-1.33-5.24-1.01-.54.59,1.19,6.67-4.37,7.39-8.51,1.11-28.52-14.93-39.79-15.97,1.53-.95,2.88-1.64,2.45-3.68l2.51-1.36c11.1,5.79,22.36,11.46,33.97,16.13,1.86-8.31-30.58-32.99-36.56-26.41-.66,3.54-1.86,6.2-3.61,7.96-1.75-2.19-2.47-3.18-3.68-6.13-5.53-6.46,6.87-10.39,12.8-10.82,1-4.38,3.66-6.74,7.96-7.8-.63-5.77,2.72-8.75,8.14-10.05,2.98-2.92-18.21-16.86-22-17.31l-.77-3.1c.71-.32,2.32-1.22,2.45-1.23Z"/>
    <path class="st2" d="M448.05,483.49c-2.09-1.4-2.25-1.89-3.68-3.68-2.77-23.85,26.09-3.86,33.76,3.65,2.63,2.57,14.68,17.16,6.17,17.21-2.24.01-32.8-14.87-36.25-17.18Z"/>
    <path class="st2" d="M457.86,467.52c3.4-16.95,24.55,1.3,30.62,8.03,3.11,3.45,14.68,17.98,4.33,17.87-4.15-.05-11.74-11.18-15.98-14.8-5.33-4.56-12.2-9.1-18.97-11.1Z"/>
    <path class="st7" d="M469.68,449.23c9.02-3.03,29.59,19.51,30.85,27.81.27,1.78.74,5.93-1.6,6.44-1.22.27-11.8-13.48-14.73-15.92-3.66-3.04-15.11-8.38-16.66-10.41-1.61-2.1,0-7.21,2.14-7.93Z"/>
  </g>
  <g>
    <path class="st18" d="M163.48,247.93c2.84,1.53.23,8.27,1.24,9.82l2.44-1.23,2.87,2.39c7.05,30.17,39.48,47.1,66.87,55.1l1.41,2.62c8.99,1.1,17.94,2.67,26.85,4.72,20.65-15.13,52.2-22.18,77.71-25.79l4.61,1.43,3.68,1.23c-23.52,6.7-71.66,12.69-87.11,31.27-7.94,9.55-1.14,8.33.62,11.67,1.24,2.34.62,6.18,2.1,9,.64,1.21,5.43,5.78,7.11,8.18-.69.48-1.93.72-2.45,1.23q-6.27-3.12,0,0c-.9.86-1.56,2.66-2.45,3.68-25.52-4.03-48.91-13.82-69.81-28.94-9.73-7.04-17.82-15.6-25.84-24.43,3.97-4.43,3.21-.43,5.42,1.86,1.8,1.87,3.97,3.28,5.59,4.89l4.94,1.73c5.48,5.46,35.89,28.81,43.53,28.92,1.22.02,20.61-10.84,21.51-11.67.33-.3,4.04-7.14,3.68-7.34-8.25-1.78-16.59-3.76-24.57-6.6-.73-.26-1.35-.86-1.99-1.51s-1.21-1.47-1.72-2.3c-32.29-10.83-65.31-32.34-66.24-69.93Z"/>
    <path class="st23" d="M184.33,316.63c7.73-2.92,17.83,8.07,25.36,8.28,1.4.04,14.87-3.84,18.23-4.57,2.6-.56,4.18,1.21,1.79-2.49,10.37,3.48,21.07,6.72,31.89,8.6l-5.42,11.12c-5.5,1.19-19.22,11.98-23.39,12.11-2.93.09-22.49-11.65-26.26-14.15-8.73-5.79-14.88-11.69-22.19-18.91Z"/>
    <path class="st22" d="M347.47,297c-25,6.1-51.17,8.42-73.99,21.08-2.31,1.28-5.57,5.19-7.86,5.66-5.3,1.09-21.53-5.27-27.32-7.11,18.41-2.73,35.86-10.23,53.71-15.6,14.46-4.35,29.92-6.12,43.66-12.76l9.34-5.99c3.21,4.02,10.36,11.36,2.45,14.72Z"/>
    <path class="st27" d="M237.08,352.2c-1.83-1.89.61-2.11,1.58-2.73,3.36-2.16,14.15-7.62,17.77-8.08,8.65-1.1,10.37,12.27-1.89,14.27-2.24.37-16.58-2.56-17.46-3.46Z"/>
    <path class="st3" d="M271.42,359.58c-2.61.04-5.21.12-7.83-.15-1.24-.13-5.77-.49-5.66-2.29,7.06-3.8,8.66-5.27,13.48,2.44Z"/>
  </g>
  <g>
    <path class="st31" d="M163.48,247.93c-1.49-60.15,60.89-119.92,117.64-79.03,2.84,2.04,11.3,10.83,13.26,11.38,2.13.6,18.98-4.49,24.21-4.78,31.9-1.77,50.01,24.64,52.18,54.03,4.95,19.71-.03,42.67-12.27,58.89-.21.35-4.63,1.15-3.67,6.13l5.52-3.67,3.06,3.68c-4.16,1.4-8.06,2.48-12.27,3.68-2.37.43-3.59.02-3.68-1.23,2.18-5.16.32-7.9-3.39-11.99l.94-2.73c-3.18-.2-6.26-1.97-9.25-5.3-16.48-8.42-35.96-26.85-22.47-45.94,16.83-23.82,50.07-2.08,55.03,18.11-3.23-3.56-4.34-16.3,0-19.02l-2.51-2.02c-3.93-34.89-30.7-57.77-65.21-42.92-4.53.87-8.48.44-11.9-2.94-35.87-39.1-88.86-20.22-110.42,23.75l18.38-8.88c63.04-26.56,78.19,54.75,6.61,45.86-11.96.96-23.73,5.61-32.72,13.63l-3.38-.1c-1.4,5.09-2.63,2.22-3.68-8.59Z"/>
    <path class="st4" d="M370.77,229.53c3.17,3.45,2.44,8.56,2.45,12.88l2.46-1.84c-.44,9.65-2.08,19.19-5.28,28.46-2.38,6.91-7.54,14.54-10.64,21.26l-1.26-1.87c10.16-16.54,13.68-39.77,12.27-58.89Z"/>
    <g>
      <path class="st13" d="M165.94,251.6c-.11-9.07.48-29.95,7.43-36.11,1.83-1.62,8.76-5.63,11.34-7.06,14.16-7.89,37.61-16.96,52.29-6.43,11.77,8.44,11.33,25.9-1.96,32.23-15.33,7.3-35.37.29-54.66,9.12-2.02.93-13.74,9.04-14.43,8.25Z"/>
      <path class="st26" d="M237.07,219.72c3.64,3.67-8.5,7.66-10.98,8.05-5.71.88-13.45-.65-18.4-3.82-6.33-4.05-9.83-14.5-1.25-8.57,6.45,4.45,11.52,7.7,20.09,6.69,2.18-.26,9.3-3.59,10.53-2.36Z"/>
    </g>
    <g>
      <path class="st24" d="M329.52,267.1c-5.6-4.37-13.15-11.3-13.94-18.55-2.63-24.43,22.43-27.42,37.4-14.11,3.25,2.89,12.95,16.84,13.59,20.77.78,4.85-8.52,32.28-12.37,33.2-2.31.56-5.9-8.03-8.09-10.29-4.49-4.64-12.01-7.45-16.59-11.02Z"/>
      <path class="st21" d="M322.94,241.8c5.34,1.3,7.12,6.91,12.25,9.21,7.29,3.26,9.73.75,15.65.84,5.3.08,2.49,5.16-3.96,5.92-10.69,1.26-24.25-3.88-23.94-15.96Z"/>
    </g>
  </g>
  <g>
    <path class="st34" d="M167.16,256.52c8.19-8.67,22.07-14.57,33.88-15.8,13.72-1.43,26.38,2.25,38.9-6.49,14.45-10.1,9.12-31.16-6.07-37.69-20.7-8.91-42.39,6.36-60.57,14.58,15.85-39.29,61.14-68.66,101.69-43.44,4.17,2.59,16.6,14.76,19.17,15.23,8.54,1.56,22.56-6.65,35.23-4.61,22.09,3.55,38.93,30.63,38.93,51.85v19.02c-2.95.65-1.98-.5-2.74-1.6-3.74-5.47-5.53-10.17-10.74-14.98-28.01-25.82-59.76,7.5-33.7,31.26,8.02,7.31,16.82,9.58,23.88,18.44,1.37,3.84-8.12,8.37-11.59,9.7-28.57,8.28-57.18,16.74-85.82,25.4l-9.31-.74c-1.08-.34-2.99.04-4.86-.6-27.13-9.34-62.28-28.18-66.28-59.52Z"/>
    <path class="st20" d="M281.23,229.53c8.47,1.11,14.4,6.11,19.63,12.27,1.49,21.04-27.55,22.06-38.02,7.97-12.43-16.74,3.22-22.23,18.39-20.23Z"/>
    <g>
      <path class="st6" d="M281.23,229.53l-1.73,2.27c-13.16-1.66-26.04,3.94-13.82,17.57,9.15,10.21,31.78,11.2,32.78-5.78l2.4-1.79c8.42,9.91,19.29,26.91,5.31,36.6-19.83,13.76-53.62,7.9-68.5-10.82-9.72-12.23-9.5-20.78,3.94-29.22,10.91-6.85,26.73-13.02,39.62-8.83Z"/>
      <path class="st11" d="M308.2,266.33c-.09,7.62-9.09,8.99-15,8.28-8.12-.98-13.7-6.45-20.49-7.74-5.41-1.02-10.3,0-15.41-.54-6.92-.74-19.71-6.74-20.23-14.72,3.5-.23,3.75,3.65,6.17,5.47,11.58,8.68,20.38,4.68,32.18,7.07,10.16,2.06,21.19,14.68,32.77,2.18Z"/>
    </g>
  </g>
</svg>