<?xml version="1.0" encoding="UTF-8"?>
<svg id="Layer_1" xmlns="http://www.w3.org/2000/svg" version="1.1" viewBox="0 0 547.5 635.52">
  <!-- Generator: Adobe Illustrator 29.6.1, SVG Export Plug-In . SVG Version: 2.1.1 Build 9)  -->
  <defs>
    <style>
      .st0 {
        fill: #050505;
      }

      .st1 {
        fill: #a26b7f;
      }

      .st2 {
        fill: #d6d5d5;
      }

      .st3 {
        fill: #f1769c;
      }

      .st4 {
        fill: #7a7b7c;
      }

      .st5 {
        fill: #df628b;
      }

      .st6 {
        fill: #d2d2d2;
      }

      .st7 {
        fill: #d3d1d0;
      }

      .st8 {
        fill: #d0d0d0;
      }

      .st9 {
        fill: #de5883;
      }

      .st10 {
        fill: #e05b86;
      }

      .st11 {
        fill: #282226;
      }

      .st12 {
        fill: #7b7c7c;
      }

      .st13 {
        fill: #e4e4e4;
      }

      .st14 {
        fill: #e05a86;
      }

      .st15 {
        fill: #de5885;
      }

      .st16 {
        fill: #7b7a7b;
      }

      .st17 {
        fill: #d1d1d0;
      }

      .st18 {
        fill: #4e2633;
      }

      .st19 {
        fill: #de5c89;
      }

      .st20 {
        fill: #312c2d;
      }

      .st21 {
        fill: #4a2b35;
      }

      .st22 {
        fill: #cececd;
      }

      .st23 {
        fill: #e2e2e3;
      }

      .st24 {
        fill: #482b34;
      }

      .st25 {
        fill: #292828;
      }

      .st26 {
        fill: #4b2c35;
      }

      .st27 {
        fill: #c4c4c3;
      }

      .st28 {
        fill: #c5c5c3;
      }

      .st29 {
        fill: #d5d5d5;
      }

      .st30 {
        fill: #040406;
      }

      .st31 {
        fill: #d0cfce;
      }

      .st32 {
        fill: #352d30;
      }

      .st33 {
        fill: #202021;
      }

      .st34 {
        fill: #c6c5c5;
      }

      .st35 {
        fill: #f2769e;
      }

      .st36 {
        fill: #453b3e;
      }

      .st37 {
        fill: #cdcccc;
      }

      .st38 {
        fill: #161618;
      }

      .st39 {
        fill: #7b7c7d;
      }

      .st40 {
        fill: #502031;
      }

      .st41 {
        fill: #7b7b7b;
      }
    </style>
  </defs>
  <path class="st18" d="M300.88,78.76c1.63-2.68,3.18-1.65,4,1,1.42.05,17.86-.26,14.99,3.98l-2.99,2.01c19.83,7.53,34.96,27.99,42.02,47.49,10.11,27.96,7.31,53.25-9.2,77.83-7.69,11.44-31.24,35.43-30.74,49.03.37,10.07,11.75,31.22,23.93,29.66l-1,2.98c28.46,8.2,57.95-22.1,85.23-14.72,2.74.74,6.34,3.43,8.36,3.72,3.03.43,6.01-.71,10.41,0,1.07.72.73,1.05-1,1-.85,1.26-2.51,1.26-5,0-.02,1.36-.82,1.94-1.09.95-.37-1.35,4.2,2.29-2.91,1.05-.36,2.7-4.06,3.75-6,2-1.41,1.33-1.92.77-1-1-.92-1.51-.61-2.39.83-3.1-9.68-3.49-19.71-1.64-29.32,1.37l-25.42,8.93c-15.47,5.41-33.56,8.61-46.18-4.45-4.41-4.56-9.88-11.29-8.92-17.75-1.9.89-2.32-.07-2.71-1.81-5.32,15.38-6.88,31.77-8.24,47.87-.93,11-2.62,34.98.06,44.95.62,2.3,10.15,11.01,11.05,10.81,3.25-2.26,7.21-1.19,11.85,3.21l1.38-1.43c19.97,3.84,37.69-1.93,53.5-13.47,1.82-.45,3.11.53,3.94,2.2,13.66-7.7,24.96-19.6,34.88-31.59l2.29.26c1.41-1.33,1.92-.77,1,1-6.94,9.79-28.8,32.25-39.99,35.61-2.97.89-3.74-1.55-5-1.13-2.14.72-5.98,4.2-8.64,5.4-11.55,5.21-24.91,8.09-37.37,5.11,1.08,8.7-12.42-2.63-13-2,.65,4.28-1.49,3.51-4.36,1.86l-14.64-11.85c.11,31.1-8.96,61.75-27.77,86.51,20.95,22.02,29.09,52.03,38.68,80.07,2.2,2.65,10.35.44,13.08,4.42-.23,2-1.23,1.92-2,0,.12,3.52-13.43-.11-13.82-.76-11.11-36.81-24.59-72.18-54.25-98.02-2.1-.58-20.55-17.45-10.18-15.69,2.88.49,12.19,8.83,12.25,12.48,5.45,2.79,10.35,6.82,14.68,12.1,3.91-5.32,8.01-10.69,12.32-16.1.29-5.34,1.82-10.7,4.57-16.08,7.99-30.47,11.33-61.83,10.04-94.08-.69-44.8,15.23-82.05,45.5-114.1l6.88-10.75c8.48-21.25,7.8-42.8,0-64-10.8-18.9-22.59-36.4-43.62-44.49-.89-1.23-1.52-2.51-1.88-3.85l-12.25-.73c-3.92-2.99-.35-6.78,2.75-3.94Z"/>
  <path class="st21" d="M82.88,339.76l-2.99,1.48c-2.35-14.86.95-30.3,5-44.48h-3.01c6.31-15.88,16.88-30.67,30.57-41.01-2.11-6.56,3.57-6.5,8.36-9.57,5.15-3.29,25.32-15.88,28.1-19.17,3.75-4.45,9.81-20.57,12-26.73,12.36-34.81,13.6-73.54,43.51-99.49,22.22-19.28,49.76-22.07,77-29.91,2.9,1.94.63,2.78-.53,4.87,4.3,0,21.39-2.74,23.58,0,.61.76-.5,2.98.42,4.01-1.62-.06-3.44-1-4-1-1.78-1.65.15-1.07.05-1.01-1.07.55-22.69,3.51-23.78,2.98-1.99-.29-2.7-1.7-3.2-3.56-49.49,8.73-79.21,24.24-94.97,73.7l-11.22,41.44-2.88,2.45c-.73,8.76-3.53,17.26-8.4,25.5l11.08-6.67c2.41-.85,3.96-.53,3.32,2.17l.28,2.19-52.22,32.66.33,3.02c-12.05,10.84-23.7,22.17-30.81,36.73l2.29,2.85c-2.51,6.07-4.37,12.36-5.58,18.87l-2.28,1.68.71,21.7-1.71,2.3c.08.56.9,1.37,1,2Z"/>
  <path class="st35" d="M164.88,194.76c11.34-34.52,11.94-67.94,41.99-93.51,20.39-17.36,47.72-21.57,73.01-27.48-.37,1.05-6.56,4.44-2.48,4.99,1.86.25,10.69-1.83,13.94-2.05,2.48-.16,5.54-.06,8.06.05,2.46.11,3.27-.71,1.49,2-1.4,0-2.7.48-3,1.99l19,1.02c.08,2.31-5.1,1.21-3.99,3.48.34.7,11.24,5.63,13.72,7.29,14.15,9.42,23.08,23.87,29.27,39.23.27,1.22.22,1.54-1,1-2.33-2.56-4.48-5.62-6.45-9.18-15.36-19.95-27.66-17.38-45.94-3.9l-18.61-7.65c-34.56-11.58-65.18,12.28-72.99,45.73-1.49,16.69,2.18,33.58,9,49,35.04,34.55,107.47,31.75,135-11,.3-.64.63-.63,1,0-9.79,22.52-28.81,36.47-38.48,60.02-23.64,57.54-.15,118.09-28.52,174.98-5.51,9.88-18.33,7.72-27,4-4.04-3.79-8.5-7.16-12.5-11-.74-.16-.68,1.04-.49,1.48,1.27,2.84,9.89,8.91,12.52,11.49,8.61,8.43,17.89,18.4,24.69,28.31,14.29,20.8,21.91,45.82,29.28,69.76l12.5,1.96c1.39,1.37-3.23,7.55-3.95,8.28-1.62,1.66-4.09,1.33-5.32,3.96-1.58,3.4.26,6.91-1.68,10.32-2.71,4.76-14.97,9.54-20.06,11.44-15.05,3.98-28.09-5.62-37.57-16.74-17.09-25.72-40.1-42.55-67.02-57.62-10.25-6.43-24.82-15.83-25.83-29.28l1.42-2.37-.7-6.12c4.23-4.4,6.46-10.03,6.7-16.88,0-.33,0-.67,0-1,1.68-6.16,1.57-12.8-.32-19.91,2.22-5.6,2.93-12.18,2.11-19.72l-.56-8.44c-7.19-34.56-4.22-76.58,24.77-99.93.07-.65-.03-1.34,0-2l-3.99.99,2.99-3.5c.16-.74-1.02-.67-1.48-.48-2.26.93-11.61,8.02-13.99,10.02-43.9,36.91-7.72,68.11-11.55,108.45-1,10.57-1.74,6.18-7.29,9.46-1.49.88-2.32,4.65-2.82,4.99-.46.32-3.23-1.13-5.14-.79-2.46.43-4.23,3.54-5.38,3.74-.39.07-6.23-2.42-7.36-2.88l-2.52.7c-34.49-21.83-56.22-67.27-58.48-107.7.55-3.3.81-6.52,1.72-9.78.96-3.44,3.66-7.43,4.25-9.76.74-2.92-3.67,0-2.93-2.91.75-2.96,7.92-13.87,10.13-16.88,6.08-8.28,13.72-14.93,21.81-21.17l-2.97-2.49,55.99-35.01c-.13-1.66.94-2.84,3.2-3.56-7.33-4.51-11.25-8.16-9.2-17.44Z"/>
  <path class="st9" d="M71.88,498.76c5.45-10.59,15.74-11.57,25.36-16.14,12.98-6.17,22.83-13.54,29.14-26.84,18.69,23.15,44.51,38.55,69.49,54,1.21,1.77-8.36,9.11-10.08,10.4-22.59,16.86-50.96,23.45-78.91,21.6.95,2.06,4.32,3.16,2,5.99-2.11.13-9.91,1.04-11.39.77-1.23-.22-4.28-3.97-7.36-4.57-2.82-.55-6.14,1.12-7.96-.46-6.33-5.49-11.26-25.95-11.37-34.22-.05-3.57,1.54-7.48,1.08-10.52Z"/>
  <path class="st15" d="M143.88,420.76c-3.19,2.36-6.26,3.17-6.01,8-32.12-16.92-51.46-57.78-53.47-93.02l-2.52,2.02c-1.38-9.2-.52-14.85,1-24,3.32,11.87,4.66,24.21,8.54,35.96,7.19,21.78,30.8,62.08,52.46,71.04Z"/>
  <g>
    <path class="st40" d="M143.88,420.76c1.33-1.57,3.71-1.34,7.14.67,2.76-3.37,5.63-3.85,9.75-3.36,1.16-3.83,4.36-5.38,8.08-5.99,5.85-4.68-5.01-49.82-7.65-58.09-3.64-20.21-1.73-33.63,12.38-49.58,1.63-1.84,21.96-20.66,24.87-18.61,2.26,1.59,4.52,6.1,1.43,6.96-10.86,5.72-18.49,10.15-25.78,20.67-10.23,14.73-10.95,29.9-6.13,47.1,4.46,14.99,7.81,29.09,7.66,44.83-2.37,9.39-2.55,19.28-.55,29.67.49,2.65.1,4.56-1.19,5.73v1c-.68,5.34-1.63,10.7-4.8,15.23l-1.2-.23c-2.03.95-3.82,1.29-5.39,1.03-2.2,4.95-6.2,9.96-11.33,4.91-5.59,7.54-11.22,2.37-12.09-5.47l-3.08-25.22c-8.2-4.03-15.47-9.45-21.8-16.26,1.34,27.04,23.78,50.11,45.32,65.89,16.11,9.53,31.22,19.97,45.34,31.33,1.3-2.95,4.33-2.41,6.54-.69,18.22,13.68,32.09,31.57,45.21,50.18,2.88,3.35,5.96,6.61,9.82,8.81l.47,2.47c1.33,1.41.77,1.92-1,1-17.1-11.06-23.44-28.6-37.99-42.51-5.13-4.91-11.94-8.72-16.52-14.48-2.3,6.51-10.35-5.42-13.14-5.92-5.21,3.76-9.3,8.42-14.63,12.14-15.82,11.03-38.01,18.24-57.18,19.82-4.51.37-9.49-.36-14.07-.05-2.85.19-1.04,2.48-1.47,4.01-.28,2.63-1.02,2.37-2,0-3.67-4.13-3.73-6.74-.18-7.85,30.66,1.58,62.97-7.32,84.77-29.17-24.61-13.6-46.53-30.34-65.75-50.24l-1.41-.25c-6.02,10.85-15.95,18.35-27.02,23.6-10.31,2.77-18.6,7.59-24.87,14.47l-2.54.44c-1.4.9-1.88.42-1-1,3.39-4.34,2.03-5.57,8.08-9.42,10.41-6.61,23.1-7.91,33.39-16.6,3.52-2.98,12.55-14.07,12.12-18.48-.09-.91-6.32-9.8-7.46-12.14-6.65-13.66-4.67-23.7-8.36-35.64-.81-2.61-8.79-13.05-10.95-17.05-9.35-17.28-11.88-29.55-14.83-48.67-1.95.75-2.65-.67-1-2,.07-3.54,3.21-4.48,4.35-.78,3.57,34.7,19.4,70.01,50,88.6,1.32-3.39,3.94-5.91,7.65-4.82Z"/>
    <g>
      <path class="st15" d="M266.88,573.76c-11.56-5.12-21.99-25.35-30.49-35.01-4.84-5.51-19.45-20-25.02-23.97-1.23-.88-2.35-1.91-3.97-2.01-1.84.21.44,4.22-2.01,2.99-2.44-1.23-8.98-7.58-12.2-9.81-15.41-10.68-32.15-19.21-46.33-31.67-19.63-17.26-34.7-37.34-35.98-64.51,8.13,7.9,16,16.08,26.5,20.99,2.92,8.74,1.86,22.13,4.73,30.27,2.47,6.99,8.15,1.85,8.77-3.25,1.7-.13.9,2.24,1.91,3.56,4.42,5.78,8.16-5.87,9.09-6.57.25-.19,3.93,3.21,5.98,2,0,2.63,0,5.3,0,8,4.54,16.96,8.31,18.21,22.53,27.97,16.79,11.52,35.51,20.26,50.01,34.99,13.98,14.2,23.67,36.33,44.43,41.56,4.35,1.1,7.86.56,12.03,1.48-9.57,3.59-19.73,7.55-30,3Z"/>
      <path class="st10" d="M199.88,292.76c-.37,3.22-5.65,6.65-7.83,9.67-9.19,12.73-16.95,32.16-18.16,47.84-1.72,22.32,6.06,46.82,3.07,69.05-.26,1.92-2.08,1.35-2.11,2-.19,5.67,2.24,14.49,1.03,20.92l-2-1.5c.08-4.78.45-10.76-.11-15.39-.36-2.96-2.64-6.97-2.62-8.92.03-2.92,2.3-8.62,2.6-12.32,1.98-24.52-14.98-49.02-9.62-73.62,3.37-15.45,19.03-36.18,35.75-37.75Z"/>
      <path class="st17" d="M143.61,422.91c12.57-3.35,8.23,29.21,5.04,36.12-1.44,3.13-2.8,6.14-4.76,1.22-.75-1.89-4.89-27.66-4.83-30.02s2.12-6.67,4.55-7.32Z"/>
      <path class="st6" d="M153.89,460.76c-2.45-2.04,1.8-29.09-1.03-34.44,2.3-5.65,6.99-6.69,9.34-.38,3.12,8.38,1.48,20.51-2.14,28.5-.78,1.71-3.54,8.51-6.17,6.32Z"/>
      <path class="st22" d="M163.89,454.76c-1.86-1.3.85-8.38.98-10.51.26-4.31.27-9.72.05-14.03-.27-5.12-4.4-10.1,2.46-13.52,5.56,0,4.88,19.6,4.49,23.55-.25,2.51-3.69,17.52-7.98,14.51Z"/>
      <path class="st10" d="M167.88,464.76c-.8-2.98-.48-5.89-3.01-6.5-.08-.82,1.96-.34,3.01-1.5,3.2-3.54,3.8-10.9,6-15-.08,2.77.66,4.24-.03,7.39-1.32,6.04-6.26,9.75-5.97,15.61Z"/>
    </g>
  </g>
  <path class="st3" d="M319.88,270.76c22.33,52.83,68.41,4.82,102.38,8.13,1.7.17,9.87,2.09,10.62,2.89,1.37,1.45-2.77,2.59-4,3.98-3.62,4.13-.83,7.26-1.42,8.06-.76,1.03-4.35,1.35-6.11,2.91-5.05,4.46-2.48,13.08,4.53,14.03,9.27.54,8.11,3.24,2.59,9.35-38.23,41-123.73,49.48-115.59-29.54.42-4.06,2.35-17.43,5.26-19.13.53-.31,1.13-.51,1.75-.69Z"/>
  <path class="st14" d="M319.88,270.76c-6.29,14-7.06,34.56-2.72,49.22,12.21,41.21,66.86,31.16,94.45,12.01,4.5-3.12,17.9-14,19.25-18.75.83-2.91-4.39-.35-4.99-2.48,2.13.29,11.56-.41,12,0-.85,8-5.51,14.67-10,20.99-6.5,9.15-28.11,30.9-38.52,33.98-3.25.96,1.39-4.03-1.96-2.97-2.47.78-9.29,6.51-13.55,8.45-12.46,5.68-26.58,8.21-39.96,4.54l-.48,2.98c-3.11-1-7.46-5.12-10.04-5.97-3.21-1.06.45,3.34-.97,3.98-4.21-3.1-14.87-10.28-15.56-15.44-1.87-14.14-.31-43.13,1.18-57.92s4.96-28.01,8.88-41.62l2.99,8.99Z"/>
  <path class="st19" d="M288.88,430.76c-3.32,6.66-6.42,13.5-11.51,19.03-1.81-.07-12.89-12.59-15.49-15.03l18.56,1.08,8.44-5.08Z"/>
  <path class="st1" d="M355.88,195.76h-1c-.43-2.18,1.69-5.81,3-8-1.07-2.27-1.81-4.65.72-5.58,2.14-9.83,2.37-19.54.66-29.13l.62-4.28c-.62-.08-1.13-.2-1.24-.47-1.26-3.36-3.39-10.85-4.34-14.52-.07-.27.2-.63.58-1.01l1-1c9.27,22.98,10,40.99,0,64Z"/>
  <path class="st36" d="M439.88,282.76l3,2c-.03.55-.7.88-2,1-1.2-.2-4.75-1-5-1h3.01s-1.01-1.99-1.01-1.99c.66-.05,1.34.04,2,0Z"/>
  <path class="st5" d="M164.88,194.76c.74,2.58,1.75,8.35,2.94,10.31,1.7,2.79,15.81,7.04,3.06,10.69-.13.04-.59-1.1-2.63-.3-2.29.89-15.54,10.08-16.37,9.29,4.89-9.61,9.63-19.73,13-29.99Z"/>
  <path class="st18" d="M442.88,284.76c2.67.13,4.63.95,7,2l-1,1c-1.24-.52-6.41-1.74-8-2,.24-.92,1.17-1.04,2-1Z"/>
  <g>
    <path class="st26" d="M354.88,132.76c1.99,4.37,4.19,11.27,5,16,.22,5-.78,5.67-3,2-.7-.33-.7-.67,0-1-6.73-26.19-25.47-51.85-51.83-27.97-1.91,1.2-3.83.95-5.8.04-34.89-21.01-75.17-5.85-84.87,34.87l-2.49,2.07-1-1c6.69-33.35,34.68-56.14,69.39-47.89,4.61,1.1,20.53,8.89,22.12,8.84,2.86-.09,12.71-10.3,21.14-10.89,13.72-.95,26.19,13.58,31.35,24.93Z"/>
    <path class="st24" d="M357.88,187.76c-.66,2.16-2.05,6.05-3,8-21.07,43.02-107.45,46.82-135,11l1-1,2.59.21c33.81,32.23,108.97,29.72,130.41-16.23l3-1.98c.28-.87.62-.86,1,0Z"/>
    <path class="st29" d="M356.88,149.76c-11.98-13.95-34.12-5.73-27.77,13.27,5.02,15,23.3,10.36,27.77,24.73-13.7,34.77-51.26,43.7-85.48,40.98-14.95-1.18-42.02-9.81-50.52-22.98-.52-.8-1.78-2.97-1.84-3.68-.14-1.59,9.45-10.65,11.52-12.15,13.15-9.55,31.93-7.51,42.33-16.67,8.44-7.43,8.81-20.82-.68-27.34-20.57-14.13-47.16,10.78-60.84,24.83-.53-3.21-.11-8.86.5-12,6.53-33.13,36.04-55.95,69.99-46.49,4.47,1.24,18.47,8.41,20.51,8.42,2.24,0,11.52-8.37,17.06-9.87,20.35-5.5,34.79,19.01,38.07,35.99.44,2.27-.61,2.6-.63,2.95Z"/>
    <path class="st33" d="M324.88,164.76c3.75,8.32-6.54,17.19-14.45,17.03-8.58-.17-21.28-8.5-14.55-18.03,2.34-.94,4.16-3.17,7.74-3.76,8.87-1.48,14.32-.45,21.26,4.76Z"/>
    <g>
      <path class="st39" d="M295.88,163.76l1.1,1.99c-4,17.35,27.98,19,26.38.6l1.52-1.59c23.22,17.44-.65,38.43-21.54,37.03-12.49-.83-40.02-13.46-25.94-28.02,5.07-5.24,12-7.42,18.48-10.02Z"/>
      <path class="st38" d="M276.88,180.77l12.04,6.45c9.65,3.24,19.62,3.31,29.4.49,3.97-1.14,10.61-3.5,11.58-7.94,3.69,1.14.04,3.71-2.11,5.41-11.43,9.1-41.97,9.14-50.91-4.4Z"/>
    </g>
  </g>
  <g>
    <path class="st32" d="M329.88,536.76c9.45.63,17.1-2.79,28.55.95,8.44,2.76,9.37,4.31,9.43,13-6.34,1.06-2.78,1.89-3.2,4.41-.73,4.35-16.1,2.33-20.27,2.65-15.31,1.17-18.33,8.73-30.49,15.51-10.97,6.11-28.86,14.01-40.4,6.32-2.62-1.74-4.95-3.11-7.62-4.84l1-1,2.38-1.2c9.11,1.28,18.31.68,27.62-1.8l-.07-1.4c7.72-2.85,14.02-6.95,18.89-12.27.03-6.41.22-10.94,6.83-13.47,1.52-2.86,3.3-5.15,5.35-6.86.66.03,1.34-.04,2,0Z"/>
    <path class="st8" d="M362.87,555.75c-4.51,1.64-8.5-.23-13.49.02-5.34.27-26.14,4.87-29.03,2.01-3.91-3.87.31-9.73,4.52-11.52,8.62-3.67,30.33-1.25,36.51,6.48.8,1,1.9,1.32,1.48,3.01Z"/>
    <path class="st12" d="M327.87,560.77l-15.32,11.16c-10.93,5.35-26.05,13.08-37.67,6.32,11.49-.92,22.28-4.02,32.3-9.69,2.45-1.39,11.34-8.4,12.4-8.64,1.95-.45,5.76,1.67,8.29.85Z"/>
    <path class="st2" d="M326.88,543.75c4.69-8.9,20.33-6.1,28.37-2.86,2.14.86,11.15,5.88,10.63,8.35-.82,3.87-9.4-2.41-11.72-3.26-8.99-3.28-17.82-4.19-27.27-2.24Z"/>
  </g>
  <g>
    <path class="st20" d="M71.88,498.76l2.08.93c-2.53,11.53.19,22.89,4.43,33.82,3.24,8.34,4.24,9.22,13.11,8.75,5.86,4.6,8.38,5.07,15.84,3.61l1.54,1.88c.52-.03,1.81-.12,2,0,.49.29,4.96,8.65,5.49,10.01,1.98,5.13,3.99,14.6,1.85,19.76-1.11,2.67-3.9,1.14-4.19,1.4-.93.86-.99,4.87-3.85,5.69-3.95,1.13-4.71-2.53-6.8-4.86-.46-.24-2.01,8.73-7.54,3.54-3.09-2.9-6.48-17.52-10.12-22.88-3.48-5.12-9.48-9-13.25-14.75-7.16-10.93-14.03-31.39-6.43-43.25,1.48-2.3,3.77-3.29,4.84-4.67.48.12.93.53,1,1Z"/>
    <path class="st34" d="M94.56,548.07c1.37,1.48,4.04,7.55,4.77,9.73,1.55,4.63,5.82,23.94-.94,24.99-1.97.4-1.45-.85-2.03-1.97-1.75-3.39-13.4-29-13.47-30.67-.25-5.91,8.52-5.48,11.67-2.07Z"/>
    <path class="st28" d="M107,582.63c-3.76-2.14-3.61-27.5-9.11-32.38,7.43-6.11,13.17,9.52,13.91,15.1.39,2.98,1.25,20.74-4.8,17.29Z"/>
    <path class="st16" d="M81.87,553.76c-12-11.84-23.08-35.1-13.49-50.99.31,12.39,2.41,23.13,7.63,34.36,2.84,6.1,7.05,8.79,5.85,16.64Z"/>
    <path class="st27" d="M109.38,549.78c5,.25,11.42,27.9,6,27.96-2.02.02-1.57-10.64-1.95-13.03-.79-5-3.24-8.07-4.73-12.29-.41-1.16-.71-2.71.68-2.64Z"/>
  </g>
  <g>
    <path class="st25" d="M220.88,205.76c.83,1.54.57,1.95-1,1-10.72-13.94-12.36-32.25-9-49,.67-.96,1-.62,1,1,1.68,1.15,2.15,3.56,1.42,7.21,12.46-15.79,53.82-41.83,66.42-14.06,10.11,22.28-20.42,31.59-36.64,34.19-3.14.94-6.06,2.29-8.92,3.87-5.36,2.97-13.04,10.34-13.28,15.8Z"/>
    <path class="st41" d="M216.89,199.76c-1.69-1.23-6.49-21.54-6.03-24.44,1.01-6.41,28.54-26.8,35.75-29.33,12.41-4.36,32.82-1.49,31.23,15.15-1.73,18.08-28.07,16.89-40.98,23.09-4.62,2.22-9.72,6.04-13.5,9.5-1.42,1.3-5.04,7.06-6.46,6.03Z"/>
    <g>
      <path class="st0" d="M249.16,171.47c-8.56-6.98-.5-23.54,10.63-17.12,13.02,7.51-1.02,24.96-10.63,17.12Z"/>
      <circle class="st13" cx="257.16" cy="158.98" r="3.77"/>
    </g>
  </g>
  <g>
    <path class="st36" d="M445.88,281.76c7.51,1.22,17.81,7.34,21.38,14.11,3.04,5.75,0,4.37-.85,6.96-1.5,4.61.87,7.57-7.53,4.93,4.77,13.64-12.11,1.78-18.97,3.02-.99,8.67-6.25,15.22-11.03,21.97l-1-1-.56-2.67c3.46-4.88,6.78-10.01,8.14-15.93-3.02-.68-6.22-1.48-9.58-2.4-.41.91-1.27,1.88-2.08,1.57-10.29-3.91-9.05-17.35,1.5-19.54-.7-3.1-.29-8.26,3.58-7.03l1,1c1.28,1.19,1.55,2.98.81,5.37,10.46,1.2,18.73,5.17,27.4,10.82,11.73,6.39-4.55-11.55-8.77-12.76l-.44-2.43c-1.33-1.34-.81-1.31,1-1l1.25-.61c-2.64-.8-4.72-1.93-6.25-3.39l1-1Z"/>
    <path class="st7" d="M435.88,284.76c3.21-.62,4.87-.29,5,1,2.37-.72,6.6.09,8,2,5.6,2.35,14.19,10.7,15.82,16.69.46,1.7.76,2.45-1.33,2.34-5.63-.28-14.11-7.56-20.22-9.8-2.95-1.08-13.69-2.78-14.15-3.34-.68-.81-.04-5.78.89-6.9.86-1.03,4.7-2.01,6-2Z"/>
    <path class="st37" d="M444.88,282.76c6.41,1.12,19.96,9.18,21.82,15.68.42,1.45.74,2.72-1.31,2.31-4.47-5.53-8.83-11.02-15.51-13.99-2.01.19-5.42-.75-7-2-2.77.2-3.77-.47-3-2,1.36-.11,3.77-.22,5,0Z"/>
    <path class="st31" d="M458.88,312.75c-5.75-.28-10.83-3.27-16.62-3.87-7.4-.77-24.75,3.64-21.16-8.41,3.38-11.34,36.56,1.09,37.79,12.28Z"/>
  </g>
  <g>
    <path class="st11" d="M356.88,149.76c-.02.31-.08.87,0,1l-1.91,1.3c-17.41-15.91-33.96,5.74-14.96,17.97,5.62,2.4,11.05,5.18,16.28,8.32,1.43-1.62,2.54-22.06-.42-25.17l1.01-2.42c.06.1,1.9,1.1,1.99,1.01l1.01-3.01c2.08,12.11,1.6,27.2-2,39h-1l-2.33-.6c-4-5.9-10.06-10.11-18.18-12.62-13.51-7.2-14.75-29.55,1.96-33.31,6.46-1.45,17.92.96,18.56,8.53Z"/>
    <path class="st4" d="M356.88,150.76c5.71,10.24,1.67,21.17,1,32-2.72.76-1.86-1.73-3.45-3.01-8.78-7.03-23.99-7.05-24.61-21.48-.29-6.67,2.7-11.9,9.42-13.69,7.13-1.9,11.72,3.53,17.64,6.18Z"/>
    <g>
      <circle class="st30" cx="341.39" cy="159.73" r="8.56"/>
      <circle class="st23" cx="340.36" cy="156.32" r="3.38"/>
    </g>
  </g>
</svg>