<?xml version="1.0" encoding="UTF-8"?>
<svg id="Layer_1" xmlns="http://www.w3.org/2000/svg" version="1.1" viewBox="0 0 547.5 635.52">
  <!-- Generator: Adobe Illustrator 29.6.1, SVG Export Plug-In . SVG Version: 2.1.1 Build 9)  -->
  <defs>
    <style>
      .st0 {
        fill: #fbd8b6;
      }

      .st1 {
        fill: #f9d6b6;
      }

      .st2 {
        fill: #d3ac94;
      }

      .st3 {
        fill: #fbd9ba;
      }

      .st4 {
        fill: #030202;
      }

      .st5 {
        fill: #060304;
      }

      .st6 {
        fill: #f285a1;
      }

      .st7 {
        fill: #f187a0;
      }

      .st8 {
        fill: #010101;
      }

      .st9 {
        fill: #d4ab91;
      }

      .st10 {
        fill: #6c3a53;
      }

      .st11 {
        fill: #f0889e;
      }

      .st12 {
        fill: #d3a991;
      }

      .st13 {
        fill: #090203;
      }

      .st14 {
        fill: #060303;
      }

      .st15 {
        fill: #f8b3c4;
      }

      .st16 {
        fill: #d3aa90;
      }

      .st17 {
        fill: #e887a2;
      }

      .st18 {
        fill: #f9b9ca;
      }

      .st19 {
        fill: #030303;
      }

      .st20 {
        fill: #a25b79;
      }

      .st21 {
        fill: #d2a88f;
      }

      .st22 {
        fill: #fabacb;
      }

      .st23 {
        fill: #d86083;
      }

      .st24 {
        fill: #fad9bb;
      }

      .st25 {
        fill: #844261;
      }

      .st26 {
        fill: #919191;
      }

      .st27 {
        fill: #fcfcfb;
      }

      .st28 {
        fill: #d3ab93;
      }

      .st29 {
        fill: #311616;
      }

      .st30 {
        fill: #d4aa91;
      }

      .st31 {
        fill: #fbdbbb;
      }

      .st32 {
        fill: #ce8aa2;
      }

      .st33 {
        fill: #0b0203;
      }

      .st34 {
        fill: #c17694;
      }

      .st35 {
        fill: #f0f0f0;
      }

      .st36 {
        fill: #fafafa;
      }

      .st37 {
        fill: #d96787;
      }

      .st38 {
        fill: #f9d8b9;
      }

      .st39 {
        fill: #fbd6b2;
      }

      .st40 {
        fill: #d75e83;
      }

      .st41 {
        fill: #020201;
      }

      .st42 {
        fill: #f5f5f5;
      }

      .st43 {
        fill: #d5a991;
      }

      .st44 {
        fill: #51213b;
      }

      .st45 {
        fill: #d4ac92;
      }

      .st46 {
        fill: #fabaca;
      }

      .st47 {
        fill: #200a0d;
      }

      .st48 {
        fill: #0d0202;
      }

      .st49 {
        fill: #874764;
      }

      .st50 {
        fill: #fac3c4;
      }

      .st51 {
        fill: #e894a1;
      }

      .st52 {
        fill: #fadcc1;
      }

      .st53 {
        fill: #fbdcbf;
      }

      .st54 {
        fill: #ca7e9a;
      }

      .st55 {
        fill: #050203;
      }

      .st56 {
        fill: #d86185;
      }

      .st57 {
        fill: #f97984;
      }

      .st58 {
        fill: #080204;
      }
    </style>
  </defs>
  <path class="st4" d="M499.13,400.6c-4.36,4.54-12.73,8.92-19.02,9.43-1.95.16-4.33-.26-6.18.03-2.44.38-12.59,7.19-15.13,9.01-2.15,1.54-9.97,8.52-11.52,8.83-4.38.86-2.86-4.87-2.08-7.26.9-2.75,2.56-5.2,3.71-7.84-.52-.61-10.88,10.18-11.72,10.87-1.33,1.1-3.04,2.81-4.67,1.22-2.42-2.36.99-8.73,1.91-11.39-2.22,1.14-6.08,7.6-8.13,7.93-1.08.17-2.38-.22-2.75-1.35-1.55-4.79,5.15-16.89,8.05-20.96.86-1.2,5.87-6.72,5.94-7.18.28-1.74-2.91-12.32-4.73-12.84-1.19-.34-3.9-.21-5.4-.46-27.7-4.6-40.2-23.82-52.44-46.52-.8-1.49-1.03-1.25-1.08.36,8.15,17.05,16.48,34.15,23.47,51.73,2.26,5.69,4.76,11.98,6.21,17.92.4,1.63,1.02,3.54.69,5.17-1.79-1.26-3.3-2.96-5-4.31-.35-.28-.45-.66-1.04-.51,4.22,13.29,5.43,28.23,1.38,41.72-1.71-1.71-1.71-4.92-3.44-6.55-1.15,6.42-3.03,13.67-6.41,19.28-.58.96-3.25,4.84-3.93,5.38-.26.2-.38.21-.69.16-.34-.37.66-3.76-.69-4.14-.25.89-.9,1.78-1.45,2.52-19.77,26.64-52.59,49.74-83.89,60.58-16.38,5.67-35.44,9.38-52.32,4.19-15.25,4-30.2,8.86-44.93,14.44-8.45-1.58,2.28-11.37,5.01-14.15-.95.22-1.98.68-2.88,1.08-5.65,2.5-11.77,6.97-17.23,8.98-9.26,3.4-3.98-7.67-.71-10.71l6-6.93c-.3-.28-3.22,1.6-3.76,1.92-2.94,1.76-13.34,9.21-15.76,9.44-7.3.69.37-10.94,2-13.2,8.9-12.37,23.24-22.52,37.11-28.58,2.1-13.01,13.48-21.74,23.2-29.38,13.71-10.79,28.09-20.61,40.85-32.6,2.41-2.26,6.29-5.82,8.26-8.29,5.07-6.35,4.3-20.23,2.88-27.88-7.53.44-15.56,2.36-22.63,5.03-5.41,2.05-9.8,5.47-14.9,8.2-32.64,17.51-70.67,18.66-105.49,6.74-4.54,8.81-9.21,18.18-14.93,26.29-1.03,1.46-3.72,5.34-4.88,6.33-.95.81-2.52.91-2.9,1.23-.24.2-.6,1.77-.93,2.35-3.94,6.87-14.16,9.95-21.41,11.69-.3.41-.18,1.99-.14,2.61.37,5.92,2.79,13.8,2.72,19.35-.03,2.57-1.55,4.59-4.23,3.19s-8.36-10.31-9.93-13.17c-1.64-2.98-2.69-6.32-4.25-9.21-.26-.48.03-.85-.86-.67.33,2.83,1.11,5.6,1.82,8.35.94,3.63,4.29,12.29,4.36,15.31.06,2.58-1.76,3.7-4.08,2.69s-7.09-6.01-8.83-8.06c-3.86-4.53-7.23-10.2-9.83-15.52-.62-.08-.31.75-.25,1.11,1.1,6.73,6.12,13.86,7.61,19.98,1.28,5.24-3.37,3.98-6.28,2.15-7.42-4.65-14.81-15.07-18.37-23.01-.41-.92-1.09-3.9-1.4-4.28-.18-.23-2.05-.93-2.64-1.32-22.31-14.82-6.76-49.09,3.36-66.92,12.57-22.17,28.89-41.97,42.21-63.65,1.38-20.4,5.59-41.63,17.85-58.36l-2.75-.17c-.82-.8,4.48-7.65,5.34-8.62,5.92-6.74,14.5-12.45,22.59-16.21-.65-1.25-2.61-.5-3.79-.69-1.04-1.03,4.47-4.44,5.28-4.88,9.21-5.05,20.61-6.62,30.82-8.49,4.81-2.88,8.86-6.8,13.5-9.95,8.47-5.74,12.54-6.7,19.15-15.33,9.89-12.89,16.99-25.98,28.82-37.73,42.57-42.24,115.38-48.52,166.1-17.48,15.8-4.81,33.44-1.36,41.29,14.21,2.59,5.13,5.68,10.81,6.03,16.72.24,3.97-.71,9.31-2.15,13.02-.5,1.3-2.36,4.1-2.27,5.17.12,1.43,3.64,7.75,4.48,9.68,11.21,25.77,17.07,52.48,23.32,79.78,5.54,8.84,17.57,8.84,25.06,15.63,9.6,8.71,17.46,31.42,19.73,44.06,2.83,15.78,2.86,41.41-8.98,53.73Z"/>
  <g>
    <path class="st31" d="M238.92,502.1c.1.52.19,1.07.02,1.61-18.86,6.07-37.79,15.44-52.79,28.47-.85.42-1.39.11-1.02-.78,6.08-11.17,24.36-23.95,35.63-29.71,5.21-2.67,15.92-8.55,18.16.4Z"/>
    <path class="st52" d="M223.75,492.79c.11.64.2,1.27.06,1.93-18.01,6.73-35.88,15.9-49.31,29.9-.49,1.2-1.91,1.33-1.44-.1,5.86-12.72,23.43-26.57,35.97-32.47,4.26-2.01,13.07-6.18,14.72.75Z"/>
    <path class="st30" d="M253.4,512.78c1.47,3.95.41,7.1-3.45,8.79-7.76,3.38-18.74,5.3-27.15,8.02-6.78,2.19-14.13,5.78-20.67,7.61-1.84.52.12-2.17.93-2.69,6.35-5.48,14.68-9.16,22.4-12.49,5.11-2.2,10.31-4.08,15.56-5.9,4.11-1.42,9.13-2.97,12.38-3.34Z"/>
    <path class="st53" d="M253.4,512.78c.21,1.09-.55.56-1.16.72-16.63,4.38-34.75,11.77-49.19,21,3.15-4.67,8.09-8.67,12.65-12,6.68-4.89,24.28-15.56,32.36-14.55,2.56.32,4.5,2.58,5.34,4.84Z"/>
    <path class="st9" d="M238.92,502.1c.28,1.11.91,3.99-.2,4.8-5.42,1.83-10.46,4.55-15.42,7.34-2.48,1.39-5.18,3.64-7.59,4.82-6.32,3.08-13.04,5.36-19.55,8.72-2.9,1.5-7.71,4.84-10.43,5.77-.55.19-1.02.37-1.63.27-.04-.99.63-1.67,1.03-2.41.29.81.94-.08,1.21-.34,11.43-10.7,36.7-23.44,51.77-27.89.82-.24.94.24.8-1.08Z"/>
    <path class="st28" d="M223.75,492.79c.26,1.1.82,3.4,0,4.31-3.43,1.73-6.91,3.35-10.24,5.28-4.09,2.38-7.85,5.47-11.88,7.77-4.35,2.49-9.21,4.49-13.64,7.05s-10.67,7.69-14.7,9.44c-.43.19-.79.36-1.28.27.13-.94.69-1.67,1.03-2.41.57,1.04.66-.05.89-.31,9.1-10.21,24.88-19.44,37.26-25.16,3.95-1.83,8.05-3.18,12.06-4.83.87-.36.41-.7.48-1.43Z"/>
    <g>
      <path class="st23" d="M240.99,498.65c9.51,2.19,18.92,4.31,28.79,3.79,31.61-1.65,69.42-30.53,88.44-54.66,9.46-12.01,16.64-26.62,14.79-42.36-.53-4.48-1.85-8.9-2.71-13.32,3.27,3.06,5.79,6.78,7.93,10.69.6,0,.38-1.51.35-1.91-.49-7.39-3.07-16.82-4.79-24.18-5.57-23.79-12.75-50.79-22.3-73.22-2.23-5.23-4.91-10.38-8.44-14.83,5.93,2.04,11.36,3.64,17.75,3.09,17.21-1.47,26.14-24.2,27.77-38.96l.98,4.36c3.87,27.75,3.95,58.33,21.49,81.61,14.76,19.61,36.65,24.7,59.66,16.68,3.38-1.18,7.28-3.57,10.53-4.64.59-.19,1.16-.6,1.8-.27,2.28,2.89,4.1,5.05,5.16,8.65,2.75,9.3,1.87,19.89-.67,29.11,7.25-.9,13.2-6.56,17.58-12.07-.78,5.78-1.86,10.99-4.64,16.22-4.25,7.99-14,13.58-22.94,14.12,1.26-4.41,1.07-9.5-2.99-12.35-3.31-2.32-5.61-1.25-9.07-.06-.68-4.58-4.9-7.44-9.46-6.19-.94.26-2.51,1.37-3.13,1.35-.66-.01-1.77-1.67-3.07-2.08-2.2-.69-4.69-.39-6.75.53-.93.41-1.33,1.39-2.4,1.21l-2.78-9.82c-.04-.74.02-.45.52-.52,1.4-.21,2.85-.23,4.33-.51,12.87-2.46,24.65-8.7,33.44-18.45l-8.73,5.57c-11.97,7.01-25.65,11.34-39.66,9.55-24.41-3.12-41.79-26.36-50.85-47.45l.2-1.37c8.66-14.61,12.96-31.51,12.84-48.54l-.68-3.28c.01,1.99-.14,4.02-.39,5.99-.22,1.71-.72,3.38-.99,5.04l-.7.55c-4.8,11.28-13.47,20.57-24.22,26.14l-.95-.14c-1.72-2.58-4.12-5.81-6.06-8.25-2.33-2.93-4.86-5.71-7.56-8.3l-.17.51c8.17,11.07,14.71,23.35,20.93,35.62,5.95,11.74,11.69,24.02,17.06,36.04,4.23,9.48,10.34,21.81,13.38,31.45.06.18.09.56-.17.51-.53-.66-7.1-6.58-7.41-6.2,4.5,12.5,7.17,25.77,6.89,39.13l-.68,2.59c-1.09-2.62-1.9-5.77-3.79-7.93-.79,7.15-2.06,14.43-4.48,21.21-.17.48-2.41,6.52-2.76,6.03-.11-2.2-.21-4.85-.8-6.96-.1-.36-.08-1.05-.58-.96-.75,6.1-4.64,11-8.29,15.67-25.3,32.32-78.66,65.27-120.86,62.27-.67-.05-3.61-.4-3.6-.88,9.29-7.75.58-22.09-10.69-17.76.17-2.13-.32-5.03-1.38-6.89Z"/>
      <path class="st40" d="M256.85,312.45c.5.79,1,1.39,1.66,2.04,3.71,3.67,9.5,9.27,13.75,12.04,3.68,2.4,7.42,4.63,9.23-.99.22-.67.88-3.1.88-3.6v-13.1c0-.27-.59-.99-.34-1.55.39-.52,1.82,3.87,2.13,4.24l3.38,10.58,3.46-16.89c.32,0,.53.31.61.6,1.65,5.88,1.58,13.73,2.92,19.83,8.22,15.6,14.02,36.44,14.41,54.21.07,3.07-.15,6.1-.36,9.16,7.09-1.21,13.82-.77,20.69,1.38l-2.62.64c-6.21.46-14.32,1.93-18.75,6.42.05.22.35.15.34.17-.18.39-6.22,3.74-7.35,4.55-3.3,2.34-6.06,5.3-9.2,7.7-.34.26-.43.67-1.03.51,3.62-18.8-5.22-36.2-7.59-54.48-.6-.08-.32.78-.34,1.2-.39,9.66,1.82,19.41,3.79,28.79-5.89.18-11.56,1.71-17.24,3.1l9.31-10.52-.51-.51c-17.73,15.59-37.82,27.96-61.2,32.93-30.61,6.51-68.3,1.71-94.25-16.45-3.67-2.57-11.34-8.61-13.34-12.35-.46-.59-.57-1.05-.34-1.38.14-.66.97.2,1.19.36,6.27,4.57,12.18,8.61,19.44,11.59.47.19,2.08.97,2.47.46l1.82.26c31.2,16.73,81.72,13.61,108.45-10.36,19.63-17.6,21.17-44.89,14.32-68.87l.22-1.72Z"/>
      <path class="st46" d="M404.43,162.11c-.29.82-.93-.12-1.22-.33-5.89-4.22-14.4-8.44-21.26-10.8-2.56-.89-7.98-2.71-10.47-2.98-.63-.07-.75.33-.49.67.08.1,1.01-.3.68.69-3.4.32-6.62-.96-10-1.03-.26-1.05,1.41-.78,1.98-1.3l3.54-.42c-12.73-2.35-25.6-4.27-38.62-3.79.56,1.85-2.72,1.49-3.96,1.73-.74-1.22,1.54-.56,1.2-1.73-17.84.26-36.21,3.28-52.64,10.28-23.95,10.2-42.51,27.19-57.49,48.36-.55.77-2.86,4.04-2.97,4.62-.13.69.09.46.52.52.84.12,1.86-.08,2.76,0,2.57.22,5.98.62,8.46,1.19.3.07,2.9.57,2.06,1.22-11.2,1.36-22.17,6.31-31.56,12.41-2.87,1.87-6.18,4.03-8.44,6.56-4.6-.03-9.2.47-13.79.52,10.85-9.56,23.87-17.21,38.27-19.83.08-.6-.78-.32-1.2-.34-.89-.04-1.87-.06-2.76,0-3.2.22-6.31,1.3-9.48,1.55,13.14-17.35,23.67-35.58,40.87-49.48,45.14-36.48,122.35-37.68,166.02,1.72Z"/>
      <path class="st18" d="M109.27,382.1c-8.03-9.54-10.48-22.73-12.07-34.82l-1.32.92-2.12,4.6-.71-7.74c-.49-19.13,1.31-38.54,7.94-56.57,3.61-9.81,8.67-18.88,16.56-25.86-2.3-.13-4.64.65-6.72,1.55-.39-.1-.16-.45,0-.69.67-1.01,3.6-3.7,4.66-4.65,8.49-7.68,19.22-14.18,30.35-17.07-.06-.54-.51-.53-.89-.65-2.15-.69-4.63-.79-6.87-1.07-.47-.06-1.04-.19-.52-.68,6.5-2.18,12.89-4.08,19.65-5.36,18.67-3.52,40.96-3.69,59.67-.34,11.4,2.04,22.82,5.58,32.93,11.21,1.3,0-.82-1.12-.9-1.17-3-1.91-6.41-3.86-9.62-5.38.51-.74,1.88.18,2.48.45,6.14,2.77,15.41,8.87,20.25,13.54.37.36.88.5.72,1.17-15.49-7.99-33.51-12.32-50.86-14.13-4.17-.44-8.57-.86-12.76-1.03-13.02-.54-25.96,1.2-38.79,3.1l2.32,1.28.44.79c-6.41,1.2-12.81,2.69-18.86,5.11-26.78,10.71-40.36,37.69-45.58,64.76-1.97,10.24-2.89,20.72-2.8,31.16l3.79-.69c0,1.64.16,3.33.4,4.95,1.49,10.1,4.34,23.01,8.92,31.94.18.35.16,1.03.34,1.38Z"/>
      <path class="st17" d="M362.02,311.76c1.68-1.38,3.86-2.22,5.7-3.44,8.68-5.77,15.5-14.54,19.48-24.14l.68,1.03c-1.85,11.22-4.81,22.3-10.16,32.42-.83,1.57-4.85,8.54-5.86,9.31-.22.17-.33.46-.7.33-3.14-5.05-5.83-10.55-9.14-15.52Z"/>
      <path class="st11" d="M426.15,159.01l-1.72-.17c5.76,3.93,9.94,9.87,11.38,16.72.08.5.16,1-.22,1.41-1.2,1.27-15.31-3.77-17.22-5.66l-.48.11c-5.08-5.67-10.39-10.95-16.21-15.86-.8-.31.15-1.55.62-1.66,6.07-1.33,17.86,1.12,23.35,4.12l.51.98Z"/>
      <path class="st37" d="M417.88,171.42l.17-1.03c5.23,2.91,10.48,5.44,16.55,5.87.64.05,1.41.28,1.21-.7,1.31,6.27.65,13-2.59,18.61-4.33-8.1-9.77-15.5-15.34-22.75Z"/>
      <path class="st45" d="M474.43,398.65c1.34,2.55,1.4,4.86-.11,7.48-9.6,5.66-19.15,11.39-27.3,19.07-.41-1.13.51-2.47.86-3.45,3.96-5.29,8.44-10.44,13.55-14.86,2.33-2.01,9.51-7.92,12.03-8.23.32-.04.64-.03.96,0Z"/>
      <path class="st16" d="M435.46,421.41c-.24-.06-.44-.13-.47-.23-.12-.51.87-2.85,1.16-3.46,4.23-8.93,15.42-18.88,23.39-24.33.28-.19.63-.3,1-.4s.75-.16,1.13-.2c.09.13.48.24.64.56,1.92,3.96-.62,4.03-2.89,6.33-4.97,5.06-8.32,7.5-13.62,11.9-3.65,3.04-6.82,6.65-10.34,9.83Z"/>
      <path class="st24" d="M474.43,398.65c-10.35,5.63-19.48,14.33-26.21,23.96l-.34-.86c2.73-7.57,8.79-16.16,14.82-21.56,3.35-2.99,8.62-7.47,11.73-1.55Z"/>
      <path class="st1" d="M461.67,392.79c-6.11,4.02-11.77,8.74-16.73,14.13-3.03,3.3-7.75,8.8-9.22,12.79-.23.62-.42.96-.26,1.7l-1.03.34c1.73-6.7,5.3-13.15,9.37-18.73,2.5-3.42,10.13-12.65,14.54-12.53,2.13.06,2.4.94,3.33,2.29Z"/>
      <path class="st15" d="M401.67,155.56c-1.48-1.25-3.63-2.52-4.93-3.86-.29-.3-.76-.29-.58-.97,11.8-2.47,25.44-.32,33.1,9.65-.14.12-2.62-1.16-3.1-1.38-2.05-.92-4.53-1.98-6.82-2.66-5.6-1.67-10.93-2.48-16.78-1.84l-.88,1.06Z"/>
      <path class="st2" d="M449.6,390.38c.48.34,1.31.68.88,1.38l-23.98,26.73c-.69.47-.29-1.48-.26-1.64.25-1.45.81-2.7,1.29-4.05,2.24-2.85,4.55-5.83,6.93-8.95,2.64-3.15,10.74-12.33,14.12-13.3.33-.09.67-.14,1.02-.17Z"/>
      <path class="st38" d="M449.6,390.38c-8.51,6.07-15.36,14.15-21.2,22.77l-.87-.35c2.04-5.76,5.92-12.14,9.99-16.73,2.48-2.81,8.14-8.46,12.08-5.68Z"/>
      <g>
        <path class="st7" d="M186.51,227.97c-.05-.39-.09-.82.12-1.14,1.42-2.08,8.25-6.33,10.69-7.72,8.63-4.95,17.46-9.12,27.41-10.56-2.93-.68-5.98-1.02-8.97-1.28-6.16.84-2.98-3.21-.79-6,24.97-37.2,66-60.13,111.1-58.94.12,1.93,1.93,1.64,2.22.05,12.7-.5,25.33.61,37.87,3.32,1.14.23,1.42.74.9,1.6-4.97.26-3.93.73,3.13,1.4-.03-.56.16-.91.58-1.25,1.3-1.06,15.21,4.23,17.13,5.11,6,2.74,11.68,5.79,16.53,9.55,24.77,22.35,37.82,56.12,46.18,87.78,3.96,15.02,6.57,30.88,11.74,45.49,1.32,3.74,2.79,7.98,5.01,11.2.26.05.21-.32.16-.51-.41-1.57-3.43-11.12-2.75-11.9l7.46,4.09c10.22,3.45,15.7,7.63,20.87,17.06,9.97,18.16,14.8,40.34,12.01,60.92-1.38,3.6-5.09,6.85-8.28,9.01-1.71,1.16-8,4.68-9.7,3.32,2.25-12.38,4.65-27.47-4.53-37.47-11.71,5.37-23.11,9.65-36.68,8.49-33.28-2.86-48.51-36.38-52.49-65.88-1.64-12.39-3.21-24.76-4.72-37.11-3.75,22.08-18.64,43.88-43.74,33.44,2.16,3.6,4.23,7.28,6.21,11.04,11.68,27.56,19.38,57.12,25.83,86.16.51,2.31,3.22,15.05,2.05,15.75-.73.43-1.28.44-1.71-.36-1.65-2.93-3.51-5.74-5.78-8.23,10.94,34.24-18.03,64.08-43.19,83.13-21.34,16.15-45.48,28.67-72.83,24.78-2.81-.4-12.11-1.78-13.86-3.02-.26-.18-.49-.4-.71-.64-2.78-4.88-9.01-5.33-13.79-3.45-.13-6.4-4.84-10.78-11.38-8.97,1.58-6.8,7.2-12.61,12.23-17.25,14.01-12.94,30.96-23.59,45.35-36.7,7.72-7.03,14.42-15,21.88-22.25,6.76-6.58,14.44-12.4,23.63-15.17.08-.66-.67-.22-1.04-.17-3.33.41-6.53,1.78-9.65,2.94-1.38.66-.83-.55.13-1.54,3.83-3.97,12.87-5.24,18.18-5.73-5.98-1.35-12.09-1.68-18.31-.96.04-7.35.03-14.39-1.02-21.76-2.07-14.52-6.63-28.72-13.33-41.75-.85-6.17-1.72-12.33-2.64-18.46l-2.95,14.43c-.2.7-.97.57-1.51.18-1.48-4.45-2.88-8.93-4.18-13.43l-.23.25c.18,0,.32,0,.34.06.38,1.02.64,11.69.35,12.64l-.69.4c1.1.51.03,3.32-.42,4.39-.98,2.31-1.77,3.26-4.44,3.41-3.95.22-16.61-11.47-19.2-14.47l-1.45-2.81-1.1-1.23c-7.15-23.32-25.36-44.95-51.24-45.99-2.89-.91,1.44-2.68,2.68-2.98-16.51-1.77-32.3,5.26-45.63,14.59-9.66-5.25-20.92-9.35-31.37-5.22,4.57.68,3.9,2.06-2.02,4.13-19.71,9.15-26.09,31.48-26.79,51.72-.86,24.93,7.03,50.62,29.45,64.12l1.19,1.54c.05.18.08.36.05.52-.28,1.36-7.84-2.66-8.77-3.18-5.02-2.81-10.22-5.98-14.38-9.75-.27-.11-.51-.25-.64-.45-2.55-4.05-3.94-8.78-5.23-13.37-2.04-7.28-3.3-14.9-4.34-22.2-2.41.84-3.6.32-3.58-1.57.05-37.45,12.8-82.41,51.46-96.17,4.92-1.75,10.04-2.89,15.13-3.97-1.43-.55-2.56-1.82-.34-2.42,32.97-5.84,67.81-3.16,98.49,10.75.62.06-9.29-7.08-9.98-7.54-3.16-2.1-7.16-4.56-10.62-5.46-15.45-7.26-35.73-10.23-52.76-10.34Z"/>
        <path class="st48" d="M299.95,221.41c-.15.2-3.95,1.33-4.68,1.7-.37.18-.65-.18-.49.72,14.17,1.89,27.59,11.96,33.1,25.17-3.36-2.78-7.21-4.9-11.28-6.47-.32-.12-4.15-1.01-3.54-1.45,2.92-.32,5.61.8,8.37,1.45.44.1.66.67.59-.24-8.09-10.65-21.07-17.01-34.48-17.42.24-1.41,8.86-3.38,8.27-4.13-8.31-2.9-17.01-2.45-25.52-.7,1.71-1.59,5.2-2.29,7.51-2.66,5.84-.92,12.79-.65,18.34,1.46.56.21,4.4,1.77,3.8,2.57Z"/>
      </g>
    </g>
    <g>
      <path class="st6" d="M89.96,341.07l1.48,10.76,2.32,8.89c.46.1.39-.36.5-.69.35-1,.53-2.09.87-3.1.89.23.56,1.8.69,2.41-.46,6.45-.75,13.3,1.54,19.86l3.43,10.44c2.26,6.77,3.23,13.83,1.29,20.83-5.08,18.31-16.44,18.39-32.76,18.09-9.83.04-20.03,4.08-23.85,13.83l-1.01.74-.67-1.24c-2.01-24.8,13.59-50.7,26.79-70.96,6.34-8.94,12.23-18.12,18.02-27.42.15-.24.49-.6.75-.5-.24-.95-.04-1.6.62-1.95Z"/>
      <path class="st56" d="M95.82,359.34c3.87,18.37,10.15,28.16,25.68,38.63,5.98,4.03,12.46,7.11,18.77,10.5-5.32,10.36-10.7,20.8-17.89,30.02l-1.04.16c.14-1.67-.51-3.23-.86-4.83l-1.55-3.45c.5,5.69.79,11.93-3.79,16.04-4.45,3.98-11.12,6.27-16.9,7.41-.65-4.72-.27-9.34-2.83-13.55-4.71-7.75-15.55-6.46-16.14,3.21l-3.27-4.48c-6.43-5.67-14.99-2.24-15.69,6.2-1.54-.59-2.7-1.91-4.32-2.4-7.05-2.11-11.3,4.3-10.5,10.67-.67-.09-.99-.72-1.38-1.03l-.75-1.31c-.18-2.54-.22-5.85,1.09-8,2.53-7.27,8.21-11.9,15.51-13.97,14.4-4.1,31.22,4.24,39.22-12.84,9.67-20.62-5.31-31.82-4.4-50.95.06-1.18.23-3.33.37-4.43.01-.1,1.19-.57.67-1.59Z"/>
      <path class="st22" d="M89.96,341.07c-.03.72.16,1.71-.1,2.33-.04.09-.53.18-.71.5-6.07,10.87-14.5,21.55-21.14,32.29-8.63,13.97-19.03,31.83-22.38,47.96-1.42,6.83-1.04,12.14-1.19,18.98-.05,2.04-.36,4.06-.55,6.09l.21,3.22c-15.62-12.88-3.91-40.88,3.73-55.4,11.63-22.1,27.9-41.82,41.29-62.84l.83-.71c-.06,2.52.09,5.07,0,7.59Z"/>
      <path class="st0" d="M67.55,439.34c1.09-.25,3.23-.53,3.93.52,1.71,11.99,5.73,23.92,10.68,35.35l2.43,6.73c-.04.8-.58.56-1.18.15-7.98-6.71-18.76-23.76-20.19-34.12-.41-3.01.81-8.16,4.33-8.64Z"/>
      <path class="st3" d="M54.1,445.2l.96,1.74c2.21,13.01,7.94,25.16,14.34,36.47-.04.5-.43.52-1.17.07-7.84-5.07-16.21-17.15-18.98-26.02-1.41-4.53-2.06-12.8,4.84-12.25Z"/>
      <path class="st39" d="M98.24,477.96c.26,2.45-1.1.48-1.92-.97-5.92-10.55-9.67-24.04-11.48-36.01-.06-.37-.02-.76.03-1.15s.15-.79.26-1.18c.16-.08.33-.45.66-.54,4.97-1.29,8.45,4.44,8.99,8.64.57,4.41.52,9.29,1.04,13.78.68,5.82,1.73,11.59,2.41,17.42Z"/>
      <path class="st43" d="M85.13,438.65c1.25,7.34,2.76,14.96,5.01,22.06,1.83,5.8,4.75,11.9,7.49,17.34.34.69.72,1.01.61-.09.05.42.69,1.29.34,2.07-.35.4-1.75-1.21-2.06-1.56-5.36-6.05-15.14-25.51-14.85-33.44.1-2.7,1.07-5.14,3.46-6.37Z"/>
      <path class="st12" d="M67.55,439.34c3.47-1.63,7.67,2.05,8.89,5.07.92,2.27.76,4.75,1.16,7.12,1.81,10.8,4.08,21.15,7.87,31.44.18,1.47-1.8-.66-2.06-.88,1.16.2.44-.58.24-1.11-3.97-10.63-8.44-20.02-11.12-31.3-.33-1.4-1.52-9.98-1.92-10.32-.12-.1-2.62-.1-3.07-.04Z"/>
      <path class="st21" d="M54.1,445.2c1.93.15,4.74,2.2,5.41,4.07.94,2.6,1.19,7.99,1.94,11.17,1.9,8.07,5.21,16.14,8.85,23.56.4,1.35-1.82-.37-2.06-.52,1.27.05.47-.2.17-.68-2.14-3.44-4.14-7.36-5.87-11.03-3.96-8.46-7.15-17.26-8.44-26.56Z"/>
      <g>
        <path class="st33" d="M132.03,393.13c-17.42-10.43-26.31-25.28-29.89-45.11-3.37-18.7-1.41-44,9.95-59.82,5.28-7.35,12.48-12.2,20.97-15.24l-4.48-.86c-.98-.98,6.87-2.65,7.46-2.71,9.32-.94,17.58,2.34,25.48,6.84,12.63-9.3,28.47-16,44.49-14.82.44.03,4.16.51,3.61,1.04l-2.94.68-2.92,1.39c27.5.86,45.8,23.29,53.1,47.93,7.27,24.53,6.32,52.19-13.44,70.52-26.44,24.53-80.79,28.49-111.38,10.17Z"/>
        <path class="st51" d="M133.41,391.76c3.63.23,7.17,1.75,10.75,2.53,17.49,3.8,35.63,3.2,53.11-.22,21.09-4.13,41.38-11.65,56.14-27.82-18.95,39.1-85.54,45.4-119.99,25.52Z"/>
        <g>
          <path class="st49" d="M116.29,347.05c-3.7,3.67-6.59,8.81-8.4,13.67-.14.1-.43-.22-.51-.35-1.71-2.67-3.82-13.93-4.27-17.45-.8-6.14-1.62-11.88.93-17.6,4.78-10.7,17.59-25.78,30.83-20.02,6.61,2.87,9.41,11.6,8.11,18.28-2.86,14.73-17.6,14.45-26.69,23.48Z"/>
          <g>
            <path class="st8" d="M126.09,307.03c17.2-1.99,21,23.59,4.71,28.16-18.36,5.15-22.45-26.1-4.71-28.16Z"/>
            <path class="st36" d="M132.72,332.1c-4.77,2.38-9.72,1.66-13.09-2.59-7.73-9.76,2.07-25.47,13.96-18.44l-4.8.03-2.61,1.18c4.4.86,4.97,7.49.16,7.77-2.54.15-3.48-1.46-3.96-3.63-.37-1.66-1.45,1.21-1.62,1.82-2.02,7.4,3.68,15.03,11.63,13.52.56-.2.67-.09.34.34Z"/>
            <path class="st35" d="M137.55,323.49c-1.64,1.24-2.5,1.76-3.28,3.79-.64-1.72-1.7-2.72-3.62-2.76.41-.76,1.56-.68,2.22-1.39.52-.56.85-1.63.89-2.39,1.28,1.24,1.46,3.05,3.79,2.76Z"/>
            <path class="st26" d="M132.37,331.76c.57-.11,1.62-1.16,2.41-1.03-.36.86-1.37,1.03-2.07,1.38l-.34-.34Z"/>
          </g>
        </g>
        <g>
          <path class="st50" d="M133.41,391.76c-10-5.77-19.49-14.7-23.85-25.63-1.22-3.06-.57-3.71.69-6.67,1.9-4.5,5.16-9.32,8.84-12.53,7.12-6.21,17.34-7.22,22.67-15.6,7.98-12.54.97-30.62-15.33-28.77-10.33,1.17-18.98,11.75-23.03,20.59l-.35-2.94c1.82-21.61,13.71-45.22,37.94-46.36l-.44-.77-4.38-1.64c6.11-.98,12.58.54,18.16,3.04,1.86.83,5.94,3.71,7.5,3.5,1.04-.14,9.03-5.87,11-6.95,8.36-4.56,17.93-7.41,27.47-7.87l-3.42,2.27-.72.83c10.16-.57,19.62.94,28.63,5.69,13.52,7.13,22.94,20.84,27.92,35.01-13.35-10.8-35.54-22-52.36-12.89-14.04,7.6-14.94,27.19-.74,35.13,7.89,4.42,17.02,3.36,25.59,5.1,10.77,2.18,20.95,8.28,28.43,16.22.61.65,3.63,4.18,3.77,4.69.49,1.81-3.05,9.1-3.99,11.05-6.54,9.17-17.35,15.57-27.57,20.03-27.6,12.04-64.04,15.39-92.42,5.49Z"/>
          <path class="st34" d="M217.2,343.83c.9,5.42-.74,11.61-2.31,16.83-2.61,8.69-6.09,15.8-11.83,22.82l-.32-.09c-10.24,10.87-27.66,14.13-39.68,4.23-6.3-3.72-10.16-11.1-15.51-16.04-4.32-3.99-7.72-5.04-11.38-10.17,2,1.19,3.83,2.55,5.97,3.51,3.1,1.38,8.32,1.97,10.55,3.59,7.33,5.32,8.51,14.84,18.99,17.56,14.99,3.9,28.1-6.49,33.86-19.6,2.23-5.08,2.7-10.77,4.6-15.4.74-1.8,2.37-3.75,3.23-5.73.77-1.76.07-3.1,2.47-2.38.64.19.95.65,1.36.87Z"/>
          <path class="st13" d="M203.06,383.48c-1.33,1.63-2.54,3.24-4.13,4.66-10.1,9-26.7,10.47-35.86-.52,14.59,8.62,26.8,6.29,39.31-4.31.52-.44.75-1,.69.17Z"/>
          <path class="st29" d="M170.3,315.9c.08.6-.78.32-1.2.34-3.78.14-7.2.15-10.86,1.38,3.18-2.87,8.17-2.93,12.07-1.72Z"/>
          <g>
            <path class="st41" d="M205.47,341.41c1.25-.39,2.08-1.15,3.66-1.34,4.64-.56,9.58.59,11.17,5.48-1.1-.5-1.99-1.14-3.1-1.72l-.76.31c-1.41-1.38-2.27-.78-2.59,1.78-3.15,4.98-5.21,10.51-6.18,16.58-4.94,19.97-31.75,35.63-46.89,16.61-4.37-6.83-8.48-11.84-16.94-12.84-3.02-.83-5.46-2.65-7.67-4.86-1.37-1.91-3.16-3.62-3.11-6.2-.58-.63-3.62,3.65-3.45,4.48-1.41-.66.15-3.69.75-4.6,1.65-2.48,4.94-3.77,7.87-3.68-.03.03.08.5-.23.7-2.28,1.43-4.99.46-3.18,4.26,1.37,2.87,5.61,5.23,8.49,6.33,16.53,6.35,48.25.48,61.82-11.12,1.38-1.18,7.36-7.33,6.88-8.93-.16-.55-3.22-.9-3.95-.93s-2.8,1.07-2.59-.32Z"/>
            <path class="st57" d="M200.3,370.03c.83.85-4.93,6.96-5.86,7.76-7.02,6.01-19.22,9.19-27.18,3.45,2.92-5.05,8.41-8.64,14.41-8.11.32.28-3.34,3.98-2.24,5.17,4.79-6.28,12.93-9.91,20.86-8.27Z"/>
          </g>
          <g>
            <path class="st54" d="M174.44,321.07c10.57,3.97,10.98,9.15,17.75,16.21,3.18,3.31,8.74,5.54,13.28,4.13l.7.22c1.67-.91,6.44-.77,6.53,1.49s-7.41,9.45-9.38,10.76c-16.24,10.71-41.85,15.58-60.5,9.38-5.32-1.77-14.66-9.48-5.04-11.72l.45-.12c.12-.11.66-.06,1.04-.5,2.57-3.04,3.17-8.55,4.57-12.34,2.07-5.62,5.11-10.4,9.57-14.4,6.43-4.09,13.72-4.66,21.03-3.1Z"/>
            <path class="st47" d="M174.44,321.07c-.35.68-1.2.24-1.72.18-5.35-.66-8.89-.57-14.07,1.1l-5.25,1.82c5.67-5.08,14.08-5.71,21.03-3.1Z"/>
            <g>
              <path class="st58" d="M186.16,339.34c2.54,8.93-6.67,16.68-14.39,19.22-8.4,2.76-19.66.69-24.92-6.81-1.92-3.97-3.17-6.22-1.63-10.77,4.69-13.87,39.17-17.58,40.94-1.65Z"/>
              <path class="st20" d="M146.86,351.76c8.68,8.48,21.49,9.86,31.49,2.7,4.86-3.48,8.51-8.86,7.82-15.11,3.12,6.17.54,12.77-4.71,16.84-8.72,6.75-22.61,7.64-31.31.39-2.27-1.89-2.14-2.45-3.29-4.82Z"/>
              <g>
                <path class="st44" d="M147.2,342.79c3.56.7,7.49,1.19,11.19,1.33,6.28.24,9.84-.91,15.2-4.11,2.52-.52,4.73-1.47,6.62-2.83.27-.99.64-1.77,1.13-2.33,9.07,9.07-5.53,20.94-15,21.72-7.78.64-21.34-4.03-19.13-13.79Z"/>
                <path class="st14" d="M179.51,344.07c-.4.48-1.59.69-2.14,1.13-.74.61-1.99,1.84-2.6,2.58-.88,1.07-1.94,4.15-3.35,2.5-2.07-2.42,1.88-8.36,4.93-8.85,1.92-.31,5.09.35,3.15,2.64Z"/>
                <path class="st55" d="M157.42,347.07c1.41,1.08,3.1,4.74.3,4.72-.99,0-2.26-1.61-3.38-2.17-.96-.47-3.46-.86-3.86-1.66-1.07-2.11,1.5-2.49,3.11-2.45,1.28.03,2.84.78,3.84,1.55Z"/>
              </g>
              <g>
                <path class="st10" d="M181.34,334.86c.6,4.52-4.55,4.53-7.48,5.8-2.64,1.14-5.48,3.13-8.29,3.77-5.08,1.16-12.18-.2-17.52-.6-1.06-.08-.89.17-.85-1.04,2.54-11.24,26.53-15.53,34.14-7.93Z"/>
                <path class="st32" d="M163.33,333.58c1.76-.21,7.48-.38,8.7.76,1.09,1.02-.65,1.85-1.5,2.31-3.3,1.78-12.6,3.59-16.24,3.02-1.74-.27-1.99-1.23-.72-2.4,1.48-1.36,7.68-3.44,9.76-3.69Z"/>
              </g>
            </g>
          </g>
        </g>
        <g>
          <path class="st25" d="M209.54,292.9c14.6-1.57,29.1,5.13,40.23,14.05,2.87,2.3,4.27,3.02,5.44,6.62,3.43,10.49,4.85,25.35,3.32,36.25-.07.51-.36,2.98-.82,2.97-8.17-10.69-19.97-18.05-33.26-20.52-6.02-1.12-12.43-.82-18.29-2.4-22.28-6.01-18.42-34.62,3.38-36.96Z"/>
          <g>
            <circle class="st5" cx="212.24" cy="312.03" r="16.26"/>
            <g>
              <circle class="st27" cx="212.32" cy="312.1" r="13.83"/>
              <g>
                <path class="st19" d="M203.06,306.24c-.05,2.12.7,4.32,3.01,4.74,6.38,1.17,7.29-7.47,1.13-7.85,4.43-3.87,11.3-.86,13.85,3.91,5.22,9.73-5.62,20.74-15.13,15.13-5.21-3.08-7.08-11.31-2.87-15.93Z"/>
                <path class="st42" d="M217.64,313.39c.31.31,3.01,1.02,2.66,1.47-2.55-.17-2.69,3.01-3.11,3.45-.56.6-1.16-1.81-1.75-2.22-.67-.47-2.46-.43-2.73-1.06,2.38-.55,3.17-1.56,3.45-3.96.95.31.96,1.81,1.47,2.32Z"/>
              </g>
            </g>
          </g>
        </g>
      </g>
    </g>
  </g>
</svg>