<?xml version="1.0" encoding="UTF-8"?>
<svg id="Layer_1" xmlns="http://www.w3.org/2000/svg" version="1.1" viewBox="0 0 547.5 635.52">
  <!-- Generator: Adobe Illustrator 29.6.1, SVG Export Plug-In . SVG Version: 2.1.1 Build 9)  -->
  <defs>
    <style>
      .st0 {
        fill: #f0739e;
      }

      .st1 {
        fill: #714756;
      }

      .st2 {
        fill: #757676;
      }

      .st3 {
        fill: #c5c6c5;
      }

      .st4 {
        fill: #d2d2d2;
      }

      .st5 {
        fill: #de5887;
      }

      .st6 {
        fill: #767777;
      }

      .st7 {
        fill: #6d3b4e;
      }

      .st8 {
        fill: #757778;
      }

      .st9 {
        fill: #111112;
      }

      .st10 {
        fill: #dc5587;
      }

      .st11 {
        fill: #60605f;
      }

      .st12 {
        fill: #5b5c5c;
      }

      .st13 {
        fill: #606060;
      }

      .st14 {
        fill: #c4c4c4;
      }

      .st15 {
        fill: #f0749e;
      }

      .st16 {
        fill: #c6c6c6;
      }

      .st17 {
        fill: #b5b6b5;
      }

      .st18 {
        fill: #ea7190;
      }

      .st19 {
        fill: #464646;
      }

      .st20 {
        fill: #0f1010;
      }

      .st21 {
        fill: #62565a;
      }

      .st22 {
        fill: #dd5787;
      }

      .st23 {
        fill: #a6a7a7;
      }

      .st24 {
        fill: #818386;
      }

      .st25 {
        fill: #b6b5b5;
      }

      .st26 {
        fill: #481f20;
      }

      .st27 {
        fill: #f2739e;
      }

      .st28 {
        fill: #232423;
      }

      .st29 {
        fill: #5b5c5b;
      }

      .st30 {
        fill: #463e41;
      }

      .st31 {
        fill: #cdcfce;
      }

      .st32 {
        fill: #cecfd0;
      }

      .st33 {
        fill: #c3c4c3;
      }

      .st34 {
        fill: #dc5685;
      }

      .st35 {
        fill: #c7c7c6;
      }

      .st36 {
        fill: #dc5787;
      }

      .st37 {
        fill: #cfcfcf;
      }
    </style>
  </defs>
  <path class="st1" d="M428.99,158.85c2.52,4.56.87,5.55-4.96,2.98-.82,1.81-3,2.7-6.55,2.68-5.98,4.41-11.32,5.55-16.03,3.43-36.42-28.63-74.58-7.78-88.53,32.59,1.99,4.69-4.81,5.77-3.97,0-2.06-6.13,3.78-15.57,7.28-21.25,21.14-34.2,59.16-41.99,89.79-15.52,5.1-3.1,10.56-6.2,16.68-6.63.76-2.2-13-12.84-15.26-14.56l-2.09-4.21c-5.74-1.28-10.16-3.78-13.26-7.51l-48.94-3.57-1.45,3.05c-10.69,1.61-21.21,4.33-30.92,8.92-4.63,5.31-10.35,9.69-17.16,13.15.24,4.15-2.42,7.79-7.96,10.9l.13,3.33c-9.96,17.53-21.91,33.33-35.84,47.4,2.2.82,13.8,5.28,13.3,7.66-.59,2.81-1.65,3.9-4.61,2.78-33.78-13.82-69.66-19.92-106.05-15.22,1.22,1.72.97,3.48-.69,4.79-17.28,4.63-33.11,13.89-47.5,24.65,1.23,2.32,1.05,4.27-.65,6.25l-16.32,16.38c-7.78,8.54-13.72,20.27-14.86,31.68,7.13,1.06,8.4,5.06,9.66,11.34,1.91,1.36,2.76,2.81,2.54,4.33l12.01.87c3.61,2.57,4.29,6.64,3.16,10.7,17.27-1.14,33.82-10.76,46.71-21.77,2.28-1.21,4.21-.12,5,2.13,2.6-2.35,19.5-13.45,21.83-12.81,1.34.37,2.29,1.2,2.62,2.58,15.83-5.97,38.94-4.78,55.24-.18l3.22,2.6c3.29,1.85-.28,3.49-2.79,4-12.7-2.95-25.28-3.75-37.73-2.4-4.87,7.32-10.53,14.12-16.96,20.41,1.18,4-1.24,7.67-7.27,11.02,1.96,4.03-.25,8.08-6.65,12.13-1.42,3.03-3.41,5.17-5.97,6.43l.71,2.52c-3.58,4.51-4.48,5.74-2.75,11.45-2.99,7.77-4.34,15.65-4.02,23.66,7.17,0,1.46,10.65-.91,15.02-2.86,5.27-22.35,28.69-26.72,28.58-7.04-.17-.45-9.63,3.5-11.19-7.5-.82-14.81-2.63-21.95-5.43-24.06-7.23-37.86,24.73-41.1,43.53-1.34,2.31-3.43.78-1.98-1.98-1.09-1.65-1.09-3.64,0-5.95,2.86-20.07,18.54-43.13,41.17-40.69,10.75,1.16,26.11,11.95,35.72,2.01s6.3-15.45,7.43-27.29c.59-6.18,2.06-22.29,3.79-26.98,2.78-7.54,10.51-14.15,12.6-19.23.92-2.23-.99-3.71-.08-5.86,1.07-2.51,7.81-6.27,8.4-7.12.48-.69-1.51-2.85-.49-4.82.41-.79,6.33-5.04,8.02-6.94,1.84-2.07,9.7-11.65,10.39-13.42.92-2.37-5.06-1.64-6.38-1.41-2.76.48-9.34,4.71-11.25,3.64-.24-.13-.21-1.69-.8-1.78-4.77-.74-20.13,14.6-23.1,12.82-.4-.24-.78-2.78-1.61-2.82-.64-.04-8.62,6.22-10.5,7.34-8.91,5.3-18.13,10.71-28.68,11.49-4.66.33-9.31.75-13.93,1.27l1.03-3.25-1.27-1.85c2.73-5.79-1.3-8.04-5.53-3.56l-2.13-.54c-1.51,1.52-2.14.9-.99-.99-1.79-1.29-5.18-4.52-3.97-6.95-2.25.67-3.24-1.65-2.98-6.95-2.33,1.05-3.71-.66-2.98-2.98-1.64-.58-3.36-.54-4.95.32.14-4.06.47-8.14.98-12.22,3.19-12.11,7.23-19.21,15.36-28.79,2.14-2.52,11.29-10.24,11.99-11.89.48-1.13-1.23-1.79-1.4-2.67-1.01-5.34,40.54-30.45,48.46-30.56,2.24-1.39-2.85-3.18-.02-4.98,1.14-.73,19.53-3.26,22.35-3.45,26.99-1.79,52.15,3.1,77.83,10.44,1.5-.63,14.71-15.03,15.81-17.07,1.31-2.42-.03-3.86.58-5.26s4.13-3.84,5.43-5.52c1.76-2.27,12.69-16.73,12.58-17.82-.08-.79-1.71-1.73-1.54-2.85.33-2.17,8.06-6.84,8.93-8.29s-.62-3.06,1.28-5.29c2.71-3.17,9.57-5.76,12.78-8.84,1.17-1.13.85-2.88,2.72-4.49,2.5-2.15,12.77-6.25,16.34-7.47,3.01-1.03,15.76-3.4,16.29-4.05.58-.72-.25-3.5.09-3.87,2.08-2.3,54.55,3.17,61.85,4.13,2.4,6.94,11.27,5.54,15.56,10.3.97,1.08-.12,2.36.86,3.94,3.04,4.93,10.52,10.33,14.98,17.36Z"/>
  <path class="st7" d="M456.76,233.27c1.33-.88,1.66.11.99,2.98l2.04.8c-1.68,6.05,4.97,7.76,6.48,2l2.39-.81c1.39-1.24,2.05-.25,1.98,2.98,1.76-1.59,6.76-.83,6.94,1.98,2.2-2.26,2.11-.56.99,1.98l2.09,1.13c.01,6.33,3.38,7.64,6.57,1.88l2.25-.03c1.34-1.62,2-.96,1.98,1.98,8.19,24.07-8.64,59.94-24.29,78.4-1.91,2.25-8.16,7.17-9.02,8.93-.89,1.83,1.1,2.34,1.21,3.46.41,4.02-18.47,14.2-22.48,15.85-3.36,1.39-18.27,4.7-18.81,5.52-.11.16,1.69,2.44.02,3.46-5.81,3.58-28.04-.06-35.25-1.54l.48,2.98c-2.27,1.69-20.45-4.78-24.07-6.18-2.2-.85-14.99-7.31-15.6-6.72-2.32,16.7-7,32.9-12.9,48.61,5.82,2.2,43.33,23.98,43.37,27.3,0,.63-1.73,1.4-1.28,2.48.39.94,11.63,12.11,13.86,14.99,2.46,3.17,11.52,18.7,12.49,19.32.71.45,11.95-2.99,16.43-2.6,4.48.38,5.8,2.66,7.39,3.02,3.13.26,2.05,1.38,0,2.98-.09,2.31-4.21,7.68-6.94,6.95-1.47,1.33-1.2,3.95.82,7.86-1.65-.15-2.83.89-3.79,2.06,2.45,2.6-4.16,9.3-6.94,7.94-.71.4-1.37.45-1.98,0-2.3-.48-1.91-1.88-.69-3.6l8.35-8.09c-1.95-6.94.65-10.94,6.14-14.83-.06-3.26-21.36,4.87-22.95,7.33-7.06.64-4.27-5.26-.2-8.04-7.39-13.01-15.77-24.82-27.65-34.07-.66-5.29-3.84-9.01-9.54-11.14l-15.99-8.65.03-2.26-2.69.62-7.84-5.05c-13.24,25.06-35.4,46.75-63.56,53.16,9.41,3.48,17.84,8.32,26.15,13.25,3.33-2.46,7.48-1.53,12.45,2.8,7.64,5.7,14.85,11.91,21.64,18.63,1.61.03,3.31.19,5.08.48,6.81,9.99,14.53,19.92,23.16,28.31,7.46,7.25,18.78,17.23,29.26,14.8.86-1.49,5.82,3.03,5.07,4.19-.49.76-9.33.92-11.02.77-11.38-2.49-22.32-12.5-30.27-20.82-4.7-4.92-10.77-14.63-15.33-18.5-1.67-1.42-2.84-.25-4.5-1.27-3.83-2.35-10.23-10.94-14.37-14.5-2.29-1.96-12.24-9.76-14.39-9.46-.46.06-.53,2.02-1.04,2.08-1.48.19-15.55-8.64-18.63-10.16-3.63-1.79-21.75-10.31-24.22-10.52-2.02-.17-4.29.85-6.67.83-8.92-.07-17.73-.48-26.63-.84-8.46,7.58-16.86,14.91-26.17,21.44-4.11,2.88-34.41,22.08-36.55,22.06-2.41-.02-2.02-2.99-3.03-3.09-1.44-.14-5.17,2.35-7.13,2.77-5.74,1.22-11.6,1.57-17.46,1.13-2.78-.21-20.42-3.59-21.31-5.01-.6-.95.54-2.87-.75-3.91-3.1-2.5-13.51-6-17.94-8.62-1.54-.91-2.79-2.18-4.27-3.17-2.17.78-3.17.45-2.98-.99-2.32,2.43-8.28-4.24-6.94-6.95-2.62,1.24-3.94-.08-3.97-3.97-2.25,1.91-6.57-1.28-4.96-3.97-2.41.88-2.61-.98-.59-5.57l-.4-2.37c-2.68.79-4.67-2.9-2.98-4.96-6.58.28-7.9-1.37-3.97-4.96-.51,3.09.95,1.55,1.98,1.98,1.91-3.02,8.14.74,5.95,3.97,2.61.42,3.61,3.08,2.99,7.99,2.04,8.61,36.45,27.7,46.92,29.73,1.88,1.07,2.26,3.1.91,4.79,13.68,1.6,26.74,2.56,39.54-3.66,1.63-.39,3.15-.15,4.12,1.38,2.49.45,35.88-20.52,41.89-27.24l2.51-.09c7.73-9.2,16.13-17.9,25.19-26.09,6.33-.51-1.7,11.65-4.35,13.11,13.37.79,27.6.61,40.63-3.36,22.05-6.72,34.91-20.58,49.64-37.24l.1-3.93c7.54-12.28,12.39-25.93,15.52-39.92,3.23-17.01,7.3-33.63,12.19-49.84,5.46-5.55,9.24-12.5,11.32-20.84,2.03-6.2,17.81-23.98,23.45-24.84,1.01-.15,1.97,0,2.89.46l1.06.85c-2.19,2.33.1,3.37,6.88,3.12.89,2.62-.16,3.05-1.98.99l-10.91.99c-11.41,14.04-20.46,26.74-23.53,45.1-.77,2.16-2.51,2.87-4.67,2.46-.89.55-5.02,18.63-4.58,19.7.83,2.01,27.32,12.77,28.49,11.53,1.2-5.84,14.79-.38,17.69,2.57.1-.76.29-1.87.86-1.98,3.82-.76,15.74-.46,18.48,1.98-5.45-1.78-6.35-6.32.33-7.14,13.95.52,26.5-5.35,37.59-13.85-1.44-1.5-2.18-2.81-.69-4.5,21.93-17.2,32.51-41.81,40.15-67.78l-1.74-2.09c.35-1.61,1.12-12.04.2-12.27-7.73,3.53-13.7-.67-15.1-8.53-.86-1.38-2.44-2.2-3.96-2.51-7.76,4.79-15.45,3.47-16.51-6.24-1.9,1.25-3.41,1.21-4.55-.11-1.66.35-1.66-.31,0-1.98,2.44-1.52,5.07-3.35,7.94-3.97Z"/>
  <path class="st13" d="M69.89,285.86c.31,1.88-.48,10.35.07,10.86.15.14,2.23.03,3.9,1.05-6.98,5.18-10.86,15.21-13.88,23.58-.29.79-2.99,9.52-2.43,9.2,3.66-2.09,16.57-23.32,17.37-28.67l1.91-1.13c1.68,3.36.06,3.57,2.98,6.95-6.62,9.38-12.2,19.42-16.74,30.13,1.22,1.27,16.87-20.05,17.64-22.39l3.06-.8c.05.46.51.91.99.99l.91.99c-4.11,7.92-7.87,16.15-11.3,24.67,6.2-6.11,11.75-12.85,17.01-19.79l2.32.09c.09.56-.17,1.86,0,1.98.52.39,11.02.14,12.9,0-3.34,2.57-9.8-.36-12.89,1.49-.69.41-6.77,9.55-8.42,11.42-6.09,6.92-18.3,18.9-14.41-.01-6.4,5.78-12.61,12.06-11.9-1.98-8.35,3.51-4.97-8.59-3.68-13.11,2.76-9.62,9.23-16.14,12.14-23.58,1.23-3.14,1.46-8.12,2.46-11.93Z"/>
  <path class="st30" d="M416.09,477.35l1.23.66c.5,4.96,5.05,4.66,13.67-.91l1.96,1.24c1.86-.49,2.52-.16,1.98.99-.6,1.93-1.26,3.91-1.98,5.95,4.88.04,5.54,1.03,1.98,2.98-2.55,5.79-3.63,12.09-6.4,17.9-7.95,16.68-28.57,42.16-49.15,37.66l9.91-1-3.96-3.96c-4.98-2.03-2-11.82-.57-16.27,2.31-7.17,6.2-15.14,12.47-19.45-2.16-2.6,4.11-9.21,6.94-7.94l1.49-.96.49.96.84,2.24c-7.07,7.96-35.28,55.1-4.57,35.22,12.58-10.62,27.57-30.36,26.36-47.39-5.04,2.71-10.27,3.3-15.69,1.99.78-1.37,1.99-2.47,2.02-2.65.38-2.05-1.49-4.78-1.11-6.67.23-1.13,1.95-.46,2.07-.6Z"/>
  <path class="st11" d="M456.76,233.27c.1-7.29,23.35-45.92,20.84-18.86,2.15-1.37,3.51-5.32,5.96-6.42,7.42-3.34,4.83,4.11,5.94,5.44.21.25,3.5-2.34,5.42,2.01,1.67,3.79.98,13.88.41,18.2-.74,5.61-2.91,10.93-3.85,16.49-.18-.53-1.54-1.39-1.98-1.98l-1.46-1.64c1.63-4.7,2.45-9.71,3.01-14.68,3.13-27.69-4.1-5.65-6.99,6.11-.81,4.54-2.64,6.95-5.47,7.24-.1-.98.32-1.62-.99-1.98l-1.12-1.14s3.03-9.87,9.09-29.62c-6.86,7.41-11.04,16.61-12.57,27.59l-2.35,1.19c-.76-.55-1.24-2.22-1.98-2.98l-1.65-1.33c.89-1.8,7.34-26.49,6.16-25.87-1.27.67-5.71,8.37-6.67,10.15-2.3,4.28-4.12,8.8-5.92,13.3l-2.83,1.76c-.18-1.46-.99-2.82-.99-2.98Z"/>
  <path class="st29" d="M61.96,450.56c-.04.36-2,3.05-1,3.97.34.31,2.91-.79,4.97,1-8.82,6.38-16.25,14.62-22.29,24.72,9.28-1.89,19.63-9.61,23.31-18.44l1.96-1.32c2.54,2.31-.89,5.2.99,7.94.67.68.87,1.44.53,2.31-8.26,5.44-15.36,11.53-21.31,18.29,10.34-1.71,19.56-8.75,25.75-16.63,1.64,1.68,1.95,2.19,3.97,3.97l.24,2.28c-4.56,3-34.1,23.75-12.34,14.68,5.97-2.49,11.68-6.25,16.63-10.39l2.41.37c.15.1,1.62.09,2.98.99-5.27,3.01-8.57,7.09-14.22,10.09s-23.39,10.47-19.51-2.14c-15.83,4.78-8.24-7.23-8.93-7.94-.52-.53-11.41,3.98-4.79-8.28,3.32-6.16,16.18-17.08,18.16-21.52,1.32-2.97.07-7.17,2.51-9.89-.26,1.84.2,4.05,0,5.95Z"/>
  <path class="st12" d="M423.04,467.43c2.47.57,10.54-3.66,13.86-4.5,3.57-.9,20.96-4.11,22.84-1.43.47,1.24-1.39,4.45-.98,4.93,2,2.31,1.75-4.08,3.46-.98,5.57,10.14-8.08,10.73-15.03,14.71-4.43,2.53-7.41,6.5-12.24,8.1,1.72-3.9-.28-.57-1.98-2.98l.92-2.05c3.44-.63,6.48-3.02,9.05-5.3-2.43,1.42-5.2,1.65-7.99,1.39l-1.98-.99.84-2.59c8.45-3.21,33.82-14.34,8.56-9.51-5.8,1.11-11.49,2.97-16.91,5.21l-2.41-1.05v-2.98Z"/>
  <path class="st27" d="M84.77,308.68c-7.31-2.88-3.82-8.28-7.22-11.63-1.48-1.46-6.49-1.97-6.74-2.86-1.6-5.75,5.72-21.29,9.02-26.45,5.84-9.14,14.91-15.48,21.8-23.34,4.63-5.28-1.74-3.86,0-6.15,13.99-10.17,26.36-18.37,42.85-24.12,1.39-.48,8.64-.9,6.73-3.66-.34-.49-5.08-.66-1.36-2.87,23.21-2.91,45.11-2.43,68.03,2.16,14.97,3,29.15,8.46,43.44,13.59,2.66-2.4-13.67-7.98-14.87-8.42,4.78-5.66,14.17-12.78,17.52-19.18,5.13-9.8,16.37-21.68,19.7-29,.69-1.51-.36-2.93.03-3.96.89-2.37,7.1-5.59,7.92-6.93.85-1.4-.62-2.92.34-4.48,1.85-3,10.5-5.77,12.95-7.95,1.37-1.22.96-3.19,3.1-4.84,2.66-2.05,14.06-5.97,17.79-7.01,4.81-1.34,9.83-2.57,14.88-2.48v-3.98s54.56,3.98,54.56,3.98c-3.15,4.97,8.24,4.96,11.48,7.87,1.3,1.17,1.02,2.97,1.68,3.75,1.82,2.16,9.25,6.69,12.64,10.69.67.79,6.43,8.85,5.93,9.44-5.63-5.69-19.42,5.07-21.14,4.81-1.42-.22-10.95-7.72-13.68-9.17-37.56-19.93-72.68,7.81-83.22,44.05l1.26,2.85c-2.72,9.18-3.22,18.62-.41,27.85l-.85,4.03c10.23,31.4,53,40.81,82.33,36.72-1.14,2.22-3.89,3.59-5.95,4.95-11.24,7.45-17.74,12.37-24.32,24.79-2.44,4.6-4.49,13.32-6.55,16.27-1.24,1.78-3.3,1.95-4.63,4.3-2.08,3.65-4.3,14.62-5.48,19.32-7.22,28.77-8.02,48.38-24.48,74.24-20.7,25.52-54.7,35.19-86.04,27.55-5.46,4.84-11.35,9.17-17.67,12.98l-2.43-.84c-4.92,5.72-11.18,10.36-18.78,13.93-29.92,17.22-52.27,17.15-84.17,4.17-13.27-6.58-26.97-12.97-40.89-17.11-1.07-2.22-3.91-3.12-5.95-3.97-1.96-3.09-.67-6.21.06-9.37,2.96-12.74,15.54-34.38,29.44-37.03,12.65-2.41,25.34,8.84,37.95,5.72.77,2.24-.82,1.78-1.12,2.16-1.85,2.36-5.9,4.31-7.3,6.78-.68,1.19-1.44,3.38.97,2.96,11.83-11.71,26.24-23.42,29.27-40.67l-4.95,2.97c1.58-4.7.39-9.78,1.07-14.3.62-4.19,3.94-11.31,3.98-15.02.02-2.07-2.39-.84-1.98-2.74.57-2.59,4.33-7.1,5.85-9.6,12.01-12.41,22.75-22.55,38.61-30.66,14.28-5.89,27.87-12.54,40.75-19.94-15.45-13.17-41.6-14.11-62.03-12.63-19.74,3.39-38.48,10.66-56.21,21.82-10.9,5.45-21.41,8.17-33.54,5.69Z"/>
  <path class="st4" d="M424.03,161.83c11.42,4.44,13.43,20.91,14.87,31.75-4.82-2.34-9.99-.94-12.74,3.62l-4.12,9.28-2.22.34c-4.94-4.91-12.85-4.21-19.26-3.5l-1.34-1.8-3.91,2.72c-9.13,2.69-17.74,6.41-25.85,11.17,1.65.92,2.3,2.71,1.96,5.4,6.13,30.09,31.57,31.71,46.67,6.84l2.95-.32c.09-.09,1.18.38,2.04-.65,1.47-1.76,1.49-4.71,1.96-6.78.28-1.21.15-3.03,1.93-1.49,1.22,1.06,4.26,8.16,6.84,9.62-3.73,12.84-14.52,25.13-24.66,33.54-7.02,5.82-12.07,7.77-21.3,8.46-27.92,2.09-69.63-6.03-76.92-37.74l-.14-2.64c14.09-14.16,31.51-16.73,50.27-18.65,25.43-5.24,22.41-33.21-5.22-30.3-15.24,1.61-28.49,10.11-39.92,19.85h-3.01c-1.59-3.54,2.48-10.77,4.25-14.12,13.31-25.19,38.98-41.64,67.53-30.4,4.38,1.73,19.1,11.63,20.95,11.67,3.24.07,7.88-4.2,11.62-5.18,2.65-.69,4.27-.49,6.76-.68Z"/>
  <path class="st5" d="M236.55,293.79c-.26.74-.92.41-1.98-.99-15.54-2.81-30.12-5.39-46.09-4.03-2.89.25-13.51,4.86-14.4,4.02-.31-.29.27-2.69-.02-2.97-1.24-1.23-17.12,9.43-20.03,11.03-.83.45-.91,1.76-1.37,1.88-3.25.86-2.79-2.85-3.88-2.96-1.4-.14-5.42,4.36-6.71,5.24-12.84,8.79-28.63,17.32-44.39,17.55-.96-.95,3.47-7.42-2.01-11.38-3.28-2.38-6.88-.92-10.89-2.5,30.08,1.42,49.49-21.25,78-27.66,20.42-4.59,52.89-3.26,71.15,7.96,2.65,1.63,3.5,2.16,2.63,4.81Z"/>
  <path class="st10" d="M157.19,344.4c1.29-2.12,2.51-5.23,4-7.19,1.48-1.95,7.8-6.69,7.93-7.21.72-2.87-1.68-2.35-1.8-2.62-1.35-2.9,7.85-7.77,8.64-8.91.48-.69-1.64-3.4-.46-4.79,5.63-5.47,10.29-11.76,15.43-17.64,2.34-2.68-.15-3.56,6.45-4.21,13.03-1.28,22.52,1.4,34.67,3.01,1.59.21,4.85.85,2.52-2.03.81.15,1.69,0,1.98.99-.24.73.51.91-.76,1.94-11.55,9.46-34.1,16.01-47.77,24.43-6.47,3.99-14.34,10.56-19.91,15.8-3.32,3.12-4.92,8.9-10.92,8.43Z"/>
  <path class="st31" d="M73.86,297.76c1.46.89,2.18,1.38,2.98,2.98.19,2.03.04,3.78-.77,5.67-1.38,3.22-13.12,20.94-15.64,24.05-1.34,1.65-2.1,2.38-4.41,2.03-2.91-3.11,9.16-29.9,12.86-33.27,1.65-1.5,2.83-1.72,4.99-1.45Z"/>
  <path class="st35" d="M93.7,321.58c-1.75,3.07-18.13,22.89-20.34,22.8-1.31-.06-1.26-1.81-1.05-2.99.8-4.42,9.59-22.08,12.47-25.76,5.89-7.55,14.03-3.02,8.93,5.95Z"/>
  <path class="st37" d="M79.81,307.69c3.44,3.97,3.36,1.58,3.97,6.95-4.72,6.09-8.14,13.11-13.38,18.87-1.36,1.5-8.47,9.89-9.4,5.39-.82-3.93,11.84-24.67,15-28.57,1.12-1.38,1.67-2.67,3.81-2.64Z"/>
  <path class="st15" d="M448.83,239.22c1.33-.8,5.99-2.97,6.94-1.99.41.42-1.54,7.8,4.51,8.92,5.34.99,8-3.17,10.29-2.49,9.61,2.85,2.68,10.42,11.97,12.01,4,.68,4.84-.34,7.95-2.56,1.51,6.28.79,11.6,0,17.86-10.85,37.2-48.11,82.84-91.54,71.99-27.55-6.88-34.77-39.44-17.58-60.09l9.92-.99c.97-.18,1.68-.92,1.98-.99,3.76-.83,8.18-.54,11.9-2.98-1.19,6.58,6.77,0,8.85-1.57,12.3-9.23,22.89-29.96,34.81-37.12Z"/>
  <path class="st0" d="M341.69,411.87c6.08,3.43,21.11,10.68,25.58,15.12,1.19,1.18-.05,3.39,1.12,5.21,1.55,2.44,9.02,7.58,11.97,10.94,2.5,2.85,17.29,23.63,16.8,25.68-.11.47-7.92,5.48-3.4,5.53,1.63.02,11.81-8.43,21.86-7.97,12.35.56-.55,5.06-2.08,9.93-1.06,3.36.78,6.29.09,7.96-.64,1.55-6.83,6.39-8.52,8.45-.79.97-.75,2.25-.94,2.49-1.92,2.42-5.22,5.32-6.94,7.94-13.37,13.38-34.17,3.23-45.44-8.27-22.4-22.86-33.11-48.49-17.26-78.72,1.59-3.03,3.54-6.43,7.15-4.29Z"/>
  <path class="st34" d="M385.34,538.87c.28,1.04.49,2,.99,2.97-17.09.45-30.77-14.82-41.18-26.77-4.72-5.41-9.87-11.61-13.4-17.87-2.64-.87-1.69,1.57-2.04,1.87-1.81,1.54-1.83-1.09-2.27-1.48-9.82-8.68-18.98-19.04-31.38-24.22-.51.49,1.17,3.62-1.47,2.97-2.45-.6-10.74-6.26-14.03-7.8-4.25-1.99-8.69-3.99-13-5.85-1.7-.74-8.73-1.71-3.77-3.22,4.35-1.32,8.95-2.03,13.21-3.67,23.21-8.95,41.98-28.35,52.74-50.43.67-.39,2.41.29,3.2.65,2.26,1.02,6.67,4.67,8.75,5.85-2.5.17-4.7,3.81-5.66,5.74-14.51,29.17-5.36,51.19,15.07,73.65,12.16,13.37,29.05,21.57,46.14,11.89-6.28,9.52-15.04,24.27-11.9,35.72Z"/>
  <path class="st5" d="M490.49,270.97c-2.25,18.17-10.66,37.49-21.85,52.06-5.16,6.72-11.69,12.1-17.81,17.89l3.94,1.98c-7.83,6.36-19.4,13.21-29.37,15.27-4.29.89-10.43.38-13.65,1.23-4.13,1.09,2.38,2.55,1.37,4.84h-19.34c-3.82,0-11.75-3.04-15.86-3.98l.48,3.97c-2.2,1.6-29.02-9.85-32.79-12.56-.55-2.24,3.56-20.71,4.89-22.58.91-1.28,3.23-.08,3.98-.66.86-.68,4.73-17.37,6.33-20.97,2.65-5.96,13.85-21.81,19.57-24.58h.99c-22.8,43.73,12.86,72.95,55.74,53.27,25.72-11.81,36.27-32.94,48.64-56.57.67-1.27,2.23-1.35,2.72-2.44.74-1.64-.05-4.71,2.02-6.17Z"/>
  <path class="st22" d="M213.73,455.53c.15,3.11.5,3.87,1.91,6.91-2.39,2.3-4.68,4.63-6.87,6.98-1.77,3.09-8.33,7.72-11.99,10.33-10.55,7.53-22.35,13.29-33.16,20.41-3.61.37,1.57-3.23-1.98-2.99-4.15.28-9.65,4.24-15.99,4.86-3.83.37-26.23-.14-28.14-1.86-2.07-1.86,3.62-1.86,1.98-3.95-.28-.36-6.83-1.86-8.72-2.7-8.52-3.79-35.83-19.2-39.37-27.1-1.32-2.95.26-6.26-1.5-9.91,1.54-1.72,3.02-.7,4.73-.31,15.46,3.61,29.22,13.13,44.08,18.46,40.4,14.5,61.83,2.33,95.03-19.15Z"/>
  <path class="st36" d="M319.87,415.84c-9.68,15.2-20.56,26.49-37.33,34.6-18.11,8.76-36.13,8.84-55.91,8.06-1.97-1.73,10.27-10.48,7.44-13.88-7.83,8.75-15.65,18.06-25.3,24.8.2-.35.05-1.27.49-1.99.72-1.17,5.92-3.46,4.36-5.82-1.22-1.84-5.58-.11.1-6.09,2.59-1.68,5.51-2.91,7.88-4.52,2.67-1.81,8.33-8.26,10.93-8.95,2.59-.69,10.05,1.5,13.39,1.61,30.8,1.02,47.66-4.85,69.96-25.37,1.24-1.14,2.04-2.39,3.98-2.46Z"/>
  <path class="st16" d="M432.96,478.35c-5.04,2.43-18.85,10.89-16.86-.99,2.92-3.53,1.81-4.25,6.94-6.95,5.96-3.13,26.77-9.63,32.29-6,2.86,1.88-1.02,3.95-2.99,5.04-5.18,2.87-13.45,6.04-19.38,8.9Z"/>
  <path class="st32" d="M65.92,455.53c.6.52,2.85,4.21,2.98,4.96,1.2,7.4-16.16,20.15-22.76,21.41-1.4.27-4.6.97-5.02-1.09-.34-1.69,16.71-22.8,19.3-24.34,1.89-1.13,3.4-1.15,5.51-.94Z"/>
  <path class="st14" d="M489.5,248.15c-.96,2.06-3.68,6.04-6.27,5.72-4.65-.59-4.29-5.42-4.64-8.69,4.85-7.15,5.67-19.26,9.72-26.49,2.07-3.7,4.62-5.06,5.21.15.73,6.51-1.24,23.36-4.02,29.32Z"/>
  <path class="st33" d="M457.76,236.25c2.98-7.46,5.88-15.09,10.5-21.74,1.78-2.56,3.91-6.69,7.35-7.03,1.48,1.66-5.54,26.84-6.94,30.75-1.43,4.01-1.97,6.84-7.39,5.95-4.64-.76-3.15-4.84-3.52-7.94Z"/>
  <path class="st17" d="M74.85,472.39c.7,4.99-5.41,8.82-9.01,11.32-5.41,3.75-12.07,7.51-18.76,7.52-.11-1.38-.02-2.7.44-4.01,1.55-4.41,18.4-14.23,22.37-18.8.65.94,3.91,2.89,4.96,3.97Z"/>
  <path class="st25" d="M78.82,476.36c1.88,1.66,5.54,5.94,6.94,6.95-4.13,4.73-23.42,16.79-28.8,13.42-2.16-1.35.39-4.35,1.52-5.49l20.34-14.88Z"/>
  <path class="st3" d="M477.6,243.19c-2.4-.66-4.17,0-6.94-1.98,2.83-10.99,5.41-25.1,15.36-31.75,2.1,1.43,1.51,3.12,1.27,5.19-1.01,8.79-8.09,19.52-9.69,28.55Z"/>
  <path class="st21" d="M391.29,281.89c-3.17.58-6.34,1.65-9.92.99h-.99c3.68-1.78,6.91-.81,10.91-.99Z"/>
  <path class="st2" d="M399.23,201.52l.66,2.18c-9.62,11.58,14.65,22.14,20.8,10.01l2.34-.28c.01.27,1.14,1.18.96,3.26-.89,10.09-2.34,9.06-11.87,8.65-6.58-.09-14.47-.1-20.89-1.43-7.71-1.6-14.41-6.04-21.76-8.49.08-.55-.22-1.1.21-1.75.29-.44,7.84-4.8,9.01-5.4,6.1-3.13,13.83-5.67,20.54-6.74Z"/>
  <path class="st28" d="M422.05,206.48c2.37,3.63.86,4.39.99,6.95-4.68,10.86-19.92,9.57-25.8.5-3.55-5.48-2.15-8.17,1.99-12.41,6.9-1.1,18.48-1.67,22.82,4.96Z"/>
  <path class="st6" d="M406.17,495.21c1.9-2.65,4.86-4.27,6.94-7.94,3.12-2.9,5.84-.85,8.95-1.37,2.81-.48,7.92-5.38,8.89-.11,2.86,15.42-21.36,48.66-35.75,53.52-6.8,2.3-9.88-2.21-8.65-8.64,1.8-9.35,13.75-27.26,19.61-35.45Z"/>
  <path class="st23" d="M434.94,479.34c5.38-2.38,10.87-4.65,16.23-7.09,2.65-1.21,6.29-4.08,8.09-4.81,2.01-.81,2.22,3.78,2.05,4.01-1.01,1.32-10.97,4.23-13.38,5.5-5.24,2.77-8.79,8.28-14.97,8.34-2.59-3.65-.83-4.71,1.98-5.95Z"/>
  <g>
    <path class="st26" d="M412.13,225.33l8.93,1.98c-9.03,9.18-14.82,21.94-30.02,19.6-12.85-1.98-23.27-19.15-21.56-31.51l2.7-1.14c12.13,6.16,23.93,9.91,37.75,9.05l2.21,2.01Z"/>
    <path class="st18" d="M385,229.66c.26.14,4.62,3.36,4.84,3.57,1.46,1.47,7.77,10.75,6.42,11.93-10.78.84-22.15-9.14-22.8-19.84,3.72,1.79,7.91,2.34,11.55,4.33Z"/>
  </g>
  <g>
    <path class="st21" d="M428.99,158.85c24.74,38.94,11.17,86.48-26.87,110.54l-16.77,10.5c8.73,2.67,16.78-5.35,23.45-6.85,1.99-.45.77,2.57,2.77,1.85,7.99-2.9,20.25-23.11,26.82-29.75,3.06-3.09,6.77-5.61,10.45-7.91v1.98l-.41,2.63c-9.38,8.95-18.01,18.71-25.89,29.29-4.15,4.5-13.33,14.35-19.46,9.98-4.39,1.82-7.65,1.75-9.78-.22h-9.92s1.98-3.97,1.98-3.97l-.91-2.27c-22.86,1.17-50.61-4.14-66.9-21.42-4.06-4.31-10.78-12.28-8.57-17.99-.3-2.75.36-3.74,1.98-2.98l2.51,1.77c8.77,29.71,55,38.71,81.3,33,11.43-2.48,36.9-27.78,36.82-38.29,0-.42-4.62-6.86-4.91-6.56-.22,3.66-3.14,9.5-5.61,5.11-2.52,2.03-8.47,1.53-8.93-1.98l1.3-1.93c6.39,1.91,9.59-1.42,9.62-9.98-2.63-.7-1.99-5.01-.99-6.95-1.87-7.34,5.7-17.84,14.43-15.78,1.32-1.08-5.1-26.14-11.98-26.49l-.46-2.37c3.49-.26,5.71,1.46,4.96-2.98Z"/>
    <g>
      <path class="st20" d="M431.68,200.66c9.53-2.65,9.22,16.72-.68,12.25-4.73-2.14-3.45-11.1.68-12.25Z"/>
      <path class="st24" d="M433.94,202.52v2.97s-3.96,0-3.96,0v-1.47c1.05-1.56,2.13-1.73,3.96-1.5Z"/>
    </g>
  </g>
  <g>
    <path class="st19" d="M310.94,232.28c-.8.82-1.22,2.1-1.98,2.98-4.32-13.24-3.82-21.61,0-34.73,2.15,3.88,2.11,1.65,3.97,0,13.49-11.98,32.1-23.88,50.98-21.72,13.45,1.54,21.3,12.81,13.34,25.03-7.97,12.22-29.05,9.29-41.45,13.11-8.25,2.54-18.83,9.15-24.85,15.33Z"/>
    <path class="st8" d="M308.96,206.98c.83-2.97,23.98-18.68,28.09-20.52,11.17-5.02,40.5-11.76,40.44,7.62-.06,18.36-21.84,16.45-34.05,18.61-7.56,1.33-16.48,4.67-22.89,8.85-2.04,1.33-8.53,7.63-9.11,7.76-.97.21-2.47-1.12-2.47-1.48,0-4.58-.92-17.58,0-20.84Z"/>
    <path class="st9" d="M353.58,191.6c.16.12.5,2.29,1.92,3.54,2.32,2.04,6.27,2.88,9.28,2.22,1.78-.39,7.95-6.71,7.7-2.27-.48,8.82-18.56,9.53-21.45.51-.8-2.49.89-5.16,2.55-4Z"/>
  </g>
</svg>