<?xml version="1.0" encoding="UTF-8"?>
<svg id="Layer_1" xmlns="http://www.w3.org/2000/svg" version="1.1" viewBox="0 0 547.5 635.52">
  <!-- Generator: Adobe Illustrator 29.6.1, SVG Export Plug-In . SVG Version: 2.1.1 Build 9)  -->
  <defs>
    <style>
      .st0 {
        fill: #ef7693;
      }

      .st1 {
        fill: #ede2e8;
      }

      .st2 {
        fill: #6f3a64;
      }

      .st3 {
        fill: #eb8b9a;
      }

      .st4 {
        fill: #f187a0;
      }

      .st5 {
        fill: #fab6b5;
      }

      .st6 {
        fill: #f9d7c0;
      }

      .st7 {
        fill: #f8708a;
      }

      .st8 {
        fill: #1f0d2b;
      }

      .st9 {
        fill: #f96f88;
      }

      .st10 {
        fill: #e3a59f;
      }

      .st11 {
        fill: #dd8994;
      }

      .st12 {
        fill: #fabcc4;
      }

      .st13 {
        fill: #f4cebd;
      }

      .st14 {
        fill: #f8c3c9;
      }

      .st15 {
        fill: #f8c2ca;
      }

      .st16 {
        fill: #d86083;
      }

      .st17 {
        fill: #fbb5bc;
      }

      .st18 {
        fill: #1e1334;
      }

      .st19 {
        fill: #f9dbc7;
      }

      .st20 {
        fill: #f7c6cd;
      }

      .st21 {
        fill: #201337;
      }

      .st22 {
        fill: #d58897;
      }

      .st23 {
        fill: #fab2b7;
      }

      .st24 {
        fill: #f7b8c8;
      }

      .st25 {
        fill: #fab9c0;
      }

      .st26 {
        fill: #1e1234;
      }

      .st27 {
        fill: #f9c5cb;
      }

      .st28 {
        fill: #d88b9a;
      }

      .st29 {
        fill: #db8892;
      }

      .st30 {
        fill: #db5177;
      }

      .st31 {
        fill: #f5d0c5;
      }

      .st32 {
        fill: #2e1a3c;
      }

      .st33 {
        fill: #fab7bb;
      }

      .st34 {
        fill: #1a112e;
      }

      .st35 {
        fill: #fab4bb;
      }

      .st36 {
        fill: #f9c0c8;
      }

      .st37 {
        fill: #ec6b89;
      }

      .st38 {
        fill: #df979e;
      }

      .st39 {
        fill: #f5d4bf;
      }

      .st40 {
        fill: #6e3963;
      }

      .st41 {
        fill: #e09b9d;
      }

      .st42 {
        fill: #fab4b7;
      }

      .st43 {
        fill: #f5cebe;
      }

      .st44 {
        fill: #f4d0c1;
      }

      .st45 {
        fill: #f9bec3;
      }

      .st46 {
        fill: #f86f87;
      }

      .st47 {
        fill: #e34a66;
      }

      .st48 {
        fill: #e68999;
      }

      .st49 {
        fill: #f1d1bf;
      }

      .st50 {
        fill: #381627;
      }

      .st51 {
        fill: #e39da3;
      }

      .st52 {
        fill: #f4d1c6;
      }

      .st53 {
        fill: #edc4bb;
      }

      .st54 {
        fill: #dd8b94;
      }

      .st55 {
        fill: #f6c4cd;
      }

      .st56 {
        fill: #f2d3c1;
      }

      .st57 {
        fill: #e47f95;
      }

      .st58 {
        fill: #fabdc0;
      }
    </style>
  </defs>
  <path class="st34" d="M298.22,68.74c9.84-1.62,20.92-2.29,30.62.48,11.16,3.19-.27,6.85-4.16,9.67,20.78,8.42,38.26,24.62,48.02,44.84,6.33,13.11,9.28,27.17,10.65,41.63,12.89-5.43,25.6-11.2,39.16-14.87,11.8-3.2,23.25-5.46,35.48-3.52,1.37.22,3.41,1.25,4.51,1.18,3.01-.19,9-3.08,13.32-3.46,4.39-.38,19.25-.26,20.39,5.56.25,1.29-.9,2.42-.61,2.77.41.5,3.9,1.54,4.95,2.12,4.14,2.28,7.03,6.62.31,7.53-1.69.23-4.37-.55-5.46.93,3.34.52,8.41,1.88,10.34,4.88,3.22,5.02-6.35,4.48-9.11,4.96-3.81.66-18.52,5-20.3,7.93-1.31,2.16-2.16,5.62-3.69,8.22-11.53,19.7-45.45,42.6-64.9,55.1-20.79,13.36-42.67,24.59-63.96,37.06-1.72,1.01-11.2,6.37-11.53,7.44-.42,1.36-.2,8.2-.08,10.06.98,15.33,9.25,28.99,13.45,43.46,1.83,6.29,2.92,12.62,3.71,19.13,25.35,6.75,54.33,21.63,60.34,49.61,5.22,24.34-4.04,49.45-17.85,69.22-.92,1.31-5.59,6.74-5.76,7.49-.21.89,1.16,8.5,1.16,10.5,0,8.19-2.12,17.29-6.69,24.1-1.28,1.91-5.84,8.29-8.43,5.22-.8-.96-.25-2.24-1.11-2.63-1.82,4.51-10.95,12.18-10.16,2.2-1.37.62-1.78,2.2-2.85,3.1-2.47,2.06-6.84,2.81-6.82-1.49.02-3.39,2.35-9.08,2.64-13.27.31-4.65.08-10.81-1.03-15.33-.22-.88-.73-3.11-1.17-3.69-.55-.73-5.24-3.25-6.6-4.43-4.94-4.27-8.02-11.52-8.44-18.03-.37-5.6,2.64-20-3.2-23.27-4.44-2.49-15.63-3.75-20.75-3.71-9.14.06-12.38,3.59-20.36,6.46-8.96,3.22-20.51,5.59-30.01,6.16-3.25.2-8.13-.53-11.01.01-2.44.46-8.28,11.12-9.27,13.67-1.7,4.4-1.75,5.78-.64,10.33,2.41,9.82,9.8,18.15,9.71,28.71-.01,1.6-.98,4.48-.79,5.67.4,2.48,10.92,12.47,13.4,14.33,1.71,1.28,7.65,4.4,8.3,5.82,2,4.34-6.83,5.01-9.48,3.97.78,1.3,2.96,1.32,3.65,2.75,2.61,5.42-7.44,3.8-9.09,4.37-.89.31-.83,2.03-3.26,2.47-7.98,1.44-19.29-4.32-25.27-9.37-1.62-1.37-6.16-6.99-7.05-7.5-.67-.39-4.44-.56-5.75-.87-47.05-11.1-68.71-54.89-59.34-100.83.85-4.18,3.87-11.48,3.8-15.2-.08-4.17-3.03-12.92-3.88-17.78-7.33-42.36-1.09-84.25,11.16-124.95-26.09-30.07-51.96-60.7-71.8-95.42-9.5-16.62-22.2-41.88-23.74-60.96-.2-2.52.84-3.88-.52-6.1-2.94-4.77-10.24-11.11-14.96-14.15-2.15-1.38-9.35-4.21-9.23-6.61.23-4.81,11.07-3.29,14.12-2.47l-7.97-4.15c-1.7-3.47,1.75-4.81,4.67-5.1,3.97-.4,7.85.53,11.68,1.31-1.65-2.2-6.78-2.01-5.54-5.75.95-2.89,7.24-2.05,9.6-1.61,6.06,1.12,12.64,4.76,17.51,8.52,2.22,1.71,6.57,6.52,8.45,7.43,1.52.74,5.56.99,7.67,1.59,15.52,4.45,34.6,24.24,45.47,36.14,7.74,8.47,14.99,17.44,22.05,26.47,13.26-28,29.51-56.26,57.28-71.98,17.62-9.98,37.21-10.56,54.52-20.92,1.8-1.08,9.64-7.02,10.75-6.74,3.62.91,1.65,10.95.76,13.61Z"/>
  <g>
    <path class="st30" d="M167.2,154.32c1.12,1.37,5.46,5.62,5.66,6.93.17,1.07-2.13,6.91-2.46,8.84-.64,3.74-1.17,11.29.58,14.63,1.84,3.51,4.39-1.97,5.48-.85.8,19.46,14.11,35.94,29.34,46.76l.21-.65c-13.85-15.49-26.27-34.58-25.59-56.25-.64-.72-5.22,5.04-6.17,5.29,0-5.76,1.96-11.09,3.97-16.32,1.03-.03,1.45.81,1.25,2.51l.57-.58c4.5-7.88,4.83-.36,4.35,4.4,1.63,27.14,20.78,47.81,44.55,58.52l2.32.37c31.36,17.96,73.3,23.77,105.35,4.79.59-.13,1.17-.08,1.74.13,16.52-8.24,28.81-15.97,36.02-33.75,2.9-7.16,3.4-13.45,2.84-21.07l.85-1.21c.02.12.65.6.47,1.06l.41,36.88c-1.1-.05-3-5.87-3.96-4.85-.77,6.66-2.08,13.42-4.98,19.5-.32.66-2.32,4.58-2.53,4.76-.05.05-.93.16-.88-.22.09-1.12-.56-8.72-.88-9.05-1.09-1.08-1.95,1.87-2.47,2.61-11.43,16.28-35.74,24.43-54,30.04-.1.77,1,.41,1.54.44,16.52.71,39.39-9.27,50.77-21.17.36-.38.92-2.25,1.52-1.06.81,1.62.89,5.62,4.11,4.08,3.78-1.8,7.51-9.3,9.01-13.07.49-1.23.88-4.48,2.05-4.5,3.03-.05,2.99,1.97,4.36-2.32,2.76-8.62,1.97-32.98,1.66-42.93-.05-1.58-.79-3.14-.46-4.84.29-1.53,4.71-2.64,6.18-3.31.81,1.18.96,2.21.44,3.09.26.2.51.4.72.65,1.72,2.06,2.18,19.13,2.16,22.92-.07,12.87-1.39,27.18-7.9,38.29,29.26-13.46,60.42-29.04,82.96-51.34l1.03.07c-3.27,8.26-10.5,15.62-16.97,21.63-9.41,8.73-20.87,17.24-31.41,24.61-27.82,19.44-57.84,35.31-87.28,52.12-1.08.31-.64-1.27-.59-1.91.21-2.8,1.2-6.79,1.84-9.63.09-.42,2.04-5.95.32-4.32-.83,2.65-2.69,4.92-3.85,7.4-.82,1.74-2.24,4.97-2.77,6.71-.16.19-.34.37-.54.5-2.68,1.68-2.14-7.36-1.46-8.77-8.66,1.15-17.32,2.25-25.99,3.28-4.07.65-7.98.4-11.71-.74l-1.04.75c-8.96-2.79-17.77-4.37-27.17-3.08l-.9-.76c-40.22-5.41-77.31-28.35-91.28-67.75-5.72-16.12-6.32-30.07-1.8-46.51-1.18-.57-1.03-2.05.44-1.76Z"/>
    <path class="st4" d="M288.96,77.56l-.02,1.01c9.98-2.7,19.97-3.89,29.97-3.56l.93.79c-1.63,1.78-3.97,3.01-5.74,4.63-.93.85-3.99,3.94-4.4,4.86-.24.54.09.81.65.65.74-.22,3.1-1.66,4.2-2.2.43-.06.85-.11,1.27-.09,3.23.13,12.77,6.29,16.02,8.46,29.14,19.52,43.99,50.05,46.23,84.71.15,5.86.56,12.52-1.1,17.65-6.92,21.45-18.33,29.33-37.9,38.49-.5.23-.67-.13-.71-.12l1.08-1.83c6.62-4.76,12.28-10.79,16.49-17.77,16.76-27.74,13.37-83.16-18.72-98.78-13.77-6.71-26.45-4.26-40.66-1.31l-11.47-8.28c-42.99-27.47-84.46,21.09-88.68,62.09-2.58,25.06,10.38,45.46,31.14,58.64l1.41,1.94c-.28.78-1.4.09-1.86-.12-24.34-11.53-41.3-30.57-43.57-58.33-.09-1.15.23-6.59,0-6.83-1.38-1.39-2.11,3.63-4.18,3.98-1.24.2-.45-2.81-1.11-3.54.82-2.14.91-3.19,2.21-5.29,15.39-29.16,36.13-59.3,68.41-70.83l21.01-7.6c9.06-3.41,17.87-8.92,23.96-15.98.32-.26.6-1.06,1.11-1.32.29,5.81-3.53,10.85-5.96,15.88Z"/>
    <path class="st27" d="M293.81,63.01c1.28.62.13.74-.23,1.07-1.72,1.61-3.09,3.53-4.86,5.09-13.37,11.81-34.79,14.77-50.61,23.07-26.52,13.9-42.58,40.52-57.68,65.18,12.04-27.65,30.63-57.98,58.58-71.78,18.03-8.9,38.46-9.11,54.8-22.63Z"/>
    <path class="st36" d="M378.07,176.82c-2.17-11.11-3.83-22.54-7.48-33.32-9.08-26.83-30.09-48.73-56.04-59.76,1.19-.58,2.44-1.9,4.09-1.68,2.3.3,11.89,5.72,14.41,7.23,32.35,19.46,44.12,50.87,45.03,87.53Z"/>
    <path class="st14" d="M467.62,159.18c-12.43-4.28-26.72-1.72-39.27,1.1-12.99,2.92-23.68,7.56-36.02,11.65-.71.24-1.15.7-1.91.04-.13-.7-1.56-1.86-.44-3.09,13.87-6.29,29.52-12.48,44.54-15.24,11.13-2.04,25.06-4.29,33.1,5.53Z"/>
    <path class="st20" d="M288.96,77.56c8.45-4.86,21.51-5.85,31.12-5.31.74.04,4.85.31,5.05.46.91.69-.4.78-.63.92-1.12.67-3.45,2-4.66,2.16-3.08.43-7.1-.22-10.36,0-7.54.51-15.02,3.01-22.5,3.97-.76-1.01,1.28-1.81,1.98-2.21Z"/>
    <path class="st53" d="M498.06,158.3l-12.35,2.86-8.62,3.24-2.86-5.89c7.56-3.11,16.19-2.97,23.83-.22Z"/>
    <path class="st13" d="M94.41,90.8l-6.62,2.44c-2.67-3.22-5.29-6.44-8.37-9.29l-7.5-5.5c5.08.44,10.36,3.14,14.52,5.99,2.82,1.93,5.13,4.62,7.98,6.36Z"/>
    <path class="st39" d="M81.62,96.97l-.94.4c-5.44-4.34-11.24-8.17-17.59-11.43-.73-.3-2.37-.44-2.64-1.32,5.5-.19,10.83,1.86,15.57,4.49,1.23.69,7.09,4.39,7.6,5.2.9,1.42-1.07,1.87-2,2.66Z"/>
    <path class="st49" d="M488.8,149.91c-5.75.13-11.42,2.48-16.62,4.79-.95.09-3.38-3.58-4.99-3.47.08-.68,1.62-.94,2.2-1.1,4.83-1.34,10.66-1.97,15.66-1.53,1.04.09,3.26.29,3.76,1.31Z"/>
    <path class="st41" d="M59.56,93.89c5.35,2.55,10.8,5.75,15.51,9.52l-.07,1.07c-.49,1.07-.79,3.12-1.33,4.12-.27.51-.36.34-.87.29-4.39-6.46-11.43-12.21-18.53-15.44-.11-.76,1.05-.47,1.53-.43,1.3.1,2.52.57,3.76.88Z"/>
    <path class="st52" d="M477.77,170.65c.04-.72-.26-1.96.42-2.45.31-.22,5.14-1,5.98-1.08,4.71-.46,9.83-.19,14.33,1.32-.05.71-1.59.71-2.2.88-5.89.66-11.78,1.41-17.66,2.24l-.87-.92Z"/>
    <path class="st10" d="M63.09,85.95c3.39,1.37,6.76,2.73,10.09,4.69l8.44,6.34c-.99.84-1.98,1.68-2.87,2.64-4.32-5.5-10.01-9.64-15.66-13.67Z"/>
    <path class="st51" d="M496.3,169.32c-6.22,1.69-12.7,2.71-18.32,6.17-.67.21-.7.02-.58-.58.34-1.71.27-2.64.37-4.27,6.18.41,12.3-2.94,18.53-1.32Z"/>
    <path class="st31" d="M59.56,93.89c3.23.79,6.26,1.82,9.21,3.36,1.15.6,7.34,4.48,7.5,5.3.2,1.03-1.14,1.64-1.27,1.93l-3.86-3.08c-4.6-1.97-8.21-6.38-13.35-7.07l1.76-.44Z"/>
    <g>
      <path class="st4" d="M90.88,98.3c5.63-1.52,11.05,1.24,16.11,3.95,21.14,11.31,43.7,34.96,59.49,52.92l.28.92.28,2.39c-9.31,35.94,10.79,72.25,40.72,91.99,16.44,10.84,30.92,14.64,49.8,18.65.4.08.78.27,1.16.47s.76.47,1.12.75l-1.06,1.1c-29.81,7.33-46.03,36.41-52.01,64.86-5.82,27.71-2.81,60.9,20.34,79.97l.96,1.86c-4.34-1.13-8.38-2.95-12.29-5.13-13.69-7.64-25.37-18.85-32.12-33.17-8.78-18.61-8.25-40.05-5.88-60.08-6.28,7.77-4.72-7.76-.7-6.59.78.23.35,1.74,1.59,1.3,1.57-12.2,6.1-23.95,5.31-36.41-.46-7.27-2.88-17.5-5.82-24.18-6.2-14.08-23.08-26.9-33.92-37.99-23.52-24.08-51.77-60.06-62.83-92.01-1.36-3.93-2.67-8.18-2.44-12.33,2.05-6.55,5.41-10.6,11.91-13.23Z"/>
      <path class="st15" d="M167.2,154.32c-.45.52-.3,1.23-.44,1.76-.87-.02-1.24-.54-1.76-1.11-13.3-14.62-27.17-29.26-42.84-41.42-7.39-5.73-19.48-14.45-28.89-15.22-.76-.06-1.88.83-2.38-.04,5.11-2.07,7.72-2.22,13.16-1.03,20.94,4.61,49.58,40.46,63.16,57.05Z"/>
      <path class="st58" d="M143.51,148.45c-1.23-1.01-4.11-4.7-4.57-6.24-2.61-8.76,7.78-1.36,9.31,3.48,1.48,4.68-1.67,5.28-4.74,2.76Z"/>
      <path class="st25" d="M120.5,130.13c1.28-2.02,5.66,1.37,6.78,2.58,5.97,6.47,2.41,11.79-4.42,3.98-1.17-1.34-3.46-4.81-2.36-6.56Z"/>
    </g>
    <g>
      <path class="st9" d="M467.62,159.18c4.98,6.08,6.15,16.62,1.76,23.38-2.38,3.66-10.86,10.12-14.6,12.97-14.82,11.25-33.95,22.11-50.58,30.59-6.63,3.38-13.55,6.54-20.39,9.38-.37-.37,2.5-4.91,2.86-5.73,6.85-15.33,6.86-41.41,3.75-57.79,15.62-6.11,31.96-12.11,48.66-14.73,3.22-.5,6.45-.94,9.7-1.11,6.12-.31,13.69-.45,18.84,3.04Z"/>
      <path class="st12" d="M432.67,168.1c3.99,3.99-8.64,9.34-12.71,8.08-4.82-1.5,1.49-6.63,3.83-7.68,1.81-.81,7.55-1.72,8.88-.39Z"/>
      <path class="st45" d="M404.86,173.84c7.27-1.51,3.61,4.74-1.2,5.86-6.75,1.57-2.38-5.11,1.2-5.86Z"/>
    </g>
    <g>
      <path class="st8" d="M338.37,232.85c-3.6,1.69-6.93,3.92-10.6,5.5-30.59,13.2-71.1,6.43-98.8-10.79-30.02-18.66-41.24-46.5-28.69-80.52,10.78-29.21,37.89-58.71,72.1-49.14,9.73,2.72,16.52,8.59,24.4,14.45,5.62-.57,10.98-2.67,16.64-3.04,47.91-3.08,60.37,52.43,49.76,89.47-4.05,14.14-12.68,25.87-24.82,34.07Z"/>
      <path class="st3" d="M203.82,179.91c4.02,16.21,15.07,29.92,29.15,38.56,33.53,20.58,81.47,24.56,112.23-2.83.86-.77,2.48-.59,2.43-2.65.78,1.45,1.45,2.95,2.21,4.41-36.35,45.59-140.92,22.55-150.43-34.85,1.18-1.2,3.26-1.89,4.41-2.65Z"/>
      <g>
        <path class="st40" d="M363.07,177.26c-.55,14.67-4.02,28.59-13.23,40.14-2-.71-2.4-2.52-2.21-4.41-3.07-5.66-7.08-10.94-11.9-15.23-10.68-9.48-35.49-18.71-26.69-37.71,7.44-16.06,28.61-8.35,39.05.21,5.95,4.88,10.15,11.1,14.99,16.99Z"/>
        <path class="st21" d="M325.02,163.69c9.47-1.34,17.8,6.32,15.99,15.98-.16.83-1.12,1.96-1.96,1.99-2.22.06-2.81-3.01-3.76-4.18-3.45-4.22-7.01-5.97-12.56-5.51-2.69.22-8.21,2.95-6.64-2.23.99-3.26,5.82-5.61,8.94-6.05Z"/>
      </g>
      <g>
        <path class="st2" d="M203.82,179.91c.32,1.39-3.25,3.13-4.41,2.65-2.38-14.35,1.27-29.41,7.5-42.35-.12,1.45.24.72,1.02.36,12.48-5.9,23.49-10.69,37.9-9.06,11.82,1.33,21.4,11.27,17.19,23.56-5.16,15.06-28.76,12.99-41.45,16.34-7.1,1.87-11.79,4.58-17.74,8.51Z"/>
        <path class="st26" d="M238.13,142.95c6.69-.68,15.74,4.46,14.68,12.05-.18,1.27-1.39,2.71-2.8,2.34-.48-.12-4.11-3.69-5.75-4.43-2.65-1.19-6.36-1.32-9.13-.59-2.28.6-8.53,5.45-9.25,1.76-1.08-5.58,7.49-10.65,12.24-11.13Z"/>
      </g>
      <g>
        <path class="st5" d="M363.07,177.26l-1.72-.71c-6.16-8.1-12.19-15.79-21.29-20.48-10.38-5.34-24.73-8.18-30.45,4.86-5.13,11.7,3.57,19.71,12.47,25.97,9.88,6.49,19.73,13.15,25.46,24.12.14.26.17.58.18.92.02.35-.03.71-.09,1.06l.4,1.8c-30.85,27.57-75.73,26.24-110.87,7.13-13.04-7.09-23.73-17.1-30.16-30.59-1.07-2.24-3.91-8.38-3.52-10.39.07-.35.2-.7.34-1.04l.66-1.49c10.21-7.55,22.15-9.32,34.36-10.57,12.58-.75,28.89-8.64,23.39-23.76-7.26-19.98-41.11-10.7-54.47-2.42-1.24.42-1.52-.07-.85-1.48,15.45-32.09,47.42-54.85,80.94-30.43,2.23,1.63,5.19,5.25,7.98,5.69,4.77.76,11.67-2.21,16.74-2.61,38.07-3.03,51.71,32.08,50.5,64.4Z"/>
        <path class="st50" d="M294.69,164.48c.05.05.16.93-.21.87-2.9-1.84-6.2-2.99-9.56-3.67-2.39-.49-5.75-1.05-8.14-1.13-.22,0-4.8.97-3.26-.48.23-.22,5.67-.93,6.4-.92,2.81,0,7,1.18,9.58,2.37.65.3,5,2.74,5.2,2.97Z"/>
        <g>
          <path class="st18" d="M245.6,175.59c4.5-1.01,9.71,5.73,13.15,8.28,11.29,8.36,26.74,11.22,40.45,8.7,4.96-.91,16.5-6,14.37,4.22-.88,4.2-8.22,12.91-11.6,15.75-21.93,18.37-49.4,8.85-57.67-17.74-1.28-4.11-4.74-17.85,1.31-19.21Z"/>
          <path class="st47" d="M282.78,212.11c.7.56,5.01,3.6,4.41,4.41-10.5,4.61-26.89-.37-32.64-10.14,0-.72.51-1.05,1.52-.99,7.07,2.72,14.29,4.83,21.66,6.33,1.79-.43,3.47-.29,5.05.4Z"/>
          <path class="st37" d="M256.31,204.61c5.76,1.41,11.54,2.72,17.33,3.93-1.17-.83-1.36-1.55-.57-2.17,4.02,1.65,6.33,3.03,9.71,5.73l-5.07.48c-7.42-.68-14-4.38-21.11-6.32-.83-.23-1.25-.25-2.05.11-.09-.16-.74-.32-.87-.66l.21-.23c.4-.52,1.75-.72,2.43-.88Z"/>
          <path class="st24" d="M273.08,206.38c.32,1.31,2.47,1.9,1.53,3.09-.43.01-.86.03-1.29,0-3.58-.3-11.29-2.76-15.15-3.83-.69-.19-1.42-.39-1.85-1.02,6.26-1.49,11.01-.6,16.76,1.76Z"/>
        </g>
        <g>
          <path class="st32" d="M297.34,181.23c-8.79,12.25-30.8,7.35-33.09-7.94.17-3.56.39-5.65,3.97-7.29,7.97-3.65,24-.27,29.12,7.06,2.36,3.37,1.16,4.93,0,8.16Z"/>
          <path class="st48" d="M297.34,181.23s.38.45.19.88c-.86,1.93-3.32,4.31-5.07,5.49-11.89,8.04-28.92.6-28.21-14.31,5.26,14.77,21.56,18.51,33.09,7.94Z"/>
          <path class="st1" d="M273.96,169.77c.2-.24,3.53-.49,4.2-.47,2.14.08,8.45,1.46,10.08,2.72,1.21.93,1.12,1.93-.5,1.87-4.17-.14-9.14-1.97-13.33-2.6-.54-.17-.59-1.36-.45-1.53Z"/>
        </g>
      </g>
    </g>
    <g>
      <path class="st4" d="M288.96,273.43c4.41.44,11.12-.07,15.66-.45,7.66-.64,15.05-2.82,22.73-3.09,1.05,1.05-2.45,8.95,1.32,9.27-9.02,29.63,10.9,52.97,14.95,81,.39,2.7,1.54,12.74.93,14.73-3.72,12.14-12.08,21.03-22.06,28.67l.37-2.27c16.84-27.61,9.39-59.06-1.72-87.03-6.51-16.39-14.35-31.74-31.2-39.35l-.98-1.49Z"/>
      <path class="st11" d="M356.45,524.89c1.56-8.91,2.72-17.62,0-26.47l8.38.44-.44,6.18c-.41-.57-2.42-.69-2.69-.24-.03,5.3-.84,12.03-2.94,16.97-.49,1.16-1.21,2.63-2.31,3.12Z"/>
      <path class="st6" d="M364.39,505.04c.23,6.85-2.84,15.9-7.73,20.73-1.46.15-.23-.8-.21-.88,2.58-4.98,3.85-11.78,4.41-17.43.07-.75-.13-3.62,0-3.75.15-.14,2.82.27,3.53-.44.02.58-.02,1.18,0,1.76Z"/>
      <path class="st28" d="M247.49,547.82c-7.93-1.65-15.05-6.29-20.29-12.34,1.12.14,4.6-.99,5.32-.66.35.16,4.23,4.8,5.26,5.73,3.03,2.77,6.48,4.77,9.71,7.27Z"/>
      <path class="st38" d="M367.04,521.36c.89-7.57,2.64-15.34,1.32-22.94l6.18-1.33c-.25,2.38.56,5.29-.44,7.5-1.77-1.86-2.5-.15-2.61,1.71-.29,4.93-1.34,9.79-3.26,14.41l-1.19.65Z"/>
      <path class="st19" d="M367.04,521.36c1.27-3.28,2.15-5.71,2.89-9.24.47-2.21.44-6.13,1.16-8.1.39-1.08,2.03-1.26,3-1.19.02.59,0,1.18,0,1.77.1,6.93-3.72,15.96-8.16,21.17-.23-1.34.59-3.07,1.11-4.41Z"/>
      <path class="st43" d="M251.46,527.09c1.97,2.27,4.95,5.17,7.29,7.05,2.19,1.75,4.7,3.05,6.82,4.86-6.15-.77-11.44-3.38-16.32-7.05-.03-.37-.06-.76.05-1.12.33-1.09,1.16-3.54,2.16-3.73Z"/>
      <path class="st44" d="M246.61,535.92c3.9,3.61,8.57,6.5,12.79,9.7-6.48-.65-12.53-3.59-17.65-7.5-.2-1.49,3.67-3.09,4.85-2.21Z"/>
      <path class="st56" d="M382.92,499.74c-.23,6.94-2.13,14.91-5.96,20.73.14-3.57,1.12-7.33,1.55-11.03l.44-6.18c0-.15,0-.29,0-.44l.29-.71c-.38-1.4,1.95-4.73,3.68-2.38Z"/>
      <path class="st54" d="M241.76,538.12c-.84-.64-4.69-3.58-4.84-4.22-.19-.83,4.86-3.51,5.23-3.25,1.02,1.7,2.97,3.89,4.46,5.26l-4.85,2.21Z"/>
      <path class="st22" d="M382.92,499.74c-1.12-.2-2.36.31-2.85,1.35-.45.94.23,2.06-1.12,1.74-.03-1.75-1.05-7.06-.34-8.29.2-.35,3.32-2.03,3.87-2.74.58,2.59.53,5.29.45,7.94Z"/>
      <path class="st29" d="M251.46,527.09c-.57,1.72-.38,3.83-2.21,4.85-1.51-1.14-3.18-2.04-4.33-3.75l3.67-5.08c.91,1.32,1.81,2.75,2.87,3.97Z"/>
      <path class="st22" d="M378.51,509.45c.24-1.95-.55-4.49.44-6.18.05,2.38-.19,3.99-.44,6.18Z"/>
      <path class="st42" d="M288.96,273.43c7.73,3.88,13.93,8.01,19.4,14.79,11.46,14.21,24,51.37,25.15,69.69,1.03,16.43-2.11,31.82-11.02,45.65-.86.66-2.34,2.23-3.09,3.09-7.93,6.97-18.86,10.96-29.01,13.66-18.59,4.95-40.75,5.82-58.78-.42-1-.64-2.98-1.36-3.53-1.76-37.85-28.23-27.97-98.63.87-129.93,7.39-8.02,20.04-16.02,30.89-17.85,4.39-.74,12.08-.6,16.54,0,4.16.56,8.7,2.7,12.58,3.08Z"/>
      <path class="st57" d="M319.4,406.66c-5.77,6.58-8.99,10.49-16.9,15.09-22.67,13.18-48.99,12.27-70.89-1.85,3.85.2,7.52,1.59,11.31,2.15,26.11,3.86,54.3-1,76.48-15.38Z"/>
      <g>
        <path class="st46" d="M371.89,377.99c.38-.08.75-.11,1.05,0,4.43,1.81,11.56,8.72,15.02,12.35,8.27,8.68,15.42,19.55,16.7,31.69.38,3.62-.59-.64.31-1.7.94,3.91.39,8.51-.06,12.52-.46,4.12-2.16,14.2-4.36,17.48-3.15,4.7-12,11.14-17.56,12.22-13.67,2.68-19.82-6.08-24.43-17.22-9.05-21.88-9.57-44.98,7.29-63.23l6.02-4.13Z"/>
        <path class="st55" d="M404.98,420.34c0,.86.39,3.09-.44,3.53-2.77-19.45-16.97-35.16-32.65-45.88l-4.41-3.53c18.68,8.67,37.27,23.24,37.5,45.88Z"/>
        <path class="st23" d="M373.53,395.7c3.96-1.13,10.62,7.78,6.93,10.48-4.18,3.06-11.48-9.18-6.93-10.48Z"/>
        <path class="st17" d="M387.03,411.38c-1.6-1.78-2.76-7.48.94-6.94,4,.58,3.24,11.6-.94,6.94Z"/>
      </g>
      <g>
        <path class="st16" d="M78.97,111.53l.86,1.04c.38,6.39,2.83,12.98,5.47,18.92,16.97,38.24,45.64,71.47,76.06,99.46,8.57,8.59,15.34,15.63,19.42,27.27,7.01,20.02,3.27,36.58-1.52,56.71-1.22.73-2.15.36-2.49-.93-1.64-1.07-4.33,10.83-.04,5.66,1.22-.24,1.86-.25,1.82,1.18-2.51,21.67-2.63,44.64,8.77,64,9.39,15.93,24.25,26.02,40.77,33.31.74-1.16,3.83.43,3.53,1.76l4.18,1.49c25.27,14.81,59.76,10.61,79.26-11.11l4.35-3.61c-.6-1.4,1.73-3.71,3.09-3.09l3.41-3.88c7.54-6.32,14.02-14.07,17.28-23.45l1.37-1.34c1.01,2.83-.39,5.59,0,8.61.08.61.26,1.32.88.65.2-.22,1.45-4.86,1.65-5.64.91-3.63,1.16-7.47,1.89-11.13.69-.48,14.07,4.74,15.86,5.52,1.02.44,1.88,1.18,2.66,1.54l4.56,2.89-.14.64.18.95c-10.79,6.16-17.04,19.32-18.49,31.49-1.58,13.32,2.37,29.26,8.81,40.9,9.6,17.33,26.34,11.68,37.07-.96l1.1-.02c-.13,2.09-1.2,4.24-2,6.16-4.2,10.06-14.55,28.82-24.32,33.91-8.42,4.39-20.16,3.81-26.61-3.69-7.49-8.72-4.51-17.85-4.84-28.24-.04-1.18-.35-2.15-.46-3.29,3.74.82,6.74,3.47,9.7,5.73.74-.96-3.54-5.96-4.4-6.85-8.44-8.79-21.19-12.12-33.1-12.12-.29-1.03.27-.74.56-1.01,4.65-4.13,9.17-7.95,12.23-13.54l-18.67,12.42c-19.51,11.3-42.4,15.82-64.94,14.94-3.64-.14-7.53-1.12-11.23-.9,3.11,2.59,7.94,3.64,11.91,4.41l-5.46,8.87c-3.73,7.27-7.9,22.72-5.99,30.61.16.67-.31.77.87.66.36-2.39.95-5.11,1.64-7.41.13-.43.62-2.61,1.44-1.85,3.6,10.5,13.05,21.9,5.4,32.96-11.11,16.07-39.34,3.19-51.68-5.43-28.67-20.05-34.29-52.48-28.16-85.43,1.6-8.62,4.68-17.36,6.5-25.92l-4.4,5.73c-6.13-26.11-7.14-53.87-3.47-80.45,2.26-16.34,6.34-32.46,10.53-48.37l1.55,1.75,4.62,10.6v-6.4c0-5.23-3.72-12.86-6.7-17.12-7.59-10.87-18.71-21.78-27.26-32.3-23.73-29.21-51.95-68.49-62.97-104.67-2.35-7.7-4.34-14.77-1.89-22.59Z"/>
        <path class="st0" d="M170.59,373.62c2.93-.76,5.32,8.39,2.07,10.08-3.77-.13-5.13-9.29-2.07-10.08Z"/>
        <g>
          <path class="st7" d="M183.43,431.05c12.42-1.48,24.38,4.83,30.46,15.62,9.07,16.11,11.09,51.02-11.83,56.39-31.8,7.46-44.34-43.58-31.24-64.77,2.61-4.22,7.74-6.66,12.61-7.24Z"/>
          <path class="st35" d="M175.46,453.49c2.98-.82,4.09,5.14,4.13,7.22s-1.2,8.64-3.78,8.65c-4.85.01-4.99-14.58-.35-15.87Z"/>
          <path class="st33" d="M184.35,469.8c.93.6,2.27,8.75-1.86,7.38-2.75-.91-1.63-9.62,1.86-7.38Z"/>
        </g>
      </g>
    </g>
  </g>
</svg>