<?xml version="1.0" encoding="UTF-8"?>
<svg id="Layer_1" xmlns="http://www.w3.org/2000/svg" version="1.1" viewBox="0 0 547.5 635.52">
  <!-- Generator: Adobe Illustrator 29.6.1, SVG Export Plug-In . SVG Version: 2.1.1 Build 9)  -->
  <defs>
    <style>
      .st0 {
        fill: #030202;
      }

      .st1 {
        fill: #d0cdcd;
      }

      .st2 {
        fill: #db5483;
      }

      .st3 {
        fill: #5d5356;
      }

      .st4 {
        fill: #da5683;
      }

      .st5 {
        fill: #cecfcd;
      }

      .st6 {
        fill: #ccccca;
      }

      .st7 {
        fill: #767676;
      }

      .st8 {
        fill: #d9d9d9;
      }

      .st9 {
        fill: #cecece;
      }

      .st10 {
        fill: #db5784;
      }

      .st11 {
        fill: #222323;
      }

      .st12 {
        fill: #ccc;
      }

      .st13 {
        fill: #444344;
      }

      .st14 {
        fill: #757575;
      }

      .st15 {
        fill: #cfcfd0;
      }

      .st16 {
        fill: #f1729e;
      }

      .st17 {
        fill: #f272a0;
      }

      .st18 {
        fill: #dededd;
      }

      .st19 {
        fill: #121212;
      }

      .st20 {
        fill: #c1c1c2;
      }

      .st21 {
        fill: #b6acb0;
      }

      .st22 {
        fill: #cdcdcd;
      }

      .st23 {
        fill: #684450;
      }

      .st24 {
        fill: #f2739e;
      }

      .st25 {
        fill: #0c0c0c;
      }

      .st26 {
        fill: #2a2a2a;
      }

      .st27 {
        fill: #bcb6b7;
      }

      .st28 {
        fill: #cbcaca;
      }

      .st29 {
        fill: #737372;
      }

      .st30 {
        fill: #db5384;
      }

      .st31 {
        fill: #616161;
      }

      .st32 {
        fill: #c8c9c7;
      }

      .st33 {
        fill: #cdcccc;
      }

      .st34 {
        fill: #d3d3d3;
      }

      .st35 {
        fill: #dadada;
      }

      .st36 {
        fill: #403e3e;
      }

      .st37 {
        fill: #fdfdfd;
      }
    </style>
  </defs>
  <path class="st37" d="M248.36,66.95l1.54-4.22c22.15,1.07,44.24,2.56,66.44,2.16l29.97-2.14c-1.32,4.65-1.85,8.85-2.1,13.69-1.84,34.77,2.04,64.79-14.65,96.72-.78,1.5-2.02,7.2-2.31,7.46-1.15,1-14.14-1.87-17.22-2.03-12.21-.64-24.86-.22-36.83,1.98-3.52-.81-12.48-27.43-13.15-32.07-.56-3.89.76-9.44-.81-12.85-1-2.17-3.24-.61-3.58-1.85-.98-3.54,1.86-8.77,1.16-12.59-.5-2.72-3.5-1.84-4.16-6.37-2.4-16.56,1.32-30.03-4.31-47.88Z"/>
  <g>
    <path class="st31" d="M297.87,552.67l1.58,3.45c-1.62,10.48-2.6,21.22-1.33,31.73.99-4.42,2.66-6.31,5.02-5.67.47-.1,1.61,1.96,2.67.04s.12-4.63.69-6.71l.85-.7,1.95,2.64.25,15.87c1.06-2.03,2.43-2.94,4.11-2.71l2.11,4.21c-3.04-.52-2.37,3.32-4.94,4.08-6.26,1.86-7.19-8.48-6.66-12.51-2.2,1.18-1.26,5.43-4.2,6.87-8.2,4.01-7.54-14.2-7.42-19.04.11-4.34,2.93-17.61,2.15-20.5,2.21,1.47,1.89.65,3.16-1.05Z"/>
    <path class="st31" d="M335.79,565.31c-1.21,6.08-9.73,32.03-16.38,32.71-1.5.15-3.69-.6-3.64-2.15,0-.14,1.05-1.11,1.09-2.54.08-2.56-.92-6.36,1.01-7.99,1.76,1.19,2.51,3.08,2.25,5.66,5.33-8.64,9.27-17.95,11.82-27.91l2.78-.94c.03,1.16-.31,2.65,1.05,3.16Z"/>
    <path class="st16" d="M346.33,103.82c.02-8.62-.65-18.42.02-26.85.13-1.64,1.9-12.45,2.27-13,.43-.64,6.36-2.18,7.72-2.3,6.21-.55,14.47,3.96,15.29-5.26,2.96.99.66,3.87,3.62,4.3,5.7.82,6.72-2.57,10.63-3.2,1.37-.22,11.77-1.13,12.37-.96,4.22,1.14,10.93,26.26,13.1,31.23l5.55,32.9c.09,1.65.68,10.16,1.06,10.53.42.42,3.83-.37,4.22,0,1.16,1.09-1.81,10.79-2.11,13.19-.32,2.59.24,5.31,0,7.89l1.16,2.43c-1.35,20.84-5.4,41.01-12.16,60.52l-11.64,40.66c-8.4,31.79-24.83,59.21-52.44,76.33,0,0,.1,3.24.29,9.72,3.23,9.98,6.09,20.11,9.46,30.05,2.12,6.24,8.61,19.21,9.39,24.45.28,1.91-1.79.99-2.02,2.04-.63,2.8,4.69,22.76,5.27,28.29.62,5.85-.14,12,1.14,17.86-.25,1.23-3.04-.13-3.3,1.14-1.28,6.32,3.54,13.84,2.17,20.5l-3.14-1.05-2.13,41.09-3.14-2.1c-3.19,18.06-8.34,37.19-21.64,50.55-2.13.65-1.43-1.84-3.19-3.04-6.54-4.46-13.31,5.1-22.88.97-.34-.15-3.04-5.04-3.91-6.33-6.99-2.88-9.2-14.91-10.5-22.29-1-5.67-1.27-11.44-1.44-17.18,1.16-33.1.8-66.29-9.44-98.2-10.25-31.93-18.18-37.93-47.6-23.68-3.34-.06-4.12-1.79-1.61-4.06,14.27-11.3,21.07-31.67,16.85-49.52-2.84-.4-3.19-2.15-1.05-5.27-6.66-32.35-47.73-60.75-79.94-46.77-5.56,2.41-19.14,14.57-20.89,14.99-2.16.52-17.32-6.66-22.95-7.19-23.54-2.23-35.09,16.93-38.35,37.54-.45,2.82,2.99,3.18-2.2,4.59.25-8.9,1.53-35.53,6.3-42.49.82-1.19,2.32-.41,2.89-.93.34-.31,2.41-6.62,3.64-8.54,3.96-6.17,11.15-16.25,17.01-19.86,2.29-1.41,10.85-4.62,11.24-5.1,1.73-2.16-4.01-2.14-2.1-4.19,1.22-1.31,30.66-6.41,35.06-7.44,13.14-5.14,35.49-2.32,50.5.35,7.15,1.27,1.7,2.78,3.92,4.43,3.49,2.6,13.26,2.9,17.39,5.95,1.68,1.24.52,2.48,2.2,3.92,3,2.57,10.76,5.96,14.73,8.55,6.88,4.49,13.96,12.43,22.61,11.61.56-3.03-.81-1.71-2.32-2.36-3.69-1.59-28.68-16.44-28.95-18.14-.14-.9,1.23-2.93.71-3.69s-14.58-5.2-16.81-5.88c-1.26-.38-4.09-.35-4.25-.49-.51-.48,2.11-3.51.05-4.77l-32.69-5.23c32.66-39.36,84.25-63.54,135.88-51.1.37,3.34-2.54,4.76-3.11,7.94-.23,1.27-.32,3.54,1.52,2.57,2.07-1.09,5.15-12.86,6.41-15.72,9-20.56,14.17-34.47,15.2-58.02l1.05-11.59c0-1.76,0-3.51,0-5.27Z"/>
    <path class="st4" d="M420.07,152.29c1.81.23,2.87-2.59,3.17.51.49,5.18-2.27,10.4-2.01,13.77.37,4.72,1.88,5.09.65,12.29-4.76,27.95-10.54,56.25-16.83,84.32-6.08,27.16-12.33,51.09-29.27,73.74-2.14,2.86-18.91,21.51-20.52,21.87-3.88.88-5.74-18.35-8.93-20.54l-1.05,3.69c-1.28-3.96-4.83-6.56-1.98-10.95,1.33-2.05,12.51-8.92,15.69-11.69,35.67-31.08,37.59-80.39,54.08-121.87,1.92-15.5,5.61-30.84,7-45.15Z"/>
    <path class="st20" d="M303.14,582.17c-1.3.28-2.88,8.27-4.76,9.47-2.14.6-2.36-3.65-2.49-4.86-1.24-10.95.18-23.33,1.98-34.12,1.48-1.99.78-4.33,4.74-4.33,12.59,0-.2,26.98.53,33.83Z"/>
    <g>
      <path class="st11" d="M417.96,112.25c.38,3.2-.64,7.95,1.21,10.92,1.35,2.16,3.33.81,4.26,3.16,2.75,6.91-1.74,14.26-.22,19.96.29,1.07,2.14,1.04,2.62,1.77,2.48,3.84-1.53,12.03-1.53,16.35-.03,29.77-6.88,50.15-13.19,78.48-3.23,14.48-4.93,29.54-8.81,43.87-8.17,30.19-23.49,55.76-47.4,75.95l13.33,37.9c-3.51,9.18,1.63,21.21,2.32,31.43.21,3.11.66,15.8.08,17.85-.39,1.38-3.18-.13-3.25,1.11.76,5.13,4.27,14.01,3.25,18.91-.26,1.25-3.05-.15-3.3,1.18-2.22,12.11-.66,26.36-3.23,38.78-6.45,2.51-5.44,10.47-7.54,16.68-3.75,11.08-9.02,20.86-16.55,29.8-.99,1.18-3.1,1.67-3.69,2.64-1.2,1.97-.16,4.47-.53,6.32-1.84,1.46-2.19.41-1.05-3.16l-1.41-.35c-.73-8.17-2.41-8.76-9.32-3.99l-3.92,26.31-2.21,1.2c-.86,3.22-1.15,7.66.42,10.49l-2.52.05v-1.05c-2.64.94-3.34-.46-2.11-4.21l-1.18-2.72c2.32-9.6,3.91-19.35,4.75-29.27l-3.97-.83-3.68,16.23-2.24.79c-.63,2.12-.86,4.43-.71,6.92.01,4.33-4.33,4.51-3.5.45-1.4-.04-2.41-.55-2.07-1.87l4.36-18.93c1.76-4.42.14-15.67-4.94-9.1l-2.62.4c-1.03,3.75-2.22,5.76-3.16,1.05-.27-1-4.9-7.1-6.07-10.26-7.44-20.15-1.12-54.86-2.37-77.71-.42-7.65-7.9-59.9-11.68-62.61l-50.59,7.89c-3.78,20.5-5.24,42.3-5.18,63.18.04,16.13,3,33.04-.2,49.23-.95,4.78-5.78,13.5-6.03,17.16-.2,2.86,2.51,11.84,2.98,15.88,1.23,10.48,3.53,32.95-10.39,14.09-.46,2.68,1.05,10.75-.99,12.19-4.01,2.82-7.52-2.69-7.97-2.69-.6,0-2.01,3.2-4.03,3-5.48-.54-13.77-14.97-15.98-19.87-2.02-4.47-3.16-11.78-5.35-15.72-1.63-2.93-5.27-4.1-7.33-6.36-12.7-13.93-18.17-43.28-19.49-61.63-.16-2.27.53-12.77.05-13.22-.39-.36-3.85.38-4.23.01-1.28-1.21,2.19-30.83,2.2-35.22-.33-1.19-3.41-.17-4.17-2.32-1.24-3.47.33-15.05-.09-19.93-1.04-12.05-5.81-9-14.07-14.37-6.83-4.44-13.48-10.37-18.62-16.67-1.13-1.46-.59-1.94,1.05-1.05l3.48.49c34,29.08,114.13,27.79,135.44-15.42l2.23-.88c1.01-.61,1.93-.45,1.69.26-.44,1.31-1.12-1.7.42-2.37-2.96-2.41-.05-13.19,3.16-14.75,1.22-2.37.75-7.63-.18-11.27l1.24-1.37c4.74,2.96,3.57,12.78,2.82,18.16-1.54,10.96-8.47,28.83-19.67,31.36-.1.75-.23,1.48-.5,2.16-4.35,11.13-54.77,22.29-67.81,20.09-15.75-1.11-15.89-.5-.44,1.85,34.26,3.52,68.49,1.49,102.7-6.09-2.07-2.67-11.22-23.04-1.84-17.55,13.64,7.99,24.72,86.97,22.77,104.46-3.12,21.6-1.95,42.22,3.51,61.87,2.92-4.09,8.55-5.12,12.19-1.37l1.29-.59c2.48,4.84,5.89,6.71,10.24,5.61,7.08-3.49,13.38-3.55,18.92-.17,11.24-12.76,15.88-29.56,18.85-45.95.6-1.71,1.89-2.36,3.54-2.63l1.93-36.96c.9-1.36,1.88-2.02,3.38-2.67l-2.61-14.58c-.16-2.58.48-4.68,3.18-5.41-1.11-15.25-3.04-30.33-5.8-45.22l1.5-2.24-8.65-21.73c-4.43-10.51-7.05-21.12-7.86-31.85-1.93-6.7,3.1-6.84,5-.82l4.78,15.2c19.16-17.82,34.16-39.9,41.07-66.33,11.57-44.29,22.05-91.36,25.45-135.89l-1.52-1.81-2.04-1.33c-.24-5.92.51-11.8,2.24-17.63-5.48,1.19-7.08-10.59-3.36-12.65l-.45-8.54,1.5.11Z"/>
      <g>
        <path class="st17" d="M199.91,531.6c-2.81,4.53-8.37,10.04-14.16,9.47-2.74-.27-4.87-3.79-9.29-2.98-5.83,1.06-3.96,8.38-10.94,1.57-15.61-15.25-19.96-58.69-19.34-79.7l-4.2,1.05c.38-6.45,4.26-31.64,1.54-35.83-.5-.77-2.35-.68-2.63-1.77-.51-1.99.27-5.33.02-7.7.57-3.22,3.64-2.23,6.11-1.4,49.48,16.58,66.4,59.36,58.85,108.03-.56,4.94-2.55,8.03-5.97,9.27Z"/>
        <path class="st30" d="M236.78,380.93c-.42,3.28.96,2.01,2.96,1.39,3.56-1.11,6.96-2.93,10.74-4.01,8.27-2.38,14.57-6.11,21.63.48,18.34,17.12,24.92,65.75,25.81,90.08.91,24.97-4.94,56.19,9.44,77.49-2.45.18-5.34-.48-7.69.22s-3.11,4.35-6,4c-10.12-23.88-3.05-50.28-4.18-75.38-.94-20.87-4.77-49.13-11.15-68.93-2.62-8.11-6.14-17.63-11.55-24.27-2.55,3.79,8.41,16.41,5.8,18.96-5.75.17-11.48,1.37-17.11,2.39-32.52,5.91-67.16,9.4-99.84,1.32-6.76-1.67-13.42-4.61-19.99-6.88.87-2.95,5.53.47,7.12.79,30.07,5.93,69.42,1.84,94-17.63Z"/>
        <path class="st2" d="M140.92,415.7c-.41-3.89-1.9-8.21-1.05-12.65.85-.85,18.63,5.4,21.86,6.05,19.09,3.86,38.83,1.91,58.2,2.37.14,12.2-2.66,24.07-3.21,36.31-.97,21.43,1.44,44.15.09,65.41-.25,3.95-2.52,20.96-5.84,22.6-2.02-5.49-6.15-4.24-11.06-4.21,11.15-18,4.37-59.04-5.1-77.61-9.24-18.11-29.51-30.1-47.87-37.47-2.04-.82-3.84-1.05-6.02-.82Z"/>
        <path class="st9" d="M334.74,562.15c-2.76,5.26-3.57,11.33-5.81,16.84-.54,1.33-8.48,18.82-11.04,15.82.09-3.14-.14-6.34,0-9.48.16-3.66,3.47-27.56,4.47-29.25.29-.5,5.1-2.82,6.04-3.01,7.25-1.53,6.22,4.31,6.35,9.09Z"/>
        <path class="st22" d="M177.51,540.21c3.18-.46,5.47,1.88,6.67,4.49,1.61,3.5,8.76,28.27,9.16,31.96.14,1.3.32,4.52-1.34,4.45-4.16-.18-15.46-21.81-16.83-26.35-1.31-4.36-4.2-13.61,2.33-14.54Z"/>
        <path class="st6" d="M213.59,574.79c-2.46,1.78-6.47-7.54-7.21-9.1-2.42-5.07-10.19-24.42-8.05-28.83.97-2,5.01-3.62,7.16-3.02,2.87.81,4.38,7.91,5.1,10.78,1.63,6.51,3.88,19.08,3.98,25.56.03,1.72-.71,3.01-.98,4.61Z"/>
        <path class="st28" d="M203.06,581.11c-3.01,3.13-8.2-8.78-8.93-10.55-1.41-3.44-8.14-25.68-6.77-27.29,3.84-.53,6.13-2.91,8.57,1.26,1.1,1.88,5.14,14.6,5.79,17.38,1.47,6.28,1.47,12.78,1.34,19.2Z"/>
        <path class="st15" d="M307.35,574.8c.2-2.26,3.55-18.26,4.28-18.89,1.12-.96,6.48,1.01,8.31,1.02-2.67,10.51-1.95,23.86-6.28,33.67-1.18,2.67-2.81,5.98-6.32,5.26.42-6.85-.59-14.31,0-21.07Z"/>
      </g>
    </g>
    <g>
      <path class="st0" d="M205.18,55.36c.11-.95.47-.89,1.05,0,1.73-1.73,3.49-1.73,5.27,0,3.42-.54,5.17.17,5.27,2.11.39-3.05,3.14-2.6,4.21,0-.13-2.6.57-3.3,2.11-2.11.96-.27,1.31.08,1.05,1.05l2.36.89c2.69-3.97,3.66-4.27,2.91-.89.92.3.91.65,0,1.05,1.46,1.11,5.63,2.94,8.29.48,8.39-.36,12.94-.13,10.67,9l2.83,2.16c2.28,14.99,3.47,30.12,3.56,45.38,4.15,4.91,5.1,10.84,2.84,17.8,4.3,2.72,5.79,7.71,4.46,14.98.37,4.08,9.75,31.56,11.42,31.32,17.85-2.61,34.43-3.48,51.81.1.68-.26,5.22-12.03,5.68-13.32,10.38-29.04,11.09-54.65,10.97-85.26l2.28-3.68,1.09.41,1.01,26.99c2.06,1.69,2.06,3.58,0,5.27l-1.05,11.59c2.14,5.39,2.21,11.51.22,18.35-4.77,19.22-11.2,37.79-19.3,55.73-7.83,5.23-7.31-4.57-3.18-9.32-48.63-10.67-97.58,11.18-129.47,47.91l29.32,5.02c1.92,1.06,2.06,2.77,2.21,4.78l9.1,2.66c7.65,1.26,11.14,4.14,10.47,8.65,9.64,6.77,19.74,13.02,30.4,18.1,2.24,7.73-7.48,5.12-11.88,2.55-9.75-6.64-19.54-13.13-29.36-19.46l-.88-2.46c-6.27-1.81-12.32-4.07-18.15-6.76l-.85-2.93c-7.25-1.31-14.64-2.61-22.04-3.07-18.87-1.16-42.76,4.19-61.27,8.83,1.06,1.38,1.23,2.87.25,4.37-16.79,5.57-25.37,19.3-32.85,34.18l-1.89.26c-4.48,12.41-5.55,26.53-6.43,39.65l-1.45,1.59c2.5,1.08,1.52,7.05-1.05,7.38-3.88-13.94-.14-27.31,2.56-40.94.61-3.1-1.01-6.04,1.78-10.03,2.11-3.02,11.96-13.79,12.97-16.41.41-1.08-.69-2.59.03-4.2,2.36-5.27,17.16-10.95,18.4-12.85.42-.64-1.02-2.43-.82-3.44.57-2.83,26.86-7.77,31.69-9.34,1.96-.63,6.19-3.94,6.59-3.94h22.65c.5-12.99-.14-25.22-2.6-37.97-.67-3.46-4.09-11.53-3.77-14.05.1-.78,2.17-.22,2.28-2.2.21-3.75-3.34-7.03-2.12-10.45.55-1.53,3.01-1.39,3.09-2.32.07-.78-1.07-2.63-1.1-4.13-.15-9.51-.82-20.09.02-29.49.34-3.79,5.01-24.82,4.12-25.78-.42-.45-2.91.58-3.1-.59-.67-4.58,5.57-12.61,5.35-15.73-.04-.6-2.12-.52-2.23-1.24-.64-4.25,8.18-27.99,10.59-33.07-.23-2.46-.08-4.1.45-4.94l11.14,1.78Z"/>
      <path class="st24" d="M214.66,59.57c21.16,4.08,27.26,10.08,31.18,31.63,2.97,16.32,3.08,41.98.42,58.22-5.04,30.73-26.89,51.15-49.99,69.78-3.2,4.21-6.55,7.9-10.05,11.06-.38-13.67-1.99-25.83-4.46-39.26-.26-1.41-1.85-3.23-1.83-3.43.1-.97,3.09-1.18,3.18-2.19.19-2.08-2.89-7.86-3.22-10.43l3.18-.55c-3.26-17.66-2.4-35.24.29-52.91.71-4.63,3.54-10.97,3.42-15.1-.08-2.98-2.94-2.03-2.7-4.07.35-2.92,3.65-7.12,4.07-9.85.39-2.54-.99-4.56-.92-7.05.09-2.98,8.29-28.03,9.59-29,5.97.59,11.93,2.38,17.84,3.14Z"/>
      <path class="st10" d="M214.66,59.57c5.37.69,10.95,1.48,16.35,2.09,3.71.42,12.11-1.48,14.04,1.76,1.5,2.53,4.08,16.36,4.36,19.87.96,11.7-1.06,26.45,1.04,37.95.5,2.73,3.02,1.74,3.3,4.16.41,3.56-2.03,8.8-1.24,11.51.31,1.08,2.78.2,4.14,2.36,2.14,3.4.67,10.17,1.5,14.31.83,4.14,5.1,13.87,6.9,18.39,1.12,2.82,2.84,5.62,4.37,8.25-.03.92-15.2,4.93-17.38,5.76-25.17,9.55-45.27,25.65-63.22,45.29-.79.86-1.49,2-1.55,3.19-1.84.22-1.01-2.98-1.04-4.21,4.18-11.95,16.14-18.04,24.77-26.3,32.47-31.07,36.46-50.03,34.26-95.44-.6-12.41-1.76-33.3-12.73-41l-17.86-7.95Z"/>
      <path class="st3" d="M345.27,120.68c.16-3.7-.99-8.75,1.05-11.59-.02,3.64.88,8.81-1.05,11.59Z"/>
    </g>
    <g>
      <path class="st3" d="M205.18,55.36c-3.52-.3-6.96.38-10.53-1.06.45,1.91-.38,2.79-1.06,4.22.33-4.14.18-2.6-2.55-3.2-18.86-4.13-37.76-7.74-56.44-12.61l1.47-2.01,69.1,14.65Z"/>
      <g>
        <path class="st3" d="M137.76,32.18c-.52-.62-3.65-1.57-1.57-3.18,20.04,4.98,40.25,10.41,61,11.66.89-.15,1.1-13.48,10.56-12.68,1.92.16,3.64,2.15,5.13,1.89,1.13-.2,2.4-2.04,3.81-2.49,7.27-2.29,9.07,2.75,10.92,2.54,1.42-.16,2.64-1.97,5.35-1.92,10.52.21,9.78,17.82,11.32,18.78l51.95,3.35c17.36-.37,35.04,1.03,52.04-2.31.16-5.59,1.44-12.89,6.52-16.12,5.65-3.59,6.43.23,8.9.11.95-.04,4.54-3.41,7.54-3.55s5.26,2.76,7.21,2.81c2.77.06,3.78-3.4,8.67-1.27,5.7,2.47,7.31,12.6,11.25,12.82l65.5-14.57,2.53,2.01c-3.67.44-7.02,2.19-10.54,3.17l-5.52,3.66c-19.12,4.43-38.38,8.12-57.78,11.07l-2.73,4.24c20.43-3.58,40.81-7.93,61.15-13.06,1.21-.15,8.77,1.26,5.93,3.57l-54.78,12.66c8.19,18.31,13.4,36.93,15.8,56.88-1.76,1.65-1.19,5.91-1.05,8.43l-2.2-.35c-.54-9.35-10.73-58.65-17.12-61.85-2.4-1.2-16.17,2.4-19.14,4.35-4.07-1.02-7.62-.57-10.63,1.37-6.12-.84-11.88-.47-17.28,1.12-2.48,11.54-3.19,23.34-2.13,35.39l-2.09,3.11-2.11-27.39c-2.15-2.74-2.41-6.53-.78-11.37-29.78,3.07-61.21,1.68-92.15.02-.28,1.64-1.18,2.04-2.93,1.87-.62-1.98-1.78-3.51-1.05-6.33l-17.92-1.05v-2.11c.82-1.23,1.97-2.92,2.75-2.49.97.52-.96,2.92-2.75,1.44-.05.03-.58-.99-.82-.8-2,1.55-.8,4.54-4.44.8,5.78-4.04,1.87-28.97-5.98-25.32-2.77,1.29,4.2,19.45,6.04,22l-1.12,2.27c-.57.49-1.56,2-2.11,2.11-1.84-.99-3.24-.99-4.21,0-2.23-.24-4.88-2.07-5.27-2.11,5.78-3.72-1.28-24.43-5.14-23.14-8.87,2.97,2.52,16.86,5.71,20.75l-.57,2.39c-.9-.09-2.73.26-5.27,0-2.52-2.84-5.07-5.98-7.66-9.42-18.67-1.75-37.01-5.93-55.22-10.26l-5.59-3.51Z"/>
        <g>
          <path class="st8" d="M137.76,32.18c20.24,4.87,40.59,9.69,61.41,11.8,1.56.48,6.03,7.32,7.56,9.29,1.22,1.56,3.18,2.25-.51,2.09-.35-.04-.7.03-1.05,0l-9.98-1.5c-.64,1.52-1.2,1.75-1.68.38l-56.92-12.22c1.31.53.65.77-2,.7-1.3-.34-4.73.16-4.21-2.62.6-3.19,5.91,1.28,8.51-2.03,2.9-3.69.24-4.22-1.14-5.89Z"/>
          <path class="st18" d="M455.88,33.23l-4.19,4.75c.07,2.66,10.09-.08,5.24,4.74.53-3.18-1.37-2.17-3.41-1.85-22.34,3.49-45.32,12.24-68.21,14.49l5.98-9.28c21.55-3.81,43.51-6.92,64.59-12.84Z"/>
          <path class="st33" d="M223.08,55.36c-2.38-3.64-11.45-24.24-5.65-26.2,10.44-3.54,13.58,18.03,10.39,25.19-1.05,2.35-.72,2.45-3.69,2.07-.33-.34-.81-.68-1.05-1.05Z"/>
          <path class="st27" d="M229.4,56.41c1.6-.86.44-4.31,2.62-3.15.6.32,3.38,4.45,4.75,5.25l-7.37-1.04v-1.05Z"/>
          <path class="st21" d="M220.98,57.46c-.95.19-3.15.11-4.21,0-1.81-7.46,3.09-6.7,4.21,0Z"/>
          <path class="st35" d="M350.54,60.61c-36.43,1.27-73.19,2.27-109.56-1.58,1.73-2.23,1.86-9.39,3.78-9.88l38.85,3.09c17.91-.53,35.91.55,53.81,0,10.12-.31,9.64-4.59,13.12,8.38Z"/>
          <path class="st5" d="M369.2,31.33c2.53-.76,7.43-.37,7.44,3.25,0,3.1-7.21,25.52-10.71,24.94-6.41-4.13-3.28-26.23,3.27-28.19Z"/>
          <path class="st1" d="M375.83,58.51c-.47-6.89-.27-29.41,10.83-26.12,11.82,3.51-7.98,29.32-10.83,26.12Z"/>
          <path class="st12" d="M211.5,55.36c-1.21-.54-10.17-13.54-10.5-15.34-.65-3.59,1.31-8.88,4.92-9.84,4.94-1.3,9,10.66,9.51,14.38.43,3.13,1.19,13.08-3.93,10.79Z"/>
          <path class="st32" d="M239.93,56.41c-4.65,4.28-11.54-21.34-11.19-23.74s3.71-3.09,5.9-2.08c7.11,3.29,7.22,19.24,5.28,25.82Z"/>
          <path class="st22" d="M362.01,33.36c1.11,1.74-4.34,27.28-8.82,26.21s-4.06-25.82,5.41-27.12c.68-.09,3.21.6,3.41.91Z"/>
        </g>
      </g>
    </g>
    <g>
      <path class="st14" d="M252.58,344.05c-.32,4.4-2.41,10.29-3.16,14.75l-1.44,1.01c-12.14-10.59-27.2-15.41-45.17-14.48-13.46-1.37-22.08-17.09-11.65-27.33,13.44-13.19,38.57-1.58,52.08,6.61,8.94,5.42,11.83,8.01,9.34,19.44Z"/>
      <path class="st13" d="M249.42,327.19c.23.13.67,1.81,2.09,1.04.1-.06.33-1.75,1.07-2.09.4,1.93.87,2.88,1.05,5.27.47,6.15-.34,12.75-.01,18.96l-1.04-6.32c.54-7.57.23-10.93-5.8-15.8-10.45-8.45-34.33-17.84-47.46-13.76-12.9,4-15.75,19.59-4.37,26.62,13.15,8.13,31.38.44,45.97,10.92,2.94,2.11,4.66,6.09,8.5,6.78-.04.22,1.55,2.42-.01,4.21h-1.02c-.06-.78-.52-1.59-1.08-2.1-10.76-9.85-17.87-11.69-32.14-13.69-10.3-1.44-19.6,1.51-26.67-9.14-5.32-8.01-4.1-16.44,3.51-22.48,16.8-13.33,42.19,2.68,57.41,11.59Z"/>
      <path class="st19" d="M222.02,332.46c-.5.54-10.28-3.55-14.21-3.2-3.58.32-11.01,6.44-12.11,5.31-1.25-1.29.86-4.52,2.06-5.83,4.27-4.7,12.82-5.94,18.71-3.87,2.25.79,7.79,5.22,5.56,7.6Z"/>
    </g>
    <g>
      <path class="st36" d="M106.16,376.71c-.11.46-.61.86-1.05,1.05-5.62-6.89-15.01-22.83-15.8-31.61-.44-4.87,1.31-10.31,2.11-14.75,2.37,1.13,3.32,4.1,2.86,8.92,18.36-32.85,64.41-5.87,33,21.2-8.89,2.81-15.11,7.57-18.68,14.28l-2.43.9Z"/>
      <path class="st29" d="M105.08,371.44c-2.91,2.15-9.62-14.64-10.06-16.79-1.47-7.21,2.57-13.02,7.43-17.98,18.79-19.22,42.95,4.07,24.83,19.57-3.84,3.29-11.07,4.61-15.6,7.58-3.49,2.28-5.99,7.17-6.61,7.63Z"/>
      <path class="st25" d="M113.23,341.11c3.28-.74,15.49-1.09,13.99,4.51-.45,1.67-1.97,1.19-3.14,1.15-3.63-.13-6.51-1.41-10.61-.14-2.81.87-5.97,6.24-7.83,5.85-5.77-1.23,3.33-10.4,7.58-11.36Z"/>
    </g>
    <g>
      <path class="st23" d="M252.58,326.14c.54,5.19-3.56,5.33-3.16,1.05-13.01-35.37-49.36-60.99-85.5-37.09-5.44,6.97-11.59,9.5-18.44,7.59l-13.93-5.06c-23.95-6.24-35.17,17.13-37.74,37.37l-2.4,1.4-.56,10.96c.66,2.05.14,3.32-1.54,3.79-1.9-2.47-2.17-6.4-2.11-9.48.02-1,.98-4.66,1.05-7.38l1.26-2.31c.67-37.66,30.4-51.12,61.83-34.76,32.77-34.82,82.7-16.04,100.6,24.54,2.22,3.8,2.43,6.93.64,9.38Z"/>
      <path class="st34" d="M249.42,327.19l-1.3.63c-12.82-8.7-37.28-21.42-52.4-13.21-15.71,8.53-9.64,28.2,6.55,30.62l20,1.93c9.63,1.04,20.49,5.42,25.04,13.75-.56,7.7-9.57,16.59-15.46,20.89-30.98,22.6-97.83,24.35-125.69-5.08,3.44-14.7,18.28-11.82,25.74-22.19,13.45-18.72-10.41-37.64-29.39-20.97-3.48,3.05-4.47,5.72-7.05,8.75-.94,1.1-1.02,2.21-2.98,1.75l-1.06-12.64c2.54-14.13,6.34-32.28,21.41-39.17,15.93-7.28,22.3,1.17,35.42,3.95,7.43,1.57,9.31-4.23,14.46-7.8,33.06-22.94,71.98-2.24,85.69,31.93.6,1.51,2.77,5.64,1.04,6.87Z"/>
      <path class="st11" d="M174.63,338.78c8.04,8.72-1.66,20.31-11.31,21.87-9.26,1.5-21.19-3.83-20.29-14.5,9.57-9.83,18.71-9.9,31.6-7.38Z"/>
      <g>
        <path class="st7" d="M143.03,346.16l2.06,1.32c2.66,18.92,36.93,12.03,28.69-6.45l.86-2.25c18.57,3.63,38.23,12.12,16.3,30.52-13.11,11-35.82,14.08-50.36,4.07-12.36-8.51-5.73-18.8,2.46-27.22Z"/>
        <path class="st26" d="M195.69,351.43c.89,5.02-5.84,9.83-9.81,11.77-7.49,3.67-29.79,6.86-38.15,6.18-3.73-.31-8.49-.98-9.96-4.79,5.64.2,10.3,2.93,16.33,2.71,8.38-.31,32.39-5.47,37.96-11.63,1.86-2.06.58-4.82,3.64-4.24Z"/>
      </g>
    </g>
  </g>
</svg>