<?xml version="1.0" encoding="UTF-8"?>
<svg id="Isolation_Mode" xmlns="http://www.w3.org/2000/svg" version="1.1" viewBox="0 0 547.5 635.52">
  <!-- Generator: Adobe Illustrator 29.6.1, SVG Export Plug-In . SVG Version: 2.1.1 Build 9)  -->
  <defs>
    <style>
      .st0 {
        fill: #cacac9;
      }

      .st1 {
        fill: #bfbfbe;
      }

      .st2 {
        fill: #cecdcd;
      }

      .st3 {
        fill: #dd5685;
      }

      .st4 {
        fill: #dc5485;
      }

      .st5 {
        fill: #5f5f5f;
      }

      .st6 {
        fill: #d0d0d0;
      }

      .st7 {
        fill: #757778;
      }

      .st8 {
        fill: #5e4e55;
      }

      .st9 {
        fill: #d2d1d1;
      }

      .st10 {
        fill: #6f2d44;
      }

      .st11 {
        fill: #d4d4d4;
      }

      .st12 {
        fill: #de5989;
      }

      .st13 {
        fill: #873952;
      }

      .st14 {
        fill: #757575;
      }

      .st15 {
        fill: #6f2944;
      }

      .st16 {
        fill: #6a4250;
      }

      .st17 {
        fill: #7c7d7d;
      }

      .st18 {
        fill: #5d5d5d;
      }

      .st19 {
        fill: #c7c7c7;
      }

      .st20 {
        fill: #6f3046;
      }

      .st21 {
        fill: #5a4049;
      }

      .st22 {
        fill: #cccdcb;
      }

      .st23 {
        fill: #dd5787;
      }

      .st24 {
        fill: #e2e3e4;
      }

      .st25 {
        fill: #58494f;
      }

      .st26 {
        fill: #f2739e;
      }

      .st27 {
        fill: #080809;
      }

      .st28 {
        fill: #d2d2d1;
      }

      .st29 {
        fill: #1f1f1f;
      }

      .st30 {
        fill: #2a2b2b;
      }

      .st31 {
        fill: #6d3549;
      }

      .st32 {
        fill: #d1d0d0;
      }

      .st33 {
        fill: #7b4d5d;
      }

      .st34 {
        fill: #bab8b7;
      }

      .st35 {
        fill: #cfcfcf;
      }
    </style>
  </defs>
  <g>
    <path class="st16" d="M41.47,487.49c-2.43-16.75,5.46-40.74,11.24-56.63,1.29-3.55,9.71-20.52,8.65-22.28-.33-.54-3.25-.92-3.35-1.94-.07-.73,6.28-10.92,7.32-12.74,7.97-13.95,17.41-27.22,28.75-38.64l-1.36-5.86,26.14-24.81c.66-1.49-2.58-2.45-1.37-4.74.89-1.7,14.37-10.97,17.23-13.54,6.94-6.25,10.36-12.1,15.83-18.39,4.13-4.75,11.88-9.63,16.62-15.25,5.08-6.04,13.61-18.65,13.65-26.57,0-1.55-1.95-14.21-2.5-14.71-.64-.57-3.99.46-4.62-.1-.47-.42-2.26-10.81-2.4-12.36-.62-6.78,1.17-16.39.02-22.46-.55-2.93-3.27-2.43-3.6-3.74-2.63-10.45,4.82-23.14,4.86-31.71,0-2.16-2.26-1.5-2.48-2.5-1.87-8.42,17.15-38.82,23.13-46.32,1.54-1.94,7.13-6.64,7.57-7.78.41-1.06-5.55-.62-2.39-4.75,1.54-2.02,23.88-13.76,27.94-15.73,2.37-1.15,12.98-4.39,13.39-4.98.33-.47-1.22-2.68-.67-3.52,1.07-1.63,13.92-3.52,16.6-3.56,4.32-.06,9.44,1.99,13.01,1.32,2.91-.55,2.33-3.12,3.79-3.59,7.46-2.36,7.77,1.6,11.55,2.34,5.77,1.13,32.17-.91,35.42,3.48.5.67-1.2,2.87.49,4.18,1.78,1.38,8.92,3.28,11.89,4.72,8.89,4.3,17.41,9.21,25.92,14.2,3.72,3.94-.79,4.03-.92,4.3-1.07,2.22,5.04,6.47,6.8,8.7,5.81,7.39,23.55,35.52,23.35,43.88-.04,1.8-1.99,2.65-1.88,5.33.31,7.93,7.04,18.67,5.78,28.72-.33,2.62-2.17,4.14-2.37,5.91-.62,5.32-.86,32.26-3.95,34.5-.72.53-2.5-.26-3.22,1.03-.6,1.08-1.7,6.24-.56,7.48,8.16-6.88,13.98-15.95,21.17-23.69,2.8-3.01,4.9-2.44,8.7-7.82,12.46-17.65,22.06-38.79,28.61-59.36,1.35-.42,3.1.96,4.12.8,2.25-.34,12.37-27.81,14.49-32.3,6.38-13.52,12.89-26.57,26.17-34.61,1.69.07,2.47,2.43,2.36,7.08,8.59,2.18,12.26,1.32,13.79-8.32l2.73-1.12c1.98-1.02,2.37.55,1.18,4.72,2.55.66,3.03,2.31,2.36,4.72,3.1.89,5.82.84,8.75-.56l.69,1.74c.97.21,1.88.71,2.17,1.7,1.74,5.95,3.67,12.05,9.33,4.36l2.66-.15c2.29-3.89,3.47-2.71,3.54,3.54,10.48,19.54,4.73,55.56.8,76.94-.59,3.2-5.5,19.7-4.25,20.98.38.39,2.96-.29,3.35.11,3.27,3.36-11.97,34.46-15.01,39.72-1.96,3.38-7.71,9.64-8.83,12.52-1.12,2.85.85,4.64-.24,7.83-2.26,6.63-27.93,28.18-34.43,34.7-.74.74-.92,3.15-2.67,4.99-2.04,2.14-7.01,3.82-8.46,5.78-1.72,2.33,0,3.97-.55,5.42-1.42,3.78-30.42,17.9-35.95,24.14-6.02,6.8-10.31,8.78-17.05,14.79-8.75,7.8-11.53,9.34-8.54,21.46,1.41,5.73,12.02,34.05,11.5,36.76-.18.94-2.5.26-2.49,2.44,0,3.03,1.85,8.87,2.45,12.48l1.86,14.65c.08,1.69-.05,2.47-1.86,1.87l-2.02-2.5c-2.37-10.88-4.8-21.64-7.28-32.28,2.01-1.82,2.53-3.79,1.57-5.93-6.39-13.65-9.64-27.59-9.75-41.83,6.29-6.71,13.26-12.76,20.9-18.15l1.1-5c12.68-6.72,25.65-14.61,37.5-23.32-1.91-4.13.28-7.04,6.56-8.73,13.79-12.41,27.39-25.68,39.69-39.6-2.34-1.28-2.6-3.58-1.66-5.88,10.34-13.69,20.7-27.79,26.4-44.15-2.55-.83-3.95-2.14-4.19-3.91l8.02-26.04-1.2-4.33c5.6-22.79,7.27-47.57,1.47-70.29-9.17,5.18-18.68.08-19.05-10.46-.51-.78-6.95-2.34-8-2.18-5.28,7.59-19.64,6.49-21.55-3.45-4.88-2.09-28.79,49.47-29.52,56.76l-5.3,11.75c-1.6,2.88-3.64,5.33-6.96,3.33-11.79,38.91-37.78,66.65-68.55,91.39l-10.15,10.67-3.47.63c-8.38,3.68-5.46-4.87-.61-8.3l13.1-10.33c4.39-4.06,6.38-9.73,5.97-17.01.39-5.3,2.1-7.59,5.14-6.86,1.23-1.79,1.68,1.61,1.56,1.51-.14-.1-1.7-2.77-1.73-2.94,1.44-9.96,1.83-20.09,1.16-30.37,3.01-4.72,3.24-10.39.67-17.01l-6.22-16.71c-.59-2.64.64-4.98,3.46-5.32-7.7-18.12-20.04-34.68-33.56-48.68l.71-3.15c-12.49-7.03-25.61-12.55-39.38-16.56l-1.01-3.89c-8.96.75-17.83.57-26.61-.53-1.69-2.41-4.52-2.12-8.47.85l-22.03-.28-.53,3.82c-13.65,4.6-27.5,9.33-39.44,17.81.38,1.49.48,3.06-.36,4.4-13.98,12.8-25.91,28.28-32.02,46.41,2.15.79,3.18,1.92,2.79,4.21l-5.2,17.17c-1.99,6.95-3.26,12.33,1.01,18.4-.33,10.07-.08,20.11.77,30.1,1.76-.26,3.16-.11,4.64.88,1.85,1.24,6.85,38.95,6.28,43.9-2.37,5.08-7.11,3.03-7.35-2.24-13.75,20.93-32.1,39.08-51.78,54.79l-.41,5.03c-7.85,9.29-16.73,17.88-26.63,25.77l1.69,3.28c-14.37,14.62-26.17,30.81-35.42,48.57,1.69,2.04,2.17,4.08,1.42,6.12-10.36,19.7-17.62,40.57-21.78,62.61l-2.54,2.26-.74,4.5c-.72,7.02.32,9.84,3.1,8.48,1.16-3.31,2.48-3.37,3.54,0,5.06-4.89,11.85,7.09,7.08,10.62,2.04,2.74.79,3.71-2.36,3.54-1.54-1.16-2.73-3.55-3.58-7.16-3.29-.71-6.43-1.47-9.4-2.28-2.07,1.06-2.42.95-1.18-1.18Z"/>
    <path class="st20" d="M178.37,312.79c-5.25-4.75,4.62-20.15,6.97-8.77-.44,12.13-3.38,23.97-7.01,35.5-12.12,30.37-20.57,61.29-25.34,92.76,6.21.81,8.37,2.69,6.5,5.64-.25.92-.61,2.25-1.35,2.36-3.14.46-21.91.56-24.7,0l-1.68-2.36c2.72,1.66.61,3.77-1.39,5.43-13.72,4.11-26.14,11.4-36.92,20.73,3.05,3.37,1.41,7.78-4.9,13.22-3.72,13.28-5.35,27.35-2.82,40.98l-1.76,2.27h-2.36c-.16-.69.14-1.63,0-2.36-2.41-.93-3.2-2.5-2.36-4.72l-1.34-.92c-.95-8.97-8.66-5.99-11.87.31-5.8,4.24-18.29,12.75-24.9,14.37-.69.17-1.51-1.11-2.02-1.97-.97,3.77-3.81,1.72-2.36-1.18l.73-2.8c4.01-1.21,28.98-15.09,26.62-18.09-2.72-1.16-5.14-2.45-7.28-3.89-2.04,1.79-2.72,1.1-1.18-1.18.95-.97,1.45-2.49,2.36-3.54l1.66-1.84c5.86,3.74,11.59,6.04,17.19,6.91-1.48-10.85,2.66-18.91,7.35-27.95-.15-6.74.31-8.37,4.73-13.56,6.87-8.07,20.85-15.13,30.7-18.71,2.17-3.69,4.6-5.47,9.1-5.69l16.31-1.79c1.76-16.84,6.03-36.5,11.95-53.79,8.07-21.57,15.19-43.35,21.37-65.35Z"/>
    <path class="st31" d="M174.83,473.32c16.37,12.38,24.91,34.02,31.77,52.62l2.86,5.2c43.79-6.88,93.2-7.44,137.09,1.88,6.98-18.08,17.97-34.73,29.91-50l7.25-4.98c1.08-8.78,15.85-2.5,4.68,2.94-18.54,23.32-39.79,50.72-40.32,81.42l-2.13,2.99c-.34-.23-1.68.15-2.36,0-.76-9.46-1-17.55,3.46-26.58-14.97-6.58-32.88-4.59-48.94-5.24-24.07-.98-58.6-3.72-81.97,1.13-8.81-.19-8.99-1.3-9.44,7.08l-3.92-4.37c-7.53-24.02-19.62-45.56-35.31-64.15-3.89-10.22,9.68-7.89,7.37.07Z"/>
    <path class="st18" d="M484.01,81.43c-.02-7.01,13.3-36.79,18.25-42.53,1.53-1.78,5.23-5.41,7.7-4.17,4.24,2.93,1.27,8.41,2.95,12.47,5.4-10.84,14.02-19.6,15.95-1.17,4.53-4.62,8.51-1.26,9.36,4.2,2.56,16.3-2.69,32.97-4.65,48.92-1.02-1.91-1.08-4.23-3.54-3.54l-1.47-2.75c3.5-5.14,7.14-42.43,4.26-43.73-2.04-.92-13.77,36.23-14.29,39.47l-2.66,1.11c-3.97-.97-5.19,1.05-9.44-1.18.6-2,2.45-2.81,5.55-2.42,15.63-36.57,15.18-76.16-4.7-4.53l-3.21,2.24c-.18-1.5.7-3.88-1.18-4.72l-2.08-1.39c2.71-12.3,5.4-24.72,6.9-37.22-9.81,13.06-16.33,29.32-18.75,45.63l-2.59,2.42c-.62-.96-2.36-6.54-2.36-7.08Z"/>
    <path class="st5" d="M42.65,488.67l.18,2.72c-10.06,7.98-20.19,16.16-29.14,25.37,14.56-1.65,28.08-9.52,38.98-19.05l2.96.4c.08.89.18,1.28,1.18,1.18,1.12,2.57-.17,5.14-3.87,7.71l-27.96,16.1c-1.83,1.52,8.59.09,9.74-.85l2.02,1.82c.16,1.14,1.42,1.25,2.36,1.18,1.32.18,2.24.99,2.74,2.43,13.03-.32,24.3-7.8,34.66-14.99l2.73.76c2.94,1.36,1.96,2.61,2.36,4.72-2.45-2.01-2.9-.59-4.75.52-6.75,4.03-31.4,19.7-38.45,13.76-1.74-1.46-1.47-4.61-1.68-4.81-.65-.61-14.64,4-16.27-.87-.38-1.13.06-3.51-.25-3.83-1-1.06-13.36,2.85-12.66-5.16.65-7.47,27.55-24.56,33.95-30.29.08.56.61,1.05,1.18,1.18Z"/>
    <path class="st23" d="M530.04,179.41l-5.92,26.54c2.19,2.03,4.64-2.23,4.75-4.11,2.09-.29,1.2,2.68.9,3.84-4.46,17.14-17.1,34.98-27.88,48.84-.94,3.47.35,2.87,3.38,2.79.22.18-1.46,2.85-1.88,3.44-3.53,5.07-34.7,35.97-40.32,40.19-2.14,1.61-8.72,2.01-5.82,5.69.31.4,1.87.11,1.97.27,1.1,1.65-29.78,20.62-32.62,22.23-5.14,2.91-7.51-.7-7.35,7.89-2.94,2.1-21.01,16.31-21.35,17.91-.47,2.18-.36,9.15.04,11.48,1.5,8.77,10.07,25.18,10.57,33.28.14,2.35-2.7.93-2.43,3.28.21,1.84,1.83,3.87,2.3,6.11,1.95,9.16,3.23,18.42,4.83,27.63-3.09,3.05-10.47-1.49-10.61,4.72,4.02.37,8.55-.49,12.48-.04,1.54.18,2.52,1.17,2.86,1.23-12.06-1.41-21.97,1.93-33.04,5.9-2.12-2.37,9.84-28.84,10.65-34.78,2.45-17.99-.43-40.07-2.27-57.99-1.71-16.7,21.04-38.81,32.89-49.47,43.56-39.21,85.21-66.32,103.87-126.87Z"/>
    <path class="st4" d="M178.37,312.79c.03,8.21-2.68,17.1-5.07,25.03-8.41,27.97-17.57,45.27-22.94,75.02-1.23,6.79-2.64,13.53-3.18,20.43-1.99,2.81-18.88,1.54-23.05,4.09-1.12.69-1.57,2.87-3.13,3.95-2.56,1.78-7.81,2.57-10.95,4.39-5.45,3.17-21.64,13.6-23.27,19.32-.64,2.24.64,3.93-.15,6.72-1.77,6.3-6.41,9.75-7.34,18.73-.38,3.7.13,7.47-.05,11.17-8.71,1.56-9.34-.89-14.94-4.54-1.73-1.12-6.12-2.27-6.3-2.55-1.35-2.08.62-8.95-7.08-10.62,7.82-13.13,19.88-23.07,30.11-34.21,34.67-37.79,80.02-88.27,97.34-136.94Z"/>
    <path class="st12" d="M374.26,214.82c-.26,8.12.97,1.51,7.08,5.9-4.5,5.27-2.21,15.36-5.39,21.17-3.17,5.79-19,13.29-21.77,20.72l3.56.6c-2.77,3.76-1.26,1.01-4.63,3.01-5.76,3.42-13.48,11.58-20.15,5.81,3.4-9.45,11.47-16.07,18.87-22.41l-3.53-.57,1.02-3.67c9.54-7.55,16.53-17.78,21.58-28.76l3.36-1.8Z"/>
    <path class="st0" d="M515.87,89.7c1.09-6.03,9.99-32.93,12.76-38.58,5.04-10.27,6.82-4.29,7.34,3.71.76,11.46-1.58,30.12-5.95,40.77-4.87,11.89-15.96,4.03-14.16-5.9Z"/>
    <path class="st6" d="M486.37,88.52c.97-14.18,7.76-31.21,15.14-43.28,2.03-3.32,3.98-8.21,8.45-7.47,1.47,1.5-5.77,36.39-7.07,41.31-.62,2.33-1.66,6.78-2.61,8.61-2.79,5.36-10.6,6-13.91.83Z"/>
    <path class="st19" d="M55.64,498.11c-9.77,10.02-30.74,21.55-44.84,21.24-.34-1.83.18-2.73,1.12-4.18,1.91-2.94,27.39-24.63,30.74-26.5,3.95-2.21,11.18-1.83,12.73,3.22.64,2.09.06,4.22.25,6.22Z"/>
    <path class="st22" d="M506.43,88.52c-2.93-1.54-2.05-2.21-2.36-4.72,3.88-11.19,5.18-23.11,10.41-33.85.72-1.48,5.55-10.14,6.06-10.46,6.34-3.98,4.96,9.75,4.48,12.75-.56,3.52-9.9,34.71-11.47,35.74-1.76,1.16-5.02.4-7.13.54Z"/>
    <g>
      <path class="st8" d="M83.96,520.54c6.78,1.12,9.26,3.5,10.9,10.77,11.66,19.59,28.66,37.29,49.8,46.39-1.52-15.92,12.2-20.21,23.54-11.48l9.81-4.28c.29-18.32,16.71-22.82,25.77-6.63l.5-12.12,2.41-1.4c-2.76-7.76.39-10.12,9.44-7.08-1.96.41-7.78,1.61-8.14,3.04,1.23,5.02,1.64,11.35,1.06,16.44-.39,3.43-3.11,7.9-3.1,9.45,0,1.83,6.96,15.85,8.16,19.73,5.71,18.54,6.9,36.91-13.3,13.91.32,6.02,6.72,13.55,3.39,19.3-4.36,7.53-9.75-1.05-14.01-3.96,1.65,14.84-6.88,9.03-14.19,2.97-9.31-7.72-19.93-25.3-26.5-30.15-3.53-2.61-11.29-4.93-15.87-7.73-11.76-7.18-25.23-18.06-33.63-28.92-3.15-4.07-8.56-15.53-10.73-17.68-1.3-1.29-3.26.54-4.71-1.01-1.49-1.6-2.39-7.08-2.95-9.54.52-3.27,1.02-2.85,2.36,0Z"/>
      <path class="st9" d="M187.8,618.5c-1.96,1.99-11.71-6.57-13.6-8.23-7.01-6.12-24.84-26.81-24.27-36.05.22-3.48,4.29-7.58,7.78-7.58,4.84,0,9.32,8.1,11.71,11.82,2.9,4.51,20.88,37.49,18.38,40.04Z"/>
      <path class="st2" d="M214.94,605.52c-1.77.29-2.77-.12-4.2-1.1-3.28-2.25-22.43-31.65-24.75-36.62-3.17-6.8-4.98-17.97,5.84-16.54,5.26.7,10.38,10.96,12.71,15.69,2.57,5.23,13.78,35.11,10.41,38.57Z"/>
      <path class="st35" d="M181.71,566.73c1.22.71,12.44,21.66,13.74,24.65,1.46,3.34,8.45,22.85,6.5,24.77-4.93.87-9.37-4.75-12.29-8.36-8.08-9.99-13.95-24.47-19.5-35.73.57-1.98,9.6-6.46,11.54-5.32Z"/>
    </g>
    <path class="st1" d="M36.75,524.08c-3.71,1.29-17.5,5.18-13.6-2.38.75-1.46,23.56-12.95,28.32-16.53,1.95-1.47,4.34-5.22,5.34-5.88,2.94-1.92,8.73,1.23,10.1,3.52.66,1.1-1.05,3.33-1.83,4.16-4.86,5.23-21.45,14.71-28.33,17.1Z"/>
    <path class="st34" d="M39.11,525.26c4.3-.3,22.08-11.47,26.01-14.7,1.69-1.39,2.42-4.52,4.27-5.17,6.17-2.16,12.41,1.1,9.84,8.07-.32.86-13.31,9.07-15.29,10.09-6.59,3.38-15.59,7.03-23.1,6.46-3.37-.26-1.24-2.91-1.74-4.74Z"/>
    <g>
      <path class="st25" d="M402.58,591.36c1.34.77,1.47,2.07,1.18,3.54-7.6,3.12-12.85,13.35-18.89,19.47-5.55,5.62-32.49,30.13-28.33,8.86-17.71,13.21-13.83-3.32-10.62-15.34-2.41,1.58-3.07,4.65-5.95,6.43-8.87,5.5-10.69-.85-9.1-9.11,2.81-14.67,13.98-23.9,12.7-39.82.43-3.14,1.2-2.92,2.36,0,9.7-16.45,27.66-12.82,27.7,7.29,5.32,5.29,9.9,5.92,13.72,1.88,10.23-4.05,23.28,7.91,15.22,16.8Z"/>
      <path class="st28" d="M358.93,629.13c-.56-3.32.47-5.44,1.71-8.31,3.08-7.15,19.08-33.03,24.26-38.3,6.12-6.21,16.28-3.28,15.33,5.79-.68,6.47-20.31,27.23-25.95,31.99-2.05,1.72-13.48,10.76-15.35,8.83Z"/>
      <path class="st35" d="M357.39,560.92c9.75-2.92,12.1,5.93,8.82,13.55-2.84,6.6-17.43,25.79-22.67,31.62-2.62,2.91-10.6,12.67-10.64,3.63-.03-7.26,17.69-46.76,24.49-48.8Z"/>
      <path class="st32" d="M380.02,582.05c.58,1,.14,2.4-.46,3.38-7.15,9.03-12.2,20.01-19.48,28.91-1.6,1.96-11.67,13.81-14.12,11.24-.72-7.14,2.24-13.92,5.06-20.31,2.39-5.42,12.81-23.42,16.8-26.89,2.61-2.27,11.55,2.53,12.21,3.67Z"/>
    </g>
    <path class="st3" d="M174.83,473.32c8.08,4.28,17.17,6.45,25.22,10.78,3.55,1.91,1.54-.68,1.93-2.52,1.76.99,3.34,1.39,4.72,1.18,1.34,2.94.94,6.19,2.24,7.8.56.69,12.16,7.42,14.04,8.38,33.11,17.01,72.77,15.38,106.43.91,3.11-1.34,18.46-8.6,20.08-10.01,1.79.78,3.17-.37,4.14-3.46l1.76-.08c-.41,3.87,1,2.15,3.19,1.42,8.49-2.82,17.12-6.78,25.13-9.68-14.96,16.82-26.45,36.41-36.16,56.75-10.94-2.07-22.87-4.28-34-4.87-24.1-1.27-57.56-1.54-81.52,0-6.69.43-16.59,3.66-22.49,3.52-2.03-.05-2.24-1.24-3.11-2.62-2.99-4.76-5.41-14.46-8.16-20.16-5.91-12.27-14.58-27.07-23.43-37.35Z"/>
    <g>
      <path class="st26" d="M45.01,470.96c.72-13.44,7.41-32.05,12.41-44.84,1.7-4.35,10.49-20.09,10.09-22.93-.1-.73-2.4-.65-2.51-1.39-.3-2.02,5.64-12.4,7.18-14.96,2.78-4.61,7.84-11.31,11.42-15.91,5.4-6.94,11.85-13.5,18.05-19.8l-3.52-2.34c6.27-8.93,21.67-17.4,27.19-25.91,3.31-5.1-1.55-3.95-1.23-4.77,7.67-6.56,16.06-12.77,23.19-19.9,6.88-6.89,15.95-16.89,22.26-24.36,4.64-5.5,9.47-11.85,11.21-18.89,3.95,1.25-.09,11.58,4.7,10.61,1.42-11.67-2.47-22.58-4.62-33.72-.4-2.05.71-9.94-1.86-9.92-.49,0-1.86,2.32-2.36,2.32-4.27.03-2.34-30.93-2.86-34.88-.28-2.18-2.2-1.54-2.42-2.5-2.36-9.95,5.23-25.02,7.04-34.6-.58-.81-4.06,3.21-3.53-.58,1.4-9.98,13.57-28.53,20.1-36.57,1.92-2.37,12.63-12.17,12.93-13.04,1.04-2.97-2.99-1.29-3.53-1.77,12.58-9.13,28.01-16.91,43.67-20.06l-1.18-4.7c.98-.84,21.37.75,25.35-.03,2.76-.54,3.69-3.17,4.89-3.45,1.68-.39,3.05,2.92,5.77,3.45,4.26.83,26.7-.92,27.71.03l-1.18,4.7c12.56,2.85,30.9,9.61,41.27,17.17,3.01,2.2-1.02,1.67-2.29,3.49,8.19,2.85,37.97,47.6,34.2,51.34-.71.71-3.91-1.56-3.55,1.77.38,3.54,5.45,13.25,6.56,18.25.6,2.7,1.91,10.08,1.84,12.5-.06,2.21-2.29,1.1-2.59,3.42-.8,6.31.5,14.67.14,21.38-.24,4.43-2.04,8.83-1.24,13.53-1.42.14-1.75-1.93-2.35-2.36-5.47,2-10.13,1.21-7.08-5.9l-2.22-2.91c6.4-32.36.09-69.63-27.26-90.83-22.44-17.38-43.64-11.28-66.38.15-20.58-9.76-40.05-16.68-61.61-3-32.47,20.59-43.69,77.84-23.65,110.1,26.27,42.3,111.68,43.74,151.48,20.31l3.69.4c3.22-1.35,5.78-1.57,4.5,2.65-13.08,10.26-28.98,31.68.18,11.94,1.44.29,3.03.15,4.76-.42,10.87-14.73,35.03-31.37,48.37-46.64,14.79-16.93,26.76-40.43,33.07-61.96l2.36,4.72c1.51-.34,2.59-1.92,3.25-3.23,10.1-19.94,14.34-42.52,28.24-61.39.84-1.14,7.46-8.43,8.03-8.59,4.57-1.24,1.86,3.12,4.65,6,2.41,2.48,8.46,3.01,11.64,2.04,2.44-.74,3.21-4.29,6.08-4.43.51-.02,9.66,2.01,10.01,2.38.29.32-.24,5.24,1.87,8.17,6.7,9.31,15.99.19,17.08,1.2,5.93,23.31,4.76,54.83-2.35,77.91-6.56,34.47-28.42,62.32-53.53,85.66-20.1,17.51-39.84,35.16-59.22,52.95-9.95,10.06-22.7,24.44-21.72,39.34,5.48,31.74,4.8,59.33-8.16,87.77l14.42-4.13,1.56,1.29c4.98-.77,9.83-.66,14.54.35,17.83,2.76,32.26,9.87,43.46,24.4,2.73,3.54,10.45,15.76,9.68,19.69-.18.94-2.51.28-2.51,2.46,0,2.96,2.17,6.11,2.48,9.51.42,4.69.34,30.42-2.38,32.48-.19.15-3.38-1.68-4.7-1.19-1.66,16-17.6,32.9-29.49,43.1-8.5,7.29-20.8,16.48-31.88,18.28.09-5.77,1.02-10.19-4.82-13.47-9.89-5.56-13.33,3.19-15.66,2.76-.59-.11-9.81-5.94-10.19-6.41-3.06-3.73,1.51-11.52-6.77-15.65-7.52-3.75-14.69,1.75-16.86,9.16-.91.64-1.91-2.06-2.34-2.36-1.9-17.31,5.9-33.24,13.96-48.01,7.47-13.7,16.72-26.29,26.87-38.1.93-1.08,2.68-1.11,2.82-1.27,4.36-4.98-5.41-.15-5.89.02-3.01,4.06-28.37,15.36-29.53,11.91l1.21-3.65-.95-1.56c-1.25,3.99-2.9,5.69-4.95,5.1l.49,2.52c-41.32,23.54-80.93,27.87-126.08,9.68-8.81-3.55-20.32-9.25-17.2-19.28-1.92.26-3.41-1.4-4.47-4.98.9,1.38,1.12,2.6-.25,3.8l1.06,4.64c-1.69,2.21-25.55-8.75-28.2-12.91-1.36-1.58-2.59-3.3-4.15-4.71-2.37-.48-2.1,1-1.5,2.69,1.47,4.13,8.55,10.51,11.35,14.62,11.71,17.15,19.88,36.14,26.16,55.87-.14,2.61-.12,15.51-1.19,16.53-2.72,2.6-5.7-4.98-7.09-6.49-3.08-3.35-5.86-5.15-10.66-3.63-8.95,2.82-5.83,13.46-8.2,15.44-.48.4-10.82,5.07-11.45,5.12-1.44.13-5.14-4.1-9.37-4.49-11.12-1.03-12.25,6.31-11.63,15.29.1,1.47,1.25,1.99-1.19,1.16-20.45-6.94-42.87-29.65-53.18-48.33-1.2-2.16-1.99-6.56-2.76-7.61-1.43-1.92-3.79,1.5-6.04-4.25s-1.99-21.11-1.12-27.68c.24-1.83,2.67-14.2,3.17-15.62,1.49-4.29,6.73-7.46,7.38-9.25.88-2.4-3.67-1.04-2.27-4.62,1.31-3.35,20.98-15.38,25.08-17.41,3.79-1.88,9.31-2.67,12.84-4.55,1.35-.72,2.24-3.5,2.71-3.5h27.73c-1.11-3.39-7.44-2.11-8.89-4.66-.71-1.25,3.13-20.11,3.78-23.47,4.76-24.43,10.67-38.35,18.62-61.64,5.07-14.87,9.72-30.07,10.08-45.97-3.01-.5-2.15.42-2.7,2.54-.76,2.94-.91,4.98-2.02,8.08-5.39,26.2-22.02,49.36-37.74,70.61-23.3,31.48-50.5,60.25-77.39,88.14-3.55,5.45-7.66,9.58-12.32,12.41-.81-.18-2.6-.1-3.54,0-5.01,2.79-3-9.29-2.36-12.98Z"/>
      <g>
        <path class="st4" d="M45.01,470.96c-.11,2.07-.39,12.47,0,12.99.15.19,1.7-.11,2.36,0-.37.04-1.77,1.96-3.53,1.17.59-4.46-1.42-10.56,1.17-14.16Z"/>
        <g>
          <path class="st33" d="M413.21,420.2c.98,5.89,2.82,11.68,2.88,17.78,23.75,4.49,44,17.4,55.17,39.25,1,1.95,5.75,13.31,5.72,14.45-.08,2.74-3.3,2.29-3.64,3.7,1.97,8.43,2.18,35.84-4.66,40.93-5.01,3.73-3.33,4.38-6.84,9.82-14.63,22.72-33.37,38.64-58.05,48.76-4.35-1.93-1.19-2.95-1.18-3.54l1.48-2.7c22.31-8,45.98-29.18,55.55-50.95.99-7.42,3.52-10.62,7.6-9.6,2.17-12.82,2.94-26.4-.97-39.01,4.11-4.22.1-10.83-3.08-15.21-11.24-15.51-22.74-25.23-42.47-28.39l-2.76-2.87c-5.41-1.11-10.99-1.11-16.74,0-2.91-7.29,7.77-8.83,12.02-5.9,3.15-3.1-1.42-11.89,0-16.53Z"/>
          <path class="st15" d="M355.38,486.31c-1.73,3.42-4.65,10.47-5.9,3.54,2.58-2.24,6.14-12.18,8.47-15.72,1.17-1.77,11.24-14.75,12.2-14.96,1.15-.25,2.92,1.31,2.91,1.77-.01.96-10.47,12.18-12.26,14.86-2.32,3.48-3.61,6.92-5.42,10.51Z"/>
          <path class="st13" d="M277.34,428.63c.43.25,5.09,7.18,4.95,8.66-.52,5.54-13.67,6.46-11.88-3.46.44-2.47,4.35-6.71,6.93-5.2Z"/>
          <path class="st10" d="M206.69,482.76l-.58,5.9c-1.4-2.27-2.9-4.75-4.14-7.08-3.13-5.87-5.39-12.55-10.62-17.12,6.8-1.16,12.74,12.59,15.34,18.3Z"/>
        </g>
      </g>
    </g>
    <g>
      <path class="st14" d="M370.71,217.18c-7.87-10.27-17.07-16.17-28.67-21.48-7.4-3.38-18.46-4.85-23.89-11.52-8.28-10.17-6.5-24.36,6.56-28.97,13.5-4.77,25.77,2.88,34.82,12.37,2.3,2.42,14.02,16.49,14.49,18.56,2.37,10.5-2.26,20.8-3.3,31.03Z"/>
      <g>
        <g>
          <path class="st21" d="M376.67,179.95c-2.88-40.92-35.79-84.37-80.9-69.02-3.65,1.24-16.02,8.13-17.49,8.01-1.7-.14-14.17-6.96-18.77-8.3-66.68-19.32-100.02,80.31-63.93,125.33,29.34,36.59,116,38.49,152.72,13.08,11.71-8.1,20.53-21.27,25.96-34.23.37-11.61,3.31-21.98,2.41-34.87ZM370.49,176.69c-8.53-8.81-14.21-19.48-26.94-23.81-13.58-4.62-31.93.03-33.07,16.44-1.77,25.45,30.67,25.59,45.47,37.26,11.47,9.04,14.71,14.38,5.31,26.5-31.13,40.17-139.22,40.96-166.16-2.54-5.06-8.18-6.32-11.36.45-19.2,14.83-17.17,55.38-14.74,51.15-44.23-.84-5.86-5.65-11.47-11.06-13.72-20.85-8.66-40.32,9.35-50.21,26-1.56.3-1.24-.46-1.2-1.78.88-32.54,28.79-69.94,64.34-66.67,8.94.82,27.06,10.82,30.6,10.6,3.29-.2,14.16-7.38,19.54-8.86,43.49-11.93,71.05,28.55,75.54,66.71-2.61.63-2.61-1.51-3.77-2.71Z"/>
          <path class="st7" d="M369.43,218.25c-1.18-4.79-5.33-9.06-11.63-14.02-5.13-4.04-12.11-6.75-18.86-9.37-13.64-5.29-26.52-10.29-25.48-25.33.79-11.32,11.11-15.34,19.72-15.34,3.2,0,6.45.53,9.4,1.53,8.6,2.92,13.8,9.14,19.3,15.72,2.03,2.43,4.14,4.94,6.45,7.33.07.08.23.37.34.56.53.95,1.78,3.17,4.72,3.17.13,0,.27,0,.4-.01.23,6.57-.53,12.62-1.26,18.49-.53,4.25-1.08,8.63-1.25,13.17-.59,1.39-1.21,2.75-1.86,4.09ZM188.49,216.89c-3.75-10.42-5.25-22.36-4.44-34.5.25.05.51.08.81.08.35,0,.73-.04,1.15-.12l1.32-.26.69-1.16c11.73-19.75,26.6-26.78,36.6-26.78,3.33,0,6.66.68,9.88,2.02,4.61,1.92,8.58,6.81,9.24,11.37,2.31,16.1-10.57,21.27-25.49,27.26-9.3,3.73-18.92,7.6-24.96,14.58-2.46,2.85-4.01,5.26-4.79,7.51Z"/>
          <path class="st11" d="M298.71,112.69c-5.38,1.48-16.25,8.66-19.54,8.86-3.54.22-21.66-9.77-30.6-10.6-35.55-3.27-63.46,34.12-64.34,66.67-.04,1.32-.36,2.08,1.2,1.78,9.89-16.65,29.36-34.66,50.21-26,5.41,2.25,10.22,7.86,11.06,13.72,4.23,29.49-36.32,27.06-51.15,44.23-6.77,7.84-5.51,11.02-.45,19.2,26.93,43.5,135.03,42.71,166.16,2.54,9.4-12.13,6.16-17.46-5.31-26.5-14.8-11.67-47.24-11.81-45.47-37.26,1.14-16.41,19.49-21.06,33.07-16.44,12.73,4.33,18.42,15,26.94,23.81,1.16,1.2,1.16,3.34,3.77,2.71-4.49-38.16-32.06-78.64-75.54-66.71Z"/>
        </g>
        <path class="st29" d="M297.56,174.68c5.66,11.74-9.08,21.49-19.42,21.29-11.31-.22-27.09-10.52-17.17-22.47,13.34-7.02,23.88-7.23,36.58,1.18Z"/>
        <g>
          <path class="st17" d="M260.97,173.5l1.03,2.54c-8.04,22.3,37.69,23.39,33.88.74l1.67-2.1c5.68,3.76,16.75,12.33,19.91,18.44,8.05,15.55-13.05,28.12-25.52,30.83-14.92,3.25-40.34.08-49.86-13.27-6.59-9.25-3.1-16.12,3.06-24.1,4.74-6.13,9.22-9.61,15.83-13.09Z"/>
          <path class="st30" d="M312.92,195.94c2.14-1.87,3.53,1.47.65,4.79-5.49,6.32-17.25,6.25-24.84,5.8-3.49-.21-7.37-2.09-10.64-2.1-4.77,0-10.8,3.22-15.39,3.34-6.98.18-20.19-3.27-21.79-11.25,3.37-1.04,5.43,3.89,8.63,5.54,10.84,5.6,19.57-.53,29.75-.32,10.37.22,16.2,5.61,28.17-.05,5.01-2.37,4.21-4.65,5.47-5.76Z"/>
        </g>
      </g>
      <g>
        <path class="st7" d="M190.15,215.99c-2.16,2.14-1.95-.75-2.35-1.75-3.2-7.96-4.83-19.81-3.47-28.28,1.07-6.67,19.21-24.15,25.54-27.57,16.72-9.04,38.66-2.5,32.85,19.87-3.09,11.88-28.7,16.39-38.79,22.58-3.66,2.25-8.58,6.57-11.41,9.84-1.53,1.78-2.16,5.11-2.37,5.31Z"/>
        <g>
          <circle class="st27" cx="221.51" cy="173.42" r="11.74"/>
          <circle class="st24" cx="219.67" cy="168.78" r="3.78"/>
        </g>
      </g>
    </g>
  </g>
  <path class="st27" d="M330.27,165.51c7.03-1.46,22.47,4.04,20.34,12-1.63,6.08-8.42-2.98-10.13-3.86-8.86-4.58-16.11,2.74-18.71,2.22-7.23-1.45,4.44-9.51,8.5-10.36Z"/>
</svg>