<?xml version="1.0" encoding="UTF-8"?>
<svg id="Layer_1" xmlns="http://www.w3.org/2000/svg" version="1.1" viewBox="0 0 2984.88 3030.84">
  <!-- Generator: Adobe Illustrator 29.6.1, SVG Export Plug-In . SVG Version: 2.1.1 Build 9)  -->
  <defs>
    <style>
      .st0 {
        fill: #fefdfd;
      }

      .st1 {
        fill: #111112;
      }

      .st2 {
        fill: #dea138;
      }

      .st3 {
        fill: #dea53f;
      }

      .st4 {
        fill: #fbfbfa;
      }

      .st5 {
        fill: #f5f5f3;
      }

      .st6 {
        fill: #bebdbd;
      }

      .st7 {
        fill: #f7f6f6;
      }

      .st8 {
        fill: #f6f6f6;
      }

      .st9 {
        fill: #111011;
      }

      .st10 {
        fill: #d8d8d8;
      }

      .st11 {
        fill: #dbaa52;
      }

      .st12 {
        fill: #100f10;
      }

      .st13 {
        fill: #f7f7f6;
      }

      .st14 {
        fill: #e9c740;
      }

      .st15 {
        fill: #bab9b8;
      }

      .st16 {
        fill: #d5d6d5;
      }

      .st17 {
        fill: #3b3b39;
      }

      .st18 {
        fill: #eed491;
      }

      .st19 {
        fill: #bcbcba;
      }

      .st20 {
        fill: #eac740;
      }

      .st21 {
        fill: #d3a560;
      }

      .st22 {
        fill: #dea23d;
      }

      .st23 {
        fill: #393936;
      }

      .st24 {
        fill: #171513;
      }

      .st25 {
        fill: #dea33b;
      }

      .st26 {
        fill: #f6f5f5;
      }

      .st27 {
        fill: #f5f5f5;
      }

      .st28 {
        fill: #f3f3f3;
      }

      .st29 {
        fill: #272826;
      }

      .st30 {
        fill: #d2be65;
      }

      .st31 {
        fill: #fdfdfd;
      }

      .st32 {
        fill: #393937;
      }

      .st33 {
        fill: #f1e3bf;
      }
    </style>
  </defs>
  <g>
    <path class="st9" d="M601.79,1119.55l2.25,6.29c-12.12,18.46-22.55,37.7-31.3,57.71l241.65,214.77c6.91.66,15.18-42.2,13.91-50.86,18.86-20.77,21.23,38.82,20.39,49.07-1.28,15.67-6.11,49.04-24.21,51.12-5.76,134.42-134.91,237.26-267.72,202.41,22.18,73.27,61.18,148.55,124.04,195.05.49,2.47-.17,4.71-1.78,6.74l27.28,30.66-.65,6.62,1.86,6.64c8.68,3.69,44.66,31.41,45.87,36.31,1.77,7.2-9.17,13.9-14.65,17.22,18.03,4.71,26.37,26.23,4.21,25.05-109.75-74.45-194.91-178.8-239.71-304.86-5.12-14.4-13.07-54.75-18.45-63.43-3.92-6.33-30.77-26.76-38.79-36.44-58.23-70.29-62.15-176.65-13.05-252.78,3.54-5.49,28.23-33.9,27.74-36.13l-103.85-46.7,141.06-108.14c8.9-3.27,28.63,29.98,34.65,25.63,8.48-17.67,30.28-64.2,45.31-74.55,25.67-29.09,38.17,22.01,23.97,42.61Z"/>
    <path class="st0" d="M452.67,1505.67c-31.96-73.85-15.28-155.87,47.04-206.97,35.57,13.05,68.89,33.07,104.75,44.56-5.56,15.24-18.23,22.78-23.22,39.33-26.98,89.38,81.13,144.77,136.43,77.84,6.19-7.49,14.11-19.7,16.1-29.17,1.26-6.03-.15-26.41,5.15-26.72l40.86,19c1.66,16.17.41,31.66-2.23,47.51-49.51,132.42-248.21,157.11-324.88,34.62Z"/>
    <path class="st10" d="M452.67,1505.67l28.74,29.15c80.76,66.07,186.3,58.95,260.21-13.14l35.92-50.62c-27.59,165.98-255.64,194.62-324.88,34.62Z"/>
  </g>
  <g>
    <path class="st9" d="M862.76,842.61c-4.53,5.3-3.26,9.56,3.79,12.79,12.15-3.15,66.39-8.59,72.6-1.08,2.71,3.28,2.5,8.26,1.67,12.31,26.26-9.08,50.4-13.66,79.04-13.13-17.4-24.57,22.22-34.04,31.53-11.72-1.8,8.24.91,8.27,8.74,7.59-3.57-7.95-.27-24,9.01-14.75.57-2.07,1.41-5.11,3.07-5.33,6.11-.8,49.94-1.13,54.33,0l3.84,5.33c10.03-12.42,17.27,7.81,10.61,18.97l5,.23c1.29-14.55,7.69-21.32,21.88-24.68-1.4-23.71,39.21-48.7,32.33-10.79l3.41,8.28c5.95,2.06,12.55,3.72,18.64,5.33-5.68,15.73-2.83,18.35,8.55,7.85,5.49,5.14,11.45,8.89,17.87,11.24l37.49-.45c9.09,3.13,21.16,3.47,29.29,10.65l-2,5.51c-7.4-.15-8.66.51-2.58,4.75,15.65-.56,20.63,9.33,15.77,23.5,14.59,18.81,34.82,10.65,50.06-4.47,11.89,6.4,20.42,11.54,31.96,18.64,3.7,7.18,7.12,14.23,3.41,21.94,7.85,2.13,14.85,6.16,21.01,12.1,16.18.86,23.2,8.18,21.08,21.98,10.17-.61,16.83,3.01,19.96,10.86,20.32-2.71,27.78,22.11,9.08,30.66,13.77,16.46,28.55,31.95,44.34,46.46,4.75-5.91,9.35-8.51,16.92-8.53-.27-7.93,3.05-16.94,10.65-10.31,10.4,12.23,17.58,22.06,26.63,34.62-2.28,9.16-12.15,21.32-22,23.74-.83,3.07,30.51,64.27,32.68,34.58,7.87-3.79,10.65-10.39,8.32-19.81l4.97-3.9c13.25,15.37,22.39,35.4,31.96,53.26-4.12,4.31-16.33,1.28-18.36,2.95-.71.58-1,8.07-3.21,11.5-2.35,3.64-7.45,2.52-8.01,8.16-1.33,13.33,21.17,57.11,26.92,73.25l6.26,1.64c11.12,27.1,17.89,55.25,20.31,84.44,7.05-2.79,13.72-4.29,19.66,1.45-1.18-14.86-.88-29.56.89-44.11l6.14-.82c4.37-1.53,4.09,4.13,2.66,7.99,1.72,1.44,3.36,2.94,4.73,4.67,6.32,7.97,17.64,75.66,14.23,85.24-.74,2.08-1.81,4.04-2.98,5.96-.16,9.06.73,17.94,2.66,26.63,7.56,3.35,7.44,9.9,0,13.31,1.4,13.45,1.4,26.77,0,39.94-1.91,9.6-2.79,19.36-2.66,29.29,1.12,2.55,2.13,5.13,2.76,7.8s1.19,5.18.91,7.61c-24.54,215.98-161.47,415.94-359.97,504.03l-8.52-2.83c-4.37.43-4.37-1.34,0-5.33l-3.61-4.56c9.03-6.93-15.38-20.71-23.42-12.26-15.05,8.64-31.09,14.25-48.12,16.81,15.76,2.69,21.28,7.13,16.56,13.33-1.65,4.22-5.57,6.55-11.76,6.99,8.01-2.44,14.59-2.11,19.75,1-2.31-7.48,6.12-15.49,13.31-10.65l32.66-5.68,1.96,3.02c.77,2.01,1.57,4.41.52,6.14-7.13,11.78-121.35,43.26-135.91,42.96l-11.08-3.84c-2.3.33-5.06-.12-5.48-2.05-1.67-7.51-5.41-1.33-2.5,4.71-6.79,5.53-14.95,7.24-24.49,5.12-16.13,5.69-31.05,5.76-44.74.21-11.24,2.31-23.75,1.68-34.62,0-2.33-.76-2.29-1.65,0-2.66.51-5.35,2.28-8.9,5.33-10.65,7.13-5.97,22.41-2.61,26.63,5.33,15.16-2.67,2.93-8.76-4.93-12.53-14.54-6.97-35.51-5.45-48.33,4.54,1.48,11.42-5.16,20.01-19.91,25.75-1.64,5.17-3.88,9.02-6.72,11.53-5.66-7.02-17.21-21.58-23.97-23.97-13.02-6.03-6.17-22.58,1.53-31.86-18.81-9.29-38.37-8.62-58.69,2.01-19.64-4.17-36.98-3.1-52.02,3.22-2.77-.89-5.27-1.73-7.99-2.66l-3.6-4.52c5.8-19.11-14.94-18.68-28.39-16.88-13.72-3.34-16.65-22.93-2.54-27.87-13.97-8.51-28.62-15.53-43.94-21.06,5.91,19.63-6.13,22.05-22.75,19.39l-5.3,3.01c-16.53-5-28.92-17.34-42.61-26.63,23.94-16.79-12.57-16.34-10.62-25.23,1.34-6.12,18.11-9.16,15.65-18.22-.98-3.6-26.38-25.84-30.66-28.1-11.6-6.11-27.78,5.36-11.64-13.66l14.43,5.46c256.79,217.5,650.19,165.04,837.73-116.2,224.7-336.96,45.7-810.53-352.61-897.14l-6.07,34.59c-5.86,51.03-63.38,52.74-56.87-1.99,3.58-15.05,7.07-29.57,10.46-43.57-89.1-10.86-179.21,1.26-264.16,29.94l5.11,29.52c5.85,54.86-56.59,48.51-56.35-2.59-71.58,29.44-144.57,81.78-187.6,147.13l-2.47,6.98c-16.39,7.87-28.07,22.03-38.05,36.87l-7.42,1.43c-.58-17.67,5.92-28.02-5.65-43.59-5.06-6.8-12.14-3.27-18.31.99,8.75-15.51,20.55-29.09,31.96-42.61,5.63-.22,7.49,3.57,5.59,11.38,11.06-6.69,18.43-.85,24.99,8.52,2.51.36,27.12-26.99,28.4-30.56-7.63-10.57-11.31-22.99-11.04-37.27,12.65-11.98,20.64-20.48,34.62-31.96,6.41-1.01,8.53,4.85,6.36,17.55,14.86,12.71,36.86-7.85,46.67-17.75,17.69-5.44,25.7-13.93,24.06-25.48,23.48-1.48,42.39-9.26,63.46-20.13,19.17,1.01,4.79-20.77-7.15-22.52-16.23,3.77-22.53,1.69-18.89-6.24,3.13-5.6,19.91-6.5,20.68-11.89.26-1.84-10.28-30.5-12.21-35.19-22.4-54.36-60.11-112.74-110.61-144.37-53.83,64.77-151.02,20.76-139.96-62.63,10.27-77.46,129.8-86.45,151.69-11.01,2.77,9.54,1.05,22.37,3.83,28.12,1.58,3.26,30.06,22.54,36.02,27.89,54.27,48.8,83.71,103.37,106.48,171.8Z"/>
    <g>
      <path class="st9" d="M1408.66,909.18c59.58,36.68,101.05,71.78,146.46,125.16-8.17,1.59-4.22,14.9-5.34,15.97-.82.78-8.98-1.29-13.31,1.33-6.35,3.85-1,14.42-14.62,3.98-5.27-4.04-42.38-43.66-43.56-47.06-3.13-8.98,7.7-5.83,9.92-13.35,2.59-8.79-5.34-16.29-13.79-13.79-3.91,1.16-12.2,20.29-17.81,6.3-3.83-9.56,16.03-7.23,10.61-14.6-1.35-1.83-17.49-3.3-21.29-2.7,7.38-27.64-1.07-15.5-15.87-22.74-7.04-3.44-9.85-13.73-24.06-9.19,6.6,20.98-9.43,10.43-18.63,1.28-.61-7.85,10.2-1.8,15.98-5.26,3.18-1.91,5.58-9.11,5.15-13.03-3.17-10.71-27.46,5.83-23.79-10.93,1.73-7.92,18.28,6.85,23.94-1.36Z"/>
      <path class="st9" d="M785.54,2000.98c-.69-1.71.98-6.89-.12-7.84s-11.68,1.09-13.17-4.17c-3.06-10.84,11.82-9.93,18.63-9.31-2.58,18.46,3.18,12.91,18.64,13.33,1.14-1.15-1.06-17.01-3.04-18.27-4.24-2.7-15.12,4.21-12.93-5.68,24.94,1.56,49.58,16.51,71.29,28.58,1.82,1.01,22.5,7.44,7.21,8.8-7.92.71-23.23-7.18-16.94,11.53,2.83,8.42,16.34,2.01,23.14,3.46,13.66,2.92,21.71,14.28,13.82,27.51-15.58-5.33-101.97-36.72-106.52-47.93Z"/>
      <path class="st9" d="M900.04,2051.57c3.6-19.49,34.9-7.52,48.98-8.27,12.58-.67,30.43-10.57,32.16-10.64,13.97-.59,30.05,13.63,46.67,8.29.08,4.63-6.56,2.99-9.9,6.08-10.56,9.77-12.26,17.44-8.73,31.17-13.77-4.86-36.84-6.02-52.77-9.81-19.49-4.63-37.46-10.72-56.41-16.82Z"/>
      <path class="st9" d="M657.72,986.4c10.31,6.6,6.08,16.52,8.52,24.76,1.4,4.72,8.34,6.12,7.6,13.71-.44,4.56-29.16,35.64-33.46,35.61-6.34-.03-13.5-27.82-27.88-.85l13.25,11.96c-34.35,2.07-11.17-18.16-15.96-37.27,15.78-18.69,30.8-31.7,47.93-47.93Z"/>
      <path class="st9" d="M1605.72,1103.57c.66,3.94.74,16.24-.41,19.57s-6.17,4.35-8.66,7.31c-2.95,3.5-3.66,15.94-14.42,9.86-2.14-1.21-25.15-37.22-26.44-41.4-4.61-14.91,3.3-9.4,8.72-13.81,6.1-4.97,7.92-14.28,17.24-16.14,6.97,9.67,21.91,22.27,23.97,34.62Z"/>
      <path class="st9" d="M1315.46,861.25c15.55,1.4,46.37,21.28,61.25,29.29.93,16.81-16.36,13.26-23.92,22.64l7.93,8c-10.69,7.35-11.76-11.39-14.53-11.56-2.21-.14-6.41,3.16-10.31,2.46-2.64-.47-3.34-7.88-7.07-9.73s-16.2,4.58-21.32-5.17c7.9-3.2,14.16,2.76,15.34-8.6,1.64-15.79-7.68-9.14-15.32-12.69-4.73-2.19-8.12-10.62-2.73-13.41.48-.25,10.16-1.29,10.69-1.24Z"/>
      <path class="st9" d="M1222.26,831.95c23.53,6.18,40.67,10.62,63.91,18.64-14.56,7.24-50.5,12.58-54.58-7.98-2.07,8.2-13.61,10.19-14.25,10.9-1.71,1.91.97,9.49-1.55,13.23-2.37,3.52-13.61,1.84-18.77,7.86l-10.66,23.89c-20.48-26.8,20.34-37.47,26.5-47.99,3.31-5.64-.64-19.74,9.41-18.56Z"/>
      <circle class="st31" cx="641.9" cy="640.78" r="32.43"/>
      <path class="st9" d="M934.65,2027.59c-4.48,1.85-32.43-1.95-23.96-10.62,1.73-1.77,26.46,1.16,23.96,10.62Z"/>
      <path class="st9" d="M1275.5,871.91c-.13,7.3,2.77,16.73-6.62,13.27-8.57-3.16-.49-14.33,6.62-13.27Z"/>
      <path class="st9" d="M1366.06,925.12c-4.58-5.47,11.69-11.21,13.29-3.92,1.68,7.62-10.98,6.68-13.29,3.92Z"/>
      <rect class="st9" x="1421.77" y="954.92" width="5.74" height="15.03" transform="translate(-263.28 1289.26) rotate(-45)"/>
      <g>
        <path class="st9" d="M1672.25,1497.69c2.88,2.95,4.51,24.38,6.04,29.94,6.05,21.95,12.11,36.5,7.26,61.87-1.28,6.71-9.05,9.94-10.22,16.66-1.82,10.48,8.58,15.43-8.36,23.35l5.3,6.63c-12.69-3.41-21.33-3.14-31.91,5.34,9.9-46.37,23.91-92.22,26.67-139.78-2.08-4.6,3.92-5.35,5.22-4.01Z"/>
        <path class="st9" d="M1592.4,1766.64c-13.93,17.88,4.72,27.62-1.23,37.31-5.21,8.49-19.41,2.46-28.06,5.3-5.89,11.3-5.89,19.29,0,23.97,7.15-2.72,4.57,5.4,2.66,10.65-2.46,3.39-8.89,6.96-13.31,5.33-9.2,3.72-19.66,5.19-29.3,2.64-3.09-3.52,19.81-35.56,24.04-41.18,14.73-19.55,28.38-36.38,42.54-57.32,10.48-3,6.61,6.85,2.66,13.31Z"/>
        <path class="st9" d="M1283.5,2032.93c-.58-.41-.85-3.05-2.73-3.91-2.14-.97-30.53-5.2-23.89-12.04,2.07-2.13,23.9-4.81,29.27-6.71,11.01-3.88,28.36-15.18,39.8-16.17,4.85-.42,12.98,12.02,21.36,9.64,2.42,7.32-3.15,11.02-5.23,15.86-.57,2.22-1.14,4.28-3.46,5.23l-33.82,5.42c-7.07,4.08-7.7,7.75-13.31,10.65-6.43.9-10.35-1.08-7.99-7.99Z"/>
        <path class="st9" d="M1358.06,1982.34c-1.36-.52-4.82.6-5.32-.01-5.57-6.88,29.66-16.87,33.08-18.94,5.28-3.2,5.23-13.08,18.15-9.86,1.11.28,19.73,9.52,20.34,10.49,2.21,3.49-1.27,14.42-5.1,16.89-3.38,2.18-8.94,1.45-12.49,3.48-4.19,2.39-7.33,6.01-11.38,8.6l-3-.08c-5.87-14.08-17.29-17.6-34.28-10.57Z"/>
        <path class="st9" d="M1635.01,1686.75c.5,2.27-.27,5.31.63,8.59,1.25,4.58,7.54,8.65,7.36,14.12-.15,4.54-4.77,6.13-6.45,9.47-2.96,5.87.29,11.44-8.2,13.16-7.06,1.44-21.94-.71-22.77-9.44-.4-4.19,22.82-51.61,26.77-59.87,7.14,3.41,8.07,17.99,2.66,23.97Z"/>
        <path class="st9" d="M1453.93,1937.07c-.78-4.48,2.32-5.43-3.78-5.17-8.42.36-29.87,11.82-30.81,10.49-5.74-8.12,21.68-19.71,27.25-24.06,8.22-6.4,15.21-17.4,25.95-21.21,1.58,4.95-2.74,10.69-2.65,14.42.03,1.45,18.78,8.77,5.35,23.55-2.17,2.38-5.68,2.7-7.99,4.64-7.75,7.42-19.82,11.99-13.31-2.66Z"/>
        <path class="st9" d="M1216.93,2032.96c-4.74,32.27-14.8,15.01-33.26,15.79-10.26.43-35.83,20.52-38.61-3.86-.81-7.1,13.5-3.36,19.63-4.29,14.56-2.19,29.45-1.3,39.74-2.79,4.41-.64,7.36-6,12.51-4.85Z"/>
        <path class="st21" d="M1184.97,2075.54c.85-7.07,3.3-6.77,5.33,0l10.64,2.64c-3.87.73-20.44-.91-21.31,0-1.51,1.6,4.11,16-7.23,9.74-.44-.24-.54-3.91-2.52-4.34-16.81-3.59-18.9,4.92-23.34,5.48-8.42,1.06-52.67-1.97-54.75-.2-2.7,6.94,4.56,4.31,5.37,7.1.6,2.1-.37,4.49-.05,6.2-7.17-3.4-10.21-12.75-18.64-13.31-.24-2.48-3.07-2.06,0-5.33,12.27-1.09,24.7-1.98,37.28-2.66,23.14-1.04,46.25-1.47,69.24-5.33Z"/>
        <path class="st9" d="M1480.56,1891.8c-.16-.77-3.11.34-.29-3.9,2.43-3.66,23.86-24.81,26.87-22.72,10.21,17.04,11.81,25.32-7.94,34.6.42,2.33-.27,4.04-2.31,4.98l-16.33-12.97Z"/>
        <path class="st9" d="M1563.11,1809.25c9.87-2.84,6,19.33,0,23.97-12.57,9.71-11.67-13.78-5.49-22.27,2.06-2.84,3.96-1.2,5.49-1.7Z"/>
        <path class="st9" d="M1632.35,1662.79c1.47-3.09-1.22-11.96,7.98-10.64-1.21,17.13,13.39,22.86-5.31,34.61-1.75-8.04-3.83-15.53-2.66-23.97Z"/>
        <path class="st9" d="M1283.5,2032.93c3.26,2.29,6.52,3.89,7.99,7.99-3.28,1.7-22.76,6.33-23.9,5.3l-2.72-13.27,18.63-.02Z"/>
        <path class="st9" d="M1395.35,1992.99c-10.03,6.39-7.69-9.63-12.42-10.8-8.71-2.16-13.37,4.52-24.86.15,20.15-13.4,25.6-7.45,37.28,10.65Z"/>
        <path class="st9" d="M1480.56,1891.8c9.16-1.63,10.38,4.06,14.31,7.03,1.6,1.21,4.01.66,4.33.96,6.33,6.1,5.27,8.03-1.33,13.26-4-9.3-15.64-13.44-17.31-21.25Z"/>
        <path class="st9" d="M1184.97,2075.54c-17.14-4.59-2.47-15.71,9.31-13.33,2.83.57-2.85,7.69-1.32,10.66-1.23.15-2.4,1.39-2.66,2.66h-5.33Z"/>
        <path class="st9" d="M1342.09,2024.94c-.81,1.33-1.7,1.78-2.66,2.66-13.11-4.7-25.32,8.65-34.62,2.66,15.57-8.99,24.07-1.06,37.28-10.65-.56,1.3.59,4.36,0,5.33Z"/>
        <polygon class="st9" points="1086.45 2043.58 1074.49 2049.15 1046.5 2043.58 1086.45 2043.58"/>
        <path class="st9" d="M1592.4,1766.64c-.19-4.26,1.66-11.07-2.66-13.31,1.34-1.98,2.47-8.6,3.98-7.98,13.87,11.97,4.63,13.66-1.32,21.29Z"/>
        <path class="st9" d="M1118.42,2046.21c-.55-3.5,10.73-4.51,12.73-4.59,22.87-.87,2.79,13.77-12.73,4.59Z"/>
        <path class="st9" d="M1624.33,1753.33c-16.47-2.2-1.69-14.23,5.33-18.64l-5.33,18.64Z"/>
        <path class="st9" d="M1453.93,1937.07c.42,2.44-.31,5.41.03,7.99l13.29-5.32c-2.49,2.08-7.84,10.83-12.01,10.52-3.5-.26-9.64-13.07-1.3-13.19Z"/>
        <path class="st29" d="M1115.74,2080.86c-10.18,5.96-25.5,1.23-37.28,2.66.65-.69.85-2.36,2.66-2.66,9.7-1.6,23.95.48,34.62,0Z"/>
        <path class="st9" d="M1565.77,1843.86c-3,8.23-4,11.55-13.31,5.33.99-.4,5.66-8.83,13.31-5.33Z"/>
        <path class="st29" d="M1706.91,1508.34c1.24-9.23-3.11-22.08,2.66-29.29-.4,10.25-1.74,19.9-2.66,29.29Z"/>
        <path class="st29" d="M1709.57,1425.79c-5.67-6.32-1.52-18.26-2.66-26.63.81,8.54,2.24,17.08,2.66,26.63Z"/>
      </g>
    </g>
  </g>
  <g>
    <path class="st9" d="M1203.62,826.63c-15.57-5.4.18-23.52-9.3-23.9-1.05-.04-16.49,10.34-17.5,11.74-3.92,5.51-1.95,13.99-4.89,18.48-1.99,3.03-12.54,2.51-16.46,8.12-7.62,10.91,3.37,24.61-26.4,14.82,9.83-4.41,14.7-21.27,1.33-21.27h-61.25c-8.46,0-4.76,13.71-1.35,18.62-8.5,3.89-15.26.44-23.96,0-1.21-1.13,4.48-8.5,1.52-13.29-5.89-9.54-38-5.32-19.95,9.1,3,2.39,9.53,1.57,10.44,6.84-19.07,5.49-41.01,3.01-59.68,5.59-12.22,1.68-23.59,10.98-37.47,10.51-8.45-.28,2.25-12.04-5.77-16.27l-70.94,2.32c-9.43-5-11.06-13.19.78-15.43,1.17,3.51,3.23,6.66,2.69,10.66,9.66-3.42,19.48-7.7,29.26-10.66,10.65,1.6,23.57-1.04,31.96-7.99,41.62-10.67,73.83-17.02,117.17-18.64,23.81-2.46,48.32-3.01,71.9,0,15.22.38,29.98,3.72,45.28,2.68,3.07-59.76-9.66-118.98-34.88-172.91-31.46,9.13-58.01,12.58-85-9.48-69.97-57.21-5.08-170.19,81.76-132.36,34.27,14.93,48.1,51,43.2,86.83-1.03,7.53-7.85,18.57-7.58,24.28.14,3.04,11.82,21.88,14.38,27.96,24.75,58.89,33.42,119.74,30.71,183.65Z"/>
    <path class="st29" d="M1115.74,815.98c-23.3-.59-48.67-.87-71.9,0,17.37-4.7,38.96-2.9,57.29-2.71,4.5.05,11.84-1.7,14.61,2.71Z"/>
    <path class="st9" d="M926.67,834.62c1.3,8.84-29.07,15.64-31.96,7.99,10.6-3.22,21.29-5.25,31.96-7.99Z"/>
    <circle class="st4" cx="1089.46" cy="574.65" r="32.59"/>
    <path class="st9" d="M980.7,847.11c-20.46-16.14,25.87-15.38,25.8-8.51-5.89,10.2-14.32,17.56-25.8,8.51Z"/>
  </g>
  <g>
    <path class="st9" d="M806.84,879.89c.25-.01-.36,2.92,4.1,2.73,11.52-.5,14.6-5.29,26.12,3.03,10.03,7.24,7.75,16,14.84,22.41,4.5,4.07,15.11,5.75,15.85,6.8,2.02,2.86-1.14,14.13.66,19.33.57,1.64,21.65,9.87,8.58,17.83-33.02,20.12-21.82-38.91-36.9-40.3-23.04,7.43-42.39,25.57-67.86,18.8,10.36,16.23-13.32,20.57-23.8,28.1-9.4,6.75-18.16,19.78-31.46,22.02-3.38.57-23.63-4.11-24.45-5.05-2.82-3.26,4.61-16.07-.18-21.13,22.99-18.88,41.2-32.12,66.57-47.93,10.8-2.43,20.56-8.64,29.29-18.64,5.27-2.66,13.03-7.67,18.64-7.99Z"/>
    <path class="st9" d="M788.2,887.87l-18.97,23.6-10.32-4.96c9.67-6.03,19.03-13.47,29.29-18.64Z"/>
    <path class="st9" d="M764.25,930.49l-.03,7.96c-6.92.77-14.09-.07-13.29-7.96h13.32Z"/>
  </g>
  <g>
    <path class="st29" d="M649.73,1074.28c-1.38-11.23,6.98-19.88,13.39-27.88,43.34-54.11,115.97-100.87,178.31-129.23,2.25,15.86,3.18,45.5,25.33,45.42,41.87-.16,10.58-58.33,17.59-66.46,86.8-28.98,179.84-44.32,271.18-29.42,5.33,22.96-23.34,63.12.26,78.31,36.76,23.67,40.91-49.52,45.18-70.47,386.87,80.14,577.52,526.38,383.9,869.91-178.85,317.32-606.6,387.03-879.22,144.67-14.78-13.14-18.44-21.29-26.63-37.28,166.21,117.06,391.47,127.91,569.92,30.68,118.56-64.6,196.1-167.37,233.57-296.37.91-3.12,5.59-9.42.71-11.25l1.6-11.89c65.18-98.46,54.39-228.78-16.61-320.35-4.34-6.35-5.53-13.21,1.78-17.43,23.27-8,46.17-16.83,68.71-26.51l-152.05-121.2c-19.32,12.17-37.52,25.98-54.6,41.42l-5.94-2.07c-137.92-107.49-331.43-82.85-448.7,42.56-57.24-68.55-135.76-123.9-227.68-85.17Z"/>
    <polygon class="st9" points="1017.21 1950.38 1005.14 1955.85 966.61 1950.38 1017.21 1950.38"/>
  </g>
  <g>
    <g>
      <path class="st18" d="M1326.11,1116.89c-10.51,11.44-21.11,22.91-33.2,32.72-77.92,63.24-156.27,126.09-234.71,188.69-30.34,24.22-60.84,48.21-91.56,71.95-11.4,8.81-23.85-6.03-28.19-15.82-22.41-66.91-12.28,5.61,1.84,29.41,4.15,7,11.55,15.15,20.15,11.53,14.24-9.57,23.44-9.71,27.59-.42,18.42,253.28,331.47,348.7,485.23,144.61l9.96-4.65c1.62-2.11,4.04-3.21,5.88-1.6,6.79,5.94-26.03,83.19-33.69,99.19-119.75,250.06-427.6,343.36-677.76,239.6-34.77-14.42-73.97-31.78-98.63-60.24-4.68-9.15-29.19-24.62-38.65-34.58-42.36-44.68-73.76-118.37-94.49-175.77,124.53,38.58,244.4-40.1,270.41-164.98,1.29-6.21,2.61-33.54,3.87-34.76,1.12-1.08,7.94,2.08,10.95-1.63,7.09-8.75,13.41-43.61,13.01-55.56-.34-10-3.07-31.9-10.62-38.68-.24,20.9-4.01,44.35-17.31,61.16l-246.62-219.5c-2.5-2.27-2.07-3.86-1.34-6.76,2.63-10.5,26.33-50.55,33.57-61.24,13.81-20.41,25.44-35.79,47.93-45.27,8.52-14.1,34.03-16.49,50.31-17.74,47.38-3.64,90.5,16.7,126.99,45.41,18.09,14.23,40.6,33.73,50.11,53.37,92.81-107.25,255.65-141.85,385.55-82.96,14.69,6.66,54.75,26.29,61.07,38.24,1.04,1.96,1.74,4.09,2.36,6.28Z"/>
      <path class="st1" d="M1083.76,1811.91c-38.41-35.91-75.79-78.13-127.91-94.42-84.24-26.32-153.85,23.4-211.6,78.43.89-15.07,10.72-33.82,18.6-47.97,88.59-159.03,294.87-108.94,320.91,63.96Z"/>
      <path class="st24" d="M961.28,1798.58c-25.47-10.73-49.56-18.87-77.86-15.28-14.88,1.89-26.8,9.62-39.98,13.28-3.66,1.02-5.14,4.86-4.62-1.95,31.2-32.57,57.57-52.79,99.38-22.21,3.45,2.53,26.43,22.93,23.08,26.16Z"/>
    </g>
    <g>
      <path class="st9" d="M1326.11,1116.89c9.66-7.49,53.73-46.5,61.91-44.88l156.1,123.82c.67,3.08,1.67,4.31-1.26,6.5-11.08,8.28-70.72,25.88-72.94,29.12-2.84,4.14,16,25.85,19.74,32.12,58.88,98.7,60.45,216.1-6.44,311.35-82.06,116.85-237.15,158.16-362.98,84.7-80.89-47.22-133.36-134.41-137.68-228.5-18.96,7.5-28.33,19.43-43.72-.19-18.32-23.36-20.54-59.45-14.81-87.67l19.13,48.73c5.2,7.62,9.3,19.41,20.68,13.79,122.29-94.36,240.23-194.25,362.27-288.89Z"/>
      <path class="st0" d="M1491.21,1399.16c2.12,9.5,3.13,19.89,0,29.29-45.71,213.37-361.71,258.25-455.36,58.58-4.35-14.84-17.68-62.44-9.43-74.67,3.99-5.91,91.12-33.91,104.01-42.49,4.5-.62,4.22-.5,3.45,3.44-25.37,129.22,171.25,133.87,160.23,11.21-2.79-31.06-21.14-46.06-42.56-65.23l169.78-68.85c4.36-1.25,5.91.93,8.68,3.51,34.13,31.76,57.78,99.44,61.19,145.2Z"/>
      <path class="st16" d="M1491.21,1431.11c-15.89,255.64-380.14,312.78-455.36,55.92,11.82,13.61,20.21,30.22,32.03,43.86,34.78,40.12,97.62,73.6,150.72,78.29,125.82,11.11,234.76-60.95,272.61-180.74v2.66Z"/>
      <path class="st29" d="M1491.21,1431.11c.05-.88-.04-1.78,0-2.66.39-9.12.67-20.3,0-29.29,4.34,8.13,4.63,24.5,0,31.96Z"/>
    </g>
  </g>
  <g>
    <path class="st12" d="M1283.5,2312.54c-.32-7.67,7.35-28.63,14.64-29.37,1.48-.15,21.22,2.77,23.3,3.41,14.16,4.33,35.16,16.17,49.41,22.49,7.58,3.36,20.25,2.43,24.5,11.43-10.82,2.25-34.34-2.84-34.21,12.03.15,16.95,23.6,4.71,12.9,22.61-18.3,38.89-22.44,104.41-42.07,140.34-15.85,29.01-59.8,10.74-50.91-21.63l39.83-138.67c-.65-7.4-29.54-18.2-37.39-22.65Z"/>
    <path class="st12" d="M1195.63,2272.6c7.54-.2,11.16-11.78,15.1-13.07,5.85-1.92,12.78,4.85,19.54,1.24,5.49-2.93,4.45-12.63,9.65-14.43,16.48-5.7,20.25,7.51,13.9,20.56-12.18,2.63-28.98-5.15-36.75,7.35-.61,3.84,6.54,8.16,8.53,12.36,1.84,3.91,1.64,12.07,2.09,12.52,2.76,2.68,16.69-5.83,13.22,8.1-19.43,49.04-34.65,100.11-54.75,148.96-18.91,21.74-52.67,10.43-51.27-19.1l60.75-164.48Z"/>
    <path class="st20" d="M1962.55,1452.41c-1.42-14.05,4.89-14.77,17.18-15l92.66,17.62c5.42-3.81,9.63-3.79,12.65.04,3.81,13.44,7.77,26.16,10.65,39.94,47.56,227.31-10.5,472.76-146.95,658.58-16.28,22.18-33.44,43.52-52.76,63.07-4.84-.85-6.72-4.28-5.64-10.29-49.03,7.36-102.67,8.94-151.83-.23l3.03-8.12c66.87-69.95,109.19-132.16,151.79-221.02-5.07-5.12-4.48-6.28,2.66-5.33,18.81-40.28,37.67-81.32,47.93-125.16-3.09-3.93-1.64-5.26,2.66-2.66,11.48-25.6,20.32-97.59,23.97-127.82-6.75-2.71-4.28-8.17,2.66-7.99,9.51-87.33,6.62-169.29-10.65-255.64Z"/>
    <path class="st25" d="M1741.53,2198.03c-1.49,8.58,4.35,4.57,9.32,5.2,30.98,3.95,67.23,4.24,98.64,2.9,7.8-.33,49.37-7.25,51.8-5.42,5.23,3.94-4.94,5.62-5.35,7.16-.76,2.83.67,7.5.04,8.8-3.1,6.4-14.15,20.27-19.94,24-6.34,4.08-18.53,5.29-22.01,8.63-2.72,2.61-5.76,14.04-9.1,18.85-6.01,8.66-58.25,49.5-67.5,52.34-5.43,1.66-3.31-1.54-3.88-3.98-3.77-16.29-10.15-54.63-18.69-66.57-14.12-19.75-46.25-13.57-50,8.65-4.01,23.74,17.33,69.58,20.9,94.93-23.71,17.76-51.49,18.72-79.73,11.9.46-17.75-1.65-35.27-3.03-52.88-.68-8.69-4.78-21.95-.18-28.15,14.47-8.23,26.02-23.62,40.1-29.53,19.75-17.96,39.7-37.05,58.6-56.82Z"/>
    <path class="st20" d="M1690.93,1303.29l.48-4.92c-3.87-18.4.01-26.21,12.83-8.4,5.71,6.04,17.88,33.67,21.3,42.61,2.31.89,2.31,1.77,0,2.66,17.42,46.69,34.04,110.39,39.94,159.78,9.23,7.05,10.59,28.87,2.66,37.28,3.35,26.15,2.48,53.44,0,79.89,1.26,2.48,2.41,4.98,3.2,7.6s1.46,5.07,1.34,7.53c-6.78,141.52-71.86,293.58-163.94,400.6-1.58,1.84-3.82,3.14-6.15,4.45s-4.93,2.32-7.54,3.22c-37.61,42.47-87.25,82.4-135.81,111.84-7.6-1.66-15.37-6.08-23.31-13.27-27.37-12.55-53.85-26.25-79.45-41.09-12.23-7.91-9-19.16,2.6-25.87,77.41-42.13,153.03-92.56,205.86-161.93.75-8.18,4.73-17.18,13.74-12.59,37.33-56.54,69.03-107.53,91.93-171.97,27.47-77.3,39.85-157.45,44.45-239.14l-4.23-2.34-1.27-40.13c-.12-4.43.19-8.89,0-13.31-1.91-8.73-2.8-17.6-2.66-26.63-3.19-33.75-8.26-63-15.98-95.87Z"/>
    <path class="st2" d="M1709.57,1439.1l2.69,37.27c3.26,1.63,3.2-11.44,7.95-5.3.41.53.29,9.57.12,12.07-7.32,111.18-23.59,203.96-71.89,303.72-2.75,5.68-7.09,14.98-9.54,19.58-16.18,30.5-40.19,60.3-57.6,90.28-15.27-1.03-7.66,3.29-11.59,10.9-6.18,11.96-45.77,51.66-58.29,62.88-49.32,44.18-89.86,67.02-146.81,99.58-27.21,15.56,3.79,21.5,17.88,29.7,2.68,1.56,3.6,5.03,6.95,6.88,22.07,12.2,55.96,19.9,69.83,40.77-60.23,36.52-139.65,70.8-210.3,78.58-3.32.37-11.43.83-14.27.28-4.44-.85-15.3-7.59-19.36-10.53-39.11-28.26-74.02-65.07-108.83-100.43-7.57-7.69-7.08-.78-9.4-13.17-6.5-6.37-9.42-11.74-8.75-16.11,34.31.12,73.01-2.95,101.96-10.52-3.93-4.03-2.46-5.48,2.66-2.66,26.55-3.26,60.34-11.06,85.83-19.36,10.54-3.43,54.43-20.26,60.63-25.91-2.96-2.98-1.27-4.18,2.66-2.66,24.8-7.36,49.79-22.47,71.67-36.17,168.54-105.58,273.82-282.87,293.15-480.43-.11-9.91.78-19.68,2.66-29.29.51-13.13.35-26.8,0-39.94Z"/>
    <path class="st23" d="M1903.96,1423.12c.87.46,1.65,2.02,2.66,2.66,7.69-.42,8.63,3.08,2.66,7.99,4.61,26.56,9.56,53.69,15.98,79.89,9.4,32.54,12.92,73.52,5.33,106.52l-2.66,26.63c8.79,6.74,4.68,25.89,0,34.62-11.79,152.47-86.58,326.34-183.81,443.3-20.82,25.05-44.41,47.76-68.16,70.04l-142.13-34.06c-1.73-6.21,1.66-4.48,3.4-6.04,36.36-32.56,61.87-52.27,95.12-89.78l6.97-16.16c121.71-141.71,184.44-325.78,172.62-512.42l4.15-17.32c-4.48-56.19-15.11-114.08-31.96-167.76l9.22,1.83c29.03,29.06,65.95,48.58,104.34,61.34l6.27,8.73Z"/>
    <path class="st12" d="M1765.49,1495.02c6.08-1.49,24.33-17.05,25.49-21.06,4.9-16.97-6.32-19.8-7.1-33.44-.61-10.56,2.81-26.15,6.89-36.02,2.74,2.74,5.93,4.16,6,8.7.28,17.96.15,46.32,4.06,63.78.99,4.44,6.14,8.76,6.72,14.64.88,8.96-7.15,23.82,8.53,27.37,16.31,204.52-49.43,394.38-183.74,545.9-8.38,3.36-11.25-.72-18.64-2.64,11.24,11.22-2.57,23.26-15.98,21.25,6.98-6.29,2.65-15.68,4.42-20.62,1.78-4.97,9.94-3.31,9.05-12.53-.7-7.2-10.89-10.7-16.13-14.75,102.34-115.55,166.79-268.02,173.09-423.4,2.16-26.32,3.82-54.2,0-79.89-.54-11.94-1.26-25.51-2.66-37.28Z"/>
    <path class="st3" d="M2029.12,1417.8c4.9-7.02,24.08-5.99,26.63,2.66,6.93,1.07,13.62,3.53,20.94,3.02,1.85,1.16,6.94,26.63,8.35,31.6l-11.8,5.54-93.76-17.91c-8.98.73-14.11.09-16.93,9.71-3.59-17.93-7.65-35.85-13.31-53.23,26.41,7.02,52.97,13.69,79.89,18.62Z"/>
    <path class="st12" d="M1906.63,1425.79c-.08-.45,3.37-3.36,2.6-8.78-1.32-9.26-12.34-33.64-9.41-39.12,1.97-3.68,10.03-6.59,13.61-10.53,4.14-4.56,5.24-12.34,9.78-14.36,19.87-8.86,8.86,11.98,19.34,13.55,9.22,1.38,5.92-14.74,14.68-12.65,12.79,3.9,29.32,7.57,42.61,10.65-6.83,7.01-16.02-1.13-24.01,1.06-8.6,2.36-10.64,13.26-15.06,14.67-5.93,1.89-13.32-4.96-19.68-1.3-6.14,4.47.33,24.62-3.07,30.29-.71,1.19-5.43,1.98-7.38,4.46-5.6,7.12-10.66,21.1-21.34,20.05-.53-3.03-2.28-5.83-2.66-7.99Z"/>
    <g>
      <path class="st9" d="M1999.83,1364.54c3.84-6.32,6.56-4.58,5.33,2.66,2.47,6.97,12.34,5.54,18.64,2.66,4.62-6.6,9.93-5.2,10.65,2.66,8.52,7.05,19.36,10.96,32.53,11.72l5.69,6.21c2.15-6.64,7.95-12.03,15.05-12.61,18.34-6.81,45.92-4.96,63.91,2.66l5.34,13.3c-9.35-2.18-38.13,22.49-41.24,29.36-6.1,13.44,6.68,43.11-4.12,49.22-3.15,1.78-8.48.51-10.1,1.77-2.74,2.15-1.02,17.58-5.79,20.85-9.94-8.31-15.59-27.89-10.65-39.94-2.2.93-4.13.7-5.73-.94l-5.72-24.03c-10.12-.93-16.07-4.14-17.84-9.65-3.25-2.51-3.17-6.25.24-11.22-16.23-5.49-25.19-2.63-26.87,8.56-25.4,4.03-55.05-4.55-77.84-15.83,11.83,12.42,15.58,33.95,11.27,50.45,3.6,4.97,7.03,10.25,8.51,16.28,13.13,53.74,19.61,168.68,9.19,222.45-1.18,6.09-3.71,11.69-7.04,16.92-7.12,4.73-8.01,7.39-2.66,7.99l4.84,4.31c-3.74,41.6-11.25,82.36-22.54,122.29l-6.27,1.22c-2.92.41-4.21,1.2-2.66,2.66.88,2.16,1.65,4.35,2.05,6.6,2.4,13.49-33.73,105.79-44.31,114.8-1.72,1.46-3.66,2.65-5.67,3.76-29.68-9.11-28.96-31.78-12.33-55.29,9.22,2.19,5.02-16.2,4.4-15.42-3.44,4.36-24.48,51.34-24.24,55.27.1,1.61,20.21,19.76,26.19,15.33l3.32,5.43c.33,2.45.55,4.89.41,7.32-1.1,19.51-48.52,92.45-62.81,113.3-14.12,20.59-64.74,90.55-82.48,98.29-2.19.96-4.53,1.59-6.91,2.12-.87,2.89-1.85,5.73-3.17,8.4s-2.62,5.14-4.5,7.13c-26.87,28.34-56.7,52.22-87.27,74.37,1.6,10.88.41,19.09-3.59,24.61l-4.02,10.68c-11.54.06-7.49-30.03-6.62-37.3-21.47-7.8-15.74,14.96-20.24,16.17-3.72,1-32.9-5.69-34.54-7.99-11.34-15.92,18.22-11.51,20-17.82-4.67-23.81-6.31-7.82-12.96-2.19-17.08,14.46-111.95,59.43-133.31,61.37-8.18.74-24.28-6.28-23.8,5.11.11,2.56,17.51,6.75,13.31,21.05-.82,2.81-7.5.98-9.64,4.07-1.9,2.75-.22,8.26-1.77,10.29-1.03,1.35-4.51.16-4.76.48,1.38-6.6-3.09-5.62-7.23-7.28-13.62-5.47-29.18-10.07-43.37-14.02-2.12-1.57-4.02-3.64-2.83-6.03-23.02-6.22-19.49-30.98,3.79-33.16-9.6-5.81-68.79-32.77-77.42-26.48-4.31,3.15-7.39,15.14-8.62,20.65l-5.47,2.41c-8.34-4.72-27.05-18.81-33.33-21.27-4.81-1.89-3.46,1.75-4.2,3.67-1.64,4.22-3.46,8.22-5.07,12.28-13.75-1.3-20.47-7.46-20.16-18.49-7.58-7.63-12.11-13.36-4.01-23.43l-3.91-.85c-6.67,11.3-12.4,14.02-17.18,8.15,8.93-16.13-13.2-22.32-23.88-30.83-2.71-2.16-4.13-5.41-5.41-6.45-2.72-3.53-1.87-7.28,2.56-11.26-7.21-6.95-8.76-15.48-9.12-25.15-8.68,9.72-20.47,8.97-35.36-2.25l-3.34,1.38c-4.43-4.15-10.53-7.03-13.31-13.31l4.08-4.41c6.19,2.93,19.33-20.49,10.29-23.53.27-8.52-3.27-7.02-10.59,4.53-10.68-.78-21.7-2.74-33.06-5.88-4.38-4.56-8.57-7.99-13.31-13.31.8-4.55,3.84-5.75,9.11-3.59,0-8.24,2.7-14.44,8.13-18.61-12.89-2.49-8.39-23.76-3.93-31.05,6.29-5.06,12.5-.62,18.64,13.31l5.9,2.38c26.69,27.49,57.24,57.63,87.18,84.54,34.58,31.07,42.8,37.96,87.73,26.98,60.51-14.78,116.64-35.77,170.13-68.14l11.22-.48,6.87-10.53c42.81-27.28,82.62-59.42,117.36-96.49l11.58-4.83c17.38-5.79,30.95,19.73,11.93,29.21-1.03,12.96.77,15.36,5.39,7.2-5.21-17.5,10.52-15.21,19.96-7.11l-1.69,9.85c-27.98,28.9-57.22,56.46-87.72,82.69l131.16,31.43c136.46-122.87,225.08-309.38,247.37-494.83l6.46-12.59c10.51-59.12,10.95-125.04,10.59-186.65-.02-4.06-3.21-22.13-6.79-22.22-2.82-.07.37,33.12.98,37.88-.22,4.16-3.44,4.71-7.44,3.23-14.05-22.15-20.04-53.99-15.98-79.89,6.62-10.62,14.73-19.96,24.33-28.01-1.87-22.03-2.46-39.8,25.16-30.46,8.46-16.5,17.91-14.26,33.6-10.17l7.45-.6Z"/>
      <g>
        <path class="st12" d="M1078.46,2155.43c6.87-12.74,18.42,3.89,29.46,1.51,7.45-1.61,4.73-8.71,7.66-10.92,9.35-7.05,7.97,4.21,10.63,7.53,2.06,2.58,7.68,3.94,8.19,5.91.62,2.41-17.12,20.73-10.69,30.59-4.24-4.56-12.78-3.79-15.95-5.33-15.52-7.49-20.18-19.79-29.29-29.29Z"/>
        <path class="st12" d="M1121.06,2198.03c-1.16-8,2.9-5.65,8.06-4.07,6.87,2.1,16.79,10.13,23.98,5.45,2.58-1.68,1.1-9.51,9.21-6.67,4.13,1.44,2.45,14.03,4.69,19.23,4.59,10.7,13.6,9-.67,23.34-15.81-12.67-30.25-23.2-45.27-37.28Z"/>
        <path class="st12" d="M1853.33,1971.69c3.23,3.02,1.16,28.01-.04,33.2-1.61,6.96-9.13,10.13-10.09,16.6-.73,4.9,4.5,16.39,1.99,19.24-.81.92-9.15.42-12.48,3.51-7.62,7.08-.87,22.35-24.6,15.33.18,14.5,7.99,24.7,1.23,39.84-6.83,15.28-15.31.08-25.94,3.23-.98.29-14.78,10.44-15.44,11.33-10.87,14.49,15.45,24.03,10.83,28.13l-18.61-2.65-.03,15.97c-7.68,2.44-4.93-6.58-9.57-7.82-4.23-1.12-11.72,4.04-17.03,2.49-5.7-5.68,19.08-25.03,22.52-29.31,15.47-19.25,31.64-50.17,47.96-66.78,3.8-3.87,23.2-7.37,25.36-17.11,2.04-9.21-16.24-3.51-13.28-10.58,3.22-7.71,20.97-24.47,27.12-36.8,1.43-2.88,4.11-23.41,10.1-17.82Z"/>
        <path class="st12" d="M1925.27,1513.66c0-.32,2.32-1.75,2.29-3.88-.09-5.53-9.07-50.81,8.04-41.03.81.46,7.88,14.27,7.99,16.81,1.32,32.85-1.26,72.75-2.22,106.78-.81,28.71-.63,58.55-8.07,85.17-1.4,5,3.01,9.41-5.35,3.93.85-10.99-.06-23.38,0-34.62l2.66-26.63c-.94-35.37-4.47-71.15-5.33-106.52Z"/>
        <path class="st12" d="M1943.91,1846.53c-2.53,2.71-8.85,3.98-10.8,7.18-2.07,3.4-2.09,11.09-2.53,11.49-.94.87-6.17-2.42-8.93-1.96-3.4.57-12.6,7.14-15.01,4.61-.36-.38.39-6.87-1.42-10.51-1.32-2.65-5.57-4.52-6.34-7.36-.55-2.05,9.99-34.98,11.72-40.75,1.28-4.27,4.69-7.82,6.06-12.58s.54-19.35,3.32-22.01c11.69-11.22-.22,21.32-.31,22.62-1.08,15.42,15.76,22.24,16.28,4.01,16.63,2.31,2.71,14.78,2.45,22.51-.19,5.68,3.59,16.02,8.17,20.09-.57,1.27-1.88,1.82-2.66,2.66Z"/>
        <path class="st12" d="M1520.52,2155.42c4.74-12.32-15.66-35.44,1.93-41.96,18.64-6.91,20.28,7.27,32.77,3.56,13.82-4.1,8.04-14.15,11.16-19.59.78-1.36,5.55-2.08,7.37-4.49,5.21-6.88,11.16-24.75,20.05-12.1,1.58,2.24-14.96,17.6-17.56,22.54-1.66,3.15-.12,6.84-1.37,9.19-9.07,17.09-35.41,39.3-54.36,42.85Z"/>
        <path class="st12" d="M1893.31,1977.01l-18.1-.58c-.67-8.43-16.76-14.27-16.78-19.34-.05-9.54,20.4-47.87,25.51-60.03,4.41-10.49,3.38-30.24,20.02-29.21-4.15,8.71-9.89,21.46-10.5,30.99-.33,5.16,3.16,18.73,2.45,19.49-.48.51-7.44-.27-10.83,3.84-2.09,2.54-8.22,22.93-8.03,26.89.58,12.14,15.65,9.63,18.91,22.62-.86,1.84-1.81,3.55-2.66,5.33Z"/>
        <path class="st12" d="M1680.27,2203.38c-1.81,4.84-1.64,15.18-3.97,18.64-1.02,1.51-24.38,15.06-30.36,20.24-8.33,7.22-7.75,17.18-22.88,17.3-16.11.12-9.57-6.41-13.31-16.28-3.06-8.06-10.02-11.02-2.81-18.68,12.68-13.47,18.24,10.95,31.36,7.59,8.19-2.1,40.19-30.63,41.96-28.8Z"/>
        <path class="st12" d="M1419.31,2214.04c-6.19,11.02-21.89,13.1-33.26,15.98l1.32-14.66c-14.82-4.16-12.88,10.11-8.01,19.93-5.78,5.34-17.98-.71-18.62.01s1.47,5.97-1.62,8.27c-4.96,3.69-46.37,12.6-46.28,3.73.05-5,18.87-5.09,18.73-13.28-.06-3.42-9.38-10.23-1.41-12.01,5.54-1.24,11.96,3.84,17.97,2.28,6.48-1.68,11.82-18.37,27.9-20.54,8.61-1.16,7.02,5.04,11.46,8.78,10.14,8.56,20.33.42,31.82,1.51Z"/>
        <path class="st12" d="M1424.65,2211.33c-9-8.12,50.99-20.54-.01-26.64l6.71-13.3c25.55,24.5,32.21-10.63,34.56-10.59,1.42.02,17.08,16.18,22.58,17.25-8.23,6.44-56.09,40.27-63.84,33.27Z"/>
        <path class="st12" d="M2050.42,1372.53c11.62,1.53,24.79,4.34,37.28,5.33-4.15,12.63-18.9,9.78-2.68,22.65-14.42,7.59-15.72-9.67-20.39-11.55-10.52-4.24-29.99,1.15-30.19-16.43,4.89.75,10.97-.66,15.98,0Z"/>
        <path class="st12" d="M2029.12,1417.8c-1.92-2.71-4.09-11.33-2.54-13.19,2.83-3.4,33.37-4.72,37.02,4.11l-7.85,11.75c-8.11-1.26-18.04-1.09-26.63-2.66Z"/>
        <path class="st12" d="M1256.86,2285.9c-11.24-1.09-21.95.7-18.64-13.29,12.11-.8,20.85-1.7,18.64,13.29Z"/>
        <path class="st12" d="M1405.99,2344.51c-1.01,18.43-11.78,13.36-21.27,3.95-3.6-7.11,18.75-2.95,21.27-3.95Z"/>
        <path class="st12" d="M1962.55,1598.88c-9.76,2.18-3.84-11.82-5.45-17.44l5.45-25.17v42.61Z"/>
        <path class="st12" d="M1970.54,1716.04l-10.62,5.33c-1.72-2.31,3.4-16.47,5.33-18.62,2.35-2.62,2.66,8.45,7.95,5.31-.34,3.14-2.44,6.1-2.66,7.99Z"/>
        <path class="st12" d="M1954.55,1606.88c-1.15,8.23,4.01,22.04-5.29,26.62-.32-1.69-1.76-35.87,5.29-26.62Z"/>
        <path class="st12" d="M2023.8,1369.86c-5.22,9.89-14.06,8.09-20.08.02-1.81-2.42-1.55-2.66,1.44-2.68,5.09,1.11,12.53,1.56,18.64,2.66Z"/>
        <path class="st12" d="M1280.85,2251.28c-1.05-6.3.34-15.52,9.28-13.28,9.44,2.37-6.51,16.08-9.28,13.28Z"/>
        <path class="st12" d="M1933.22,1732.02c-7.99-1.02-6.18-18.73-1.3-18.58,6.28.19,3.04,14.4,1.3,18.58Z"/>
        <path class="st12" d="M1597.7,2229.99c.51,3.55.77,18.61-3.97,18.59-6.89-.03-2.89-17.92,3.97-18.59Z"/>
        <path class="st12" d="M1722.86,2163.42c2.67,1.89,6.73,14.52-6.51,10.52-8.69-2.63,3.04-12.97,6.51-10.52Z"/>
        <path class="st12" d="M1216.93,2237.95c6.11-15.34,22.43-3.51,11.62-.34-3.57,1.05-7.87.17-11.62.34Z"/>
        <rect class="st12" x="1730.87" y="2179.39" width="10.65" height="7.99"/>
      </g>
    </g>
    <g>
      <path class="st12" d="M1059.82,2064.89c13.99-10.75,33.69-11.09,49.51-4.06,10.97,4.87,22.64,14.23,3.75,12.05-9.25-1.45-17.6-2.7-26.63-5.33-2.48,2.38-4.26,5.93-5.33,10.65v2.66c.72,1.02-.16,1.91-2.66,2.66,4.14,2.29,4.24,2.53,0,5.33.51,5.33,2.08,8.27,2.32,11.85.21,3.13-2.98,7.32-2.17,10.49,1.53,5.97,14.01.91,10.57,10.95-.55,1.59-5.8,1.64-7.51,5.78s-1.16,11.91-3.24,16.87l-13.29-2.68c-12.65-14.19-20.77-26.07-31.96-39.94-4.57-18.53,11.51-18.14,18-24.63,1.98-1.98,3.7-7.47,8.63-12.65Z"/>
      <path class="st9" d="M1113.08,2072.88c7.24.79,7.48-2.31,2.4-6.4-12.96-10.44-41.34-9.29-55.66-1.59,20.44-21.49,46.78-8.84,69.23,4.03-2.46,12.15-11.29,4.69-15.97,3.96Z"/>
      <path class="st9" d="M1086.45,2067.55c.46,4.65-.44,9.27-5.33,10.65l-2.65-13.3c4.48-1.86,6.39,2.19,7.98,2.65Z"/>
      <path class="st9" d="M1067.79,2083.56c.13,3.72,1,6.92-2.59,9.35-14.73,9.96-16.28-18.55,2.59-9.35Z"/>
    </g>
    <g>
      <path class="st9" d="M1781.47,1180.8c.82,8.32-6.15,12.86-20.9,13.62,4.91,5.73,5.43,12.51,1.57,20.32,11.08,3.33,22.45,5.79,34.03,6.27-7.69-12.73,1.08-32.55,14.59-34.88,2.24-4.92,8.45-5.1,18.64-.52-3.94-6.71-3.94-11.86,0-15.45h10.65c4.69-.29,8.1,5.45,7,9.3-.13.45-7.54-3.05,3.65-1.31,3.14,15.33,16.87,37.09,34.62,29.29l1.99,6.53-22.06,32.46-6.56.96c-14.75,14.95-27.28,13.46-32.07-7.83-10.75,20.73-21.4,56.99-.23,77.62-7.4-14.31,10.48-31.14,21.65-35.17.76-2.33,1.65-2.29,2.66,0l7.99,7.99c-1.81,6.56,2.13,12.45,11.84,17.69l-1.19,6.28-4.02,4.44c-18.22-5.96-16.99,2.75,3.68,26.11,11.32-6.72,22.09-10.69,32.3-11.91,7.58-6.52,20.2,2.44,23.97,10.65,10.14-4.66,26.74.74,31.96,10.65-2.81,21.22-22.21,25.75-26.63,2.19l-5.46,1.85c-4.64,10.24-10.46,17-20.61,22.11l10.09,37.76c.18,6.19-1.32,9.55-7.99,7.98-3.63,3.78-5.06,2.19-2.66-2.66l-7.96-7.04c-.25-19.15-6.61-32.51-19.05-40.08-58.76-25.21-100.22-65.28-74.52-133.3-1.72-2.89-56.44-11.67-63-11.04,19.93,35.13,34.82,73.05,47.65,111.31l-2.95,8.24c23.07,43.82,31.62,101.36,35.81,151.14.23,2.68-.35,5.44-1,8.25s-1.7,5.63-2.85,8.37c-16.01,10.55-16.19-15.8-13.85-27.25-3.6-14.32-7.35-16.81-15.95-4.62-8.19,9.48-15.12,12.12-20.8,7.91l-6.43-8.12c-7.09-48.13-19.44-95.55-35.47-141.46l1.95-10.2c10.09-2.94,10.09-3.82,0-2.66l-6.32-1.48-17.3-35.44,2.32-5.68c-8.34-7.37-14.56-16.81-18.68-28.34,4.85,11.98,5.75,23.21,2.7,33.67-9.23,18.4,6.95,41.75-6.66,55.87-7.06-19.48-19.92-3.29-22.6-5.28-4.81-3.57-6.87-41.55-8.63-48.65-3.02-12.24-10.83-31.81-15.37-44.55l9.32-7.94,9.31,10.61c-.91-5.77,2.97-11.91,2.6-17.21-.39-5.63-6.06-10.05-5.45-16.1s7.2-5.21,8.21-8.56c1.41-4.69-1.17-11.86,2.44-17.61,6.17-9.85,25.02,2.32,32.34-2.94,2.87-2.06,2.81-11.25,5.47-15.83,6.89-11.91,20.55-18.69,13-36.27l3.17-1.74c17,22.45,38.44,34.42,64.33,35.89l1.73,5.8Z"/>
      <g>
        <path class="st30" d="M1704.24,1289.98c-.17-.18-2.68.54-4.57-.8-1.49-1.06.88-6.71-6.07-4.51-1.53,1.77,2.89,16.29-2.68,18.63-.81-3.46-2.15-5.95-2.66-7.99-5.35-21.35-9.37-43.5-18.64-63.88,5.51-1.18,6.2,2.65,8.51,6.11,9.86,14.73,19.13,35.92,26.1,52.45Z"/>
        <path class="st29" d="M1784.13,1351.22c-11.14-35.49-30.25-83.84-48.42-115.35-1.27-2.2-6.48-10.74-4.82-12.46l76.98,13.52c.73,16.11-7.41,30.24-7.9,46.3-1.06,34.74,23.04,55.6,49.93,72.79,9.57,6.12,34.63,16.03,40.84,23.07,8.36,9.49,7.46,31.94,13.22,44.03-11.45-6.07-27.92-10.2-40.88-16.37-30.89-14.71-55.32-30.53-78.95-55.53Z"/>
        <path class="st12" d="M1848.04,1281.99c-4.5,13.82-16.99,17.87-18.22,23.17-1.16,5,4.07,13.31,2.23,19.42-14.35.61-23.34-24.97-23.7-36.18-.25-7.67,8.89-53.47,14.49-54.46,10.29-1.82,13.49,10.81,11.91,18.76l23.94-5.33c-5.48,10.84-7.38,24.59-10.65,34.62Z"/>
        <path class="st12" d="M1810.76,1186.12c-9.54,17.49-21.34,21.55-2.66,39.92-18.34,1.61-35.98-2.41-53.26-8-.65-5.24,5.25-9.33,4.81-14.19-.61-6.73-14.03-13.09-3.43-14.99,8.41-1.51,18.82-.26,25.26-8.07,9.59,2.17,19.62,3.46,29.29,5.33Z"/>
        <path class="st12" d="M1869.35,1313.94c10.44,4.01,21.24,13.64,31.96,18.64-2.62,5.88-35.67,20.06-37.25,18.64-.36-.32,0-5.83-2.57-9.35-8.72-11.89-17.92-12.25-13.42-33.25,5.7,3.47,17.1,3.7,21.29,5.31Z"/>
        <path class="st12" d="M1714.87,1252.68l-27.88-37.32-1.39-13.26c27.58-4.64,14.1,13.01,19.85,21.43,2.06,3.01,10.47,2.11,11.95,6.83,1.22,3.9-4.92,16.2-2.52,22.31Z"/>
        <path class="st12" d="M1733.52,1284.65c-.3,4.44.03,8.27,2.47,12.17,4.59,7.35,14.61,3.23,13.5,11.78-5.65-.68-19.52,2.24-22.78-2.48s-3.03-23.34,6.8-21.48Z"/>
        <path class="st12" d="M1778.79,1377.84c-9.58,1.71-3.32-12.69-7.24-20.73-1.89-3.89-18.7-11.9-2.05-19.19,3.04-1.33,13.77,34.29,9.29,39.92Z"/>
        <path class="st12" d="M1725.55,1335.25c-.29-.78.3-1.89,0-2.66,10.96-18.63,32.75,17.14,18.63,20.01-3.55-12.31-5.07-15.85-18.63-17.34Z"/>
        <path class="st12" d="M1730.9,1271.34c-.95-.8-3.42-20.39-2.68-23.96,4.39-5.19,13.96,15.98,13.17,19.77-.75,3.62-8.69,5.71-10.49,4.18Z"/>
      </g>
    </g>
    <path class="st29" d="M1768.15,1612.19c1.02-25.21,1.13-54.72,0-79.89,4.41,2.76,2.66,10.11,2.71,14.61.22,21.04,1.97,45.13-2.71,65.28Z"/>
    <path class="st29" d="M1927.93,1646.81c.05-8.35-2.21-20.5,2.66-26.63.22,8.15,2.01,20.66-2.66,26.63Z"/>
    <g>
      <path class="st8" d="M1989.18,1084.93c44.38-44.87,94.8-90.02,146.75-126.2,7.49-5.22,28.66-22.55,36.84-18.97,2.97,1.3,49.63,35.88,52.13,38.6,1.87,2.03,4.15,3.33,3.9,6.63l-91.22,184.43c-49.66,21.43-100.7,39.65-151.07,59.3-6.46,2-11.29,2.8-11.29-5.15,6.4-41.38,9.22-83,8.47-124.83l5.49-13.82Z"/>
      <path class="st8" d="M2199.55,1375.19c-10.03,1.93-19.53.9-28.49-3.07-49.3-43.42-104.63-80.94-162.83-109.02-12.65-4.81-19.89-11.83-21.71-21.05,51.02-20.02,101.87-40.71,153.13-60.14l174.49,72.2-22.73,102.43c-6.96,7.29-78.51,18.71-91.86,18.65Z"/>
      <path class="st8" d="M1829.4,1170.14c1.66,6.71,6.95,13.24,5.31,21.29-1.63,1.7-20.08-4.57-23.95-5.31-8.67,6.45-23.71,4.07-29.29-5.33-10.41-2.36-28.53-3.92-36.61-7.33-6.46-2.73-26.95-25.87-32.63-32.61-25.31-30.06-45.3-65.57-63.5-100.35l37.15-48.56,3.27.08,119.11,88.76c8.89,29.31,13.81,59.72,21.14,89.37Z"/>
      <path class="st8" d="M1840.05,1170.14c-5.05-24.9-16.26-61.43-18.41-84.21-.53-5.65-.91-11.03,1.86-16.25l53.88-109.91c11.7,8.76,42.44,17.14,51.42,26.43,4.24,4.38,13.62,72.9,11.27,80.23s-38.46,41.9-46.68,51.87c-15.76,19.12-28.84,39.67-42.69,59.84-7.89,11.49-8.33,3.48-10.65-7.99Z"/>
      <path class="st15" d="M2199.55,1375.19l-47.93,5.33c-21.35.75-42.7-.99-63.91-2.66-8.61,7.53-30.95,4.01-37.28-5.33.23-31.89-19.81-47.74-48.2-59.3l-73.38-35.27-8.9-9.29c22.2-8.61,44.36-17.92,66.57-26.63,19.65,16.89,45.75,26.12,68.36,39.48,44.92,26.54,87.34,57.28,126.06,92.29,5.65,2.56,12.58,1.35,18.61,1.37Z"/>
      <path class="st6" d="M1989.18,1084.93c-.68,19.87.95,40.01-.03,59.89-1.17,23.9-6.26,48.11-8.07,71.88-.33,4.4-2.65,13.97,5.43,12.03-45.25,17.66-90.25,36.35-135.81,53.26h-2.66c-7.24-7.69.23-30.6,10.65-34.62,6.16-12.18,18.67-28.09,26.63-39.94.67-1,2-1.71,2.66-2.66,12.22,2.63,25.43,6.86,39.62,12.69,5.36-21.55,7.38-44.23,8.43-66.52l5.2-12.74c15.54-17.95,30.71-35.84,47.93-53.26Z"/>
      <path class="st33" d="M1919.94,1268.67c20.14,7.69,39.83,17.2,59.01,26.96,11.74,5.97,52.26,25.36,60.69,33.08,9.83,9,12.75,29.92,20.1,41.16l-9.33,2.65c-3.46,7.33-12.16,7.76-15.98,0-2.11-.32-6.59-1.93-10.65-2.66-5.3,4.48-16,3.77-18.64-2.66-.93-.2-2.96-2.11-5.33-2.66-1.92.81-3.89,1-5.95.81-6.07-.58-30.42-3.07-32.8-4.78-2.2-1.58-3.22-4.14-3.86-6.67-10.38-3.17-21.8-6.79-31.96-10.65-7.18-8.08-12.22-18.28-15.12-30.61-7.98-12.55-11.81-24.54-11.51-35.97,7.05-2.69,14.3-5.27,21.3-7.99Z"/>
      <path class="st5" d="M1941.25,1138.19c1.18,28.59-4.11,56.91-8.11,85.09-2.98,2.52-31.13-9.76-37.25-11.9-4.25-1.49-9.45.56-7.9-6.61,18.44-26.72,32.32-42.4,53.26-66.57Z"/>
      <path class="st19" d="M1898.64,1276.66c10.95,20.59,22.2,43.42,26.63,66.57-7.27-2.76-16.69-7.26-23.97-10.65-8.93,4.89-30.42-9.5-31.96-18.64-3.93-4.54-16.7-12.58-18.61-17.35-1.77-4.4,5.02-5.47,7.96-6.61,12.87-4.98,27-8.37,39.94-13.31Z"/>
      <g>
        <path class="st12" d="M1637.67,1156.83c1.23,2.3,1.79,7.46,4.45,8.08,8.72,2.02,21.24-.55,30.15-1.41-66.11-84.23-117.36-187.89-109.13-298.23,8.62-115.62,107.79-200.55,224.21-163.03,126.81,40.87,181.47,201.79,196.53,321.43,84.99-76.23,187.13-162.63,298.84-195.09,233.56-67.87,370.22,142.16,281.26,350.5-56.89,133.22-187.1,216.6-327.14,240.02,86.86,91.95,151.61,204.67,172.3,330.99,3.92,23.94,8.33,55.22,8.73,79.14.3,18.2-3.89,34.63-1.37,51.98l283.66,138.36-344.2,66.58c-44.93,82.13-110.9,152.13-189.88,202.39l-.13,5.44,104.15,175.65c15.94,29.9-21.99,58.55-45.15,31.85l-109.28-183.59c-17.33,12.16-37.57,21.31-57.26,29.29l86.61,170.3c10.39,35.86-33.69,55.44-50.45,21.18l-86.87-170.18c-7.66,2.69-55.01,15.85-55.42,19.86l67.78,150.46c5.28,27.83-26.73,43.17-46.9,24.66l-74.26-161.39-4.24-1.94-94.57,13.6c-5,4.76,30.87,99.81,21.96,121.81-8.92,22.03-39.64,19.99-49.95-1.95-7.57-16.11-25.8-113.38-30.84-116.98-29.97,5.18-59.93-2.87-90.3-.24l7.85,137c-9.12,31.48-49.46,30.49-55.13-3.15l-8.61-141.84-115.66-21.02c-7.16,1.85-16.72,74.53-22.21,86.9-12.4,27.93-52.49,17.76-53.7-11.48-.23-5.52,18.32-82.89,21.12-86.34,1.62-2.78,2.38-7.31,2.28-13.58,13.86-6.45,10.13-9.26-.43-16.05-12.07-18.53,9.43-19.94,23.44-16.64,45.93-12.38,90.86-34.93,131.18-60.1,20.42-27.95,35.23,16.83-.9,18.01-1.23,1.61,34.3,17.28,31.63-1.4,18.96-16.71,27.31-7.98,25.06,26.2l6.1-.35c10.29,12.05,8.85,34.81,6.75,50.3,15.68,1.05,59.36,3.01,70.26-11.55l-16.71-58.78c-6.11-26.56-10.26-44.68,17.89-58.31,39.46-19.1,53.93,53.68,56.98,78.59,27.48-15.95,59.85-37.24,73.18-68.1,17.46-5.54,29.11-11.01,38.25-27.55l6.38-.47,2.19-6.65c163.08-189.49,241.72-448.5,195.55-697.56l1.98-17.44c-2.56-18.43,2.03-27.62,13.76-27.57l.99-2.57c-3.95-33.11-2.92-52.48,28.78-69.99,6.65-2.36,10.78-7.15,12.4-14.38,2.42-9.97,22.5-8.54,31.18-4.78l16.76-.54,3-5.45c12.55-1.49,78.35-9.94,83.55-16.09,3.22-3.82,23.78-93.06,20.56-96.88-56.17-22.73-111.68-46.02-166.52-69.88-50.05,22.52-101.25,40.9-153.62,55.15-18.34,15.8-42.34,25.74-66.57,26.63-4.94,8.99-11.57,11.46-21.3,7.99-6.41,11.25-27.89,17.45-39.94,13.31-7.68,1.38-11.89-.08-7.99-7.99,41.1-24.34,88.96-43.99,135.81-53.26l8.81-7.23c47.02-19.49,93.22-38.38,138.59-56.66l89.18-180.23c.63-3.2-48.53-38.45-51.82-39.54-5.12-1.7-17.28,7.09-21.9,10.48-53.56,39.34-96.43,77.99-145.67,122.4-1.9,1.71-4.23,2.95-6.65,4.12s-5.16,2.08-7.86,2.87c-9.18,20.75-27.82,42.94-47.93,53.26-5.55,14.68-14.55,28.04-26.99,40.09-7.24,12.72-16,21.55-26.27,26.48-.4,1.66-.78,2.78-2.66,2.66-15.03,18.71-44.21-13.42-34.62-29.29l1.49-11.65c24.8-36.35,52.28-70.01,82.44-100.97,2.65-7.52-6.26-71.04-11.06-76.92-2.11-2.59-42.37-21.76-44.39-20.39-6.09,4.1-46.96,97.75-52.57,112.82,4.07,27.95,9.94,55.63,17.6,83.02l-4.15,6.1c-.31,8.21-7.24,6.59-10.65,0-3.46-2.67-6.09-5.97-7.84-9.96l-17.73-76.87-115.32-85.13c-2.7-.05-32.28,39.98-33.22,42.51-2.03,5.43,43.31,74.83,54.04,88.15l2.9,12.02c9.49,11.99,6.72,24.92-8.33,38.79-1.52,17.88-13.92,23.93-37.2,18.17-.54,11.75-4.12,19.92-10.73,24.52,8.99,13.48,6.31,47.03-12.19,29.88-2.68,3.23-5.09,3.05-8.78.48-1.39.42-2.69.65-3.7.21-3.53-1.54-28.7-67.55-28.57-71.4.24-7.18,3.06-10.15,9.12-13.32.64-14.96,15.57-18.36,25.82-11.36Z"/>
        <g>
          <path class="st32" d="M1986.53,2192.69c-1.04-4.32.85-6.16,2.58-9.38,14.03-26.03,37.33-53.64,52.87-80.27,110.04-188.54,147.77-420.86,98.98-634.63,1.43-1.06,18.36,2.38,21.89,3.38,17.05,4.79,25.81,11.11,39.58,19.01,5.57,3.2,16.86,5.92,20.99,10.97,2.75,3.36,8.85,28.9,10.08,35.19,34.46,177.41,3.54,387.06-76.05,548.41-8.42,17.06-28.68,55.56-40.4,68.78-4.11,4.63-9.88,8.47-15.42,11.2l-115.1,27.34Z"/>
          <path class="st14" d="M2346.01,1982.34l-5.36.19c-17.23,27.14-101.36,122.46-132.69,125.77-1.8.19-2.96-3.39-3.09-6.12,79.47-164.4,107.53-354.1,82.58-535.25,22.03,30.58,38.22,69.52,50.62,105.13,36.26,104.14,38.87,204.29,7.94,310.28Z"/>
          <path class="st22" d="M2346.01,1982.34c-32.27,110.61-111.74,203.22-206.41,266.27-2.19-5.26-11.08-15.09-11.01-19.97.06-4,37.94-57.17,43.81-67.06,11.22-18.92,22.93-39.67,32.47-59.4,2.57,4.4,17.31-6.58,19.3-8.08,16.92-12.75,39.84-31.93,55.3-46.48,24.56-23.11,42.58-48.98,62.55-75.92l3.98,10.64Z"/>
          <path class="st17" d="M2572.36,2003.61c-13.73-1.31-30.51,1.98-43.78-.13-7.03-1.12-11.94-6.57-18.96-7.67-22.61-3.53-64.2-5.12-87.45-5.27-6.61-.04-21.4,9.52-25.23-2.03-3.2-9.67,13.96-50.98,13.01-64.76l153.62,71.36,8.79,8.5Z"/>
          <path class="st11" d="M1589.72,2360.46c-12.97-3.86-26.95-3.82-40.06-6.51-4.01-.82-14.71-2.21-15.82-6.77,9.48.61,49.01-26.76,51.92-26.6,6.92.38,3.03,33.08,3.96,39.87Z"/>
          <g>
            <path class="st13" d="M2154.29,1162.14l140.01-282.03c7.04-10.51,28.1-13.5,40.44-15.48,101.65-16.25,187.17,41.05,207.45,141.9l-3.31,3.51-384.6,152.1Z"/>
            <path class="st7" d="M2543.04,1021.02c11.43,84.02-24.59,170.93-81.75,231.14-44.89-2.4-89.62-5.38-134.62-5.42l-169.72-68.64,386.1-157.09Z"/>
            <path class="st13" d="M1802.76,1060.95l-191.74-140.36c-10.62-62.11,11.18-144.47,73.85-170.6,6.24-2.6,34.79-11.11,39.51-10.37,2.53.39,3.48,3.14,4.47,5.11l73.91,316.22Z"/>
            <path class="st13" d="M1818.72,1058.3l-79.85-319.53c50.67,5.7,93.64,37.68,123.59,77.44,5.96,7.92,25.77,36.9,27.05,44.86s-13.71,75.7-17.37,86.86c-12.1,36.93-43.64,72.16-53.42,110.37Z"/>
            <path class="st26" d="M2449.86,1263.37c-38.57,42.79-90.25,70.66-143.77,90.51l21.1-94.71,122.67,4.2Z"/>
            <path class="st27" d="M2282.1,879.91l-45.3,93.17c-8.25-8.26-52.98-34.26-55.87-41.31-1.83-4.46,1.92-3.65,3.32-4.66,10.32-7.42,92.8-51.32,97.84-47.2Z"/>
            <path class="st8" d="M1645.61,1026.33c-5.12,4.31-9.21-11-10.66-14.57-9.31-22.96-15.47-49.15-21.23-73.27l66.52,46.58c-11.15,11.17-21.04,23.28-31.98,34.68-1.97,2.06-2.33,6.31-2.65,6.57Z"/>
            <path class="st28" d="M1901.27,882.54l26.63,90.54-42.73-23.09c-1.26-5.15,8.69-54.46,10.84-63.46.96-4.04-1.86-4.67,5.25-3.99Z"/>
          </g>
        </g>
      </g>
    </g>
  </g>
</svg>