<?xml version="1.0" encoding="UTF-8"?>
<svg id="Layer_1" xmlns="http://www.w3.org/2000/svg" version="1.1" viewBox="0 0 2984.88 3030.84">
  <!-- Generator: Adobe Illustrator 29.6.1, SVG Export Plug-In . SVG Version: 2.1.1 Build 9)  -->
  <defs>
    <style>
      .st0 {
        fill: #6d6d6d;
      }

      .st1 {
        fill: #0e0d0e;
      }

      .st2 {
        fill: #3c3c3c;
      }

      .st3 {
        fill: #444;
      }

      .st4 {
        fill: #3c3c3a;
      }

      .st5 {
        fill: #474747;
      }

      .st6 {
        fill: #464545;
      }

      .st7 {
        fill: #8f8f8d;
      }

      .st8 {
        fill: #939393;
      }

      .st9 {
        fill: #09070a;
      }

      .st10 {
        fill: #ddd;
      }

      .st11 {
        fill: #0f0e0f;
      }

      .st12 {
        fill: #959594;
      }

      .st13 {
        fill: #c5c5c4;
      }

      .st14 {
        fill: #d0d0d0;
      }

      .st15 {
        fill: #8e8e8e;
      }

      .st16 {
        fill: #fefefb;
      }

      .st17 {
        fill: #171616;
      }

      .st18 {
        fill: #909090;
      }

      .st19 {
        fill: #fefefd;
      }

      .st20 {
        fill: #161615;
      }

      .st21 {
        fill: #111011;
      }

      .st22 {
        fill: #3f3f3e;
      }

      .st23 {
        fill: #494848;
      }

      .st24 {
        fill: #5f5f5f;
      }

      .st25 {
        fill: #5d5d5c;
      }

      .st26 {
        fill: #8d8d8d;
      }

      .st27 {
        fill: #a5a5a5;
      }

      .st28 {
        fill: #6d6d6c;
      }

      .st29 {
        fill: #5c5c5c;
      }

      .st30 {
        fill: #cbcbca;
      }

      .st31 {
        fill: #3f3e3e;
      }

      .st32 {
        fill: #848482;
      }

      .st33 {
        fill: #5d5d5d;
      }

      .st34 {
        fill: #c9c9c9;
      }

      .st35 {
        fill: #0c0b0c;
      }

      .st36 {
        fill: #989897;
      }

      .st37 {
        fill: #b1b1af;
      }

      .st38 {
        fill: #4d4d4b;
      }

      .st39 {
        fill: #cacac9;
      }

      .st40 {
        fill: #141414;
      }

      .st41 {
        fill: #b0b0ae;
      }

      .st42 {
        fill: #181717;
      }

      .st43 {
        fill: #898989;
      }

      .st44 {
        fill: #fffffe;
      }

      .st45 {
        fill: #6d6c6b;
      }

      .st46 {
        fill: #fff;
      }

      .st47 {
        fill: #363535;
      }

      .st48 {
        fill: #c0abaa;
      }

      .st49 {
        fill: #cacaca;
      }

      .st50 {
        fill: #838281;
      }

      .st51 {
        fill: #fffffd;
      }

      .st52 {
        fill: #dda19e;
      }

      .st53 {
        fill: #848484;
      }

      .st54 {
        fill: #8e8e8d;
      }

      .st55 {
        fill: #c5c5c5;
      }

      .st56 {
        fill: #414141;
      }

      .st57 {
        fill: #fefefc;
      }

      .st58 {
        fill: #90908f;
      }

      .st59 {
        fill: #545453;
      }

      .st60 {
        fill: #979695;
      }

      .st61 {
        fill: #c2b1b4;
      }

      .st62 {
        fill: #6b6b6b;
      }

      .st63 {
        fill: #6e6e6d;
      }

      .st64 {
        fill: #131213;
      }

      .st65 {
        fill: #d0d0ce;
      }

      .st66 {
        fill: #838383;
      }

      .st67 {
        fill: #969594;
      }

      .st68 {
        fill: #949494;
      }

      .st69 {
        fill: #1f1f1d;
      }

      .st70 {
        fill: #c3c3c2;
      }

      .st71 {
        fill: #989896;
      }

      .st72 {
        fill: #6e6e6e;
      }

      .st73 {
        fill: #c6c6c5;
      }

      .st74 {
        fill: #8d8d8c;
      }

      .st75 {
        fill: #848483;
      }

      .st76 {
        fill: #0d0b0d;
      }

      .st77 {
        fill: #c9c9c8;
      }

      .st78 {
        fill: #dea5a3;
      }

      .st79 {
        fill: #929291;
      }

      .st80 {
        fill: #919190;
      }

      .st81 {
        fill: #c8c8c8;
      }

      .st82 {
        fill: #999;
      }

      .st83 {
        fill: #434342;
      }
    </style>
  </defs>
  <path class="st76" d="M2304.51,903.1c12.68,13,48.7,50.18,51.41,66.76,4.17,25.59-44.5,10.51-56.55,9.2l-13.06.81c21.92,21.98,42.53,47.82,57.98,74.9,9.26,16.24,28.42,54.98,27.15,73.02-2.1,29.77-45.94-2.74-62.41-.15-1.23,1.1,11.17,18.66,12.54,21.54,4.51,9.5,8.06,19.21,6.62,29.96-.35,2.63-3.56,4.9-3.25,6.82.55,3.37,25.9,22.99,30.47,27.3,197.95,186.89,323.45,436.21,181.21,700.56-25.56,47.49-65.99,102.82-106.93,137.84-6.71,5.74-27.59,18.28-31,22.31-2.44,2.88-8.07,18.86-11.33,24.53-4.27,7.43-22.36,27.61-23.36,30.84-3.41,11.04-2.6,44.17-4.29,58.65-11.59,98.86-36.75,205.8-87.74,291.65-2.79,4.7-18.26,25.29-18.7,26.93-.95,3.58,13.8,17.82,16.95,22.7,13.27,20.54,19,42.51-11.25,47.53-95.63,15.89-209.16,18.07-305.54,7-16.35-1.88-57.05-6.69-70.2-13.72-11.9-6.36-20.76-32.99-29.78-45.4-71.73-98.78-264.44-45.07-368.86-55.99-33.41.52-72.32-8.02-104.83-7.23-18.66.45-45.62,31.66-54.23,47.34-16.52,30.12-6.9,47.25-46.28,56.87-17.8,4.35-40.31,7.6-58.6,9.58-94.33,10.24-188.22,4.74-281.44-3.51-30.81-2.73-31.91-23.32-18.68-46.59,12.42-21.86,37.72-37.74,59.7-48.66-36.22-28.2-70.32-60.63-92.93-101.1-26.88-48.12-39.08-104.24-40-159.35-.13-7.67,3.38-17.72,1.47-24.17-1.47-4.95-15.73-22.85-19.59-29.36-40.59-68.56-68.07-144.22-77.96-223.63-2.58-2.95-35.86,29.56-41.12,31.45-1.48,6.82,1.15,12.73.92,20.08-.65,20.36-14.14,64.96-31.59,76.84-25.7,17.51-33.39-27.81-38.36-44.46l-13.77,5.43-3.89,77.42c-2.21,12.54-5.36,20.61-19.8,18.44-22.67-3.41-48.1-57.04-49.96-78.55l-3.46,13.12c-2.27,13.35,3.01,63.07-14.97,65.59-19.54,2.74-48.99-43.38-51.51-61.22-3.97,2.27-4.08,11.6-8.19,14.06-14.79,8.87-32.16-12.98-38.65-24.04-15.88-27.03-20.85-62.87-17.61-93.85.99-9.46,8.76-24.96,8.44-31.54-.2-4.16-3.72-12.56-4.61-18.18-30.1-191.06,61.43-378.58,188.22-515.25,15.58-16.8,37.17-33.47,51.5-49.92,1.07-1.23,1.96-2.64,2.3-4.26-37.38-48.58-68.04-103.19-86.99-161.69-2.3-1.78-28.75,42.99-40.1,4.27-7.83-26.71-3.78-71.64,4.66-98.31,3.56-11.25,9.74-22.74,14.48-33.58-14-1.02-44.47,18.76-47.23-4.35-6.72-56.15,84.05-144.58,116.1-188.18,24.82-33.75,45.2-70.75,70.98-103.86,2.15-5.06-9.08-.12-6.96-5.2,2.82-6.76,18.61-12.37,23.86-17.24,9.28-8.63,21.97-28.79,31.18-39.63,5.42-6.38,27.73-27.27,29.83-31.49,1.91-3.83-10.2-17.37-12.86-22.15-54.05-96.91-3.29-215.11,97.6-253.14,82.26-31.02,144.95,10.3,181.12,83.16,28.99-9.86,57.39-21.53,86.75-30.33,194.88-58.4,407.62-40.73,601.87,10.97l4.45-2.58c57.58-90.78,144.32-143.3,249.38-86.89,120.07,64.46,169.86,230.37,67.04,333.36,18.98,15.51,39.23,29.49,58.49,44.63,64.88,50.99,138.54,106.68,195.72,165.31Z"/>
  <g>
    <g>
      <path class="st74" d="M2324.76,1239.52l2.17,3.26c-2.12,3.97-12.94,27.6-10.75,29.74,135.15,117.39,246.65,280.84,237.61,465.27-10.09,71.7-39.5,144.88-80.42,204.56l-3.63-1.22-3.1-33.23c-14.41,5.56-28.89,11.74-43.45,18.53l-2.36-1.35c-.57-18.11-3.7-35.31-9.37-51.59-14.66,6.97-28.68,15.45-42.05,25.45-4.44,2.32-7.74-.36-8.83-4.85-3.85-16.73-9.72-32.13-17.61-46.22-14.15,8.22-27.27,18.63-39.36,31.23-3.35,2.22-6.15,1.73-8.49-1.53-7.87-15.06-17.18-28.94-27.94-41.63-4.37-1.06-28.12,29.44-30.12,35.67-2.91,3.67-6.88,2.86-10.06-.22-8.59-11.47-18.44-19.82-29.56-25.06-8.79,11.14-16.23,23.72-22.33,37.73l-4.22-1.14-3.35-4.85c-9.45-68.12-46.74-130.95-92.71-181.61-28.14-26.5-54.4-54.68-78.77-84.54-1.34-2.26-16.49-29.32-17.47-27.97,2.86,26.54,10.6,54.76,22.71,78.68-1.29.42-2.59.77-3.91.88s-2.45.17-3.42-.25c-19.46-8.43-36.35-21.9-52.08-35.82,7.51,24.77,17.69,45.48,37.61,62.22,1.8,3.38-.92,5.8-4.65,6.23l-24.05-.31c41.62,23.48,65.87,57.2,84.47,100.57,40.99,95.6,63.22,263.07-6.68,349.38-55.41,68.42-157.68,107.74-238.31,136.02l-2.28-3.5-1.15-4.73c51.87-205.66-29.5-461.61-208.15-582.22l-5.75-7.48c-1.53-.5-1.5-1.08,0-1.75,4.46-2.95,9.07-5.8,14.18-7.46,55.67-18.11,106.22-34.59,159.41-60.13,113.05-54.27,211.93-128.96,299.82-216.55,71.41-67.91,163.98-114.58,262.38-125.69-2.31-17.36-7.36-35.37-14.14-52.37l2.18-4.62c9.62,8.03,18.69,16.09,27.97,24.48Z"/>
      <path class="st0" d="M2001.32,1662.62c3.45,6.81,9.85,15.09,13.98,21.86.27,1.32-1.69,1.12-2.58.84-7.71-2.47-25.77-12.66-33.55-17.16-9.14-5.28-17.43-11.59-25.94-17.77-1.19-.37-1.21,1.45-.84,2.58,1.19,3.66,14.19,20.69,17.51,24.46,16.89,19.15,39.43,30.54,63.71,37.69,31.02,45.16,62.66,86.93,80.85,139.45,3.25,9.38,15.5,48.1,14.53,55.36-.41,3.07-14,16.35-17.22,21.38-16.35,25.54-29.75,74.52-13.85,102.4,17.92,31.42,40.78-12.37,54.63-24.84,10.55,6.55,3.08,14.31,1.4,24.06-4.24,24.54-21.31,134.15,31.77,89.47,9.46-7.97,22.56-24.61,29.62-35.07,5.12-7.58,8.26-17.91,14.99-24.33-4.97,32.03-33.66,133.32,32.32,80.39,12.54-10.06,27.33-28.74,36.6-42.07,3.78-5.43,5.72-14.61,12.37-17.35-1.41,20.14-14.13,39.6-11.23,60.22,2.56,18.19,22.5,8.91,22.64,12.38-13,102.28-30.79,215.06-86.03,303.85-2.51,4.03-13.26,22.1-17.22,21.46-3.3-.53-18.21-8.99-23.97-11.07-80.57-29.1-119.77-17.95-198,3.06l-14.24,6.88c-30.87,7.61-61.32,16.75-91.37,27.4l-4.54-1.06c-24.07-35.4-57.78-55.47-96.15-72.57,13.04.15,26.27.74,39.37-.86,2.59-.32,5.39-1.41,2.59-3.5l-160.86-5.25c-.57-1.45-.79-3.25.36-4.13,44.08-33.58,68.87-54.56,96.34-109.07,4.14-12.23,9.79-22.87,16.94-31.92-2.32-2.46-1.34-3.36,1.75-1.75,2.86.14,5.68-.21,8.38-1.19,75.69-27.52,184.29-72.85,233.62-138.83,70.06-93.7,39.31-295.88-23.78-388.53-16.37-24.04-39.93-40.22-64.36-55.42,1.94-5.98,7.56-1.81,11.38-1.73,6.16.14,13.18.45,19.24.01,1.9-.14,5.82.97,4.33-2.6-1.12-2.68-11.66-11.06-14.69-15.04-12.39-16.26-22.67-39.47-27.23-59.29,19.31,19.76,40.62,36.66,66.42,47.21Z"/>
      <path class="st26" d="M1085.18,1666.11c1.53.5,1.5,1.08,0,1.75l-.6,3.95c-132.63,79.86-162.12,261.69-135.25,405.85,10.63,57.03,29.04,97.59,53.29,149.19,1.6,3.41,1.91,7.26,2.13,10.98-3.34,3.78-15.45-1.83-19.96-4.28-58.11-31.62-112.15-74.95-144.39-132.09-72.1-152.56-68.03-323.58-59.43-488.65l10.47-109.29,7.21,2.12c89.03,61.5,180.01,116.57,281.12,155.78l5.39,4.7Z"/>
      <path class="st28" d="M2296.79,1215.04c6.06,19.34,15.81,38.22,13.8,59.27-72.54,10.17-140.21,35.37-200.67,76.44-51.58,35.04-93.62,82.93-141,123-115.25,97.47-249.38,169.72-395.95,208.11l-10.04-1.61c-64.2-34.64-136.4-54.5-209.42-56.04l-9.57-3.54,1.61-3.71c52.09-4.62,104.87-15.2,157.85-26.14,5.58,1.91,6.04,1.37,1.39-1.62,87.87-15.03,194.75-55.4,272.17-99.36,83.74-47.55,151.56-112.92,220.87-178.63,1.46,4.62.83,10.29-1.88,17.02,9.03-9.12,17.03-18.8,24.02-29.58,13.02-23.8,26.78-48.27,44.3-66.11,2.19-1.48,4.24-6.33,8.74-5.23l-3.5,12.2,13.99-5.23c-8.21,8.2-29.01,33.77-31.9,44.16-.67,2.41-3.18,3.38,1.28,3.04,58.58-48.02,126.79-92.24,204.51-97.9,14.49,8.78,26.53,20.72,39.41,31.47Z"/>
      <path class="st15" d="M688.31,1410.85l3.56-1.48c32.87,30.04,65.75,60.08,98.64,90.14l-.8,4.01c-27.71,74.41-43.99,153.07-48.95,232.53l-4.08,14.39c-18.28,32.5-36.54,64.96-54.77,97.37l-4.09.14-3.72-.24c-.97-3.01-5.72-16.83-7.49-17.25-5.68-1.37-33.78,18.46-39.62,23.15-3.07,1.3-5.87-.1-7.27-3.1-4.36-14-10.53-26.58-18.5-37.74-13.47,11.06-26.7,22.54-39.69,34.45l-2.58-.93c-7.6-13.2-15.57-26.09-23.92-38.67-4.72-1.35-23.13,29.67-26.14,35.24-2.79,4.45-7.28,4.37-10.79.57-5.88-9.78-12.3-19.12-19.26-28.01-2.35-.65-14.26,20.22-15.52,23.33l-4.05.45c-1.59-36.39,9.37-75.06,20.25-110.06,26.36-84.82,71.19-166.21,126.78-235.46,20.29-25.27,43.6-53.64,67.54-75.23,3.7-3.34,8.18-5.6,12.72-7.6.5-1.53,1.08-1.5,1.75,0Z"/>
      <path class="st62" d="M1004.76,2237.82c2.39-2.41,3.33-1.39,1.75,1.75,6.46,5.78,22.03,33.15,29.76,42.8,29.29,36.59,75.12,76.48,115.36,100.57-7.04-.09-13.66-2.91-20.14-5.21-8.66-3.08-20.45-9.99-28.11-12.13-3.2-.89-3.38,2.25-2.44,3.32.87.98,19.5,11.41,22.68,13.18,60.25,33.63,129.53,56.26,197.59,67.28.73,2.66-.7,2.91-1.72,4.38-8.09,11.77-17.92,19.42-26.25,34.07l-5.22,3.31c-38.13,3.38-73.87-3.85-110.5-13.04l-3.17-4.25c-39.63-8.28-62.57-17.09-105.75-13.96-9.73.7-27.69,6.56-35.89,4.45-4.97-1.28-18.78-11.12-23.96-14.58-71.34-47.53-117.08-127.74-121.11-213.68,25.84,25.55,58.69,57.5,91.7,73.5,1.65.8,4.87,3.31,6.18.81-56.37-63.05-108.8-132.13-145.1-208.94,8.86,4.28,13.24,17.55,19.23,25.36,29.92,38.99,79.46,77.6,122.33,101.46,6.86,3.82,17.19,6.51,22.79,9.55Z"/>
      <path class="st38" d="M2170.91,1882.91c4.71-.22,15.2-37.08,25.74-39.95,12.28-3.35,32.38,31.03,37.17,27.71,2.63-7.87,26.72-39.58,33.87-38.18,7.67,1.5,26.1,37.52,31.74,45.21,9.12-5.09,35.22-36.25,45.15-33.06,8.26,2.66,18.54,51.71,21.31,52.28,7.02-3.43,41.21-29.52,46.37-27.14,8.63,3.98,11.41,43.85,10.42,53.35,2.39,2.47,38.8-22.29,47.12-19.15l3.58,38.39c-21.89,31.91-48.16,60.7-76.05,87.38-22.85-28.43-56.89-7.45-74.29,15.77,3.69-32.94-18.92-71.79-55.43-49.29-10.73,6.62-14.82,16.14-21.09,26.06-.85,1.35-1.37,5-3.92,2.24-.45-.49,1.97-9.44,1.88-13.13-.55-22.36-12.12-49.12-38.34-46.89-13.84,1.18-17.53,7.97-28.22,14.57l-17.5-103.15c4.5-4.27,9.72,1.85,10.49,6.99Z"/>
      <path class="st23" d="M459.28,1839.2c1.85-4.59,14.9-28.67,19.86-27.84,2.16.36,9.49,10.71,11.28,13.31,2.28,3.3,10.28,20.79,14.28,18.02,1.23-.85,11.86-20.46,15.81-25.29,3.3-4.03,10.05-13.7,14.74-13.25,8.56.82,19.13,34.06,26.32,40.3l28.81-28.86c3.12-2.2,7.23-6.6,11.34-6.23,8.89.79,20.35,42.1,22.77,42.06,6.31-6.04,36.56-26.48,43.41-24.27,3.48,1.12,8.74,16.61,9.91,20.8l4.37,3.14,3.97,20.83c13.77-6.51,26.91-8.71,39.41-6.6,4.22,17.55-.7,37.2-9.29,52.57-.65.41-.21,2.7-3.48,1.74-1.73-1.33-3.97-27.18-13.99-26.21,1.36,14.27-1.59,27.44-7.91,40.17-7.84,15.79-8.9,6.5-23.68,9.55-13.27,2.74-26.28,16.21-30.9,28.53-1.63,4.35-1.91,14.84-4.85,16.13-4.48,1.98-3.47-.29-4.51-2.48-7.64-16.07-11.79-34.43-33.98-36.02-23.53-1.69-30.32,16.02-40.17,33.24-13.31-30.99-47.53-50.83-67.16-12.94-.69,1.34-.53,5.43-3.62,2.48-1.03-.98-10.56-22.46-11.85-25.76-12.84-32.87-16.56-77.98-16.18-113.25.03-2.95-1.12-7.77,1.78-9.59,2.58,4.1,3.16,9.27,1.76,15.51l1.74.22Z"/>
      <path class="st45" d="M943.57,1533.24c25.79,12.51,59.88,24.98,87.42,33.22,68.64,30.68,144.85,47.01,218.6,52.25l1.7,3.7-9.3,3.88c-50.98,2.54-101.39,14.87-146.81,38.45l-9.98,1.38c-41.74-16.92-84.04-34.02-124.21-55-59.45-31.05-114.51-69.91-169.52-107.6h-1.75l-101.4-92.66c-4.67-7.17,13.75-24.49,20.98-22.73,57.13,59.14,142.62,114.63,219.86,142.92,3.6,1.32,11.31,5.6,14.42,2.19Z"/>
      <path class="st2" d="M1997.82,2473.85l-15.73,12.22c58.68-16.46,126.69-18.64,185.32-.85,4.02,1.22,26.2,8.32,26.2,10.48-5.28,4.12-7.14,10.04-6.97,16.61-11.52-4.51-18.81-13.16-31.42-16.64-28.92-7.96-40.55,15.78-35.01,41.1l-27.43-24.13c-37.14-23.76-64.03-4.8-54.74,38.11-44.9-3.22-89.91-6.46-134.2-14.39-5.7-9.69-9.78-19.94-16.15-29.3,23.06-6.77,45.12-16.88,68.19-23.59,13.7-3.98,28.19-5.93,41.95-9.62Z"/>
      <path class="st37" d="M2553.79,1737.79c-2.9-1.82-1.75-6.64-1.78-9.59-1.36-130.11-46.02-231.97-124.15-333.91-33.76-44.05-73.55-82.56-114.46-119.85-3.25-7.01,7.84-27.5,11.35-34.93,137.36,124.11,256.29,304.51,229.03,498.28Z"/>
      <path class="st41" d="M686.56,1410.85c-30.94,29.98-60.16,62.08-86.36,96.34-74.11,96.9-125.95,209.89-140.92,332-1.21,3,0,10.87-3.48,12.23.22-9.28-.37-18.69-.02-27.96,6.27-166.83,98.91-320.13,215.05-433.59,5.65-2.14,18.39,15.59,15.74,20.98Z"/>
      <path class="st31" d="M1293.24,2487.84c-2.68,4.72-5.89,10.52-8.24,15.37-2.58,5.34-5.12,16.91-7.64,20.33-2.27,3.09-18.86,6.51-23.94,7.53-11.44,2.31-96.5,12.78-100.06,9.23,5.22-55.23-41.37-49.35-72.53-22.72-4-41.51-36.67-30.82-62.84-15.69-3.49-4.85-4.05-6.61,1.64-8.8,26.09-10.04,74.76-14.73,103.07-15.81,17.49-.67,37.19-.74,54.25,1.84l-2.6-5.27c20.3,4.24,49.72,11.91,69.27,13.77,16.02,1.53,33.44-.68,49.62.21Z"/>
      <path class="st72" d="M716.28,1917.87c-3.14-1.2-.26-5.44.46-7.4,5.39-14.85,8.06-27.23,6.55-43.31-14.48-2.43-26.51,7.55-40.15,8.69-2.3-9.05-2.81-18.96-5.31-27.91l62.94-111.89c-2.62,41.99-2.2,84.69.02,126.74.36,6.8,4.87,29.37,1.87,33.35-9.45,5.72-17.25,15.92-26.36,21.74Z"/>
      <path class="st63" d="M2170.91,1882.91l-10.49-6.99c-20.09-109.57-111.28-174.88-164.34-264l81.32,82.15c42.39,46.13,76.41,103.02,90.58,164.68,1.83,7.96,3.64,15.9,2.93,24.17Z"/>
      <path class="st68" d="M2244.34,2124.17c6.75-26.15,11.05-87.21,32.32-104.91,6.21-5.17,14.6-8.56,18.78.5,12.23,26.52-19.05,74-37.07,93.11-1.82,1.93-12.11,13.21-14.03,11.31Z"/>
      <path class="st8" d="M2172.67,2099.7c-.68-26.46,5-96.2,30.82-109.91,8.78-4.66,14.98,4.96,16.25,12.98,4.65,29.43-27.89,75.69-47.07,96.92Z"/>
      <path class="st82" d="M523.95,2085.72c-11.58-14.93-19.28-34.98-22.24-53.8-1.76-11.21-4.29-55.99,10.99-58.16,9.2-1.31,20.39,20.27,21.42,27.54.71,5.04-5.46,24.01-6.44,31.31-2.37,17.52-2.06,35.52-3.73,53.11Z"/>
      <path class="st71" d="M599.13,2087.46c-6.7-5.54-12.07-17.49-15.3-25.76-8.59-21.95-14.53-52.42-5.98-75.09,3.35-8.88,10.87-18.85,19.32-8.17,15.02,18.97,5.45,38.18,3.75,59.21-1.34,16.5-1.9,33.25-1.78,49.81Z"/>
      <path class="st12" d="M2326.53,2125.93c9.14-20.3,9.12-62.66,25.38-76.88,8.75-7.65,26.94-16.65,26.59,2.08-.48,25.78-29.36,63-51.97,74.8Z"/>
      <path class="st79" d="M999.53,2550.77c-2.67-2.64,18.21-23.05,20.95-25.37,6.48-5.48,31.86-24.14,39.41-16.63,5.29,5.27,2.89,26.92-3.72,31.33-10.14,6.77-43.75,5.93-56.63,10.66Z"/>
      <path class="st80" d="M2191.88,2556.01c-10.34-4.3-43.36-5.05-50.67-9.63-5.71-3.58-9.43-34.59,2.4-34.05,13.94.64,44.49,29.16,48.27,43.68Z"/>
      <path class="st60" d="M672.55,2038.5l-15.82-51.62c.81-7.87,17.38-26.98,24.42-17.25,10.52,14.53-2.08,53.21-8.6,68.87Z"/>
      <path class="st54" d="M1076.44,2554.26c4.89-11.98,43.19-43.2,54.2-37.65,5.9,2.97,8.1,24.65,1.7,28.01l-55.9,9.64Z"/>
      <path class="st7" d="M2109.71,2561.26c-11.38-4.87-42.76-5.29-51.4-10.65-3.92-2.43-4.45-6.96-4.67-11.16-2.56-49.14,60.41,17.77,56.06,21.81Z"/>
      <path class="st36" d="M2116.71,1986.93c1.86-14.78,11.49-31.14,17.51-44.57l12.08,37.4-14.75,13.27-14.84,19.25c.72-8.06-.99-17.5,0-25.35Z"/>
      <path class="st67" d="M443.54,1963.33l24.36,33.98-8.6,44.68c-2.51-7.51-6.36-14.21-8.79-21.81-1.5-4.7-6.96-22.82-6.96-26.25v-30.6Z"/>
      <path class="st58" d="M2251.33,2549.01c-9.59-3.61-35.01-3.86-41.91-9.65-6.11-5.12-8.94-21.48-5.28-28.8,20.05,5.6,36.28,21.14,47.19,38.45Z"/>
      <path class="st18" d="M943.58,2543.77c-1.91-1.74,13.63-16.78,15.68-18.4,3.51-2.78,8.87-6,12.86-8.12s27.54-13.67,29.14-5.8c.36,1.76-20.49,23.57-23.13,27.54l-34.55,4.77Z"/>
      <path class="st66" d="M709.29,1388.13c-7.15,6.57-17.13,13.69-20.98,22.73h-1.75l-15.74-20.98c6.87-6.71,12.63-14.9,20.35-20.85,2.22-.39,13.36,11.41,15.62,13.81,1.83,1.94,2.14,4.92,2.5,5.29Z"/>
      <g>
        <path class="st34" d="M1786.27,2279.78c-15.01,43.81-41.72,87.4-76.9,118.04-7.61,6.62-28.51,23.23-36.74,27.07-9.24,4.32-51.99,1.34-65.64,1.68-140.28,3.46-281.46,1.88-418.34-32.59-11.09-2.79-27.61-5.41-37.03-11.05-32.71-12.7-61.25-39.23-86.33-63.54-24.56-23.8-41.59-48.05-59.49-75.51l.71-4.32,3.32-2.29c153.08,76.95,340.55,99.09,514.46,87.36,87.22-5.88,161.25-22.71,245.68-43.73,5.32-1.33,10.86-1.27,16.31-1.12Z"/>
        <path class="st46" d="M1572.97,1683.6c43.29,24.86,80.39,60.61,110.84,99.84,86.01,110.83,137.32,283.77,119.72,423.57-3.04,24.19-9.26,47.59-15.51,71.03l-1.75,1.75c-58.74,17.49-118.58,31.65-179.45,39.96-180.86,24.71-394.72,11.01-563.04-62.38l-37.27-17.8c-.74-.66-1.64-1.69-1.75-1.75-35.29-61.63-58.22-130.78-64.68-201.94-11.07-121.94,10.75-258.08,107.56-341.75,5.48-4.73,32.48-25.42,37.54-26.27,1.97-1.79,5.87-2.93,8.54-2.96,74.83,23.93,159.63,38.06,241.7,40.37,78.55,2.22,144.63-7.99,221.27-21.53,5.37-.95,10.86-.64,16.27-.15Z"/>
        <path class="st34" d="M1343.94,1620.66c78.48-.58,161.32,22.35,229.03,61.19v1.75c-150.17,35.76-294.89,33.62-444.11-4.34-10.53-2.68-34.47-12.95-43.68-11.39v-1.75c51.38-28.48,107.51-41.98,166.09-43.71,30.03-6.35,62.42-6.99,92.66-1.75Z"/>
      </g>
    </g>
    <g>
      <path class="st29" d="M1809,414.3c27.14-17.66,59.88-23.22,92.43-21.17,5.5,1.46,7.07,3.91,1.99,7.18l-3.38,5.95c-44.93,27.61-69.87,77.46-78.89,128.17l-5.15,10.99.56,5.11c-8.98,12.82-16.05,27.51-17.59,43.24l65.17-9.53c3.37,1.61,5.72,2.78,4.05,6.5-3.84,2.72-25.16,34.04-22.35,35.35,19.34.92,38.89,2.35,57.36,8.62l3.72,5.12-1.07,4.11c-9.4,4.97-19.24,7.72-29.54,9.74,19.86,12.64,40.54,23.08,62.04,31.3l1.79,3.8,3.4-1.13c9.45,4.59,20.85,7.21,31.54,8.18l1.78,3.44-12.24,5.26c-.04,1.87,1.68,2.4,3.08,3.02,11.92,5.28,31.37,1.87,44.05,1.32,55.89,46.57,114.86,89.41,169.67,137.26-40.37-12.63-117.29-10.23-159.73-5-213.07,26.29-305.62,158.11-470.52,265.54-61.3,39.94-125.56,75.48-191.04,108.12-6.66.97-13.24-12.58-17.32-17.04-41.53-45.38-93.33-74.41-149.18-98.98,13.62-15.8,21.14-35.47,31.44-53.33l4.1-1.85,35.26,19.08c-5.05-5.18-11.33-9.09-17.57-12.76l-.82-4.47c-4.12-2.33-3.95-4.28.35-6.19,21.18.82,42.31,1.53,63.39,2.14,20.52,20.14,44.21,34.51,71.05,43.13l3.34,4.63,5.62-2.1c52.22,12.84,118.95,6.99,158.97-32.11,9.84-9.61,25.63-28.55,4.42-12.68-8.65,5.58-13.12,5.47-13.4-.32l1.54-6.07c29.63-28.35,41.28-70.52,36.02-110.64l2.65-5.67-.99-10.45c39.24-30.33,85.78-57.29,131.35-77.17,1.66-.72,3.49-1.04,5.37-1.3s3.9-.29,5.88-.24l3.05-2.82,14.82,4.08c-11.48-24.61-31.62-41.91-54.4-56.49-3.38-3.86-2.35-8.03,2.65-9.48l49.72-1.53c-47.89-36.25-110.33-52.69-170.09-43.16-6.68-.05-5.07-3.62-1.7-9.15,14.18-13.44,29.36-25.63,45.55-36.56-85.71,5.21-159.39,53.99-220.04,112.13-37.11,38.52-77.26,72.98-120.44,103.36l-5.44.82c-.17-2.44-.26-4.88-.1-7.3s.36-4.75,1.06-6.93c28.5-89.46,74.11-175.6,131.52-249.77l-.31-4.85c-8.26-18.88-.5-25.5,23.26-19.86l14.11-19.33c-13.71-25.2-6.71-30.87,20.16-26.83,30.47-32.84,63.32-61.36,103.36-86.28,1.25-.78,2.79-1.14,4.38-1.47s3.32-.45,5.02-.49l8.4-2.36c47.22,5.98,94.23,13.08,141.03,21.3l.92,2.04c-5.36,19.59-9.5,38.1-8.74,58.59.08,2.11-1.31,6.51,1.73,6.09,11.67-29.33,29.64-56.61,48.22-82.04,14.35-19.65,31.82-41.4,49.71-57.81Z"/>
      <path class="st46" d="M1581.71,456.26c6.88,5.48-7.24,12.51-13.99,12.24-26.29,17.1-51.82,33.88-75.2,55.05-6.56,5.93-32.55,35.05-36.74,36.79-3.56,1.48-20.2-4.12-23.7.71-4.01,5.55,6.85,18.95,6.01,23.28-.25,1.3-14.37,20.72-15.5,21.41-5.22,3.19-17.65-2.89-24.47-.87-1.88,8.16,5.1,17.21,2.62,24.37-61.15,77.89-105.52,168.1-135.49,262.37l1.91,3.32c-39.18,31.99-24.06-11.65-15.2-33.31-26.43,19.29-49.13,46.5-58.03,78.7l-3.86,1.99c-4.08,8.75-24.19,5.96-32.79,3.27-32.25-10.08-31.18-38.47-24.91-66.21-.47-12.18,2.57-24.56,9.14-37.13l-11.37,18.09-4.76,1.55c-13.32,21.81-24.51,46.73-26.96,72.07-10.37,11.46-19.64,2.15-24.8-9.34-8.31-18.5-6.41-41.93-.68-60.99-4.49,1.01.78-7.04.6-6.64l-11.35,25.33-4.99,2.29c-5.67,13.49-9.7,27.44-12.11,41.85-1.68,8.64-3.62,10.47-11.49,12.97-11.2,3.56-11.85,1.17-13.12-9.37-2.3-29.99-17.29-57.34-29.74-83.91l-5.23,52.43c-2.22,2.6-9.18-7.28-10.48-8.73-.85-2.64-1.63-5.29-2.15-8s-1.03-5.35-.92-7.97c3.08-77.12,13.9-153.84,30.08-229.28,20.24-7.18,21.73-12.72,4.48-16.64-3.52-4.66,3.11-39.08,12.35-40.09l18.69-5.53c-4.34-4.22-9.1-8.11-14.29-11.65-.77-3.05,7.48-27.49,12.97-28.76l-1.81-4.36c5.28-11.18,11.71-21.39,19.29-30.61,163.93-73.07,352.47-79.92,528-50.7Z"/>
      <path class="st77" d="M2319.52,1087.41c.51.91,4.26,4.64,3.5,5.23-27.47-4.14-54.84-2.47-80.42,8.78-.72,2.63.7,2.9,1.72,4.37,2.29,3.33,41.29,40.64,36.73,44.55-55.09-2.99-108.8,17.68-153.36,48.58-13.35,9.26-32.9,24.06-44.2,35.35-11.79,10.18-17.05,9.94-15.76-.72l-3.47-1.03-.3,2.3c-23.44,22.22-46.34,46.25-61.6,75l-4.54,1.37-6.96,10.76c-74.25,73.9-152.3,141.21-245.93,188.92-69.48,35.41-153.61,66.26-230.35,80.1-1.52.27-3.14,0-4.82-.3s-3.35-.87-4.98-1.49c-79.67,19.47-166.59,20.85-248.69,16.66-74.93-3.83-155.29-12.15-225.11-39.39-1.16.57-2.33,1.08-3.56,1.36-6.82,1.58-78.19-25.43-82.16-31.18-.71-1.03-1.24-2.2-1.71-3.4-130.85-63.48-254.66-199.34-316.2-329.81-7.55-16.01-19.21-53.61-29.17-65.24-5.06-5.9-12.83-6.86-20.13-4.54-3.27,1.04-4.85,4.98-8.63,4.45-1.6-3.39,1.55-7.16,1.74-8.73,5.1-12.78,18.8-21.21,30.93-26.85l4.04,2.37c5.67,2.25,5.43,22.6,0,25.35l3.59.67c25.03,54.69,59.84,108.08,102.44,153.48,45.7,48.7,99.47,85.34,154.47,121.21l4.55,2.09c13.3,32.25,29.68,64.36,53.86,89.88,24.88,26.27,28.73,5.17,30.58-18.96,2.45-3.29,4.6-4.88,8.37-2.17,70.49,50.91,162.23,45.31,243.98,33.13-33.82-.68-67.57-3.99-100.66-7.66-37.24-4.14-84.04-12.02-115.75-32.65-8.34-5.42-22.96-15.06-21.77-25.2,4.19-.08,8.48-.06,12.5,1.26,43.68,14.33,81.78,26.37,127.42,34.63,59.59,10.78,120.15,15.16,180.49,19.28,4.17.74,8.1,2.17,11.78,4.27h4.21c7.75,11.89,16.62,4.61,23.26-4.05l4,.55c7.69,2.89,18.94,2.18,27.17,1.82,115.89-5.07,242.63-29.42,350.94-70.42,30.2-11.43,59.82-24.94,85.2-45.05,4.62,12.51-7.68,30.99-16.32,40.83-22.38,25.5-58.37,32.64-90.59,35.37,56.52,7.75,120.88-13.77,122.49-79.92l3.65-5.02c103.09-45.46,172.55-137.43,261.68-202.58,1.34-.98,12.02-4.34,3.21-5.46-7.85-1-15.83-.64-23.61-3.53-.64-.85,4.05-5.04,5.35-5.99,24.01-17.4,85.24-50.95,113.17-58.16,6.19-1.6,25.23-3.2,28.36-4.86s.28-2.87-.91-4.4c-2.5-3.22-28.27-21.86-25.34-24.47,38.02-2.46,74.83-1.87,111.91,7.83l29.69,11.39Z"/>
      <path class="st46" d="M672.57,856.63c7.74-8.31,9.61,14.98,6.99,20.98,2.4,3.5,4.87,7.14,5.96,11.3,24.23,92.43,49.57,178.34,107.98,255.71,1.22,2.95,1.69,6.03,1.45,9.23l-.53,7.02c-52.48,77.7-18.15,183.42,67.86,217.27,2.62,3.09,8.88,24.68,4.35,27.48-.43,3.05-5.23-.76-6.4-1.47-83-49.87-149.92-104.3-204.84-185.04-8.34-12.26-49.26-78.94-49.26-88.86v-25.35c-13.4,3.69-24.33,15.57-34.97,24.48,4.55-38.74,16.78-66.55,36.72-99.66l-1.09-4.86,12-19.93c-19.11,1.97-37.9,4.99-56.37,9.06-2.85.07-8.34,3.39-6.97-.84,5.32-16.44,34.39-52.71,46.28-67.38,25.13-31.01,47.44-55.88,70.84-89.14Z"/>
      <path class="st33" d="M1036.23,541.93c-3.83,8.65-5.56,19.52-10.49,27.94,3.96.22,16.51,9.71,15.74,13.11-1.22,5.37-23.31,6.45-25.97,10.79-1.15,1.87-7.74,29.29-7.4,30.98.65,3.27,36.51,6.76-3.41,21.56-15.76,80.2-28.2,161.61-29.67,243.55-53.23-59.26-62.39-178.03-139.87-215.05,56.24-52.86,116.88-97.62,187.15-132.12,3.53-1.73,11.78-4.96,13.91-.76Z"/>
      <path class="st25" d="M740.76,793.69l6.33,3.29c16.85,25.31,33.75,51.17,42.56,80.57l-1.69,7.06c-21.24,37.97-22.78,93.34,1.75,129.38,4.07,10.84-8.4,4.69-13.04-.58,27.36,65.69,90.2,58.15,145.47,35.21,4.24-.88,7.93-1.44,7.44,3.83l-3.04,5.1c-47.55,22.37-92.73,53.41-125.95,94.5l-5.64,1.8c-11.53-19.87-25.52-38.36-37.02-58.27-39.07-67.68-62.71-141.58-78.37-217.97l1.06-7.71c16.96-24.89,34.08-49.66,51.37-74.3l5.27-1.91c1.16.03,2.35-.09,3.5,0Z"/>
      <path class="st19" d="M1952.36,388.07c105.81,45.25,151.61,178.76,76.93,272.74-2.9,1.11-5.05.65-5.08-2.39,20.27-61.95,9.86-141.75-56.11-170.7l-6.27,1.86c-53.59-14.31-106.33,12.03-139.74,53.78l-6.09,2.06c6.89-56.78,35.74-117.14,87.42-145.11,1.75-7.6,16.65-12.35,24.28-13.9,9.01-1.83,15.77-.97,24.67,1.66Z"/>
      <path class="st81" d="M1235.54,1006.99c9.07,4.15.33,29.68-8.74,29.72l-3.29,2.4c-9.72-6.34-19.12-8.31-28.18-5.9-61.32-21.61-118.05-25.09-182.46-15.5-17.09,2.54-36.67,5.35-51.81,13.75-3.04-3.11,6.34-28.77,7.65-29.65,1.42-.95,2.8-1.78,4.59-1.82,25.73-3.26,45.7,3.95,68.75-12.55,3.75-2.68,6.72-6.07,9.91-9.33.34-4.55-.68-1.85-3.01-1.25-13.41,3.44-24.18,7.92-38.93,5.64,2.95-8.83,8.64-16.14,10.03-25.8,1.07-7.47,1.04-19.04.46-26.64,2.22,1.46.99,6.77,2.71,7.1,2.63.51,14.15-1.55,15.67-3.58,2.64-3.52,6.42-25.2,8.76-31.46s6.81-11.88,9.58-17.52l2.59,3.5c-7.62,29.67-12.33,78.04,21.67,92.39-28.86-30.71-29.09-76.38-12.68-113.53.85-1.92,1.69-3.23,4.16-3.34-2.1,16.42-2.88,32.75.79,49.04,1.8,7.99,6.06,23.31,15.82,22.8,8.91-.47,5.11-6.5,6.57-12.82,4.89-21.17,14.52-44.69,29.27-60.77l1.34,5.23c-35.59,69.88-7.74,155.56,83.49,126.39l24.42,9.67.9,3.83Z"/>
      <path class="st57" d="M891.12,416.04c6.46-.99,10.67-.6,16.38,2.27,5.35,2.69,19.45,12.61,16.84,18.71l5.55,1.21c11.35,10.9,25.15,52.63,28.08,68.89l-2.17,5.07c-3.09,1.83-13.44,12.17-16.63,11.91-16.18-20.33-42.93-37.97-69.97-36.45-7.53.42-13.21,3.12-20.04,5.31-38,17.82-56.2,74.21-50.34,113.71.29,4.88.03,9.1-5.6,8.67-30.36-62.59-10.97-132.62,43.86-173.81,12.08-9.08,39.16-24.78,54.05-25.5Z"/>
      <path class="st50" d="M1036.23,541.93l-12.61,4c-69.97,30.39-123.04,77.76-180.52,125.45-2.59,2.15-3.97,4.08-7.93,3.43-2.33-1.11-4.22-2.25-6.99-1.73,2.62,3.75,3.55,8.15,5.24,12.22l-.62,4.31c-7.74,5.97-14.47,13.03-20.21,21.18l-5.39.74c-1.14-.13-2.35.1-3.5,0-6.78-.88-13.65-1.32-20.62-1.31l-.36-2.18c22.04-19.64,42.57-45.14,64.66-65.59,60.3-55.82,131.22-101.99,206.33-135.47-3.19,12.39-12.53,23.79-17.48,34.97Z"/>
      <path class="st44" d="M798.45,930.06l2.82-3.66c18.48,9.4,36.63,19.54,54.44,30.42,3.11-2.98,7.66-5.95,10.92-2.29,4.79,3.43,24.39,14.02,26.21,18.38,1.21,2.89-1.12,2.37-2.2,3-8.14,4.78-18.3,5.43-27.51,6.61,4.85,22.4,25.34,39.44,48.95,34.95,2.73-.33,3.89.25,3.5,1.75-72.07,39.61-129.05-12.22-117.14-89.17Z"/>
      <path class="st4" d="M817.69,538.43l19.35-19.99c27.76-20.53,59.82-5.49,80.28,17.37-30.21,23.64-63.27,46.38-91.33,72.54-1.54,1.43-1.6,3.87-3.05,5.26-6.45-4.58-10.45-19.78-11.73-28.27-1.35-8.89-2.89-37.16,2.1-43.75,1.14-1.51,2.58-2.57,4.39-3.15Z"/>
      <path class="st30" d="M2029.29,660.81c-11.84,14.9-31.9,36.83-52.45,38.46-8.49.67-25.22-4.53-33.7-7.45-2.04-.7-2.82-2.96-3.02-3.04l2.84-5.68c43.01-24.86,75.59-68.87,70.37-120.24l1.98-3.45c-8.69-25.95-19.38-52.47-44.83-66.42l-2.38-5.27c67.11,20.48,79.66,105.21,61.15,165.19-.71,2.3-3.32,6.35.05,7.9Z"/>
      <path class="st78" d="M866.64,954.54c-1.59,1.4-5.26,2.27-7.47,3.54-1.63.94-.87,5.2-5.18,3.16-15.33-9.01-30.94-20.37-46.53-28.81-3.09-1.67-5.15-3.12-9-2.36,3.88-25.09,14.94-44.52,34.09-61.16,14.38,22.97,27.19,47.4,45.91,67.25.08,1.09-10.89,17.56-11.82,18.38Z"/>
      <path class="st24" d="M973.29,438.77c14.77,13.95,23.4,28.68,33.02,46.37-15.98,10.36-34.19,17.41-50.51,27.06-7.43-25.11-13.56-54.9-31.47-75.18-6.44-8.4,10.1-9.13,16.72-8.83,10.18.47,23.48,5.44,32.23,10.58Z"/>
      <path class="st56" d="M973.29,999.99c-4.41,9.64-7.28,22.31-12.24,31.47-3.33,6.15-9.03,12.46-13.99,17.48-3.75,1.19-8.37,3.13-13.88,5.82l-3.6-2.32c-3.56-2.59-13.33,1.61-17.11,2.99-50.68,18.52-99.59,25.38-132.22-27.63-1.51-2.45-9.96-18.81-9.78-19.91.41-2.58,2.08-2.48,4.39-.93,1.17.79,15.68,15.95,14.85,7.01,38.26,56.23,122.05,50.73,164.39,2.67,3.11-3.53,9.91-15.84,10.73-16.38,1.69-1.1,6.03.03,8.46-.28Z"/>
      <path class="st3" d="M787.96,884.6c-8.45-33.66-28.4-62.29-47.21-90.91,23.91,1.96,44.72,15.82,60.34,33.2,2.46,2.73,15.06,18.96,15.79,21.09.51,1.51.94,1.61.04,3.37-2.02,3.97-14.41,13.5-18.44,18.44-2.81,3.44-8.48,11.16-10.53,14.82Z"/>
      <path class="st73" d="M849.16,492.97c-18.8,11.5-26.21,24.95-31.47,45.46-5.58,21.76-6.47,33.86-.91,55.98,1.63,6.51,6.18,12.15,6.16,19.2-6.65,6.4-13.9,12.3-20.11,19.2-5.33-4.78-6.83-11.71-9.61-17.45,4.83-6.11.08-15.41.17-21.67.43-27.55,11.39-63.2,29.6-84.06,10.42-11.93,11.68-12.01,26.17-16.66Z"/>
      <path class="st75" d="M1952.36,388.07c-18.63-1.91-33.08,3.65-48.95,12.24.97-5.3-2.68-3.36-6.04-3.5-16.77-.66-33.8-.68-49.9,4.38l-38.47,13.1c43.87-40.24,87.94-49.93,143.36-26.23Z"/>
      <path class="st53" d="M737.26,793.69l-57.7,83.92c-1.41-6.88-4.52-13.59-3.51-20.99h-3.49c13.63-19.36,26.06-39.57,40.06-58.71,5.35-4.26,17.93-4.4,24.62-4.22Z"/>
      <path class="st32" d="M1581.71,456.26c19.31,3.21,38.87,6.93,58.03,11.03,26.8,5.74,53.21,14.1,80.09,18.7.87,2.66-1.69,3.29-1.74,3.49l-150.36-20.98c4.24-2.76,13.58-8.41,13.99-12.24Z"/>
      <path class="st43" d="M973.29,438.77l-32.33-7.11c-3.47.85-17.07-1.02-16.63,5.36-6.66-7.54-23.09-21.47-33.22-20.98,32.15-9.52,58.91.75,82.17,22.73Z"/>
      <path class="st59" d="M833.42,685.29c5.61,13.53,11.94,27.22,13.98,41.95-7.8-3.23-14.69-8.46-22.76-11.32-4.41-1.56-12.94-3.91-17.45-4.41,8.44-8.77,15.01-20.79,26.23-26.23Z"/>
      <path class="st65" d="M562.43,1013.98c1.73-3.21,4.96-2.75,7.84-3.53,18.02-4.84,36.13-10.46,55.09-8.7l-17.47,27.96c-6.56-13.89-31.73-16.08-45.46-15.74Z"/>
      <path class="st61" d="M915.59,1019.22l-3.5-1.75c11.62-2.21,19.2-12.81,24.09-22.23,2.5-4.81,8.43-2.15,5.64,2.12-5.18,7.91-17.97,17.32-26.23,21.85Z"/>
      <path class="st59" d="M803.7,711.52c-7.92-.66-16.47.5-24.48-.02-.08-2.12,2.45-2.55,3.5-3.48,5.25,4.73,15.73-1.24,20.98,3.5Z"/>
      <path class="st21" d="M1815.99,1377.64c-.7,69.58-56.4,93.45-118,89.15-7.71-.54-21.72-1.47-27.12-6.96,54.7-1.14,112.5-12.57,125.88-73.45,5.97-27.16,6.05-49.68.02-76.92,2.73,1.4,4.9,7.62,6.08,10.51,6.04,14.86,13.3,41.84,13.14,57.67Z"/>
      <path class="st40" d="M1226.8,1036.71c6.68-3.08,17.32,1.58,19.23,8.74,6.69,3.67,14.65,8.7,20.15,13.94,1.96,1.86,10.35,9.23,3.42,8.84-5.81-.32-35.5-18.49-44.55-22.79-9.76-4.63-19.51-8.64-29.72-12.24-.89-3.65,1.97-4.47,4.8-4.86,8.28-1.14,18.65,5.09,26.67,8.36Z"/>
      <path class="st22" d="M1906.91,639.83c7.02-7.63-13.15-16.91-20.05-19.7-4.4-1.78-9.03-3.01-13.79-3.18-3.23-1.16-3.42-3.58-3.12-6.83,8.82-10.08,16.15-20.54,21.99-31.36-6.86-2.85-11.48-6.39-13.87-10.61-.37,1.37-.95,3.38-2.04,3.5-4.34.45-37.68.74-40,0l-2.55-3.5-.54-5.21c45.9-63.41,153.38-99.67,182.37-3.53.05.44,1.66,1.93,1.82,4.23,3.8,56.37-30.28,98.89-77,125.14-1.61-.61-4.95,0-8.21-1.36-21.36-8.88-40.38-22.97-61.72-31.88-3.97-5.2,16.76-7.55,18.84-8.23,6.27-2.05,12.5-5.74,17.87-7.48Z"/>
      <path class="st11" d="M1968.1,487.73c28.17,14.32,43.4,40.92,47.21,71.68l-2.17,1.32c-4.6-27.47-34.52-53.93-61.83-57.08-42.92-4.95-94.23,30.78-117.83,64.5h44.58c2.2,0,18.52,7.06,18.11,11.06-.65,6.44-20.45,27.18-24.23,34.37,11.97-1.21,38.68,12.01,41.93,23.66,1.28,4.57-4.84,1.9-6.97,2.59-20.89-8.4-44.09-9.39-66.43-10.5,5.03-16.05,15.24-29.56,26.22-41.93l-71.69,10.48c.7-18.4,9.8-37.94,20.98-52.46,36.62-47.51,92.63-75.84,152.11-57.7Z"/>
      <path class="st6" d="M1721.58,830.4c-48.65,23.39-97.28,47.66-140.47,80.27l-1.15,8.9c-2.56-14.51-11.75-34.93-20.23-47.09-4.37-6.26-12.96-13.1-16.5-18.48-1.16-1.76-2.83-1.35,0-3.5,54.28-27.25,111.95-36.12,171.79-23.13,2.58.56,4.64,2.56,6.54,3.02Z"/>
      <path class="st83" d="M1539.75,1041.95c1.67,3.13,8.8-1.24,10.85-2.27,2.82-1.42,19.7-12.71,20.61-11.71.97,3.61-1.22,4.77-2.55,7.05-35.05,60.36-122.64,71.84-184.52,54.13-12.28-6.5-.69-15.15,8.74-15.74,50.98,9.63,106.43,2.95,146.86-31.47Z"/>
      <path class="st83" d="M1235.54,1006.99c10.17,2.25,18.19,4.2,28.92,3.55,9.08-.55,16.36-4.64,25.07-5.08,20.85,39.46,60.85,59.94,103.36,67.97-3.84,7.21-15.22,4.49-8.74,15.74-23.7-6.78-39.25-14.17-58.53-29.76-17.79-14.38-8.91-16.51-36.82-15.77-14.17.38-23.43,1.45-38.22-.13-3.28-.35-5.13-3.97-4.55,1.95-6.18-3.39-12.72-6.08-19.23-8.74,5.26-6.54,11.45-21.49,8.74-29.72Z"/>
      <path class="st39" d="M1132.39,879.36c2.14,10.74-1.56,22.93.11,33.98,4.15,27.54,33.68,35.55,57.59,28.96-1.76,13.98,1.14,27.07,5.25,40.2-57.24,6.35-78.88-29.36-69.42-82.52,1.31-7.38,4.37-13.68,6.48-20.62Z"/>
      <path class="st20" d="M1072.95,863.62c-13.69,32.55-17.61,71.36,1.45,102.57l16.02,19.8c-45.87-4.3-43.76-68.14-33.21-101.39,4.64-9.47,8.73-19.25,14.94-27.89,4.63-5.29.97,5.54.79,6.91Z"/>
      <path class="st46" d="M1301.98,1503.52c-111.98-7.25-227.8-16.06-332.19-59.44-9.45-13.86-15.24-25.49-5.79-42,42.4-4.88,84.72-7.04,127.37-8.63,45.43-1.69,90.87-2.88,136.32-.09,7.17.44,22.93-2.26,26.91,2.82,4.14,11.62,10.58,22.15,15.66,33.29,9.88,21.68,19.74,54.99,31.72,74.06Z"/>
      <path class="st1" d="M1504.79,1589.19l4.35,1.74c-34.46,7.61-68.44,17.02-103.37,22.5l-61.83,7.23c-30.66.23-61.96.84-92.66,1.75l-70.3-7.5c-42.47-7.64-84.19-18.81-124.2-34.9-8.31-3.34-20.22-6.67-25.79-13.55,140.5,42.02,329.57,47.4,473.8,22.73Z"/>
      <path class="st64" d="M2064.26,1232.52c4.14,1.5-.43,4.73-1.72,6.15-19.49,21.42-27.51,43.04-42.3,66.09-7.45,11.61-20.43,23.79-29.39,34.4-.33-9.43,3.07-19.47,6.98-27.97,11.46-24.96,44-63.48,66.44-78.68Z"/>
      <g>
        <path class="st9" d="M1265.26,891.59c70.37-46.14,122.58-115.79,192.43-163.35,48.09-32.74,101.8-54.82,160.72-56.93,1.48,6.95-2.34,4.63-5.81,7.21-16.77,12.48-34.37,24.16-48.37,39.96,64.38-12.38,128.27,7.44,180.07,45.51l-.87,3.47-56.81,1.75c-.68,3.1.9,3.46,2.89,4.96,13.22,9.93,23.1,14.44,34.71,28.23,4.72,5.6,18.27,24.53,20.06,30.66.79,2.69-.12,2.83-2.51,2.54-5.66-.69-14.01-3.68-20.18-5.2-37.34-4.83-71.51-8.19-109.4-.44-22.49,4.6-45.38,12.06-65.1,23.4,17.26,17.05,34.71,41,32.88,66.2,7.76,43.98-5.95,93.22-40.21,122.38-5.99,13.93-27.24,22.82-41.68,28.22-31.77,11.88-66.72,13.03-99.95,7.73l-5.23-4.47c-12.88,3.96-31.53-4.24-44.08-9.94-25.22-11.45-49.32-30.01-60.95-55.42-8.19,3.56-18.89,6.18-28.61,6.09-7.22-.07-20.75-.47-23.7-7.17-9.58-2.12-22.23-9.51-25.64-10.06-2.96-.48-12.07,4.26-17.18,4.83-90.12,10.02-99.77-75.61-67.32-139.88,6.13-12.14,16.23-26.64,25.17-36.93,1.48-1.7.02-4.42,4.55-3.26-9.87,18.26-16.71,37.87-22.73,57.68-11.82,49.41-7.13,105.83,57.81,100.1-2.85-11.02-4.18-22.16-3.98-33.42l3.87-3.74c2.57-20.32,23.82-51.39,38.44-65.58,4.24-4.11,22.87-19.85,27.14-21.82.75-.35,2.87-.44,2.59.85-3.34,8.63-15.06,37.93-13.97,45.44.15,1.02,1.8,2.32,3.56,1.9,2.38-.56,11.19-5.56,13.89-7.22,1.95-1.19,2.84-3.82,3.52-4.27Z"/>
        <path class="st46" d="M1553.74,947.54c.64,110.65-144.15,128.39-216.8,75.18-2.31-2.27-1.34-2.85,1.75-1.75,18.64,8.12,48.81-3.32,52.46-24.47-8.62.06-17.14-5.09-22.71-11.37,6.57-6.88,20.39-11.55,29.69-11.36,3.25-7.54,12.81.72,16.63,5.19,40.98-17.37,84.89-26.06,128.62-33.33,1.6-.27,3.31.05,5.08.38s3.53.9,5.26,1.54Z"/>
        <path class="st52" d="M1553.74,947.54c-47.32,7.25-94.68,16.64-139.03,34.98-3.66.07-5.35-8.53-16.57-8.76,2.44-6.63-10.15-21.02-7.98-24.49,29.73-18.76,56.84-41.63,86.43-60.54,6.55-4.19,32.47-21.11,38-21.62,6.36-.59,8.15,2.94,12.07,6.97,18.67,19.2,26.93,47.29,27.08,73.45Z"/>
        <path class="st48" d="M1338.69,1020.97l-1.75,1.75c-4.05-2.97-29.05-23.23-25.44-28.01.61-.8,5.88-3.69,6.18-3.46,1.61,11.16,10.58,25.18,21.01,29.72Z"/>
      </g>
      <g>
        <path class="st46" d="M2181.4,846.14c10.01,3.13,47.34,37.06,57.72,46.31,17.49,15.57,34.8,32,50.67,48.99-6.18.35-12.08-1.16-18.42-.95s-17.69,1.18-24.19,2.03c-8.73,1.14-32.84,5.59-40.26,8.55-5.14,2.05,2.22,4.17,3.3,5.17,51.79,48.02,73.76,68.49,109.31,131.18l-1.58,1.89c-42.33-15.88-87.49-22.07-133.97-17.88l23.41,20.43c2.15,3,1.46,6.2-1.53,8.19-51.62,6.41-99.57,35.2-142.35,64.16l20.62,2.56c4.17,5.37.23,10.92-11.83,16.65-56.73,48.77-113.45,97.55-170.16,146.36-16.07,12.04-63.91,46.7-80.82,48.02-1.76.14-3.54.02-5.32-.16l-3.54-2.69c-.8-13.75-4.19-27.29-8.19-40.47,1.19,15.5.2,31.09-2.8,46.36l-4.71,5.53c-14.69,19.62-43.55,32.22-66.53,41.42-120.14,48.07-251.42,72.86-379.95,77.89-9.23,1.22-14.85-.67-16.83-5.66l-1.56-3.8c18.16-27.73,28.87-60.55,37.47-93.31l3.94-8.72c67.02,5.47,133.87,13.11,200.55,22.92,54.05,6.56,170.38,20.58,188.66-48.31,17.28-65.12-40.11-161.33-102.57-183.28-76.56-26.9-156.54,21.02-218.38,62.84l-76.42,52.69c-99.85,73.5-228.28,79.39-340.06,37.78-4.85-2.42-12.1-7.49-6.32-11.88l5.11-3.57c68.15-3.24,115.5-56.26,140-115.31l-2.26-4.46c43.55-108.57-111.29-119.69-183.98-112.81-105.83,10.02-167.63,58.75-94.38,156.11l-.87,4.87c29.99,36.48,65.18,65.28,112.62,73.34l4.52,5.33c4.68-3.18,11.22,8.92,9.15,11.9-3.97,5.7-65.6,19.62-76.89,21.17-52.53,7.18-89.2-8.4-118.98-53.55-65.01-98.53,30.69-187.92,107.52-241.74,8.21-8.53,17.12-14.96,26.75-19.27-1.46-5.63,8.3-17.23,13.99-17.48l6.25-6.86c45.63-14.24,98.66-18.63,146.85-13.54,17.09,1.8,66.23,9.12,77.54,18.42,1.33,1.1,2.51,2.38,3.64,3.72,10.33-2.12,23.89,3.46,29.72,12.24l.64,6c-7.51,15.92-16.23,31.12-26.16,45.61l-3.57.75c31.85,10.74,64.36,28.73,92.31,48.21,27.65,19.27,44.83,36.92,65.89,61.28.84.98,4.42,4.55,5.05,4.24,133.21-67.06,252.52-144.18,364.6-239.39,124.25-104.55,285.02-158.42,444.91-132.83l12.67,6.82Z"/>
        <path class="st21" d="M1753.03,1232.52c-38.49-50.36-94.59-80.78-159.07-79.54,66.02-28.07,139.39,12.91,159.07,79.54Z"/>
        <circle class="st69" cx="1291.91" cy="1268.51" r="9.03"/>
        <circle class="st17" cx="1241.56" cy="1246.45" r="8.68"/>
        <circle class="st42" cx="1224.25" cy="1294.93" r="8.6"/>
      </g>
      <g>
        <path class="st35" d="M947.06,1048.95c-27.61,27.97-65.79,50.9-94.43,79.53-56.4,56.37-82.78,125.67-26.15,194.04,50.83,61.36,114.68,37.32,180.03,18.39.47-.45-6.19-8.89-6.99-10.47-6.44-3.64-9.42-11.43-9-18.21-42.49-2.61-82.34-26.78-108.14-60.47-26.03-37.04-55.33-86.27-14.94-125.96,53.44-52.51,233.16-54.1,286.86-1.72,26.7,26.05,19.57,52.43,9.57,83.97-24.49,60.29-87.99,98.97-151.16,106.47,4.54,4.32,6.56,8.46,6.05,12.42.72.81.34,3.42,3.52,6.06,8.62,7.17,43.47,14.81,55.91,17.56,86.62,19.16,162.06,15.02,241.33-26.21,96.82-50.36,211.95-175.3,330.75-145.5,68.21,17.11,125.85,109.73,118.05,178.2-9.66,84.82-127.46,70.19-187.45,64.29-68.79-6.77-137.05-19.93-206.12-24.57-6.72,23.6-12.73,47.55-22.98,69.98-4.25,9.31-12.34,25.43-18.3,33.28-9.87,12.98-20.75,20.56-31.47,3.5l-4.47-1.88c-15.43-34.35-30.69-68.88-45.76-103.6-92.74-5.78-191.93-2.11-286.31,6.86-1.24.12-4.68,20.74-.37,24.08,4.23,5.65,5.8,10.68,4.73,15.09,30.64,44.96,117.85,52.41,168.73,57.68,30.3,3.14,60.55,4.02,90.92,5.26,2.12.09,6.5-1.32,6.09,1.73-90.96,15.1-198.17,27.74-276.21-31.45-2.69,20.35-3.07,49.58-29.78,28.89-25.42-19.69-51.61-70.47-62.9-100.57-1.61-4.3-5.38-24.17-7.39-25.84-1.33-1.1-6.15-1.23-8.76-2.58-84.07-43.62-110.9-144.65-55.53-223.34,27.84-39.57,89.98-82.85,134.62-101.4,3.2-1.33,10.3-3.98,13.54-4.99,1.41-.44,3.99-.48,3.94,1.49Z"/>
        <g>
          <path class="st14" d="M1018.75,1326.93c-3.88-4.37-10.03-8.75-10.49-15.73,65.5-4.95,124.59-46.12,155.6-103.16-6.18,19.5-11.38,32.19-23.06,49.49-26.89,39.83-73.04,69.73-122.05,69.39Z"/>
          <path class="st49" d="M882.38,1251.75c29.21,30.12,67.01,54.18,109.91,57.93,2.11,6.62,4.13,14.58,7.23,20.75-12.26-5.27-25.8-6.3-38.46-11.37-35.9-14.39-57.17-36.69-78.68-67.3Z"/>
          <path class="st57" d="M1698.85,1291.97c10.66,2.83,14.84,21.63,16.37,32.14,3.2,21.94-2.52,56.42-21.62,69.27-62.9,14.49-175.12-8.24-242.15-15.73-24.08-2.69-48.56-3.75-72.49-7.07l1.77-26.07c10.26,1.41,33.14-9.56,40.91-8.81,6.49.63,22.46,19.65,31.29,18.85,10.98-.99,27.82-37.08,31.98-37.87,2.42-.46,15.63,9.86,24.23,9.92,13.03.1,39.94-11.79,50.58-10.14,9.04,1.41,25.7,21.84,36.46,18.96,10.17-2.72,28.9-51.53,31.9-52.19,2.08-.46,3.12,1.47,4.4,2.56l35.67,41.24c13.87,8.1,26.83-24.96,30.69-35.05Z"/>
          <path class="st47" d="M877.13,1187.07c60.07,49.05,137.57,48.83,204.29,12.85,21.56-11.63,47.74-30.42,50.97-56.55,11.68,10.93,14.26,16.74,12.09,33.95-6.04,47.92-79.08,101.09-125.07,105.7-59.99,6.01-127.82-36.71-142.28-95.95Z"/>
          <path class="st19" d="M1677.87,1288.47c-.37,4.15-2.13,14.02-7.8,12.3-6.68-8.83-37.77-42.89-47.19-42.12-3.26.27-4.29,2.48-5.93,4.74-4.61,6.36-23.42,51.15-27.37,51.27-11.28-8.43-21.13-18.84-36.27-17.01s-38.01,12.88-52.09,9.22c-5.06-1.32-15.47-9.66-19.77-9.29-8.18.71-24.17,32.19-31.93,38.02-2.51.51-17.1-14.43-24.39-15.58-8.61-1.36-25.71,4.98-35.74,6.91-5.84,1.91-8.09-4.92-3.7-8.91,50.5-30.37,100.32-59.65,156.3-78.44,33.43-11.22,95.39-28.8,123.47-.15,11.69,11.92,19.51,33.1,12.41,49.03Z"/>
          <path class="st13" d="M1677.87,1288.47c1.89-21-7.17-46.68-27.58-55.47-50.83-21.9-154.18,26.42-200.88,51.67-21.91,11.85-42.51,27.21-65.16,37.14l5.15,5.12c-1.43.28-3.9,3.11-6.99,1.75.28-4.38-1.41-9.66,1.75-13.11,56.45-34.67,107.21-79.62,170.42-102.32,38.58-13.85,73-18.48,110.84,1.12,5.91,3.06,29.5,18.33,29.82,24.15.55,9.97-11.31,40.62-17.36,49.94Z"/>
          <path class="st16" d="M1359.67,1353.16c-5.78,47.16-16.17,96.3-42.84,136.36l-39.33-94.4,1.94-4.75c27.87-7.01,51.3-19.61,74.09-37.38l6.14.17Z"/>
          <path class="st49" d="M1698.85,1291.97c1.43-3.73,2.16-10.68,3.47-14.94.47-1.53-.96-3.56,2.61-2.52,1.79.52,21.87,18.27,23.68,20.53,6.81,8.49,11.15,39.31,10.51,50.32-1.73,29.6-18.54,41.8-45.51,48.01,21.12-28.85,27-71.19,5.25-101.4Z"/>
          <path class="st51" d="M887.62,1400.36c-2.42-7.3,1.49-7.53,11.73-.68,12.59,5.13,21.88,6.63,35.39,7.39l-1.66,16.02c1.11,15.32,7.98,27.68,8.83,37.59.73,8.47-3.73,18.79-1.83,27.96l-3.47.87c-21.42-28.32-36.13-56.09-48.99-89.15Z"/>
          <path class="st55" d="M1277.5,1395.12c-1.95-4.13-13.18-16.75-8.73-20.08,3.6-2.7,28.18-10.05,35.58-13.38,11.9-5.37,48.21-28.01,56.18-29.49,3.72-.69,1.93-.53,1.82,1.8-.29,6.38-1.92,12.93-2.69,19.2-16.2,10.31-31.07,23.07-48.95,30.6-10.9,4.59-22.91,6.15-33.23,11.36Z"/>
          <path class="st70" d="M887.62,1400.36c-.87-2.24-6.63-12.55-5.23-13.98,21.4,4.46,43.28.8,64.68-1.74-3.54,5.94-8.73,13.35-10.58,20-1.87,6.74-.55,12.76-3.41,18.45-.33-4.61.24-9.37,0-14-16.56,1.53-27.84-1.71-41.8-9.78-2.74-1.58-3.99-5.1-3.67,1.04Z"/>
          <path class="st10" d="M1057.2,1370.66l-15.06,3.27c-19.88-2.01-44.21,7.11-63,7.13-3.88,0-5.2-1.39-7.59-4.3,13.8-4.1,37.76-14.9,51.62-14.57,9.33.22,23.47,9.34,34.03,8.47Z"/>
          <g>
            <path class="st5" d="M1132.39,1143.36c6.01,11.21-6.9,26.62-14.87,34.93-36.68,38.26-110.02,57.04-161.69,48.41-27.39-4.58-62.25-16.86-78.7-39.63-.45-1.83-2.81-3.95-3.35-7.99-1.68-12.64,2.26-26.35,12.02-34.91,46.57-40.83,201.21-43.27,246.58-.81Z"/>
            <path class="st27" d="M912.39,1150.08c-7.4-12.16,27.44-21.21,34.98-23.03,29.94-7.23,88.06-8.07,116.81,3.21,44.55,17.48-31.36,26.28-44.58,27.06-22.74,1.34-59.94,2.15-82.14,0-3.7-.36-23.92-5.36-25.07-7.25Z"/>
          </g>
        </g>
      </g>
    </g>
  </g>
</svg>