<?xml version="1.0" encoding="UTF-8"?>
<svg id="Layer_1" xmlns="http://www.w3.org/2000/svg" version="1.1" viewBox="0 0 2984.88 3030.84">
  <!-- Generator: Adobe Illustrator 29.6.1, SVG Export Plug-In . SVG Version: 2.1.1 Build 9)  -->
  <defs>
    <style>
      .st0 {
        fill: #d1b3ba;
      }

      .st1 {
        fill: #3a3b42;
      }

      .st2 {
        fill: #252223;
      }

      .st3 {
        fill: #f6ece7;
      }

      .st4 {
        fill: #74757c;
      }

      .st5 {
        fill: #7b5259;
      }

      .st6 {
        fill: #d3bdba;
      }

      .st7 {
        fill: #ccbea6;
      }

      .st8 {
        fill: #deddd2;
      }

      .st9 {
        fill: #d2b9b5;
      }

      .st10 {
        fill: #36343e;
      }

      .st11 {
        fill: #dfd0c1;
      }

      .st12 {
        fill: #f6ebe5;
      }

      .st13 {
        fill: #cdb7be;
      }

      .st14 {
        fill: #ba5861;
      }

      .st15 {
        fill: #403432;
      }

      .st16 {
        fill: #565961;
      }

      .st17 {
        fill: #23262b;
      }

      .st18 {
        fill: #f3e9e6;
      }

      .st19 {
        fill: #cdb9bb;
      }

      .st20 {
        fill: #efe8dc;
      }

      .st21 {
        fill: #f7f5e0;
      }

      .st22 {
        fill: #943746;
      }

      .st23 {
        fill: #ccb1b7;
      }

      .st24 {
        fill: #d0b6ba;
      }

      .st25 {
        fill: #1d1a1c;
      }

      .st26 {
        fill: #d1b6bc;
      }

      .st27 {
        fill: #393942;
      }

      .st28 {
        fill: #36363e;
      }

      .st29 {
        fill: #75767d;
      }

      .st30 {
        fill: #493e3c;
      }

      .st31 {
        fill: #c7b6ba;
      }

      .st32 {
        fill: #77787d;
      }

      .st33 {
        fill: #f8f3e2;
      }

      .st34 {
        fill: #f1e8e7;
      }

      .st35 {
        fill: #d2b4b9;
      }

      .st36 {
        fill: #d4b8bf;
      }

      .st37 {
        fill: #f6eae5;
      }

      .st38 {
        fill: #414044;
      }

      .st39 {
        fill: #f2eed6;
      }

      .st40 {
        fill: #f0eeea;
      }

      .st41 {
        fill: #5a353a;
      }

      .st42 {
        fill: #595b62;
      }

      .st43 {
        fill: #d7c1c4;
      }

      .st44 {
        fill: #35343b;
      }

      .st45 {
        fill: #e3decc;
      }

      .st46 {
        fill: #d2b5bc;
      }

      .st47 {
        fill: #72737a;
      }

      .st48 {
        fill: #f5e9e7;
      }

      .st49 {
        fill: #3a3843;
      }

      .st50 {
        fill: #75777b;
      }

      .st51 {
        fill: #565863;
      }

      .st52 {
        fill: #575962;
      }

      .st53 {
        fill: #f5e9e5;
      }

      .st54 {
        fill: #c3acaf;
      }

      .st55 {
        fill: #75777d;
      }

      .st56 {
        fill: #575a61;
      }

      .st57 {
        fill: #787a81;
      }

      .st58 {
        fill: #78787f;
      }

      .st59 {
        fill: #393840;
      }

      .st60 {
        fill: #c65560;
      }

      .st61 {
        fill: #3b3b3e;
      }

      .st62 {
        fill: #73757b;
      }

      .st63 {
        fill: #f3e8e4;
      }

      .st64 {
        fill: #4f343b;
      }

      .st65 {
        fill: #76777d;
      }

      .st66 {
        fill: #743035;
      }

      .st67 {
        fill: #c8b5b8;
      }

      .st68 {
        fill: #e6e4d9;
      }

      .st69 {
        fill: #e4e2db;
      }

      .st70 {
        fill: #2a2321;
      }

      .st71 {
        fill: #73757d;
      }

      .st72 {
        fill: #ccb1b5;
      }

      .st73 {
        fill: #3d3e44;
      }

      .st74 {
        fill: #ece5e5;
      }

      .st75 {
        fill: #cab0b2;
      }

      .st76 {
        fill: #7c4248;
      }

      .st77 {
        fill: #69333c;
      }

      .st78 {
        fill: #f5ece9;
      }

      .st79 {
        fill: #79797f;
      }

      .st80 {
        fill: #797a82;
      }

      .st81 {
        fill: #3f3f46;
      }

      .st82 {
        fill: #e3dbc7;
      }

      .st83 {
        fill: #8a7777;
      }

      .st84 {
        fill: #f2e8e6;
      }

      .st85 {
        fill: #51373e;
      }

      .st86 {
        fill: #d0b7ba;
      }

      .st87 {
        fill: #f2e7e4;
      }

      .st88 {
        fill: #f8f6de;
      }

      .st89 {
        fill: #4e413e;
      }

      .st90 {
        fill: #ebe7d3;
      }

      .st91 {
        fill: #f6eae6;
      }

      .st92 {
        fill: #292b31;
      }

      .st93 {
        fill: #6f7177;
      }

      .st94 {
        fill: #f4ede8;
      }

      .st95 {
        fill: #c5b8b6;
      }

      .st96 {
        fill: #767882;
      }

      .st97 {
        fill: #38373f;
      }

      .st98 {
        fill: #6e6f78;
      }

      .st99 {
        fill: #cebeb0;
      }

      .st100 {
        fill: #d1bcb3;
      }

      .st101 {
        fill: #3a3a40;
      }

      .st102 {
        fill: #c8b4b4;
      }

      .st103 {
        fill: #cab5b5;
      }

      .st104 {
        fill: #352d2a;
      }

      .st105 {
        fill: #777881;
      }

      .st106 {
        fill: #eae1d5;
      }

      .st107 {
        fill: #383740;
      }

      .st108 {
        fill: #cbadb4;
      }

      .st109 {
        fill: #f4e9e7;
      }

      .st110 {
        fill: #d3bda7;
      }

      .st111 {
        fill: #ceb1b8;
      }

      .st112 {
        fill: #3b3b44;
      }

      .st113 {
        fill: #f3e7e5;
      }

      .st114 {
        fill: #5a353d;
      }

      .st115 {
        fill: #393943;
      }

      .st116 {
        fill: #79555a;
      }

      .st117 {
        fill: #575963;
      }

      .st118 {
        fill: #575960;
      }

      .st119 {
        fill: #37373d;
      }

      .st120 {
        fill: #f2e6e4;
      }

      .st121 {
        fill: #d4b7bc;
      }

      .st122 {
        fill: #ceb8bb;
      }

      .st123 {
        fill: #fbf9df;
      }

      .st124 {
        fill: #8c3645;
      }

      .st125 {
        fill: #f5e9e4;
      }

      .st126 {
        fill: #373740;
      }

      .st127 {
        fill: #37363f;
      }

      .st128 {
        fill: #383940;
      }

      .st129 {
        fill: #faf9dd;
      }

      .st130 {
        fill: #f0eede;
      }

      .st131 {
        fill: #f4eddb;
      }

      .st132 {
        fill: #d0b5be;
      }

      .st133 {
        fill: #d2bfaa;
      }

      .st134 {
        fill: #ceb7be;
      }

      .st135 {
        fill: #3a3942;
      }

      .st136 {
        fill: #131112;
      }

      .st137 {
        fill: #f5e9e6;
      }

      .st138 {
        fill: #9d5e67;
      }

      .st139 {
        fill: #ece7df;
      }

      .st140 {
        fill: #c7b2b5;
      }

      .st141 {
        fill: #ccb6b9;
      }

      .st142 {
        fill: #76787e;
      }
    </style>
  </defs>
  <path class="st136" d="M1016.13,889.83c2.2-24.03,11.12-47.94,20.01-70.08-9.06-4.24-37.52,12.48-36.7-.84.6-9.67,18.31-51.4,23.71-62.25,7.87-15.83,41.09-55.82,43.2-62.66,4-12.98,0-33.01,1.31-47.33,4.75-52.14,21.43-92.37,50.88-135.01-13.35-38.12-28.86-75.44-38.65-114.75-13.73-55.18-25.04-130.87-13.86-186.76,12.8-63.94,50.71,2.21,70.19,21.7,28.67,28.67,65.29,58.87,99.33,80.93,7.11,4.61,52.68,31.7,56.61,31.75,6.93.09,28.16-8.6,38.04-10.41,14.2-2.6,29.1-3.99,43.57-3.66l-14.29-25.71,108.7,14.27c2.97-2.73-16.77-23.57-4.37-25.34,13.36-1.9,75.22,32.56,82.47,30.7,30.43-30.49,62.95-59.52,92.19-91.14,17.16-18.56,61.65-81.26,81.33-87.46,19.15-6.03,27.64,2.86,37.43,17.25,18.81,27.63,30.06,73.83,36.29,106.77,11.29,59.71,14.65,121.37,6.97,181.68,36.08,29.72,67.67,64.01,102.46,95.21,1.73,7.73-21.92,12.63-27.88,14.79-3.66,1.33-7.62-1.24-6.31,5.01,19.14,14.02,35.85,31.1,54.64,45.52,7.95,6.11,48.28,30.56,49.91,33.08,2.08,3.21,1.98,5.58-.05,8.77-3.83,6.04-32.68,20.55-40.76,25.04-2.56,1.42-4.8-1.04-3.31,4.52,1.4,5.24,20.23,26.31,25.32,31.97,22.06,24.48,47.67,46.21,71.28,69.16,2.87,11.04-36.93,32.12-48.31,32.36,19.88,21.42,36.61,45.64,44.41,74.3,2.61,9.6,9.73,29.2-6.39,23.58-13.28-4.63-23.48-13.19-39.44-14.96-17.73-1.96-36.12.59-52.97,5.79,5.57,34.47,13.54,69.25,36.02,97,7.67,9.47,18.23,14.73,23.43,24.59-1.65,11.6-46.62,11.3-56.56,7.13-4.52,4.17,26.14,33.59,30.09,37.12,12.98,11.58,38.49,17.32,6.19,29.21-11.41,4.2-18.19,3.58-29.13,5.24-3.16.48-5.91-1.39-4.26,4.17,2.72,9.23,71.48,70.22,84.4,84.42,6.35,6.98,44.36,51.23,44.43,55.82.24,14.59-29.9,2.72-31.58,4.32,4.96,11.69,11.02,22.82,15.07,34.97,8.9,26.71,14.98,64.31,13.63,92.46-.35,7.35-1.8,33.61-11.58,28.53-7.44-3.86-8.53-16.16-17.12-15.77.92,44.48-24.08,81.5-48.74,115.78-24.87,34.57-47.4,70.29-71.97,105.42-58.46,83.56-198.17,226.53-187.96,332.08,2.74,28.27,5.59,40.32,31.23,51.74,62.67,27.91,143.75,21.24,197.35-22.75,5.8-4.76,30.34-32.35,32.92-32.92,11.91-2.62,4.47,28.12,8.52,34.3,34.61-34.08,49.56-83.67,47.24-131.61,4.01-.33,7.61-.25,11.38,1.49,6.28,2.89,6.01,11.23,11.46,12.8,7.82-37.66,13.64-80.12,33.81-113.54,21.62-35.81,27.18-8.7,27.73,19.13,46.31-73.05,122.78-125.01,205.25-149.53,33.11-9.85,84.14-21.15,118.13-16.41,3.58.5,5.33-1.43,4.28,4.33-1.4,7.74-29.98,31.55-37.16,40.11-19.92,23.76-38.59,56.4-48.77,85.7-23.55,67.82-19.59,139.75-17.09,210.34,10.59-3.31,20.38-42.96,31.13-26.86,12.03,18.02-8.09,103.74-15.53,126.9-22.27,69.27-64.92,144.73-127.2,184.67,25.68.41,79.66-12.71,38.53,24.22-60.7,54.51-165.67,72.41-244.55,63.06,8.17,8.51,48.22,26.2,15.55,31.26-61.66,9.56-143.34-28.1-192.92-62.76,7.59,32.69,6.65,62.4-.88,95-3.86,16.7-20.85,49.94-18.63,63.05,2.38,14.04,27.9,60.38,36.16,75.63,9.3,17.17,52.25,91.61,65.63,97.46s33.35,3.67,48.46,11.62c31.01,16.3,51.55,92.39,46.44,124.87-2.46,15.65-27.97,22.97-41.64,24.22-11.66,1.07-22.24-3.92-30.91-2.58-5.78.89-15.38,9.3-22.59,11.97-18.61,6.9-45.02,7.26-64.32,3.18-8.63-1.82-23.31-11.23-28.23-11.67s-17.77,8.73-25.97,10.14c-29.39,5.05-78.4-8.49-88-39.41-14.1-45.42,10.39-69.6,6.77-109.78-3.69-41.05-48.98-165.7-76.79-195-13.72-14.46-37.65-29.56-53.11-44.17-33.88-31.99-62.02-72.03-102.44-94.98-13.49-7.66-59.13-29.53-72.48-30.17-19.75-.96-73.71,29.86-90.61,42.6-11.57,8.72-44.52,39-49.16,51.21-3.02,7.94,7,20.79,11.73,28.16,14.96,23.28,36.62,44.6,54.08,66.13,6.31,13.5-11.31,30.06-19.97,40.04-51.38,59.17-115.06,111.52-158.95,178.67-14.22,11.21-125.43,26.94-150.46,29.79-46.88,5.35-60.66.83-103.65-3.79-13.64-1.47-31.06,3.24-46.95.62-13.53-2.23-17.92-10.47-24.37-13.41-15.51-7.08-33.61-.42-31.94-27.02,1.65-26.13,39.23-106.07,67.21-110.4,15.4-2.38,45.07-6.85,59.6-5.51,16.69,1.54,35.32,10.1,51.92,11.07,30.32,1.77,58.54-18.53,82.37-34.85,10.42-7.13,64.68-47.95,67.74-55.31,1.97-4.74-1.81-3.86-3.59-4.9-21.47-12.57-50.73-22.22-73.69-35.05-24.48-13.68-73.11-43.66-88.66-65.85-15.59-22.25-5.93-61.74-1.47-87.35,11-63.21,33.35-123.67,62.95-180.25,20.49-39.18,71.32-106.33,67-149.85-2.28-22.91-12.29-51.49-16.03-75.52-6.7-42.98-9.66-86.63-18.02-129.36-75.26,27.52-154.84,19.68-230.43-2.52-13.06.43-18.03,21.28-31.21,2.38-7.49-10.75-7.97-24.4-7.31-37.03-3.95-4.39-24.92,24.74-28.65-7.11-5.64-48.19,17.31-75.71,22.7-114.75,2.2-15.94-.96-34.76.29-51.22,7.01-92.43,52.99-156.84,127.2-207.55,8.01-5.48,37.36-19.31,40.69-23.68,5.17-6.78,11.9-33.65,18.61-45.78,9.2-16.64,23.07-33.07,36.58-46.34-7.92-6.35-18.94-4.9-12.97-18.76,16.22-11.55,148.41-56.46,150.15-64.44.62-2.85-4.6-11.93-5.29-17.19-2.04-15.67,2.65-21.73,10.53-34.11-12.48-10.89-17.4-32.72-26.6-44.21-16.01-20.01-65.72-45.23-84.26-70.22-11.01-14.84.1-13.25,5.68-27.14-15.51-6.84-28.29,1.45-42.91,5.69,1.01-15.32-1.38-32.09,0-47.21Z"/>
  <g>
    <path class="st56" d="M1914.53,931.32c5.14,24.68,18.98,55.74,34.4,75.76,10.18,13.22,27.1,20.6-7.32,18.76-13.59-.73-26.62-9.95-38.52-5.82-2.02.64-3.58,1.18-3.52,1.36,8.51,28.13,31.4,51.74,55.02,67.3-10.67,9.56-49.01,6.16-62.93,2.87.34,9.41,12.21,10.57,18.85,17.01,3.07,2.97,3.37,8.08,4.02,8.73l-1.18,2.69c28.6,34.25,59.26,66.63,91.98,97.12,2.34,9.43-4.79,13.46-13.72,12.64-1.12.67,8.16,12.74,8.75,13.43,1.41.99,2.05,2.21,2.86,2.86,1.25,4.96.3,8.78-2.86,11.44,9.03,24.85,14.57,52.45,11.61,79.05-1.82,16.41-34.89,91.96-40.65,40.1-11.51,19.94-23.37,35.76-49.05,30.99-19.71,8.18-37.45,11.24-58.45,10.29-11.77,15.12-27.49,26.18-47.16,33.19,33.43,6.29,67.43,5.04,102.01-3.73,8.31-.1,11.15.22,11.95,8.52,4.58,47.05-62.24,125.9-96.49,155.36-14.8,12.73-98.46,68.85-118.49,69.26-11.33.23-13.03-5.32-13.6-15.59-14.89,16.27-29.23,30.3-46.84,43.41-18.29,13.61-82.21,59.62-103.57,40.06-23.7-28.33-50.33-55.88-80.97-75.75,9.49,32.47,6.34,33.05-23.68,26.37-8.91-1.98-22.97-5.98-30.96-9.77-83.11-39.4-150.57-86.1-221.2-145.15-19.1-11.33-34.79-24.84-47.07-40.53-1.1-4.15-7.93-10.23-5.71-17.15,43.57,4.71,9.5-21.75,14.3-28.6,4.87-2.98,30.35-4.64,31.48-5.77,1.95-1.95-6.04-15.63-1.53-22.93,4.16-6.74,20.72-6.94,27.27-8.53l13.85-.56c74.09,32.18,149.58,60.11,226.49,83.79,47.31,13.06,90.06,38.38,125.89,68.41,3.33,3.55,7.88,5.08,10.01,11.47,3.85-2.4.02-8.57-1.43-11.47.25-5.07-.95-10.59-3.6-16.57,18.2-5.84,36.51-11.21,54.93-16.11,4.12-16.05,27.24-32.26,43.09-24.55,2.16-.62,7.95.76,8.59.01,2.72-3.18-3.98-16.9-.11-21.34.75-.85,16.34-14.12,17.37-14.57,7.33-3.19,14.9,6.13,19.82-2.98,1.24-4.48-6.28-17.54-8.94-22.17-4.93-8.57-21.81-23.41-18.16-33.17,8.01-21.4,24.31-2.19,41.51-5.93,6.33-6.45-14.91-25.49-19.89-30.17-3.49-3.28-8.68-3.6-11.29-5.88-11.76-10.26-20.09-24.46-37.44-31.18-.06-3.98,26.57-22.86,29.8-27.37,6.39-8.92,13.87-36.5,21.63-49.9,9.16-15.81,21.24-30.31,34.34-42.91-4.48-2.9-13.55,6.12-16.87,8.88-7.05,5.88-12.57,13.34-20.29,18.31.26-19.69,15.69-36.46,28.57-50.08-14.02-2.13-24.46,18.68-34.32,27.19-7.06,13.48-47.71,51.03-60.7,52.46-2.27.25-3.14-3.56-2.25-6.68,6.68-11.18,53.54-80.63,45.76-88.68l-10.61,2.24-46.58,24.95c20.33-29,41.27-62.94,54.35-95.86l7.33-7.69c71.74-37.12,149.17-93.32,194.59-160.22.15-11.76,3.24-38.4,15.53-20.93Z"/>
    <path class="st56" d="M1142.02,1148.77l7.11-.99c12.57,9.12,42.93,34.75,35.81,49.63-5.46,5.2-11.22,11.18-17.36,15.54-12.27,8.71-43.31,21.24-51.3,30.24,4.06,11.34,4.86,22.49,2.4,33.45l-22.5,22.06c-29.17,50.89-52.18,83.41-94.31,121.78-7.96,4.18-9.21,6.54-11.48,14.4-4.02,4.28-7.61,12.08-11.44,17.17l-6.01,3.84c-30.97-8.75-59.2,6.02-82.25,25.57l5.28,4.92c-6.02,11.25-30.5,25.59-28.61,37.2l4.41.95c50.12-36.81,114.04-39.22,170.99-16.05l1.98-2.06c25.32-2.22,110.68,89.84,110.95,109.5.05,3.7-.46,5.34-2.01,8.61-9.27,19.52-134.14,61.15-160.67,63.55-24.67,2.23-97.38,8.48-116.56-.12-7.75-3.47-.51-14.74,4.72-18.76-28.28,5.74-55.98,9.95-83.12,12.62l-2.23-3.74-3.02-3.94c12.02-59.87,23.29-120.15,33.8-180.83,17.49-66.74,58.37-121.85,117.25-158.26l77.78-47.94-2.64-1.01c-5.56-6.13-18.17.67-25.75,2.86-1.48-3.81-.58-6.93,1.3-10.22,30.11-52.66,72.88-97.18,129.24-119.37l-1.79-2.02c6.6-2.66,13.34-5.82,20.03-8.58Z"/>
    <path class="st59" d="M2000.37,1257.49c14.01-.73,34.42,61.69,31.51,67.18-.24.45-2.16-10,2.83-7.1,4.78,21.87,7.33,43.27,5.71,65.79-8.48,1.98-18-21.58-24.39-11.52-3.54,5.57-.37,28.29-2.02,38.03-4.62,27.25-27.36,66.57-45.07,87.95-2.06-9.25,2.48-18.45,2.55-26.88.02-2.16-1.37-13.66-5.41-13.15-14.02,71.65-55.48,130.74-108.72,178.84-73.91,66.78-166.27,107.13-245.8,166.2-5.49,4.08-21.15,19.6-24.65,21.14-5.15,2.26-3.71-2.17-4.33-4.14-2.7-8.57-3.09-18.35-2.79-27.29-3.75-4.41-38.29,35.12-41.44,34.32-9.11-9.17-59.57-76.77-65.84-77.19-3.7-.25-3.6,3.36-1.39,7.03,2.31,3.85,24.95,30.57,7.7,26.69-98.32-22.12-203.15-123.74-276.65-189.75-14.44-12.97-61.02-47.06-68.84-59.91-10.31-16.93,11.89-10.24,16.06-15.79.44-.58-1.14-12.55-1.62-14.39,88.7,58.3,169.76,142.18,270.3,180.33,4.64,1.76,53.22,18,53.05,12.76-2.39-9.07-5.83-18.33-6.7-27.73-.32-3.45-3.54-4.07,2.34-7.93,32.45,24.16,63.37,51.25,88.51,83.1,6.39,4.22,15.16,3.38,22.42,1.96,19.4-3.77,74.38-41.13,90.83-55.06,5.59-4.73,30.52-32.4,32.91-32.92,10.96-2.42,2.77,18.36,11.39,17.19,10.82-1.48,60.67-28.7,72.72-36.05,66.16-40.33,128.87-108.21,140.44-187.15-37.25,5.38-76.69,15.8-113.83,3.6-2.06-.68-9.12.08-6.31-5,1.18-2.12,34.42-16.24,42.73-23.09,5.26-4.34,7.99-13.33,13.57-15.04,7.62-2.33,18.95.44,27.76-.86,11.92-1.75,22.22-8.22,33.17-10.01,7.25-1.19,11.72,2.79,19.26-.31,10.39-4.28,21.88-23.37,27.22-33.16,1.02-1.87,5.94-22.09,7.95-6.32.59,4.63-3.09,34.63,5.66,27.21,2.1-1.78,22.09-45.75,22.76-50.23,3.99-26.61-4.99-56.5-5.54-81.36Z"/>
    <path class="st53" d="M1682.78,1128.74c-3.34,7.62-4.44,20-10.95,27.67l-43.4,72.45c6.3,5.54,51.11-22.66,58.66-28.58,2.89.32,1.39,4.44.8,6.52-7,24.86-35.37,61.11-53.75,79.3-.08,1.73-.27,3.41-.86,4.93-7.19,18.43-79.7,72.52-100.36,87.81-53.93,39.92-121.02,85.78-190.62,61.76-8.16-1.4-66.24-22.82-68.49-25.98s2.79-9.59,2.68-11.21c.63-5.94,4.43-11.66,11.42-17.17.69-.72-11.88,15.41-14.28,11.44.2-13.4,1.41-23.64,4.92-36.57,5.29-19.45,16.52-33.97,23.66-52.13l-42.87,15.75c7.42-19.22,23.55-30.46,37.18-44.37l10.06-4.03c51.76,4.79,98-25.08,139.66-52.03l87.93-63.7c27.92-19.92,55.83-27.41,88.98-32.09,17.84-2.52,44.31-6.16,59.61.22Z"/>
    <path class="st0" d="M1731.42,965.65c-6.7,36.87-37.96,64.53-65.79,87.28,7.3,5.78,40.62-12.6,42.89-10.02-.02,17.75-5.11,36.86-10.61,53.74-3.99,12.24-10.5,21.54-15.12,32.08-31.71,5.24-64.55,2.79-95.16,12.13-50.25,15.34-97.23,61.42-141.42,90.34-41.97,27.47-97.96,60.94-149.68,49.17,11.41-11.64,27.81-24.91,37.21-35.75,2.79-3.22,6.89-4.72,5.68-10.03-19.45,14.02-40.47,28.53-57.19,45.78l-8.06,2.69c-29.48-21.02-56.83-45.03-82.06-72.02l-1.44-7.92c3.93-3.71,16.14-16.98,19.21-21.03,1.75-2.31.43-7.2.83-7.58,1.43-1.38,28.69,16.02,34.86,18.05,4.07,1.34,26.83,6.08,28.05,4.82l-2.84-17.12c31.77,4.11,60.3,3.71,88.46-13.14,11.67-6.99,20.93-17.7,32.59-24.64,37.17-22.13,92.46-21.27,135.01-25.21l32.91-5.68c-52.01-4.48-123.79-6.89-170.7,19.52-17.65,9.94-31.7,27.78-50.89,34.95-24.53,9.16-53.31,6.05-78.8,2.74l2.85,17.12c-13.24,6.57-52.44-28.74-55.81-28.51-4.24.29-3.46,12.34-5.69,11.36-5.63-4.73-8.76-11.33-12.89-17.15,13.42,1.16,11.2-5.57,14.7-8.24,5.31-4.05,27.73,21.47,36.79,19.67l.03-20c13.66,2.68,27.28,7.91,41.35,8.66,65.68,3.49,119.28-59.22,187.53-78.76,13.2-3.78,29.59-4.26,40.87-7.77,2.35-.73,4.92-2.59,4.9-5.12,72.95,21.35,125.09-6.22,92.21-87.01l2.2-4.54c1.1,1.61,5.15,2.63,7.94,7.74,4.79,8.78,10,36.17,13.47,40.94,5.19,7.14,35.98-7.03,43.5-10.96,20.92-10.95,37.74-30.08,58.13-40.58Z"/>
    <path class="st27" d="M1041.88,1503.55c25.94,2.99,49.61,19.36,70.02,34.41,31.77,23.43,68.95,57.91,97.43,85.68,5.53,5.39,34.15,30.65,28.75,37.4-49.8,17.45-97.71,41.53-147.62,58.46-53.1,18.01-95.96,28.2-152.98,24.35-8.37-.57-70.22-9-73-11.43-8.56-7.47,18.89-5.5,14.3-14.27-21.89-2.85-38.42,7.89-57.18,14.28-4.77-15.22-7.05-29.68-5.77-45.76-2.36-2.69-23.25,8.67-25.73,8.57-2.39-5.52-1.57-17.54,5.72-17.17,25.4-.54,69.59-16.85,92.95-14.4,15.54,1.63-15.84,14.89-9.96,20.11,41.63,2.07,82.87,4.33,124.18-3.11,32.09-5.78,116.55-36.28,141.73-55.67,2.56-1.97,6.16-3.95,5.51-7.9-.66-4.08-23.84-36.93-28.4-42.61-19.87-24.8-50.64-51.29-77.1-68.08-3.86,3.85-5.46,2.19-2.86-2.86Z"/>
    <path class="st46" d="M1516.83,1898.39c-.2-5.7.25-11.46-.02-17.15-97.05-15.92-168.93-89.31-251.05-136.82-3.39-1.17-6.58-.57-9.99.02-21.6,3.73-60.36,23.53-82.33,32.3-9.86,3.93-23.59,7.86-34.1,10.25-.53,3.7-.3,7.53-.18,11.26-2.45-11.96-15.5-69.94-11.04-76.86l134.33-50.62c56,41.34,112.08,92.19,178.51,116.09,14.41,5.18,55.9,12.5,63.21,16.91,2.51,1.52,20.85,27.57,21.31,30.41l-8.64,64.22Z"/>
    <path class="st109" d="M1745.72,2599.37c23.86-56.4,35.75-9.99,52.76-11.27,24.76-57.88,46.49-8.46,60.29-8.58,7.86-.07,7.37-17.35,21.46-10.26,4.9,2.47,19.98,32.29,25.71,38.66-17.86-4.98-29.73-2.97-46.52,3.58-4.36,1.7-37.03,18.89-30.72,25.05,7.48-1.28,12.63-6.91,20.06-9.95,10.76-4.4,29-10.96,40.08-8.92,35.55,6.57,44.15,69.69,48.57,99,6.38,26.14-12.91,29.8-33.62,31.84-42.93,4.22-59.86-10.12-69.38-51.87-7.64-43.26-20.77-91.68-71.51-50.06,13.53,2.08,32.49-15.48,45.05-3.56,9.78,9.28,15.63,59.26,15.02,73.65,2.53,30.71-6.78,33.14-34.56,32.1-33.96-1.27-53.66-17.56-46.41-53.41,9.68-32.38,12.53-64.02,3.72-96Z"/>
    <path class="st78" d="M864.49,2653.74c7-20.98,36.47-87.24,58.79-91.4,25.39-4.73,58.7,13.51,85.36,11.01,47.71-4.48,60.04-45.08,114.82-39.76,20.79,2.02,12.83,16.86,15.74,32.84,3.37,18.45,29.18-7.43,40-7.09-.73,8.79-4.05,16.56-2.85,25.74l-1.98,8.9c-61.64,57.6-125.29,83.95-208.74,82.64-10.58-.16-35.25-.6-32.47-14.3,8.59-22.34,30.8-74.69,58.64-74.64,19.78.04,42.82,13.5,61.51-1.2-28.1,1.18-55.86-14.6-82.96-7.14-26.26,18.5-42.28,46.38-57.32,73.86-6.32,11.52-13.72,15.05-26.28,15.59-11.79.51-28.06.4-22.26-15.05Z"/>
    <path class="st12" d="M1282.22,1280.38c-7.53,7.77-43.34,50.16-34.32,60.07,3.62-.13,8.16-1.39,11.43-2.85,7.27.26,9.82,5.77,7.64,16.54l-6.84,29.24c3.33,16.68.2,23.36-9.39,20.02-17.94-7.47-67.09-25.75-84.4-25.75h-45.78c-.61,0-3.25,4.28-4.26,2.86-5.87-9.63,20.26-45.46,17.12-48.62-23.43,4.77-61.67,49.26-31.94-4.79,16.81-30.56,45.87-57.02,71.99-79.67l-42.88-2.81c19.3-14.57,42.35-24.77,60.07-41.5,34.3,22.18,51.41,61.02,91.56,77.25Z"/>
    <path class="st126" d="M1874.48,822.59c6.94,13.49,13.76,25.46,18.63,40.11l3.14,2.54c2.48.46,4.61-2.6,5.41-2.6h54.36c11.99,0,29.39,17.22,41.49,20.03,2.71-2.66,6.52-.75,11.44,5.72,1.01,3.03,4.93,5.95,2.85,11.43-35.87-13.18-65.7-16.73-100.79.78-19.41,9.68-19.37,17.25,3.51,10.7,1.14,1.25-.88,15.7.02,20.01-10.56-.46-7.66-1.47-8.53,7.08-.68,6.75.2,10.57-2.25,17.91-11,32.91-120.97,117.49-153.66,138.18-15.46,9.79-35.09,22.74-53.01,25.67,10.46-26.34,16.97-54.39,20.46-82.55,15.36-5.94,115.09-48.28,119.21-55.23,7.03-11.86-23.3-15.72-30.94-13.89-9.28-6.49,43.63-5.93,47.33-5.83,6.11.16,16.52,5.55,20.07.26-1.77-37.48-14.95-74.79-32.57-107.9-3.09-5.8-17.57-23.72-17.6-25.26-.18-8.96,36.08-2.29,41.86-1.78s11.09,3.24,9.59-5.37Z"/>
    <path class="st37" d="M1310.83,662.37c.66-3.36-.48-7.81.03-11.44l8.54,2.88c4.58-23.92,18.4-46.18,35.8-62.96,2.81,1.01,1.57,7.21,1.37,9.94-.32,4.28-7.44,24.08,1.42,21.47,20.21-5.95,53.85-53.82,74.46-65.75,4.69,1.92-7.42,29.94,2.81,25.71,15.96-15.58,33.49-32.77,52.07-45.22,10.25-6.87,26.54-18.16,38.08-16.28-4.11,3.32-17.78,19.76-14.26,24.33,32.35-12.44,67.23-14.19,100.09-2.82l-24.18,5.81-7.27,5.56c22.98,6.7,41.52,24.47,51.49,45.81l-4.98,4.23c-51.8-28.12-108.47-19.24-155.52,14.92l-66.13,50.36c-29.01,22.3-101.27,63.44-93.82-6.56Z"/>
    <path class="st87" d="M1473.91,1457.77c12.1-14.67,47.24-54.5,63.75-60.71,13.11-4.93,29.27-.96,43.24-2.53,23.91-2.7,34.22-16.16,59.87-2.04,5.75,3.16,46.44,35.46,49.25,39.45,5.66,8.03-11.65,6.71-10.11,17.26-2.05,7.72-16.65,3.57-22.41.77-14.94-12.95-30.46-25.06-46.54-36.33-18.25-8.61-58.42,4.56-71.25,9.8-2.36,2.17-13.88,1.07-4.23,8.59,18.42-.38,53.82-12.53,69.92-7.02,3.17,1.08,51.55,39.43,51.52,42.78,0,.97-10.59,15.12-11.34,15.73,3.04,11.61-20.56,13.31-29.18,6.6-22.65-25.25-47.34-41.56-82.4-32.35-8.01,1.71-25.98.3-25.74,11.43,18.71,1.48,35.68-6.31,54.43-1.5,6.21,1.6,42.87,25.44,42.79,28.69-3.47,2.93-5.98,6.32-8.54,10.01-.15,27.07-34.6,15.79-51.4,7.82-21.17-18.39-44.48-32.95-69.94-43.7-5.99-4.68-6.48-6.42-1.69-12.76Z"/>
    <path class="st125" d="M1021.85,1477.8c-11.88-3.79-25.57-5.02-37.17-9.99,46.5-65.31,135.76-89.76,211.74-68.72l25.7,10.01c-10.15-.13-42.61,9.44-45.37,19.23-1.75,6.22,2.17,11.61,1.78,13.84-1.52,8.78-54.51.17-22.21,35.6-11.64,1.96-26.04.65-22.89,17.2-6.65,1.09-14.14-1.21-22.47-6.9-29.19-6.61-58.89-10.04-89.11-10.27Z"/>
    <path class="st26" d="M1176.35,2585.07c2.05,15.54,13.42,2.89,25.76,5.71-.59,8.58,1.27,18.24-.61,26.59-2.02,8.95-35.66,48.08-45.17,52.11-22.48,9.54-89.24,17.71-116.29,21.04-28.42,3.5-63.03,8.64-91.25,6.23-33.13-2.83-25.19-9.57-15.63-34.44,5.55,4.49,12.35,6.85,19.35,7.84,24.19,3.43,86.9-5.91,111.68-12.72,41.43-11.38,79.01-46.17,112.17-72.38Z"/>
    <path class="st48" d="M1081.93,619.45c-4.49-13.77,28.24-53.22,45.75-45.78,4.97-8.23-18.75-11.52-19.98-17.13,43.68-13.89,74.34,13.63,98.7,45.73l1.45-22.87c18.59,12.49,28.02,33.61,34.34,54.34,4.21.86,2.45-11.45,7.11-2.83,4.11,7.6,5.53,19.98,7.19,28.62l5.67-2.89c-.66,9.26,1,19.57.02,28.63-11.26,30.73-36.86,10.4-51.97-5.29l-52.3-53.81c-27.76-23.62-44.5-26.1-75.98-6.7Z"/>
    <path class="st117" d="M1073.35,233.19l1.69-.63c1.42-28.49,7.97-34.38,32.64-19.4,44.76,47.93,88.1,89.8,145.92,123.03.95,13.6-21.97,17.2-33.39,16.94-31.52-.72-63.22-32.66-82.17-55.38-1.82,1.48-3.06,1.08-4.61-1.62-6.21-8.86-35.52-55.94-39.99-58.74-15.57-9.75-17.54,35.81-17.44,45.9.13,14.22,3.88,42.11,6.15,56.96,1.98,12.95,7.47,30.24,11.19,43.18-.59,2.88-3.93,1.85-5.74.02-3.57-3.62-16.34-88.75-17.09-100.22-1.19-18.25.8-33.04,2.83-50.04Z"/>
    <path class="st137" d="M1099.1,742.48c18.82-6.86,30.27-3.04,34.33,11.44,6.67.34,10.49,2.25,11.44,5.72,11.6,3.3,22.72,2.22,34.32,4.28-25.75,18.95-51.58,37.52-73.02,61.45l-35.66,54.42-.04-25.72-14.26,5.71c-3.18-4.68,6.91-43.86,10.01-51.48,2.81-6.91,15.65-22.9,15.66-24.35.03-8.11-21.07-2.51-24.99-2.12-3.23.32-8.69,2.54-6.39-3.56,5.67-15.01,32.55-34.29,48.61-35.81Z"/>
    <path class="st42" d="M1099.1,645.2l4.44,3.42c-.37,8.05-3.76,15.49-10.16,22.33-10.24,23.43,4.17,45.89,14.31,65.78-31.09.2-57.59,23.74-65.85,52.92-.03,6.32,26.16-8.01,31.51-4.22-5.49,8.82-10.32,17.84-13.68,27.78-3.14,9.29-15.34,53.75-4.91,58.01l9.99-8.56,2.89,42.92c-15.59-1.04-31.27,3.94-42.91,14.29-1.41-36.52,9.88-72.17,22.86-105.84-12.56-4.1-22.13-2.18-34.34-1.4-3.53.23-4.79,3.1-2.82-2.87,6.66-20.22,18.24-40.19,28.57-58.71,11.66-14.36,24.06-31.53,37.2-51.5,3.87-21.74-.09-41.17,2.86-60.08,5.27-10.8,22.4-5.19,20.03,5.72Z"/>
    <path class="st129" d="M1522.55,645.2c24.07,77.1-82.78,127.48-131.61,71.53l.53-7.44,23.65-14.96c6.01-6.33,12.25-9.35,18.74-9.08.67-.13,9.81-7.09,11.47,1.5.78,4.04-10.54,9.84-1.08,12.41,13.13,3.57,25.03-2.63,29.88-15.12,3.28-8.44,1.07-16.29,2.65-21.68-6.17-9.19,34.54-22.35,41.8-22.57l3.98,5.4Z"/>
    <path class="st71" d="M1579.78,1572.22c-12.73,3.07-16.63-10.7-20.88-13.43-68.62-44.11-133.94-56.1-208.01-82.41-46.32-16.45-90.3-40.86-137.34-55.79,3.7-.9,7.83-4.34,13.61-5.05,20.3-2.48,47.43,16,66.59,23.55,123.69,48.71,185.78,26.09,286.02,133.14Z"/>
    <path class="st24" d="M1342.3,1440.6c68.48,11.73,124.2-20.18,177.14-58.9,35.83-26.2,83.41-64.64,114.69-95.6,6.8,14.44-16.88,48.32-27.14,57.27-15.23,13.28-59.52,33.73-78.45,44.58-31.35,17.96-58.04,49.47-79.46,78.1-35.56-7.91-73.33-9.97-106.79-25.44Z"/>
    <path class="st5" d="M1562.61,628.03l10.46,12.42c5.44,15.4,7.93,12.49,3.84,30.5-.58,25.51-18.55,58.87-40.06,71.53-25.29,10.52-37.6,28.11-71.53,31.47-10.39-6.06-22.96-5.9-34.33-8.58-4.66-4.42-3.45-6.53,1.56-9.54,18.48-.26,41.72-.59,55.66-13.35,32.66-25.26,38.16-25.94,48.64-68.67l1-36.09c3.28-9.36,17.87-18.37,24.75-9.68Z"/>
    <path class="st29" d="M1018.99,1286.1c2.37-1.07,6.56-5.69,8.57-1.45-32.47,30.97-77.59,48.18-111.61,77.23-91.83,78.45-88.26,164.97-113.01,273.25-3.27,14.31-3.81,29.16-7.13,42.94-1.5,6.26-6.31,10.45-5.72,17.17-4.31-.16-2.6-4-2.89-7.1-3.39-35.63,17.6-72.45,22.68-106.15,11.69-77.51,3.22-121.82,57.52-188.54,32.96-40.49,103.87-85.75,151.58-107.36Z"/>
    <path class="st113" d="M2011.81,2728.13c1.07,9.67-13.19,11.75-21.18,11.91-17.78.36-28.5-6.89-33.47-24.46-4.64-30.21-14.08-57.5-28.32-81.87-.97-2.27-5.6-5.21-5.72-8.55,1.98-1.5,43.16,7.6,48.65,9.98,25.89,11.22,37.67,67.5,40.05,93Z"/>
    <path class="st141" d="M1631.28,599.42c2.21,4.72,8.36,8.46,5.69,17.17-17.89-12.11-42.86-21.12-64.39-22.84-82.33-6.59-134.92,64.07-197.29,103.04-16.24,10.15-32.82,22.82-52.17,11.93-17.93-10.1-15.5-29.9-12.29-46.34-1.05,44.47,31.06,36.88,59.92,21.29,73.4-39.65,116.45-114.75,215.94-101.15l44.6,16.92Z"/>
    <path class="st18" d="M1173.49,939.9l-1.78,6.97c-13.01,8.15-48.97,23.66-61.35,13.45-5.29,3.81-10.95,1.77-16.99-6.11-20.3-32.88-18.33-61.12.04-94.4l18.42,34.46c8.76,4.9,15.63,14.34,23.5,19.42,9,5.81,29.64,11.74,35.33,16.25,4.27,3.39,1.89,7.58,2.83,9.97Z"/>
    <path class="st44" d="M1782.92,945.62c25.69,1.98,55.89-6.88,77.25,11.44-14.98.64-32.6-1.74-46.96.25-7.03.98-36.29,11.23-20.3,15.73l32.9,6.88c-29.3,12.13-56.72,28.99-85.82,41.52-13.34,5.75-32.63,15.9-45.76,14.32,22.1-18.17,33.26-42.39,45.76-67.25,7.34,3.8,14.96,13.4,20.03,20.03,2.26,6.74,5.12,4.83,8.58-5.72-5.99-15.36-18.54-58.72,6.52-34.78,2.3.74,6.68.82,7.78-2.42Z"/>
    <path class="st101" d="M1717.11,1231.74c.17,10.15-7,16.24-10.07,25.7-4.46,13.76-4.75,38.38-9.18,48.04-2.08,4.53-14.37,12.38-19.4,17.8-3.35,3.61-12.43,18.82-13.45,19.41-8.56,4.93-34.05-5.51-45.16-2.23-3.06-2.6,21.6-33.08,23.97-37.49,5.25-9.75,5.16-16.74,10.35-25.44.82,4.93,9.99-3.57,11.18-4.57,16.74-13.99,35.97-27.56,51.77-41.21Z"/>
    <path class="st112" d="M1116.27,1243.18c3.05,15.32,24.65,8.72,34.32,12.86-36.48,29.4-61.54,60.84-77.78,105.33-2.84,7.78-3.21,22.51-6.7,27.63-2.65,3.87-32.25,13.38-39.56,17.66-6.87,4.03-30.8,22.5-36.16,28.21-7.66-15.26,3.63-10.99,11.25-18.81,9.67-9.92,32.78-33.13,40.25-42.71,16.2-20.79,29.13-52.35,47.45-75.58,5.53-7.01,23.38-21.1,25.75-26.04,2.55-5.32-3.42-6.85-3.47-9.98-.03-1.74,3.5-4.02,3.68-6.07.5-6.03-3.89-7.02.98-12.51Z"/>
    <path class="st134" d="M1745.72,2599.37c6.89-1.62,6.3,3.6,7.21,8.38,1.63,8.55,4.29,24.83,4.44,33.07.62,35.3-37.6,95.26,24.15,101.56,26.34,2.69,40.25,3.04,41.45-25.71l5.09,44.04c-12.55,21.48-74.34,5.79-85.29-8.96-22.72-30.6,2.45-73.05,3.04-102.47.22-11.09-5.93-26.54-5.9-37.16.02-8.68,4.22-9.01,5.81-12.76Z"/>
    <path class="st10" d="M1253.6,336.2c3.3,1.9,25.92,7.27,22.87,12.84l-72.89,50.12c-22.25-35.18-46.33-69.02-70.15-103.01,5.27-4.43,6.52-.32,10.01,2.77,30.47,26.97,67.8,68.82,110.16,37.29Z"/>
    <path class="st121" d="M1127.71,301.86c23.65,34.79,49.06,68.49,71.03,104.46-8.53,5.5-32.58,47.09-42.41,38.58,9.41-17.08-13.16-12.93-22.88-24.31l25.68-8.57c-13.01-12.92-20.67-25.33-28.56-41.49,1.94-4.27,6.54-4.3,13.82-.12-2.84-3.24-3.27-5.45,1.01-8.02-11.9-17.68-19.72-36.48-23.45-56.4l5.76-4.14Z"/>
    <path class="st60" d="M1425.27,1034.32c-13.46,1.27-57.35,37.63-64.41,37.11-6.59-.49-4.52-46.26-4.26-54.28-1.69-23.31,58.65-27.01,71.8-20.78,26.53,12.59,20.56,27.94-3.13,37.94Z"/>
    <path class="st36" d="M1937.42,2716.68c1.43,9.51,8.68,36.95,3.07,44.57-13.48,18.33-88.64,15.36-98.95-1.62-1.64-2.71-5.3-52.64-7.13-62.97,18.56,19.15,8.41,39.41,42.17,45.1,18.55,3.13,66.48,3.17,60.83-25.07Z"/>
    <path class="st35" d="M1096.24,361.95l3.55-4.92c-.97-10.2-5.68-68.16-1.66-72.02,8.95-8.61,21.53,4.01,9.56,8.27-4.87,4.27-1.4,8.38-.11,12.88,4.36,15.2,12.31,29.29,20.12,42.93l-11.44,1.42c.46,11.45,6.53,22.44,12.03,32.33,4.24,7.63,17.51,21.78,19.44,26.35,3.77,8.89-24.34-1.19-22.84,11.35,2.59,7.34,19.72,12.43,21.57,15.63,2.9,5-10.05,12.12,12.72,15.88-6.01,7.82-11.13,18.07-17.19,25.64-2.22,2.77-2.15,1.37-4.13-1.4-18.48-25.77-34.02-82.77-41.6-114.34Z"/>
    <path class="st123" d="M1133.44,659.51c10.31-9.1,39.76,9.6,40.06,22.89,3.58,2.87,5.89,6.04,11.44,5.76-15.02,10.14-4.01,22.8,9.54,22.14,13.24-.64,14.96-17.19,30.46,5.01-41.96,47.12-107.16,2.43-91.49-55.79Z"/>
    <path class="st22" d="M1425.27,1034.32c4.67-8.98,19.16-13.87,12.97-25.78-7.42-14.28-73.06-10.57-81.63,8.62.18-5.68-2-28.29,4.27-28.55.85-.03,6.14,5.45,11.43,5.47,10.8.04,11.86-11.81,18.24-12.76,7.05-1.05,12.54,6.2,23.47,3.2,8.78-2.41,7.35-26.2,32.19-18.33,7.96,2.52,4.78,14.37,17.13,10.98,4.59-1.26,4.68-13.67,10.54-14.35-9.53,26.29-12.38,72.32-48.61,71.51Z"/>
    <path class="st84" d="M1127.71,301.86c-.69,6.15,2.34,20.65,4.21,25.83,3.78,10.46,10.61,25.35,15.26,36.24,2.4,5.63,11.92,12.78,7.72,18.03l-24.33-11.43c-.78-1.6-7-7.49-5.72-8.56l20.01,1.42c-15.78-21.73-28.43-44.79-37.18-70.11-1.3-3.78,3.01-7.06-5.71-5.71l2.86,78.66-8.6-4.28c-4.42-18.4-9.99-36.78-11.41-55.83-.88-11.76-1.93-52.52,1.35-61.52,2.51-6.9,3.1-2.27,5.07.7,12.37,18.64,23.93,38.13,36.46,56.57Z"/>
    <path class="st4" d="M1041.88,1503.55c.93.54,1.74,2.15,2.86,2.86,4.28,6.21,3.98,7.01-3.69,5.14-48.16-11.72-83.55-20.31-131.54-1.6-12.59,4.91-26.18,15.74-38.23,19.06-6.06,1.67-3.37-1.89-3.94-5.43,51.18-49.99,113.08-55.43,174.53-20.03Z"/>
    <path class="st116" d="M1119.13,668.09c2.22,22.48-.43,31.66,14.31,51.5l6.29,13.65c22.2,16.69,22.22,27.87-6.29,20.68-14.72-6.84-12.69-13.49-34.33-11.44l17.15-4.28c-15.21-18.92-22.93-43.01-22.87-67.25,0-3.85-.88-8.79.08-12.22.51-1.84,9.68-4.21,5.65-13.53,15.59-8.55,25.06,7.6,20.03,22.89Z"/>
    <path class="st72" d="M1133.44,1494.97c4.29,4.32,5.18,11.86,8.58,17.13-9.27,2.87-21.02,2.47-21.44,14.33-29.35-22.57-63.7-37.45-98.73-48.62,29.17-6.39,89.26-5.33,111.59,17.17Z"/>
    <path class="st86" d="M970.35,2579.35c-29.51,29.91-53.8,68.56-57.24,111.57-13.95-1.87-40.46,4.52-51.41-4.39-10.23-8.32-.28-23.59,2.79-32.79-1.05,13,28.57,9.67,34.29,7.11,7.8-3.5,22.23-34.39,28.66-42.87,8.15-10.74,30.86-35.31,42.91-38.63Z"/>
    <path class="st21" d="M1465.33,922.73c5.29,1.54,7.2,7.26,5.72,17.17-2.65,8.18-3.41,19.56-8.62,28.6-4.9,3.63-23.33-25.76-30.06-25.21-9.16,4.15-14.99,32.16-23.2,33.56-5.18.88-14.17-12.6-22.25-11.44-4.87.7-9.1,31.86-24.32,12.64-3.81-4.81-1.6-3.96-.28-6.69,16.23-11.43,31.64-24.14,46.23-38.12,24.49,1.2,26.8.38,40.7-19.35,9.57-3.62,16.41-2.22,16.07,8.84Z"/>
    <path class="st119" d="M1265.05,645.2c-.5-7.55.33-15.32.03-22.89l7.11,14.29,14.33-14.28c7.27,20.94,9.56,9.73,17.15-2.9,2.93,7.24-3.64,16.02-1.5,23.91.8,2.96,5.61,1.62,5.8,1.87,1.25,1.68-8,35.12-5.92,41.51l7.32,27.19c-22.92-10.95-25.44-37.33-24.32-60.1-7.3,3.46-6.52,20.37-5.75,27.24.69,6.2,10.07,22.9,8.63,24.23-2.02,1.87-11.6-.55-14.51-4.06-8.05-9.73-4.63-36.54-5.39-49.08-.23-3.71-2.95-6.47-2.98-6.93Z"/>
    <path class="st13" d="M1928.84,2633.71c6.61-1.03,10.86,9.84,12.87,14.32,7.62,16.95,19.36,70.21,27.11,78.75,10.55,11.63,30.49,8.13,43,1.35.37,3.97,2.86,7.74,2.65,12.67-.87,20.23-44.74,21.84-59.56,15.63-.79-41.36-9.8-84.56-26.06-122.73Z"/>
    <path class="st47" d="M1121.99,1157.35c3.96.07,9.91-1.04,2.34,3.73-41.14,25.88-60.72,36.02-93.82,75.03-13.93,16.42-25.06,35.21-37.27,52.85-2.13.61-6.37,5.95-8.56,1.46,13.07-35.06,35.2-64.08,62.9-88.76l-17.14-9.94c30.84-10.2,61.46-22.23,91.55-34.36Z"/>
    <path class="st93" d="M1914.53,1117.29c40.67,40.8,81.53,81.67,120.15,124.47-7.77,2.81-16.64-2.99-24.69-4-5.45-.68-11.2-2.98-9.63,5.42-.78-.55-5.17,1.19-7.87-.62-1.77-1.19-8.43-14.39-9.33-17.95,0-2.84,21.06,3.3,17.17-5.71-2.31-5.34-42.55-39-51.4-48.76-10.39-11.46-31.82-37.1-38.73-49.97-4.11-7.65-.03-6.17,4.32-2.89Z"/>
    <path class="st94" d="M1688.5,1386.24c-.44,15.95-3.48,15.85-17.82,9.55-24.21-20.91-48.84-26.54-73.89-16.87-11.14,2.01-25.52,4.11-11.3-6.99,20.62-13.24,31.4-22.39,58.35-19.72,12.18,1.21,37.73,10.79,46.11,19.71,7.36,7.84,2.56,7.17-1.45,14.32Z"/>
    <path class="st122" d="M1262.19,685.26c-1.27,11.82-8.47,28.74-22.92,24.59-18.88-5.43-68.59-67.04-88.63-83.27-23.24-18.82-34.77-21.14-61.48-7.05-2.67,1.41-5.2,6.48-7.22-.07,53.05-53.27,98.34,28.61,135.83,60.16,16.09,13.54,27.47,25.39,44.42,5.65Z"/>
    <path class="st14" d="M1247.88,1022.87c17.89-15.03,28.25-15.57,34.33,8.58,6.98,1.52,14.56-10.79,22.87-8.57l-5.72,34.33-15.72-14.26c-5.42,1.95-11.45,19.97-14.31,19.92-2.62-.04-5.2-12.49-14.46-14.27-12.52-2.4-6.38,14.94-14.11,11.45-2.35-1.06-4.54-5.96-7.3-7.31-5.84-2.88-13.43,5.53-11.39-2.72,2.29-9.22,17.66-23.7,25.8-27.15Z"/>
    <path class="st43" d="M1473.91,1457.77c1.63,11.88,17.62,11.86,26.73,17.62,24.35,15.4,43.14,39.85,75.01,41.7,15.2.88,14.38-.69,21.3-10.68-3.91,7.04,8.82,20.83,7.24,22.92-6.35,8.39-29.99,10.78-39.56,7.96-2.92-.86-37.5-32.82-46.91-38.92-17.09-11.07-35.81-20.2-55.24-26.33-1.42-1.9,9.68-12.14,11.44-14.27Z"/>
    <path class="st64" d="M1616.97,613.73c-19.13.27-37.18,6.98-54.36,14.31-4.94,2.11-14.05,3.09-17.35,7.7-5.39,7.51-5.77,27.36-8.4,38.08.57-13.22.18-26.85-5.19-39.16-6.32-14.49-24.18-20.43,4.51-28.75,31.43-9.11,52.48-2.93,80.78,7.82Z"/>
    <path class="st88" d="M1525.41,1008.57c-5.37-2.72-9.83-8.8-15.78-11.28-12.83,22.12-18.05,24.6-41.65,12.5l14.55-44.13c10.42-2.45,16.68,24.73,24.24,22.87,4.75-1.17,8.56-22.9,10.06-28.6,15.38,6.86,32.12,42.62,8.58,48.64Z"/>
    <path class="st33" d="M1310.83,999.99c-11.27-15.85,30.37-15.24,33.5-11.86,2.14,2.31,4.22,18.92,3.69,23.3-.45,11.52-.57,24.36-.12,35.88.12,3.1,6.84,25.32-1.28,21.32-15.83-20.46-28.02-43.91-35.8-68.65Z"/>
    <path class="st114" d="M1431,765.37c-25.49-6.01-53.25-14.48-68.81-38.48-7.38-11.39,4.59-15.56,11.61-11.78,3.31,1.78,4.19,7.14,6.69,9.21,34.28,28.43,64.88,34.84,107.74,18.15-.33.25.94,3.66-.52,5.13-1.65,1.66-26.15,10.46-30.19,11.37-8.93,2.01-21.9-3.37-26.51,6.39Z"/>
    <path class="st124" d="M1476.74,902.68c-4.82-.69-3.35-6.44-9.19-9.38-22.64-11.39-34.98,28.02-41.07,29.35-3.28.72-8.31-6.1-12.62-5.68,16.84-22.02,50.3-73.05,79.95-41.12l-17.06,26.83Z"/>
    <path class="st81" d="M978.93,1452.05c-2.95,3.91-6.25,12.42-10.48,13.85-8.73,2.94-29.5.21-41.75,4.02-10.25,3.18-19.09,12.72-30.74,16.47-1.59.51-20.22,6.24-17.14-1.39,1.92-4.77,33.15-26.56,39.46-29.23,18.54-7.84,41.96-11.75,60.66-3.72Z"/>
    <path class="st108" d="M1093.38,954.21l11.42,5.72c-2.66-7.49,2.3-16.55,8.44-11.33.76.65-.36,9.69,4.32,10.67,10.62,2.24,44.51-14.77,55.94-19.38,1.62,4.1,7.08,13.64,4.56,17.28-40.31,11.39-55.11,44.91-84.67-2.97Z"/>
    <path class="st103" d="M1679.92,1449.19c.92.63,4.48,16.69,11.4,18.6-.02.92-13.1,10.51-15.48,9.96-2.18-.5-24.18-27.45-30.21-32.89s-31.46-26.98-37.07-28.73c-21.02-6.55-47.39,6.82-68.83,7.31.34-.32-.59-3.92.77-4.84,3.68-2.5,51.57-12.76,57.54-12.19,23.71,2.23,39.5,28.05,59.93,37.57,6.56,3.06,21.04,4.58,21.96,5.22Z"/>
    <path class="st74" d="M838.74,2639.43c8.69-25.05,26.89-73.47,57.22-74.36-16.37,26.51-35.39,53.29-45.78,82.94-8.14,9.4-15.93,3.13-11.44-8.58Z"/>
    <path class="st73" d="M1682.78,1514.99c-24.38,6.96-28.26,9.44-42.77,27.21-7.54,9.23-39.32,12.88-51.64,15.74-1.47,1.47,13.69,15.39,0,14.28-1.99-3.98-15.33-18.84-11.46-22.87,15.66,5.27,34.74-14.98,42.1-16.89,5.87-1.52,12.99,8.41,20.84,5.44-4.04-21.89,6.65-18.31,20.9-25.79,1.88-.99,1.75-5.43,3.85-5.8,7.17-1.27,13.62,3.69,18.17,8.7Z"/>
    <path class="st9" d="M1522.55,645.2c-6.41-.92-45.09,14.81-45.78,17.17l-14.29-19.98c27.76-12.13,45.67-43.32,60.07,2.81Z"/>
    <path class="st133" d="M1471.05,908.43c8.97,4,.18,11.4-5.72,14.31-15.6-15.21-20.16,9.26-31.55,12.68-8.79,2.64-16.4.46-24.95,3.79-14.88,5.8-27.32,32.82-46.51,32.17,4.62-9.51,39.04-33.63,45.86-47.32,8.35-5.3,15.12,10.05,22.8,6.04,7.57-3.95,13.07-29.21,25.51-31.83,8.23-1.74,11.38,8.01,14.56,10.17Z"/>
    <path class="st67" d="M1534,1457.77c30.63-6.54,38.43-9.13,65.62,10.2,6.51,4.63,9.3,12.32,12.26,14.63.75.59,17,6.48,17.95,6.49,1.16,0,15.11-5.04,15.75-5.57l8.58,19.98c-30.49,17.45-35.35-8.99-55.85-25.64-20.55-16.7-37.02-23.62-64.31-20.09Z"/>
    <path class="st85" d="M1119.13,668.09c-1.83-18.49-5.27-16.36-20.03-22.89-5.86-2.59-10.13-8.68-20.03-5.72,3.11-19.9,40.36-25.79,54.4-15.67,6.02,4.34-7.99,20.96-10.14,27.01-2.01,5.64.56,13.42-4.2,17.27Z"/>
    <path class="st128" d="M1142.02,1148.77c4.75-1.97,22.97-13.07,25.51-11.3,7.5,17.46,21.28,31.21,34.56,44.21-7.87,3.44-11.22,10.07-17.15,15.72-7.52-20.91-28.17-33.37-42.92-48.64Z"/>
    <path class="st140" d="M1585.5,1371.94c-5.1,7.63-2.71,5.61,4.35,5.75,15.67.31,11.35-4.34,15.05-5.49,29.12-9,52.43,14.78,79.42,22.49.85.12,2.86-6.1,4.18-8.44-4.16,8.98,9.22,16.86,8.44,21.11-.47,2.54-6.02,7.35-9.38,7.08-7.94-.66-38.52-33.49-57.45-37.28-18.34-3.67-45.52,8.76-64.65,9.07,3.1-8.75,14.16-10.51,20.03-14.28Z"/>
    <path class="st41" d="M1133.44,719.59c21.11,28.42,50.98,28.91,82.97,20.06-9.27,11.64-35.56,19.54-50.22,20.11-7.22.28-15.8-6.32-21.31-.11-3.46-.98-7.84-4.05-11.44-5.72l20.03-.03c-9.84-11.65-23.46-15.25-20.03-34.3Z"/>
    <path class="st19" d="M1259.33,1337.6c6.96-3.11,16.56-10.96,24.34-14.29,1.94-.63,1.96,2.35,1.37,4.22-3.85,12.14-14.18,26.26-16.44,40.8-2.19,14.08.18,29.41-.71,43.66-.57.77-14.44-7.46-17.14-8.58,8.81-3.54,2.7-13.93,3.71-20.65,2.13-14.16,11.47-32.28,4.88-45.16Z"/>
    <path class="st39" d="M1310.86,1028.6c4.03-4.09,21.7,34.19,22.36,39.39,2.96,23.28-27.09,17.16-30.59,4.35-2.43-8.91,9.13-32.71,8.23-43.75Z"/>
    <path class="st110" d="M1502.53,948.48c-4.91-6-7.19-15.65-6.85-28.94-6.69-1.95-11.09-4.7-13.18-8.26,1.39-22.55,24.71-36.64,35.14-10.58,3.31,8.28-7.14,42.72-15.11,47.78Z"/>
    <path class="st82" d="M1150.58,982.8c-1.88,10.91,12.69,25.94,13.55,33.24,1.13,9.64-5.06,29.43-2.11,41.16l-12.75-22.97c-3.31-7.79-17.16-43.12-12.67-48.27.58-.67,11.28-2.34,13.99-3.16Z"/>
    <path class="st50" d="M1903.09,1020.01c18.71,27.77,23.47,39.8,49.57,63.45,3.21,2.91,6.07,1.51,1.94,5.21-33.97-6.53-59.72-50.37-61.53-82.96,2.52,5.35,7.2,10.09,10.03,14.29Z"/>
    <path class="st6" d="M1173.49,682.4c-12.07-9.68-24.3-19.33-40.06-22.89,2.39-8.86,5.52-16.86,12.88-22.84,12.96,17.68,36.86,19.98,27.18,45.73Z"/>
    <path class="st76" d="M1456.76,1028.58c4.26-20.34,16.96-7.45,27.36-5.82,22.41,3.5,20.32-12.91,25.74-14.16,3.12-.72,14.01,12.03,27.84,8.64,3.8-.93,7.02-16.08,13.44-17.24,1.1,6.54-4.15,23.14-10.44,25.29l-83.93,3.3Z"/>
    <path class="st100" d="M1390.94,716.73c-1.45-1.67-5.56-2.55-7.18-5.6-5.8-10.95,2.62-7.85,8.12-11.95,10.92-8.12,21.2-17.07,32-25.34l4.25,11.44c1.83-.14,3.97.31,5.72-.03-11.32,14.11-28.64,20.64-42.92,31.47Z"/>
    <path class="st34" d="M1307.97,716.73c-12,10.62-33.06,8.24-48.59,12.95-4.15,1.26-15.45,3.63-8.63,9.94-.52,2.6-1.49,2.5-2.86,0-7.21,2.34-16.41,3.96-14.31-5.72,12.46-9.66,42.87-24.59,58.39-22.84,4.86.55,10.24,4.41,16,5.67Z"/>
    <path class="st45" d="M1176.3,1028.62c.92.78,11.14,18.79,12.04,20.9,5,11.76,8.97,26.91-1.97,36.25-8.81.12-18.43-47.06-15.75-55.73-.34-2.48,5.34-1.71,5.68-1.42Z"/>
    <path class="st11" d="M1207.81,1005.72c-.06,7.7.97,15.41-1.28,23-.87,2.93-8.72,17.68-12.96,14.16-5.38-15.11-22.23-18.09-14.34-37.16,6.49-1.84,9.25,7.68,13.24,8.37,5.67.99,8.44-10.17,15.34-8.37Z"/>
    <path class="st93" d="M2034.7,1317.57l-2.83,7.1c-10.14-22.54-17.38-46.69-31.51-67.18-.07-3.11-6.5-8.45,2.86-11.44,16.41,13.12,27.05,51.29,31.47,71.53Z"/>
    <path class="st99" d="M1348.02,1011.43c-2.67-8.15-8.82-8.74-5.73-20.05-7.51,3.5-31.37-3.77-31.47,8.6-1.04-3.31-8.14-12.94-3-15.83,7.57-4.25,33.22.16,43.03-9.92-.42,10.02.68,20.24.14,30.27-.2,3.69-2.96,6.55-2.98,6.93Z"/>
    <polygon class="st38" points="1119.12 1346.2 1107.17 1380 1084.8 1383.37 1087.46 1367.44 1119.12 1346.2"/>
    <path class="st131" d="M1502.53,948.48c-1.77,1.12-3.92,3.32-5.77,1.64-3.12-9.62-13.35-19.74-17.12-27.39-10.49-.38-9.27-10.24,0-11.44.93.16,1.95-.2,2.86,0,3.29.71,7.87-.81,12.19.58,12.85,4.13,6.5,25.8,7.84,36.62Z"/>
    <path class="st7" d="M1525.41,1008.57c14.87-11.81-1.06-36.54-8.58-48.64.47-1.79-1.36-5.81,1.42-5.71,12.98,12.21,35.8,32.93,19.95,51.38-5.03,5.86-7.49,5.65-12.78,2.97Z"/>
    <path class="st138" d="M1216.4,977.06c-5.7.33-9.47,6.62-15.56,5.91-1.01-.12-1.79-10.62-17.03-5.47-6.33,2.14-1.32,16.4-18.85-1.84,14.34-13.58,37.92-12.26,51.44,1.39Z"/>
    <path class="st80" d="M1107.69,213.17c1.75,11.38-8.11-1.07-13.53-2.25-18.69-4.08-16.72,14.48-17.93,29.42l-2.87-7.14c4.57-38.32,2.42-54.2,34.33-20.03Z"/>
    <path class="st68" d="M1293.67,982.83c1.03,1.03-4.65,27.67-5.77,28.6-8.89,7.45-14.49-19.33-19.92-24.34,6.07-7.47,17.06-3.47,25.69-4.26Z"/>
    <path class="st31" d="M838.74,2639.43c-1.75,7.47,5.59,7.07,11.44,8.58-3.04,8.67-5.14,19.39-5.74,28.62-25.69-.32-11.03-21.84-5.7-37.2Z"/>
    <path class="st58" d="M1076.21,699.56c-.05.28,3.01,1.6,1.53,5.38-4.28,10.97-17.78,21.53-24.4,30.4-2.72,3.65-8.02,24.47-14.33,15.72,10.17-18.25,19.75-39.2,37.2-51.5Z"/>
    <path class="st106" d="M1256.42,1005.7c-3.33,2.42-19.89-14.44-19.89-15.73-.01-13.08,39.48-15.81,19.89,15.73Z"/>
    <path class="st90" d="M1218.24,980.4c12.64-2.36,20.19,19.01,4.98,25.15-12.73-1.54-17.61-22.79-4.98-25.15Z"/>
    <path class="st130" d="M1189.58,980.12c4.4-.76,12.21,9.69,15.17,13.11l-10.2,12.26c-11.65-1.35-17.1-23.29-4.97-25.37Z"/>
    <path class="st66" d="M1282.22,1031.46c-4.35-.95-6.66-11.6-9.14-13.53-3.28-2.55-20.55,2.98-25.19,4.95l18.46-19.97c8.83,8.43,18.83,14.42,15.88,28.55Z"/>
    <path class="st139" d="M1293.43,1076.97c-20.34,7.46-24.11-12.62-9.78-25.43,4.73,3.86,13.09,20.9,9.78,25.43Z"/>
    <path class="st20" d="M1173.46,1008.57c-4.91,4.99-14.41-17.41-15.08-20.74-3.11-15.44,16.25-.17,17.53,5.57.4,1.8-1.9,14.62-2.44,15.17Z"/>
    <path class="st110" d="M1479.64,911.29c-1.74,4.65-2.26,6.85,0,11.44-3.21,4.68-6.87,11.88-8.58,17.17-5.91-3.84-5.75-10.74-5.72-17.17s-.87-7.16,5.64-10.51l.08-3.8c2.61,1.77,5.53,2.34,8.58,2.86Z"/>
    <path class="st69" d="M1233.2,1057.64c3.25,1.86,10.23,14.92-1.09,16.85-21.97,3.74-9.3-22.8,1.09-16.85Z"/>
    <path class="st8" d="M1199.28,1054.35c2.03-1.59,23.38,19.19,9.94,22.86-12.11,3.31-13.41-15.72-9.94-22.86Z"/>
    <path class="st40" d="M1252.21,1057.23c9.19-2.71,17.42,14.25,8.33,16.96-14.94,4.46-16.01-14.7-8.33-16.96Z"/>
    <path class="st77" d="M1305.09,1000c5.13,5.27-11.17,23.57-14.28,19.99-1.19-1.37,6.4-28.1,14.28-19.99Z"/>
    <path class="st83" d="M1276.49,1403.41c-.1-1.61-2.88-4.45-2.86-5.72l14.28-11.44-11.42,17.17Z"/>
    <g>
      <path class="st91" d="M1536.86,742.48c8.37-8.59,15.36-11.58,20.96-8.99,43.65-12.05,90.84-15.38,135.7-4.8,30.54,4.65,28.28,11.61-6.76,20.89,26.78,14.83,76.11,42.57,90.83,72.14.73,1.46-4.9,4.16-8.23,3.26-17.08-6.83-33.22-9.46-48.4-7.88,19.39,23.09,65.75,101.98,58.91,129.63-1.16,4.69-20.03-9.03-22.9-11.13,3.8,14.47,6.67,29.18,8.6,44.14l-2.69,3.08c8.29,7.3-2.33,18.66-2.86,5.72-8.83,2.05-19.82-11.51-20.03-20.03-2.75-1.42-5.41-2.69-8.58-2.86-11.06,15.74-30.53,30.29-47.06,40.74-11.85,7.49-48.51,26.15-58.73,14.49-2.25-19.41-8-36.86-17.24-52.36-2.26.34-4.18.4-4.88-.49-24.42-31.07-11.16-26.82,1.19,2,6.95,16.21,17.5,45.15,6.55,58.57-13.19,24.49-36.03,34.72-62.95,31.47l-2.35,3.88c-10.97-1.13-21.63-2.43-31.98-3.88,9.6,5.61-1.46,11.05-9.73,12.25-30.44,3.16-58.63,12.49-85.23,28.41l-64,37.07c-34.39,19.06-71.91,25.94-109.38,12.55.07,13.7-3.59,23.67-18.33,14.55l-22.05-15.47c-5.23,8.55-10.67,9.76-17.45,2.2-11.8-16.6-21.83-34.02-25.74-54.35,20.65,11.55,40.82-3.07,61.8-5.44,47.64-5.37,92.14,20.8,134.72-2.62,42.86-23.58,57.58-47.26,113.95-52,41.98-3.53,125.78,20.08,107.38-50.24-8.51-32.52-56.7-104.27-83.07-125.8-22.83-18.64-53.19-24.19-77.28-4.29,7.58-1.64,15.22-1.97,22.89-2.83l.88,6.11c-24.95,21.59-49.07,44.47-72.37,68.67-51.12,48.4-121.84,31.67-182.85,13.14l-6.02-7.8c.03-1.67-.71-3.9.39-5.23,1.01-1.22,23.09-8.99,29.09-12.5,30.59-17.87,52.59-35.72,47.82-75.33-2.38-19.79-19.14-25.73-36.5-29.29-30.56-6.27-61.92-2.71-92.31,2.15,10.94-16.85,26.88-24.23,45.78-28.58.56-8.2,12.87-10.62,17.17-2.86,5.21-2.18,9.02-2.18,11.44,0,15.1-2.74,30.69-2.87,45.78,0,11.16-6.35,33.53,2.24,45.78,8.58,14.53-5.45-10.86-14.09-20.1-16.96-27.6-8.56-58.14-6.91-84.78,3.98-6.93,1.66-8.94.1-6.7-7.05,16.41-11.97,22.4-13.14,40.06-20.03-.27-9.71,14.38-16.12,20.03-5.72,25.16-9.44,55.13-17.94,82.97-11.44,7.68-11.37,47.3,15.27,30.75,21.01-6.58-3.7-49.19-5.74-48.15.69.28,1.75,1.68,3.07,3.1,4.04,18.79-6.69,44.42.17,63.34,8.26l-.39-2.54c-7.39-4.16-2.11-13.33,5.72-11.44,21.2,13.61,57.92,22.51,82.97,20.03,6.27-6.15,15.22-10.51,26.84-13.08l38.27-21.81,6.41,3.42Z"/>
      <g>
        <path class="st23" d="M1442.44,854.07c3.11-.35,13.74-6.97,17.15,2.83-51.66,24.24-69.37,96.44-126.5,112.42-23.1,6.46-45.48,4.59-69.11,1.7-15.5-1.89-58.26-9.16-71.29-14.55-6.28-2.59-10.73-15.9-10.61-22.29,37.97,11.57,81.39,23.79,121.55,19.98,53.05-5.03,82.98-51.12,118.71-84.43l20.11-15.66Z"/>
        <path class="st75" d="M1382.36,753.93l-5.72,11.44c-21.99-7.5-42.97-9.41-62.95-5.72-5.92-.32-14.68,2.04-17.16-5.69,20.59-3.39,39.33-7.95,60.07-2.91,1.47-7.4-1.58-5-5.58-7.15-5.48-2.96-17.22-8.07-23.02-10-24.74-3.73-49.81-1.23-75.2,7.5l-2.05-1.78c-3.11-.58-7.22-2.34-7.09-5.75.37-9.8,54.27-17.48,64.31-17.14,9.97,2.2,42.62,5.58,45.81,7.12,2.47,1.2,21.06,25.24,28.58,30.07Z"/>
        <path class="st102" d="M1184.94,771.09c2.45,5.37,9.25,1.39,12.99.13,45.13-15.23,89.12-9.09,124.39,24.14,2.28,2.15,8.83,6.87,4.27,10.04-8.66-6.95-19.73-10.96-30.06-14.29-30.85-14.65-69.72-18.69-103-8.58-7.57.56-10.19,1.26-17.17,2.86l-5.71-4.28c4.15-4.2,9.62-6.62,14.29-10.03Z"/>
        <path class="st75" d="M1247.88,739.62c.77,1.79-.18,3.7-2.86,5.72-.42.11-1.34,4.2-4.22,3.03-2.12-10.39-5.45-1.35-15.81,2.69-6.54-8.54,2.74-12.64,8.58-17.17,2.85,2.42,11.1,5.48,14.31,5.72Z"/>
        <path class="st2" d="M1576.92,670.95c13.24,11.69-22.35,57.81-20.01,60.07,46.2-13.08,95.65-16.72,142.42-3.66,9.88,2.76,22.48,5.92,29.18,13.68.03,4.8-24.68,5.92-29.98,7.21-4.33,1.05-5.03-2.03-4.31,5.65,3.71-.11,7.88-.15,11.24,1.59,20.06,10.41,68.8,48.64,77,69,1.48,3.67,2.33,7.34-3.73,6.64-16.62-1.93-34.91-14.8-53.05-12.81,27.87,36.82,51.94,80.47,57.25,127.29.16,1.44,5.76,11.51-1.43,11.39-1.36-.02-17.82-15.23-18.57-14.25,1.88,13.42,5.08,26.4,5.69,40.06-.91,7.6-3.54,7.27-5.72,0-.7-20.74-10.12-41.06-17.15-60.07,4.09-4.23,26.68,20.49,31.43,22.87-5.94-40.25-23.37-81.19-48.67-112.95-5.75-7.22-27.49-21.49-7.46-21.28,17.74.19,35.65,9.71,53.29,9.79-26.59-32.56-61.12-60.09-102.97-70.15l12.04-6.5,30.84-7.74c-46.44-13.58-90.58-14.79-137.96-4.96-9.01,1.87-31.76,7.47-39.42,10.65,19.79-24.18,32.92-40.05,40.06-71.53Z"/>
        <path class="st70" d="M1608.39,968.51c35.72,81.35-15.61,124.34-94.42,91.56,0-.28-3.21-.9-2.89-2.81,12.91-.45,23.93,3.41,37.23,2.81,27.72,3.05,49.45-6.94,62.95-31.47,3.95-28.45-8.83-57.66-22.85-81.6-.52-8.51,3.24-2.16,5.25.49,5.01,6.6,10.04,14.17,14.74,21.03Z"/>
        <path class="st104" d="M1531.11,859.79c-17.88-14.99-42.64-34.47-67.22-34.55-8.08-.02-18.58,3.47-27.13,4.57-3.03.39-9.24,4-8.6-1.46,36.9-17.44,71.37-9.41,97.27,21.41,2.7,3.21,6.94,4.65,5.69,10.02Z"/>
        <path class="st95" d="M1611.25,1028.6c-3.96,28.53-38.37,40.51-62.95,31.47,10.14-.46,30-6.1,39.21-10.86,11.14-5.75,12.59-17.41,23.74-20.61Z"/>
        <path class="st15" d="M1296.52,791.12c-17.25-5.54-27.63-7.59-45.78-8.58-15.04-2.87-30.71-2.73-45.78,0-3.79.16-7.67-.28-11.44,0,28.11-13.91,63-9,91.65,1.33,4.41,1.59,9.53,1.84,11.35,7.25Z"/>
        <path class="st30" d="M1376.63,765.37c1.57.72,27.81,12.5,15.79,14.26-25.94-19.21-48.7-18.37-78.74-19.99-5.12-7.83-2.75-5.35,4.24-5.71,22.57-1.17,38.52,2.18,58.71,11.43Z"/>
        <path class="st89" d="M1327.99,733.9c-29.23-2.85-55.21,4.32-82.97,11.44-6.41-2.14-.36-2.84,2.86-5.72.92.07,1.93.05,2.86,0,30.62-1.68,38.3-18.65,77.25-5.72Z"/>
        <path class="st136" d="M1768.61,982.82c.3,6.63-.19,13.38-.02,20.01-4.17,4.71-16.61-15.21-8.57-14.29.46.05,1.5,2.52,2.8,2.9.06-2.85.15-5.75.06-8.62h5.72Z"/>
        <path class="st102" d="M1250.74,782.54c-14.35-.78-31.36-.61-45.78,0,12.2-4.83,34.18-4.76,45.78,0Z"/>
      </g>
    </g>
    <g>
      <path class="st1" d="M1227.71,865.43c-3.42,2.51-14.98-8.7-24.43,2.72-6.55,7.92-3.67,16.39-4.06,25.96-8.55-5.81-52.4,4.83-54.34,2.89-1.09-1.08-.01-21.37-10.34-28.31-13.84-9.31-19.4,9.59-23.98,5.4-7.28-31.71-4.02-44.53,27.84-50.82,23.63-4.67,61.41-5.05,85.08-.59,17.17,3.23,8.65,39.51,4.23,42.76Z"/>
      <path class="st98" d="M1119.14,836.92c22.46-6.28,46.76-7.65,70.2-5.85,5.54.43,28.73,2.11,27.06,10.08-2.05,9.76-81.19,9.15-92.28,3.64-3.89-1.93-5.9-3.01-4.98-7.87Z"/>
    </g>
    <g>
      <path class="st16" d="M1714.25,161.67c16.27-3.43,20.65-3.27,30.91,9.73,13.42,17,26.9,64.88,31.83,87.22,5.68,25.7,10.74,53.17,14.5,77.58,3.07,36.85,4.23,60.64-2.86,97.28-2,39.19-17.32,76.47-33.29,110.6,8.88,2.62,12.71,6.2,14.11,15.67,23.84-13.67,48.36-26.52,75.12-30.7-18.37-13.18-30.98-29.25-37.81-48.2l4.76-4.45c24.66,16.13,44.29,41.14,65.75,61.69,3.3,3.16,14.17,5.18,6.95,10.01-11.02,7.37-33.24,5.13-44.97,8.43-3.25.91-1.72,5.54-1.97,5.69,9.42,11.6,23.85,24.41,36.79,34.95,22.28,18.15,50.03,39.07,77.66,45.16,1.09.7,1.86,2.05,2.86,2.86-.04,2.39-.33,4.42-1.48,5.22-20.03,14-44.68,19.87-68.38,23.26,2.97,2.18,4.96,4.33,4.06,8.71,12.54,4.22,20.86.63,29.7,2.72,3.5.83,1.22,5.18,1.77,5.86l-2.14,4.96c20.52,30.38,54.53,67.9,85.12,80.88,3.72,3.28,8.45,5.71,11.43,10.03.17,2.98-4.64.66-5.71,1.42-32.46,16.62-65.97,10.5-99.7,2,14.86,18.81,35.18,32.34,56.99,42.13l2.65,7.37c12.59,7.2,31.67,28.95,28.61,42.92-11.16,7.21-33.82-11.45-41.49-20.03-.27,2.22-.92,5.54-2.5,5.72-6.32.75-47.25.77-49.99-1.91-.95-.93-1.47-2.31-1.86-3.81,3.12,6.71-2.58,10.32-8.69,7-3.72-2.02-18.43-32.13-20.6-38.71,2.76-2.52,3.68-5.27,2.11-8.35-13.35-25.96-25.5-50.8-45.86-72.88-12.73-13.81-28.01-24.56-42.81-35.84-4.5,5.12,17,18.37,19.98,21.47,9.29,9.65,67.3,79.08,60.08,87.24-17.52-4.29-36.8-4.61-54.33.04-1.96,2.69,17.82,27.32,20.58,32.31,16.67,30.19,28.86,68.15,33.76,102.12-1.89.14-3.81-.07-5.71,0-23.64-6.29-48.13-8.12-73.48-5.5l-3.77-5.94c-12.38-42.85-27.03-87.56-58.25-122.08-5.64-8.35.35-9.83,8.75-7.98,14.32,4.36,28.63,7.5,42.93,9.41,8.61-7-56.01-60.49-68.87-64.28-32.12-10.38-16.77-16.21,6.79-19.2,13.28-6.62-32.97-15.73-39.01-16.33-41.23-4.12-79.39-3.55-119.51,8.86l-2.32-3.39c13.36-19.01,21.19-38.91,23.49-59.7l-3.39-2.32c.42-13.14-3.05-24.45-13.03-34.23l2.12-6.37c8.27-17.27,36.56-18.64,54.36-14.31,1.97.75,5.56.09,8.54,1.37,3.84,1.65,18.56,11.74,20.06,10.06-3.02-23.2-19.16-49.24-37.33-64.26-3.51-2.9-20.62-6.79-7.02-10.06,6.08-1.46,13.97-1.51,20.06-2.97,13.55-3.26-10.25-12.24-15.06-13.52-24.71-6.54-59.28-5.43-83.63,2.12-3.54-4.19,16.49-18.9,10.02-25.72-38.22,11.04-65.54,34.28-94.47,60.03-5.71-1.45,10.48-30.16.06-25.71l-77.31,68.62c-4.74-6.92,10.34-37.15-2.79-34.3-3.63.79-23.51,25.47-26.73,30.53-3.77,5.94-13.54,31.22-14.85,32.42-.97.89-10.61-8.37-8.55,2.83-1.2,10.66-11.25,4.58-11.92-4.85-5.24-1.03-8.99-3.47-11.24-7.31-6.41,4.55-12.99,8.6-19.75,12.17-11.35.37-7.79-19.19-12.89-25.92-3.01-3.97-8.18,1.11-9.66.06-1.59-1.13-13.58-26.99-19.17-33.98-12.84-16.04-23.67-29.53-22.64,2.61-7.35-3.09-8.41-14.11-12-17.33s-25.24-15.58-30.4-17.52c-17.64-6.64-32.3-5.87-50.58-3.75,44.98-72.51,105.41-165,188.82-196.01,25.45-5.99,51.35-9.53,77.68-10.62,24.93,2.64,25.83,2.1,19.24-18.62l2.54-2.64,83.7,13.63c6.47-.03,9.88-14.22,2.81-13.22-3.57.45-5.37-11.07-8.56-12.89-2.46-7.55,59.26,20.48,62.92,21.52,2.5,3.31-23.58,30.83-19.99,40,4.44-.04,15.17-25.22,19.99-19.99.92.99-8.12,23.46-.02,25.72-.07-5.88,1.24-11.57,2.89-17.15,32.55-37.05,65.93-74.25,100.14-111.59,17.78-21.53,53.91-72.15,74.39-85.83Z"/>
      <g>
        <path class="st127" d="M1788.64,433.48c6.08,30.33-10,63.26-20.02,91.54l20-20-5.74,41.44c.53,3.66,5.15-1.77,5.79-2.8,12.33-19.95,1.03-58.39,8.58-81.57,5.52,3.14,11.2,8.77,14.28,14.3,1.24,2.23.59,8.11,4.41,14.16,11.27,17.85,30.33,30.56,44.23,45.89-16.13-1.63-29.05,1.2-44.13,5.97-17.82,5.64-36.47,20.82-51.78,25.49-8.51,2.59,1.83-8.24-2.58-14.46-2.86-4.04-11.43-2.51-15.95-2.68l22.91-47.16c7.01-23.1,15.4-46.4,19.99-70.13Z"/>
        <path class="st28" d="M2008.95,788.26c-21.31,15.05-36.49,27.42-65.81,22.92,4.87,9.34,16.77,7.59,25.64,12.96s10.17,13.11,14.42,18.49c-1.68,6.78-6.45,5.83-14.31-2.86-14.75-6.07-31.9-15.67-44.29-25.81-4.77-3.91-29.16-26.12-24.36-31.4l55.66,11.54,53.04-5.83Z"/>
        <path class="st57" d="M1296.52,353.36c22.05-8.2,55.11-13.07,78.69-14.56,5.21-.33,11.9,3.41,14.26,3.11,11.11-1.42-10.93-21.68-12.83-25.72,32.14,1.03,67.55,11.88,98.82,14.25,9.38.71,7.14-.5,7.04-8.55.94-.12,3.09-3.86,5.69-2.87l2.88,22.89-94.39-17.14,11.42,22.86c-25.52.22-50.06-3.33-75.59.23-10.49,1.46-25.51,11.25-35.98,5.5Z"/>
        <path class="st55" d="M1837.28,562.23c30.88,7.46,54.82,38.62,80.41,58.36,11.09,8.56,22.5,14.33,34.04,21.75-2.97,5.63-9.31,2.16-13.5.64-45.65-16.65-74.67-47.51-109.52-79.33.72-3.29,6.97-.45,8.57-1.42Z"/>
        <path class="st142" d="M1791.5,336.2l-2.88,7.15c-.93-17.05-3.14-36.56-6.96-53.1-3.19-13.81-9.51-34.67-13.86-49.08-6.19-20.47-19.63-69.73-40.04-77.4-4.56-1.71-10.76,2.66-13.51-2.1,27.62-18.46,36.2,5.95,46.29,29.53,18.93,44.2,27,97.51,30.96,145Z"/>
        <path class="st62" d="M1920.25,690.98c25,31.07,53.16,59.53,82.97,85.83-3.29,5.82-8.78,2.57-13.01.12-7.4-4.29-33.08-25.34-39.62-31.9-15.5-15.54-28.71-39.43-44.63-55.51l14.29,1.45Z"/>
        <path class="st96" d="M1639.86,247.5c-27.32,33.07-53.13,66.55-82.9,98.78-4.66,5.05-9.92,11.93-17.24,12.81,8.79-29.74,16.64-26.6,35.84-45.7,21.82-21.72,41.97-44.81,64.3-65.88Z"/>
        <path class="st61" d="M1888.78,682.4c-5.48-1.84-11.04-5.23-15.84-8.35-1.23-.8-10.26-1.39-4.17-5.94.89-.67,13.78.38,18.24-.36,23.42-3.89,46.98-10.49,67.58-22.54,1.64,1.33,4.42,1.98,5.67,4.29-21.12,18.22-44.88,26.29-71.47,32.9Z"/>
        <path class="st32" d="M1983.2,842.62c13.74,17.41,18.34,23.59,25.75,45.78l-1.42,2.81-10.03-8.54-28.61-42.92c4.24,1.74,9.7,2.38,14.31,2.86Z"/>
        <path class="st17" d="M1373.77,522.2l-57.19,57.19c7.71-26.51,31.36-48.44,57.19-57.19Z"/>
        <path class="st92" d="M1262.16,590.83l-21.62-36.99-18.39-23.07c23.53,10.29,38.93,34.38,40.01,60.06Z"/>
        <g>
          <path class="st25" d="M1754.34,467.8l-5.73-14.28c-2.29,8.01-6.29,54.83-8.64,57.21-5.62,5.69-5.79-8.91-8.52-5.7-3.19,3.74-5.94,15.19-14.32,17.14-.45-3.24,2.67-6.78,2.21-9.67-.68-4.2-54.3-51.01-62.28-57.6-8.67-7.15-37.88-31.64-45.99-34.31-4.5-1.48-7.13,1.03-11.25,1.43l8.55-20c-27.51,11.2-30.56-.55-48.57-18.62,24.5-17.86,46.86-39.18,65.7-63,16.47-20.82,78.03-127.57,96.07-130.22,15.11-2.22,24.65,24.27,29.19,36.55,20.46,55.43,29.2,176.43,10.16,231.94-1.24,3.61-2.04,8.36-6.57,9.12Z"/>
          <path class="st63" d="M1760.03,324.75c7.4,19.87-7.54,31.91-9.65,5.76l-8.27,43.29c-3.5,6.54-8.58,6.3-14.61,1.97-2.26-43.43-10.36-92.72-16.64-130.9,2.95,1.51,2.09,5.56-2.34,5.49l-45.76,84.42c6.43,4.2,29.73-20.78,31.43-18.62-5,25.21-17.41,50.76-34.29,70.11,5.33.81,18.37-4.74,22.88-7.17,1.52-.29,2.96-.4,4.09.14,8.06,3.79-25.62,43.11-31.4,46.74l1.56,7.48c4.47,2.65,7.16,6.96,14.29,5.75-16.2,21.95-37.54-19.46-56.83-23.34-5.66-9.68,27.08-28.56-11.8-23.88,12.8-24.64,23.33-50.53,36.69-74.9,16.29-29.72,43.5-75.68,64.79-101.16,22.76-27.24,26.74-18.24,38.02,10.78,10.68,27.48,18.08,68.7,17.85,98.03Z"/>
          <path class="st111" d="M1708.53,250.36c.34-1.43-.91-14.87,5.68-8.57,1.35,1.29,6.8,31.02,7.85,36.53,5.9,31.03,9.58,63.53,9.37,95.06,8.39,1.43,4.62-2.03,6.05-6.66,5.98-19.27,8.3-41.77,8.27-62,8.84,8.29,10.91,25.93,11.44,37.18,5.25-.55,2.8-13.11,2.83-17.15,4.75,2.98,2.85,10.86,2.91,15.7.42,34.16-.11,67.92-5.79,101.6l-14.27-5.7c-1.93,24.28-8,46.24-17.22,68.65l-60.04-52.94c12.96-7.87,29.25-21.09,2.86-20,16.27-19.85,33.42-43.74,34.3-70.1l-22.87,8.54c5.17-8.55,28.36-60.15,22.87-65.76-9-1.62-13.04,6.29-18.6,11.42-.98-9.83,9.07-21.97,13.39-32.39,4.93-11.9,7.91-20.83,10.95-33.4Z"/>
          <path class="st54" d="M1657.03,433.48c-2.28-1.35-9.96-.63-8.54-7.06,1.78-8.01,41.38-32.32,34.29-47.3,1.97-1.06,10.37-9.91,11.42-8.58-3.86,25-21.56,44.42-37.17,62.95Z"/>
        </g>
      </g>
    </g>
    <g>
      <path class="st118" d="M1130.57,1792.53c23.53,125.79,53.31,368.9,227.46,369.33,143.03.36,155.38-162.68,167.38-266.33l3.39-12.99c29.63,3.83,55.92-1.12,82.5-15.42l69.23-37.92c18.37-5.76,18.64-2.94,15.05,14.79-10.62,52.53-35.49,106.01-63.82,149.58,19.77-14.8,29.14-7.4,44.31,9.06,61.18,66.36,106.41,147.57,144.04,227.65,10.17,33.93,18.7,70.3,17.17,105.86-24.52,71.15-87.4,94.35-151.39,52.19,3.61,20.64-25.03,8.63-36.37,3.24-65.43-31.08-111.43-88.62-152.72-146.99-1.51-2.95-4.44-5.71-5.72-8.58l-7.24-2.47c1.51,11.15.45,21.76-13.27,16.46-62.81-21.74-127.05-38.3-192.74-49.66-11.06,43.07-30.3,84.24-57.74,123.53-3.14,6.12-14.58,29.28-15.51,33.99-1.25,6.29,10.54,23.36,14.66,28.77l56.7,65.36c4.89,6.7,6.18,12.97,4.54,21.03-2.98,14.61-70.19,101.27-82.12,105.79-2.26.86-10.46,1.23-12.09,0,.9-8.89.45-17.29-1.34-25.22-12.69-4.31-27.16,9.02-40.04,8.57,5.35-33.09-11.21-37.28-40.07-37.21,11.4-13.39,26.96-22.95,40.06-34.31l8.42-4.69c21.41-4.59,44.5-11.1,60.82-25.95-56.84-19.21-105.65-53.89-143.11-98.74,10.82,16.01,11.1,25.35.83,28.02-4.13,1.1-69.32-24.94-75.73-33.11-1.46-1.72-3.55-2.51-5.72-5.72-2.69-5.71-2.6-11.47-1.8-17.54,15.8-119.31,68.21-221.82,124.85-320.76-.43-3.94-.21-14.78,1.68-8.87.58,1.82-1.63,2.18-4.57.97l8.55-17.16c4.84,18.34,14.16,35.9,24.37,51.48,2.25.41,1.61-2.52,1.48-4.31-2.07-29.53-23.69-87.22-30.64-121.03-5.78-28.09-14.82-66.97-15.2-94.95l-.97-21.45c1.15-2.4,30.58-12.68,32.44-4.3Z"/>
      <path class="st53" d="M1139.16,1798.25c-1.4-5.94-1.35-11.56.15-16.89,34.02-10.93,67.48-23.78,100.37-38.56,21.94-8.12,44.23-1.27,66.89,20.54,60.79,43.99,115.61,82.7,187.18,107.03,22.48,3.19,26.95,6.73,23.08,28.02,4,113.58-45.46,283.66-191.71,250.36-105.67-24.06-144.36-142.27-165.04-235.52-6.66-30.02-19.98-86.3-20.93-114.98Z"/>
      <path class="st52" d="M2100.51,1761.05c1.7-2.14.7-4.14,5.71-2.85-2.87,17.7,14.37,149.28,30.06,148.71,22.51-30.66,51.59-57.03,87.26-71.45-10.35,25-13.63,51.49-17.88,77.93-.53,3.27-5,6.03-5,6.44v52.93c18.72-3.43,34.98-20.84,54.35-25.74,5.59,6.19-36.5,92.79-42.9,105.85-11.51,15.97-24.64,30.38-39.38,43.22,11.51,12.14-6.76,28.17-17.08,36.06-29.89,22.81-68.15,36.17-105.06,40.54-2.73,5.07-4.52,6.66-9.39,9.24-4.11,2.18-53.7,1.17-61.23-.02-67.49-10.66-122.71-33.65-171.23-83.59-9.43-9.7-49.01-63.99-43.07-73.47.8-1.28,1.85-2.39,2.98-3.46,26.64,6.98,49.14,11.13,77.25,8.58.5,1.71,1.07,3.08,1.89,3.26,26.27,5.57,77.85-18.61,101.59-31.56,4.13-1.66,7.55-1.16,9.42,2.53-5.83,28.66,28.15-.25,38.01-9.77,24.15-23.33,47.5-53.8,54.72-86.93l6.09-3.42h5.72c12.58-47.33,24.98-95.02,37.2-143.06Z"/>
      <path class="st132" d="M2343.71,1738.16c-18.82,59.36-15.6,128.31-14.42,190.39.18,9.62,4.53,17.58,2.85,28.32-1.31,8.36-13.75,24.71-18.76,32.79-2.81,4.53-8.17,6.55,1.72,6.01l2.49,6.58c-6.89,20.16-14.59,39.9-23.09,59.22,28.02-31.62,43.94-61.55,59.47-101.79,2.58-5.39,5.21-5.5,9.77-1.21-10.14,86.19-59.77,201.55-132.97,251.85-6.37,4.38-31.85,15.65-32.97,17.14-4.6,6.14,15.54,11.4,18.59,11.4h47.21c-74.01,63.28-178.78,70.34-271.8,57.24-3.27,2.73,11.83,16.48,14.26,18.62,6.14,5.4,23.45,12.76,18.6,18.6-38.87-2.61-73.98-11.83-109.2-28.14-16.32-7.56-64.95-33.43-71.71-48.46s-11.48-41.88-17.85-59.4c-2.58-7.11-9.64-15.78-7.23-21.38,23.07,16.51,69.67,59.62,97.38,62.9,4.34.51,4.96.33,4.25-4.26-1.04-6.74-15.77-33.87-11.47-38.61,21.42,9.18,40.88,22.11,63.05,29.91,14.82,5.21,68.54,19.38,80.97,15.41,14.54-4.65-12.99-20.87-15.28-28.14,21.36,3.48,42.67,7.19,64.49,5.81,4.45-.28,55.67-7.63,47.09-17.26-14.19-2.35-29.33-5.27-42.88-10.1-2.75-.98-6.57-.32-5.73-4.19,69.83-9.53,141.8-57.28,157.33-128.77-3.6-3.8-42.01,25.8-51.47,18.6,17.61-29.44,34.07-62.11,45.81-94.39,2.21-6.07,14.36-40.45,14.17-43.01-.44-5.81-8.53-2.07-11.36-1.39l-1.97-12.18c10.58-41.26,52.72-171.57,85.01-192.35,1.33-.86,4.18,2.08,5.66,4.25Z"/>
      <path class="st3" d="M2255.01,1938.45c-16.66,4-30.42,16.08-45.75,22.89-3.39-46.53,12.23-90.1,22.85-134.46-40.18,6.76-71.12,39.32-97.23,68.65-7.61-27.61-23.04-72.22-15.85-100.21,2.99-11.65,22.11-36.63,30.24-47.01,64.89-82.82,171.11-128.17,274.55-136-35.88,35.15-64.81,77.59-80.11,125.86-6.82.08-12.86,11.7-16.16,16.75-36.49,55.85-51.43,121.35-72.54,183.53Z"/>
      <path class="st115" d="M1491.08,2236.01c-12.3,11.1,23.79,46.01,4.33,45.83l-184.56-65.85c-5.38,5.13,32.52,26.18,36.26,28.08,7.29,3.71,42.08,15.78,43.81,19.15,2.48,4.81-3.5,4.53-5.73,5.53-16.21,7.24-30.51,13.4-45.5,23.29-17.08,11.27-65.21,52.52-68.42,72.01-4.78,29.06,69.24,96.76,67.87,104.73l-127.03,136.3c3.25-29.98-24.63-20.35-27.18-22.86-1.07-1.05.78-23.73.01-28.63,5.84,1.98,1.74,17.8,2.88,22.87,2.85.65,3.71-.22,5.75-1.37,13.88-7.83,64.42-73.16,73.84-89.26,6.44-11.01,12.25-17.51,4.64-29.38-15.8-24.64-72.42-71-73.11-99.04-.12-4.8,15.5-27.68,15.93-35.71,16.11-27.89,35.49-59.77,47.88-89.46,4.83-11.58,11.94-27.21,8.04-39.16,70.56,14.36,141.82,27.75,208.84,54.33,1.93-2.02-8.95-46.65-9.66-54.97-.36-4.17-2.01-6.43,3.92-7.96,3.36,18.01,9.78,34.86,17.2,51.49Z"/>
      <path class="st59" d="M1525.41,1895.53c.88-7.56,5.72-49.51,7.04-51.77,1.59-2.72,7.04.49,11.56-2.3,5.61-3.46,15.08-18.29,20.06-20.3,6.15-2.48,7,19.13,12.79,21.53,3.99,2.79,7.36,1.28,11.36-.17,7.27-2.63,38.12-31.81,49.16-39.6,39.53-27.89,84.3-49.29,125.26-75.02l74.63-49.8c-21.52,32.59-48.22,62.18-69.84,94.64-41.78,62.73-67.71,124.97-73.26,201.41,10.15,6.72,4.67-12.21,11.46-12.82,4.95,50.56,37.67,92.59,58.82,137.19,19.66,41.46,42.56,88.07,55.66,131.75-6.4,1.46-8.46-8.84-10.81-13.49-36.31-71.77-88.64-160.8-145.08-218.29-19.11-19.46-25.93,5.49-47.23,8.6l39.15-65.25c15.5-36.34,25.66-74.65,38.07-112.11-33.05,12.27-62.56,36.19-95.24,49.22-25.01,9.97-40.02,13.01-67.11,8.52-6.2-1.03-2.51,5.23-6.44,8.06Z"/>
      <path class="st107" d="M1768.61,2021.42c5.29,19.87,20.75,43.01,33.21,59.77,36.17,48.63,114.13,88.83,174.24,94.71,12.08,1.18,55.44,2.26,65.65.22,3.25-.65.51-7.26,1.74-8.45.68-.65,12.82-.67,17.15-1.61,35-7.61,75.72-20.98,101.39-47.39,20.24-20.82,1.66-17.86,1.51-21.43-.12-2.87,18.1-15.13,21.47-18.53,8.88-8.96,15.55-22.3,27.11-25.82-5.29,10.79-16.04,20.8-14.29,34.32,17.96,2.06,31.99-10.75,48.61-14.28-25.87,68.57-95.04,99.84-163.06,111.61l19.29,13.57,23.61,9.25c-34.64,7.6-68.55-.17-102.97-2.82-2.43,12.24,13.75,14.52,14.28,25.72-21.74.52-45.73-5.07-66.24-12.42-24.82-8.89-46.05-26.01-71.07-33.33.07,6.91-.75,13.9.66,20.77.56,2.74,13.75,26.1,3.66,22.1-31.87-21.31-73.08-40.56-95.42-73.4-7.57-11.12-9.94-25.12-15.54-35.96-14.29-27.66-43.69-72.03-52.99-98.66-.71-2.04-1.93-6.61.86-6.58,9.06,2.62,18.05,6.24,27.14,8.63Z"/>
      <path class="st49" d="M1496.8,2244.59c42.77,45.59,83.41,103.17,139.27,133.97,12.09,6.66,33.64,16.61,46.69,16.26-2.92-6.89-14.79-13.6-10.01-21.46,25.16,17.32,66.72,37.59,97.44,28.73,30.18-8.7,49.32-42.72,67.1-65.94-1.99,46.3-22.62,89.28-42.85,130.2.06,3.8,3.23,3.92,7.09,1.43,7.04-4.54,10.61-14.69,17.17-19.99,2.47-.03,15.64,39.47,18.6,45.72,4.28,14.03-3.95,17.85-24.69,11.47-48.96-.55-84.8,12.98-60.94,68.12l-3.07,6.25c-2.05,2.28-10.6,18.59-14.29,14.32-3.8-19.04-9.19-41.95-15.82-60.03-7.71-21.05-26.61-48.65-32.8-67.35-.61-1.84-.56-4.85,1.37-4.22.45,3.13,29.84,18.17,24.32,7.17-43.76-37.48-91.46-73.02-131.67-114.41-31.81-32.74-62.25-69.94-82.9-110.23Z"/>
      <path class="st51" d="M1837.28,2493.51c4.38,9.26,36.56,60.79,33.98,65.38-.43.77-11.53,6.31-12.55,11.86-5.8,1.77-3.24-3.43-6.33-5.68-9.28-6.77-21.62-13.69-33.59-11.46-11.68,2.18-17.43,21.35-23.38,22.51-15.14,2.97-15.61-31.44-46.83,3.22-8.18-12.55-12.47-44.15-7.09-57.16,4.13-9.99,38.09-21.43,48.93-22.59,7.49-.8,15-.54,22.51-.33,10.86.31,20.12,9.88,24.34-5.76Z"/>
      <path class="st135" d="M996.1,2356.18l80.1,28.6c-2.2-8.98-8.55-11.75-10.74-22.13-.65-3.07-3.2-14.99,3.56-12.16,2.61,1.1,31.09,34.94,38.63,41.49,31.52,27.4,74.46,52.55,114.48,64.36,5.63,6.1-28.23,22.24-31.91,23.86-14.96,6.58-28.42,12.83-45.34,10.45,4.61-4,11.67-16.04,17.22-18.55,11-4.97,33.75,3.2,42.87-10.04-12.45-.47-24.98,1.2-37.37-1.28-38.46-7.72-146.46-75.05-171.5-104.61Z"/>
      <path class="st105" d="M990.38,2350.45c-.43-.63-3.4-.98-4.26-2.87-7.9-17.3,10.62-93.3,16.52-115.06,20.11-74.23,64.06-165.01,107.91-228.28,1.64-2.37,2.56-6.35,5.69-5.7.57,4.34,3.19,8.36,3.02,12.9-.48,12.89-32.32,58.22-40.67,73.86-44.01,82.45-75.12,172.46-88.2,265.15Z"/>
      <path class="st65" d="M2057.59,1904.11c-2.34,38-48.66,91.54-80.53,109.74-7.89,4.51-15.82,9.17-25.32,7.55l4.29-17.14c-43.59,27.68-96.49,37.27-147.35,31.43-.68-4.97,6.5-2.72,9.95-2.84,7.57-.26,15.09.56,22.66-.22,2.28-.24,3.93-2.55,4.57-2.63,6.46-.84,12.72.13,20.18-1.28,41.95-7.94,78.24-27.58,107.16-58.79.86,13.31-8.97,27.16-12.32,39.2-.97,3.49-1.73,8.82,3.68,6.54,3.26-1.37,31.75-25.59,35.87-29.95,27.83-29.47,45.49-75.36,45.74-115.93,4.7,2.56,8.42,15.8,9.41,20.67.99,4.88,2.34,8.22,2.01,13.65Z"/>
      <path class="st120" d="M2363.73,1958.47c-5.86,1.91-6.26,5.52-8.42,10.18-8.11,17.53-13.8,37.01-23.51,53.75-6.33,10.91-43.19,57.94-52.52,61.94-3.46,1.48-5.55-.78-4.22-4.22,2.36-6.11,14.29-19.21,19.09-29.57,8.21-17.73,10.22-40.34,20.93-54.89,7.21-9.79,20.27-20.03,28.55-30.1,7.76-9.43,12.38-21.51,21.53-29.97.88,7.15-.59,15.64-1.44,22.87Z"/>
      <path class="st97" d="M1130.57,1792.53c-4.85,2.18-30.02,7.28-31.1,8.96-1.37,2.14-.43,12.77-.37,16.79l-10.98-79.67c6.71-1.29,28.1-16.35,32.54-9.14,3.21,5.22.6,19.29,1.7,26.93,1.81,12.68,6,24.28,8.22,36.13Z"/>
      <path class="st79" d="M2100.51,1761.05c9.48,20.91-7.34,42.78-12.86,62.96-7.68,28.04-10.85,57.19-21.47,84.37-3.56,4.53-3.06-2.21-2.86-4.27,2.67-27.83,21.44-123.26,37.2-143.06Z"/>
    </g>
  </g>
</svg>
